<?xml version="1.0" standalone="no"?>
<!DOCTYPE svg PUBLIC "-//W3C//DTD SVG 1.1//EN" "http://www.w3.org/Graphics/SVG/1.1/DTD/svg11.dtd" >
<svg>
<metadata>
Created by FontForge 20120731 at Tue Oct 14 03:09:25 2014
 By Orthosie Webhosting
Copyright (c) 2014 by . All rights reserved.
</metadata>
<defs>
<font id="EGGIndulekhaUni-Bold" horiz-adv-x="243" >
  <font-face 
    font-family="EGGIndulekhaUni"
    font-weight="700"
    font-stretch="normal"
    units-per-em="1000"
    panose-1="2 0 4 0 0 0 0 0 0 0"
    ascent="800"
    descent="-200"
    x-height="314"
    cap-height="478"
    bbox="-516 -546 2416.16 1473"
    underline-thickness="30"
    underline-position="-369"
    unicode-range="U+0020-F8FF"
  />
<missing-glyph horiz-adv-x="500" 
d="M438 650v-650h-375v650h375zM375 587h-250v-524h250v524z" />
    <glyph glyph-name=".notdef" horiz-adv-x="500" 
d="M438 650v-650h-375v650h375zM375 587h-250v-524h250v524z" />
    <glyph glyph-name="NULL" unicode="&#xb7;" horiz-adv-x="0" 
 />
    <glyph glyph-name="nonmarkingreturn" unicode="&#x201a;" horiz-adv-x="270" 
 />
    <glyph glyph-name="space" unicode=" " horiz-adv-x="175" 
 />
    <glyph glyph-name="exclam" unicode="!" horiz-adv-x="235" 
d="M116 134v396h91v-396h-91zM212 45q0 -27 -16 -40t-36 -13q-17 0 -34.5 13t-17.5 40q0 26 18 39t36 13q20 0 35 -13.5t15 -38.5z" />
    <glyph glyph-name="quotedbl" unicode="&#x22;" horiz-adv-x="213" 
d="M137 650q0 -35 -8.5 -71.5t-19.5 -68.5q-7 -19 -14 -37t-15 -36h-48q6 17 11 34.5t9 36.5q8 30 11.5 68.5t-2.5 73.5h76zM237 650q0 -35 -8.5 -71.5t-19.5 -68.5q-7 -19 -14 -37t-15 -36h-48q6 17 11 34.5t9 36.5q8 30 11.5 68.5t-2.5 73.5h76z" />
    <glyph glyph-name="numbersign" unicode="#" horiz-adv-x="567" 
d="M541 334l-14 -43h-99l-36 -101h104l-15 -43h-104l-53 -146h-47l53 146h-102l-54 -146h-47l53 146h-102l15 43h101l36 101h-106l14 43h107l53 146h47l-52 -146h102l52 146h48l-52 -146h98zM381 291h-104l-36 -102h104z" />
    <glyph glyph-name="dollar" unicode="$" horiz-adv-x="361" 
d="M343 141q0 -105 -95 -131v-68h-14v67q-25 -7 -52 -4v-63h-14v66q-30 3 -51 15q-10 5 -19 13t-18 18l32 54q41 -40 86 -40q31 0 51.5 18t20.5 48q0 31 -34 56q-5 5 -20.5 13.5t-40.5 22.5q-46 26 -67 50q-27 33 -27 77q0 90 87 119v59h14v-56q5 0 14.5 1t13.5 1q6 0 24 -3
v57h14v-57q53 -14 79 -41l-39 -54q-37 31 -78 31q-23 0 -40 -14q-17 -15 -17 -38q0 -40 72 -73q61 -28 85 -54q33 -35 33 -90z" />
    <glyph glyph-name="percent" unicode="%" horiz-adv-x="594" 
d="M575 143q0 -140 -90 -140t-90 140q0 141 90 141t90 -141zM522 143q0 42 -3 57q-8 38 -34 38t-34 -38q-3 -17 -3 -57q0 -42 3 -57q7 -37 34 -37t34 37q3 16 3 57zM463 493l-235 -490h-39l237 490h37zM259 353q0 -141 -90 -141t-90 141q0 140 90 140t90 -140zM207 354
q0 42 -3 57q-7 37 -35 37q-27 0 -34 -37q-4 -15 -4 -57q0 -43 4 -58q7 -36 34 -36q26 0 35 37q3 16 3 57z" />
    <glyph glyph-name="ampersand" unicode="&#x26;" horiz-adv-x="437" 
d="M416 130l-55 -54l50 -76h-79l-24 34q-31 -37 -96 -37q-58 0 -93 35q-36 36 -36 102q0 73 82 128q-25 42 -33 64t-8 43q0 49 31 74q31 26 79 26q44 0 72 -25q28 -27 28 -69q0 -33 -19 -64.5t-64 -62.5l74 -115l50 54zM266 371q0 16 -9.5 28.5t-26.5 12.5
q-19 0 -30.5 -12.5t-11.5 -31.5q0 -21 11 -38l19 -32l18 15q30 25 30 58zM204 201q-48 -30 -48 -64q0 -68 62 -68q22 0 57 20z" />
    <glyph glyph-name="quotesingle" unicode="'" horiz-adv-x="113" 
d="M137 650q0 -35 -8.5 -71.5t-19.5 -68.5q-7 -19 -14 -37t-15 -36h-48q6 17 11 34.5t9 36.5q8 30 11.5 68.5t-2.5 73.5h76z" />
    <glyph glyph-name="parenleft" unicode="(" horiz-adv-x="231" 
d="M151 -95q-80 158 -80 325q0 171 80 326l65 -16q-73 -142 -73 -310q0 -163 73 -309z" />
    <glyph glyph-name="parenright" unicode=")" horiz-adv-x="224" 
d="M197 230q0 -168 -79 -325l-65 16q73 145 73 309q0 168 -73 310l65 16q79 -154 79 -326z" />
    <glyph glyph-name="asterisk" unicode="*" horiz-adv-x="328" 
d="M304 407l-87 -45l87 -45l-15 -25l-82 52l3 -98h-27l4 98l-83 -52l-15 25l87 45l-87 45l15 25l83 -51l-4 97h27l-3 -97l82 51z" />
    <glyph glyph-name="plus" unicode="+" horiz-adv-x="501" 
d="M476 229h-176v-179h-42v179h-175v41h175v179h42v-179h176v-41z" />
    <glyph glyph-name="comma" unicode="," horiz-adv-x="181" 
d="M177 110l-84 -198h-57l55 198h86z" />
    <glyph glyph-name="hyphen" unicode="-" horiz-adv-x="268" 
d="M243 182h-168v103h168v-103z" />
    <glyph glyph-name="period" unicode="." horiz-adv-x="181" 
d="M165 59q0 -25 -16.5 -42t-41.5 -17q-24 0 -40.5 17t-16.5 42q0 24 16.5 40.5t40.5 16.5t41 -16.5t17 -40.5z" />
    <glyph glyph-name="slash" unicode="/" horiz-adv-x="251" 
d="M249 547l-155 -546h-45l156 546h44z" />
    <glyph glyph-name="zero" unicode="0" horiz-adv-x="362" 
d="M344 245q0 -94 -21 -154q-31 -91 -109 -91q-76 0 -109 91q-21 60 -21 154q0 245 130 245t130 -245zM264 281q0 136 -50 136t-50 -138v-70q0 -136 50 -136t50 135v73z" />
    <glyph glyph-name="one" unicode="1" horiz-adv-x="257" 
d="M221 1h-86v413h-51v65h137v-478z" />
    <glyph glyph-name="two" unicode="2" horiz-adv-x="361" 
d="M334 371q0 -78 -131 -301h118v-70h-229l118 225q17 30 33 73q16 47 16 71q0 57 -45 57q-35 0 -47 -35q-6 -20 -6 -65h-67q-8 158 126 158q55 0 85 -31q29 -32 29 -82z" />
    <glyph glyph-name="three" unicode="3" horiz-adv-x="361" 
d="M342 139q0 -66 -36.5 -102.5t-102.5 -36.5q-58 0 -92 36q-31 34 -31 95h70q0 -65 49 -65q53 0 53 80q0 31 -12 54q-17 27 -46 27h-19v64h16q68 0 68 67q0 62 -48 62q-46 0 -47 -58h-65v3q0 121 118 121q53 0 82 -35q28 -34 28 -91q0 -34 -18 -62q-22 -36 -62 -41
q45 -4 70 -35.5t25 -82.5z" />
    <glyph glyph-name="four" unicode="4" horiz-adv-x="362" 
d="M342 123h-41v-123h-69v123h-146v64l131 291h84v-297h41v-58zM236 181v238l-101 -238h101z" />
    <glyph glyph-name="five" unicode="5" horiz-adv-x="360" 
d="M333 163q0 -75 -41 -121q-44 -47 -118 -47q-52 0 -90 16l11 72q34 -18 67 -18q42 0 65 23t23 65q0 59 -42 82q-31 17 -90 17h-16l32 227h183v-68h-126l-16 -106h13q69 0 107 -38t38 -104z" />
    <glyph glyph-name="six" unicode="6" horiz-adv-x="362" 
d="M346 168q0 -74 -28 -117q-33 -55 -101 -55q-70 0 -104 49q-29 43 -29 113q0 77 71 221l50 100h79l-76 -143l-27 -56q19 22 63 22q48 0 77 -42q25 -35 25 -92zM264 149q0 87 -45 87q-25 0 -38 -34q-10 -24 -10 -58q0 -78 45 -78q48 0 48 83z" />
    <glyph glyph-name="seven" unicode="7" horiz-adv-x="369" 
d="M341 479l-178 -478h-83l160 413h-157v65h258z" />
    <glyph glyph-name="eight" unicode="8" horiz-adv-x="362" 
d="M339 137q0 -63 -32 -101q-35 -39 -96 -39q-62 0 -96 39q-32 38 -32 101q0 110 79 123q-65 17 -65 111q0 115 114 115t114 -115q0 -87 -65 -111q40 -6 61 -43q18 -32 18 -80zM253 364q0 62 -43 62q-42 0 -42 -59q0 -66 43 -66q42 0 42 63zM260 148q0 78 -49 78
q-50 0 -50 -76q0 -83 50 -83q49 0 49 81z" />
    <glyph glyph-name="nine" unicode="9" horiz-adv-x="361" 
d="M342 319q0 -76 -65 -218l-48 -101h-79l73 143q7 14 13 28.5t12 31.5q-15 -18 -32 -23q-12 -4 -40 -4q-51 0 -75 46q-18 37 -18 92q0 169 132 169q66 0 99 -50q28 -43 28 -114zM256 328q0 85 -46 85t-46 -85t46 -85t46 85z" />
    <glyph glyph-name="colon" unicode=":" horiz-adv-x="226" 
d="M192 258q0 -23 -17 -38t-40 -15q-25 0 -41 15q-17 15 -17 38q0 24 17 39q17 14 41 14q23 0 40 -14.5t17 -38.5zM192 56q0 -24 -17 -38.5t-40 -14.5q-24 0 -41 14q-17 15 -17 39q0 23 17 38q17 14 41 14q23 0 40 -14.5t17 -37.5z" />
    <glyph glyph-name="semicolon" unicode=";" horiz-adv-x="216" 
d="M168 260q0 -23 -16 -38t-39 -15t-39 14.5t-16 38.5q0 22 16 37t39 15t39 -15t16 -37zM151 105l-82 -190h-58l55 190h85z" />
    <glyph glyph-name="less" unicode="&#x3c;" horiz-adv-x="500" 
d="M472 76l-386 158v44l386 159v-45l-332 -136l332 -136v-44z" />
    <glyph glyph-name="equal" unicode="=" horiz-adv-x="502" 
d="M482 278h-392v43h392v-43zM482 131h-392v43h392v-43z" />
    <glyph glyph-name="greater" unicode="&#x3e;" horiz-adv-x="494" 
d="M472 234l-386 -158v44l333 136l-333 136v45l386 -159v-44z" />
    <glyph glyph-name="question" unicode="?" horiz-adv-x="352" 
d="M326 350q0 -51 -17 -79q-19 -31 -67 -42v-63h-79v99q74 6 74 85q0 70 -43 70q-38 0 -39 -55h-77v4q0 61 38 96q34 31 85 31q57 0 92 -38q33 -38 33 -108zM255 55q0 -23 -15 -37.5t-38 -14.5q-22 0 -37.5 14.5t-15.5 37.5q0 22 15.5 36.5t37.5 14.5q23 0 38 -14.5
t15 -36.5z" />
    <glyph glyph-name="at" unicode="@" horiz-adv-x="718" 
d="M692 239q0 -82 -50 -144q-52 -67 -134 -67q-62 0 -62 48v20q-46 -67 -110 -67q-45 0 -71 28t-26 77q0 74 45 127t107 53q25 0 45 -11q26 -15 42 -46l18 44h37l-48 -187q-3 -11 -3 -18q0 -17 11.5 -26.5t28.5 -9.5q57 0 96 64q34 55 34 115q0 93 -72 149q-65 50 -163 50
q-82 0 -149 -36q-70 -37 -109 -108q-34 -61 -34 -137q0 -114 76 -178q73 -61 190 -61q127 0 204 61l14 -20q-79 -70 -215 -70q-139 0 -222 68q-87 71 -87 201q0 110 67 192q97 120 268 120q112 0 188 -58q84 -65 84 -173zM466 220q-5 31 -23 50q-20 18 -45 18q-48 0 -81 -47
q-32 -47 -32 -110q0 -76 67 -76q35 0 62 27q25 22 33 60z" />
    <glyph glyph-name="A" unicode="A" horiz-adv-x="382" 
d="M300 0l-17 86h-115l-15 -86h-83l114 478h91l108 -478h-83zM271 147q-7 31 -12 60t-9 58q-2 14 -7.5 56t-13.5 114q-5 -31 -11.5 -72t-13.5 -92l-20 -124h87z" />
    <glyph glyph-name="B" unicode="B" horiz-adv-x="405" 
d="M388 133q0 -47 -23 -79q-26 -35 -69 -47q-27 -7 -94 -7h-86v477h91q95 0 135 -29q38 -29 38 -95q0 -40 -15 -62q-14 -25 -62 -47q52 -18 68 -43q17 -26 17 -68zM300 340q0 74 -84 74h-18v-143h19q83 0 83 69zM303 143q0 39 -20 56.5t-65 17.5h-20v-147h22q83 0 83 73z
" />
    <glyph glyph-name="C" unicode="C" horiz-adv-x="375" 
d="M353 3q-26 -9 -51 -9q-94 0 -152 66q-58 65 -58 174q0 112 56 182q59 68 150 68q31 0 55 -9v-76q-26 8 -47 8q-62 0 -95 -55q-28 -46 -28 -112q0 -64 29 -111q35 -53 96 -53q19 0 45 8v-81z" />
    <glyph glyph-name="D" unicode="D" horiz-adv-x="446" 
d="M424 238q0 -141 -83 -203q-49 -35 -151 -35h-67v478h78q114 0 168.5 -58.5t54.5 -181.5zM340 237q0 83 -28 124q-30 43 -91 43h-15v-329h16q58 0 89 43q29 41 29 119z" />
    <glyph glyph-name="E" unicode="E" horiz-adv-x="328" 
d="M100 0v478h201v-76h-118v-116h107v-74h-107v-132h118v-80h-201z" />
    <glyph glyph-name="F" unicode="F" horiz-adv-x="325" 
d="M184 402v-118h113v-75h-113v-209h-82v478h206v-76h-124z" />
    <glyph glyph-name="G" unicode="G" horiz-adv-x="458" 
d="M436 247q0 -120 -45 -187q-44 -66 -121 -66q-76 0 -119 64q-45 66 -45 180q0 116 47 181q45 65 124 65q107 0 143 -114l-73 -34q-8 34 -23 49q-18 21 -49 21q-47 0 -66 -43q-20 -42 -20 -125q0 -82 21 -122q22 -46 65 -46q38 0 59 32q20 29 20 90h-89v70h170l1 -4v-11z
" />
    <glyph glyph-name="H" unicode="H" horiz-adv-x="455" 
d="M334 0v215h-129v-215h-83v478h83v-184h129v184h84v-478h-84z" />
    <glyph glyph-name="I" unicode="I" horiz-adv-x="222" 
d="M83 0v478h97v-478h-97z" />
    <glyph glyph-name="J" unicode="J" horiz-adv-x="251" 
d="M217 140q0 -81 -24 -109q-31 -40 -95 -40q-34 0 -56 9v72q19 -8 32 -8q31 0 43 23q11 20 11 97v292h89v-336z" />
    <glyph glyph-name="K" unicode="K" horiz-adv-x="401" 
d="M210 252l103 226h87l-100 -217l104 -261h-90zM120 0v478h81v-203l9 -23l-9 -20v-232h-81z" />
    <glyph glyph-name="L" unicode="L" horiz-adv-x="304" 
d="M101 0v478h85v-398h118v-80h-203z" />
    <glyph glyph-name="M" unicode="M" horiz-adv-x="548" 
d="M450 0l-10 221q-1 5 -1 25q-2 46 -3 82.5t-1 64.5l-17 1l-63 -394h-58l-60 397l-16 -1q0 -50 -6 -144l-3 -32l-14 -220h-82l48 478h112l25 -182q5 -40 9.5 -79.5t6.5 -79.5h16q3 27 7 66t11 93l30 182h112l41 -478h-84z" />
    <glyph glyph-name="N" unicode="N" horiz-adv-x="456" 
d="M339 0l-109 271l-14 50l-9 32l-16 -4q3 -28 5 -65t2 -85v-199h-76v478h88l100 -261l30 -101l17 3q-8 51 -12 95t-4 82v182h77v-478h-79z" />
    <glyph glyph-name="O" unicode="O" horiz-adv-x="464" 
d="M443 231q0 -110 -46 -174q-47 -63 -122 -63q-80 0 -123 63q-44 65 -44 181t45 182q45 64 122 64q78 0 122 -66q46 -65 46 -187zM360 238q0 81 -20 123q-23 45 -65 45q-44 0 -65 -44q-19 -39 -19 -124q0 -84 19 -122q21 -45 65 -45q42 0 65 45q20 42 20 122z" />
    <glyph glyph-name="P" unicode="P" horiz-adv-x="380" 
d="M367 342q0 -66 -36 -102t-105 -36h-14l-18 2v-206h-82v478h98q81 0 119 -33t38 -103zM288 341q0 76 -75 76h-19v-154h19q37 0 56 20.5t19 57.5z" />
    <glyph glyph-name="Q" unicode="Q" horiz-adv-x="465" 
d="M403 -38l-47 50q-20 -13 -38.5 -18t-41.5 -5q-79 0 -123 65q-45 66 -45 186q0 111 46 175q44 62 122 62q80 0 123 -64q45 -65 45 -187q0 -60 -11.5 -101.5t-38.5 -72.5l51 -55zM361 231q0 82 -21 124q-21 45 -64 45q-45 0 -66 -46q-19 -41 -19 -131q0 -74 20 -116
q22 -43 64 -43h7l25 3l-57 63l41 34l51 -56q6 17 9.5 32.5t5.5 28.5t3 28.5t1 33.5z" />
    <glyph glyph-name="R" unicode="R" horiz-adv-x="386" 
d="M294 0l-97 239v-239h-81v478h97q83 0 120 -32q37 -30 37 -99q0 -51 -19 -81t-64 -44l95 -222h-88zM292 341q0 39 -17.5 57.5t-55.5 18.5h-8t-13 -1l-1 -153h20q75 0 75 78z" />
    <glyph glyph-name="S" unicode="S" horiz-adv-x="316" 
d="M301 131q0 -64 -37 -100.5t-102 -36.5q-48 0 -80 19v82q33 -24 67 -24q29 0 46.5 15.5t17.5 41.5q0 33 -43 67l-17 14q-20 17 -34.5 32.5t-22.5 28.5q-22 34 -22 79q0 60 35 98q34 37 92 37q37 0 78 -21v-70q-39 18 -60 18q-26 0 -42.5 -16t-16.5 -41q0 -26 21 -51
q5 -7 15.5 -17t26.5 -22q51 -43 64 -68q14 -28 14 -65z" />
    <glyph glyph-name="T" unicode="T" horiz-adv-x="320" 
d="M232 402v-402h-86v402h-77v76h242v-76h-79z" />
    <glyph glyph-name="U" unicode="U" horiz-adv-x="451" 
d="M417 174q0 -90 -14 -116q-35 -65 -135 -65q-101 0 -136 65q-14 30 -14 116v302h84v-310q0 -62 14 -82q15 -21 52 -21t52 21q13 19 13 82v310h84v-302z" />
    <glyph glyph-name="V" unicode="V" horiz-adv-x="399" 
d="M273 0h-71l-139 478h84l58 -218q17 -65 24 -147h16q2 39 8 75t14 70l56 220h87z" />
    <glyph glyph-name="W" unicode="W" horiz-adv-x="601" 
d="M503 0h-73l-51 266q-4 22 -6.5 49t-4.5 60h-16l-5 -45t-8 -64l-54 -266h-75l-96 478h83l34 -217q2 -17 4.5 -34t3.5 -33q2 -18 5 -56.5t6 -95.5l75 436h69l63 -367l16 1q0 33 3 66t8 70l35 230h80z" />
    <glyph glyph-name="X" unicode="X" horiz-adv-x="347" 
d="M270 0l-62 168l-61 -168h-96l113 241l-102 237h86l60 -165l59 165h86l-103 -236l110 -242h-90z" />
    <glyph glyph-name="Y" unicode="Y" horiz-adv-x="321" 
d="M231 225v-225h-83v225l-112 253h88l30 -84l10.5 -28t6.5 -20q4 -12 10 -32t13 -48q7 30 12 50.5t9 32.5q3 11 7 21.5t7 20.5l35 87h80z" />
    <glyph glyph-name="Z" unicode="Z" horiz-adv-x="349" 
d="M174 80h151v-80h-264l163 403h-143v75h254z" />
    <glyph glyph-name="bracketleft" unicode="[" horiz-adv-x="229" 
d="M218 -47h-152v623h152v-54h-69v-515h69v-54z" />
    <glyph glyph-name="backslash" unicode="\" horiz-adv-x="251" 
d="M249 34h-44l-156 546h45z" />
    <glyph glyph-name="bracketright" unicode="]" horiz-adv-x="225" 
d="M204 -47h-153v54h69v515h-69v54h153v-623z" />
    <glyph glyph-name="asciicircum" unicode="^" horiz-adv-x="822" 
d="M675 469h-50l-138 146l-139 -146h-49l155 184h66z" />
    <glyph glyph-name="underscore" unicode="_" horiz-adv-x="411" 
d="M411 -217h-335v56h335v-56z" />
    <glyph glyph-name="grave" unicode="`" horiz-adv-x="229" 
d="M209 359h-31l-95 121h66z" />
    <glyph glyph-name="a" unicode="a" horiz-adv-x="370" 
d="M264 0v75q-32 -56 -48 -69q-18 -12 -38 -12q-44 0 -67 41q-25 41 -25 125q0 80 25 123q24 41 68 41q20 0 37 -12q18 -14 48 -65v74h71v-321h-71zM264 166q0 46 -12 72q-14 27 -42 27q-27 0 -37 -27q-10 -23 -10 -73q0 -48 11 -75q14 -29 39 -29q27 0 40 28q11 24 11 77z
" />
    <glyph glyph-name="b" unicode="b" horiz-adv-x="355" 
d="M331 151q0 -77 -25 -117t-65 -40q-23 0 -40 13q-17 14 -45 71v-77h-74v507h74v-261q31 52 46 61q17 11 36 11q45 0 68 -41q25 -43 25 -127zM254 165q0 50 -10 71q-12 25 -38 25t-40 -26q-11 -24 -11 -71q0 -52 11 -77q10 -27 39 -27q26 0 38 28q11 27 11 77z" />
    <glyph glyph-name="c" unicode="c" horiz-adv-x="263" 
d="M250 10q-26 -15 -58 -15q-56 0 -91 44q-34 43 -34 122q0 76 35 122q35 44 90 44q31 0 58 -10v-68q-18 8 -35 8q-31 0 -51 -26q-18 -26 -18 -67q0 -45 18 -69q20 -26 54 -26q16 0 32 8v-67z" />
    <glyph glyph-name="d" unicode="d" horiz-adv-x="353" 
d="M260 1v76q-14 -29 -26 -46t-20 -24q-17 -12 -39 -12q-42 0 -66 40q-25 43 -25 123q0 79 26 122q24 40 68 40q18 0 35 -12q16 -9 47 -61v261h74v-507h-74zM260 164q0 48 -11 72q-12 26 -40 26q-26 0 -38 -27q-9 -23 -9 -71t11 -75q12 -28 38 -28q27 0 39 26q10 23 10 77z
" />
    <glyph glyph-name="e" unicode="e" horiz-adv-x="353" 
d="M340 144h-184v-11q0 -42 15 -63q16 -25 46 -25q34 0 51 40h65q-12 -43 -44 -66.5t-78 -23.5q-59 0 -94 44q-36 43 -36 121q0 79 36 123q35 44 94 44q65 0 96 -43q33 -44 33 -132v-8zM274 181q-2 49 -15 68q-15 21 -44 21t-45 -22q-14 -22 -14 -67h118z" />
    <glyph glyph-name="f" unicode="f" horiz-adv-x="213" 
d="M164 261v-261h-80v261h-36v54h36v97q0 31 4 46q13 55 90 55q7 0 14 -0.5t16 -1.5v-63h-3q-26 0 -35 -15q-6 -14 -6 -53v-65h44v-54h-44z" />
    <glyph glyph-name="g" unicode="g" horiz-adv-x="355" 
d="M335 17q0 -103 -26 -137q-29 -33 -100 -33q-56 0 -87 28q-30 27 -30 75h63q4 -49 53 -49q28 0 41 16q12 13 12 49v96q-29 -43 -48 -55q-16 -10 -35 -10q-45 0 -67 39q-25 41 -25 122q0 80 25 121q24 40 68 40q21 0 36 -12q18 -11 46 -69v78h74v-299zM261 164q0 50 -11 72
q-11 26 -40 26q-26 0 -37 -26q-10 -23 -10 -72q0 -48 11 -75q14 -29 39 -29q27 0 38 27q10 21 10 77z" />
    <glyph glyph-name="h" unicode="h" horiz-adv-x="344" 
d="M320 1h-77v193q0 31 -9 43q-9 15 -30 15q-23 0 -34 -17q-9 -14 -9 -45v-189h-78v508h78v-247q33 39 52 48q20 10 44 10q35 0 49 -18q14 -20 14 -82v-219z" />
    <glyph glyph-name="i" unicode="i" horiz-adv-x="194" 
d="M166 414q0 -20 -16 -32q-17 -12 -35 -12q-19 0 -35 11q-16 13 -16 33q0 21 16 33q13 12 35 12q21 0 35 -13q16 -12 16 -32zM72 0v317h86v-317h-86z" />
    <glyph glyph-name="j" unicode="j" horiz-adv-x="184" 
d="M166 412q0 -20 -16 -32q-17 -11 -35 -11q-21 0 -35 11q-16 12 -16 32q0 21 16 33q13 13 35 13q21 0 36 -13t15 -33zM72 -130v446h86v-446h-86z" />
    <glyph glyph-name="k" unicode="k" horiz-adv-x="354" 
d="M247 0l-74 178q11 24 27 57.5t39 79.5h86l-80 -129l88 -186h-86zM160 0h-77v507h77v-507z" />
    <glyph glyph-name="l" unicode="l" horiz-adv-x="173" 
d="M70 0v507h89v-507h-89z" />
    <glyph glyph-name="m" unicode="m" horiz-adv-x="477" 
d="M387 0v190q0 30 -7 43q-9 16 -28 16q-23 0 -34 -17q-8 -14 -8 -46v-186h-74v190q0 30 -7 43q-9 16 -29 16q-22 0 -33 -17q-9 -14 -9 -46v-186h-74v315h69v-72q33 52 52 63q19 13 44 13t40 -12q14 -14 23 -57q14 21 26.5 35t22.5 21q19 13 43 13q32 0 44 -21
q13 -23 13 -101v-197h-74z" />
    <glyph glyph-name="n" unicode="n" horiz-adv-x="335" 
d="M321 0h-78v190q0 30 -8 44q-9 15 -31 15q-23 0 -34 -17q-9 -14 -9 -46v-186h-78v315h72v-72q31 49 54 63q22 13 49 13q36 0 49 -19q14 -20 14 -83v-217z" />
    <glyph glyph-name="o" unicode="o" horiz-adv-x="365" 
d="M351 162q0 -80 -37 -123q-38 -44 -98 -44q-59 0 -97 44q-36 45 -36 123t37 122q35 44 96 44q60 0 98 -44q37 -44 37 -122zM277 162q0 47 -14 73q-17 30 -47 30q-29 0 -46 -29q-14 -28 -14 -74q0 -48 14 -74q16 -28 46 -28q31 0 47 28q14 28 14 74z" />
    <glyph glyph-name="p" unicode="p" horiz-adv-x="347" 
d="M333 154q0 -80 -25 -123q-23 -41 -65 -41q-22 0 -39 13q-8 7 -20 25t-26 48v-212h-74v450h72v-73q31 52 48 64q16 12 37 12q43 0 67 -40q25 -41 25 -123zM256 163q0 49 -10 70q-12 26 -38 26q-27 0 -39 -26q-11 -25 -11 -72q0 -54 10 -77q12 -26 39 -26t39 28
q10 23 10 77z" />
    <glyph glyph-name="q" unicode="q" horiz-adv-x="344" 
d="M261 -136v211q-28 -57 -46 -72q-16 -13 -39 -13q-42 0 -65 41q-25 43 -25 123q0 83 25 123q26 41 68 41q20 0 37 -12q18 -14 48 -65v73h71v-450h-74zM261 163q0 47 -11 71q-12 26 -40 26q-26 0 -37 -26q-10 -23 -10 -73q0 -48 11 -75q12 -28 39 -28t38 26q10 23 10 79z
" />
    <glyph glyph-name="r" unicode="r" horiz-adv-x="242" 
d="M238 240v8q-41 0 -58 -20q-16 -19 -16 -84v-144h-81v314h74v-101q29 79 47 93q16 13 34 14v-72h8z" />
    <glyph glyph-name="s" unicode="s" horiz-adv-x="274" 
d="M258 96q0 -46 -31 -74q-32 -27 -81 -27q-47 0 -85 28l31 55q31 -18 52 -18q14 0 24 9t10 23q0 22 -39 46q-3 1 -6.5 3.5t-7.5 4.5q-33 23 -46 41.5t-13 45.5q0 45 28 69.5t77 24.5q45 0 83 -23l-31 -52q-23 19 -46 19q-14 0 -24 -9t-10 -22q0 -19 37 -41l15 -10
q31 -20 45 -38q18 -23 18 -55z" />
    <glyph glyph-name="t" unicode="t" horiz-adv-x="211" 
d="M165 260v-260h-81v260h-39v54h39v98h81v-98h39v-54h-39z" />
    <glyph glyph-name="u" unicode="u" horiz-adv-x="329" 
d="M318 161q0 -99 -25 -130q-24 -31 -91 -31q-69 0 -94 31t-25 130v153h76v-195q0 -30 9.5 -42t32.5 -12t33 13q9 10 9 41v195h75v-153z" />
    <glyph glyph-name="v" unicode="v" horiz-adv-x="310" 
d="M223 0h-79l-83 314h73q10 -49 16 -78.5t8 -38.5q6 -34 10 -63.5t7 -56.5h17q3 35 13.5 94t27.5 143h74z" />
    <glyph glyph-name="w" unicode="w" horiz-adv-x="476" 
d="M392 0h-67l-22 119q-6 34 -10 64t-6 56h-10q-3 -27 -12.5 -86.5t-25.5 -152.5h-66l-84 314h72q10 -57 22 -131.5t26 -168.5q4 49 14.5 123.5t28.5 176.5h59q32 -168 45 -302q9 67 20.5 142t26.5 160h72z" />
    <glyph glyph-name="x" unicode="x" horiz-adv-x="304" 
d="M228 0l-50 119l-48 -119h-73l80 166l-74 148h72l44 -102l47 102h74l-78 -146l81 -168h-75z" />
    <glyph glyph-name="y" unicode="y" horiz-adv-x="305" 
d="M182 -136h-75l39 126l-86 324h76l46 -218l49 218h75z" />
    <glyph glyph-name="z" unicode="z" horiz-adv-x="271" 
d="M161 65h95v-65h-197l101 256h-97v59h196z" />
    <glyph glyph-name="braceleft" unicode="{" horiz-adv-x="346" 
d="M318 -57h-13q-99 0 -116 44q-7 18 -7 65v83q0 98 -74 96h-23v43h23q74 0 74 96v83q0 48 7 66q10 27 53 38q25 5 69 5h7v-43h-7q-43 0 -59 -16.5t-16 -64.5v-80q0 -96 -75 -106q75 -12 75 -105v-81q0 -47 16.5 -63.5t58.5 -16.5h7v-43z" />
    <glyph glyph-name="bar" unicode="|" horiz-adv-x="182" 
d="M158 -78h-58v670h58v-670z" />
    <glyph glyph-name="braceright" unicode="}" horiz-adv-x="346" 
d="M318 231h-22q-74 2 -74 -96v-83q0 -47 -7 -65q-17 -44 -116 -44h-14v43h8q42 0 58 16.5t16 63.5v81q0 93 76 105q-76 10 -76 106v80q0 48 -16 64.5t-57 16.5h-9v43h8q44 0 69 -5q43 -11 53 -38q7 -18 7 -66v-83q0 -96 74 -96h22v-43z" />
    <glyph glyph-name="asciitilde" unicode="~" horiz-adv-x="547" 
d="M532 291q-64 -49 -121 -49q-30 0 -88 23q-72 28 -111 28q-53 0 -123 -52v49q67 49 123 49q41 0 98 -22q72 -28 101 -28q53 0 121 50v-48z" />
    <glyph glyph-name="glyph45" unicode="&#x201e;" horiz-adv-x="550" 
d="M275 1473l11 -11h-22zM264 -535h11v-11z" />
    <glyph glyph-name="glyph46" unicode="&#x2030;" horiz-adv-x="550" 
d="M275 1473l11 -11h-22zM264 -535h11v-11z" />
    <glyph glyph-name="mal_anusvara" unicode="&#xd02;" horiz-adv-x="301" 
d="M304 178q0 -80 -31 -127q-32 -51 -90 -51t-92 49q-33 49 -33 125q0 75 32 125q35 53 90 53q56 0 91 -48q33 -47 33 -126zM229 177q0 94 -49 94q-47 0 -47 -96t49 -96q47 0 47 98z" />
    <glyph glyph-name="mal_visarga" unicode="&#xd03;" horiz-adv-x="204" 
d="M204 322q0 -40 -19.5 -66.5t-51.5 -26.5q-31 0 -51.5 25.5t-20.5 65.5q0 96 70 96q36 0 55 -28q18 -26 18 -66zM151 319q0 40 -20 38q-16 0 -16 -38q0 -34 17 -34q19 0 19 34zM204 93q0 -40 -19.5 -66.5t-51.5 -26.5q-31 0 -51.5 25.5t-20.5 65.5q0 96 70 96q36 0 55 -28
q18 -26 18 -66zM151 90q0 40 -20 38q-16 0 -16 -38q0 -33 17 -33q19 0 19 33z" />
    <glyph glyph-name="glyph47" unicode="&#xc1;" 
d="M188 166q0 -27 -19.5 -47t-47.5 -20q-29 0 -48 20t-19 47q0 28 19 48t48 20q27 0 47 -20t20 -48z" />
    <glyph glyph-name="mal_a" unicode="&#xd05;" horiz-adv-x="882" 
d="M888 238q0 -237 -130 -240q-55 -1 -90 46q-34 44 -35 117q-3 67 29 111q30 43 80 45q49 3 66 -32q1 1 3 0q-23 120 -112 120q-41 0 -68 -24q-29 -26 -29 -69v-312h-84v316q0 37 -18 64q-22 34 -62 34q-7 0 -11 -1q22 -17 33 -47q10 -24 10 -50q0 -6 -1 -9q-7 -54 -39 -74
q36 -35 36 -103q0 -53 -27 -89q-32 -41 -88 -41q-79 0 -122 56.5t-43 159.5q0 144 81 197q-59 0 -99 -52q-39 -50 -38 -116q2 -179 72 -245h-92q-55 76 -55 239q0 101 54 169q58 73 153 73q60 0 97 -14q26 14 64 14q46 0 82 -16q40 -16 54 -44q30 60 134 60q195 0 195 -243z
M799 161q0 28 -11 52q-12 26 -33 26q-22 0 -34 -23q-12 -21 -12 -52q1 -84 51 -84q40 0 39 81zM389 328q0 54 -44 66q-41 -8 -65 -63q-21 -50 -18 -115q1 -55 22 -93q23 -41 57 -41q45 0 44 52q-1 61 -44 61h-34v76h34q48 0 48 57z" />
    <glyph glyph-name="mal_aa" unicode="&#xd06;" horiz-adv-x="968" 
d="M970 101q0 -123 -62 -194q-56 -60 -136 -60q-77 0 -127 52v81q46 -63 127 -63q44 0 82 39q44 47 44 124q0 124 -30 141q5 -221 -128 -221q-55 0 -86.5 40.5t-30.5 107.5q2 94 47 135q38 32 110 41q-17 81 -107 81q-40 0 -66 -32q-21 -27 -21 -55v-318h-80v321
q0 34 -22 59t-56 28q42 -29 42 -87q0 -37 -16 -59q-8 -11 -35 -30q47 -23 47 -94q0 -61 -32 -99q-33 -40 -90 -40q-36 0 -65.5 16t-49.5 45.5t-31 71.5t-11 94q0 127 76 188q-56 0 -93 -55q-34 -52 -34 -127q0 -61 20 -129q23 -73 56 -103h-95q-58 101 -58 229q0 110 49 177
q52 73 147 73q64 0 101 -14q25 16 65 16q42 0 77 -16q38 -16 55 -44q31 58 129 58q79 0 129 -49q46 -46 54 -119q105 -20 105 -210zM790 243q-95 0 -93 -86q0 -36 8 -54q11 -23 36 -23q33 0 44 54q2 15 3.5 42t1.5 67zM388 331q0 45 -44 57q-41 -8 -63 -57q-21 -44 -21 -105
q0 -64 19 -103q21 -45 61 -45q19 0 31.5 16.5t12.5 43.5q0 56 -51 58q-9 1 -15.5 1h-11.5v77q12 -1 34 0q48 0 48 57z" />
    <glyph glyph-name="mal_i" unicode="&#xd07;" horiz-adv-x="649" 
d="M649 -171h-487q-46 0 -75 29q-25 25 -25 65q0 41 28 69q31 31 84 31h243q104 0 135 82q15 39 15 135q0 80 -19 117q-23 44 -71 44q-32 0 -50 -21q-17 -20 -17 -48v-282h-81v282q0 35 -21 58q-20 20 -46 21q-56 2 -93 -35q-35 -35 -42 -88h7q4 19 26 30q19 10 42 10
q45 0 69 -41t22 -107q-4 -134 -105 -136q-123 -2 -123 214q0 69 29 125q50 98 167 98q36 0 69 -14q34 -17 38 -38q30 50 109 50q77 0 120 -55q48 -62 48 -184t-31 -184q-51 -103 -189 -103h-252q-28 0 -28 -26q0 -12 7 -19q7 -9 21 -9h476v-70zM224 180q0 31 -7 52
q-11 26 -28 26q-46 0 -46 -68q0 -25 9 -46q13 -27 35 -28q16 0 26.5 18.5t10.5 45.5z" />
    <glyph glyph-name="mal_ii" unicode="&#xd08;" horiz-adv-x="1116" 
d="M1102 253q0 -108 -56 -181q-58 -73 -150 -73q-42 0 -70 9q-32 12 -61 40v89l18 -24q16 -18 40 -29q31 -15 75 -15q61 0 98 61q33 55 33 123q0 72 -8 106q-12 47 -46 47q-33 0 -33 -46v-144h-77v137q0 20 -7 33.5t-20 13.5q-47 0 -47 -78q1 -22 4.5 -48.5t11.5 -58.5h-74
q-14 51 -14 107q0 157 120 157q50 0 66 -37q23 35 63 35q63 0 93 -38q41 -50 41 -186zM649 -171h-487q-46 0 -75 29q-25 25 -25 65q0 41 28 69q31 31 84 31h243q104 0 135 82q15 39 15 135q0 80 -19 118q-23 45 -71 45q-32 0 -50 -22q-17 -20 -17 -48v-283h-81v283
q0 36 -21 59q-18 18 -46 20q-55 3 -93 -35q-34 -34 -42 -89h7q4 19 26 30q19 10 42 10q45 0 69 -41t22 -107q-4 -134 -105 -136q-123 -2 -123 214q0 68 29 126q49 99 167 99q37 0 69 -15q34 -17 38 -38q30 50 109 50q77 0 120 -55q48 -62 48 -185q0 -122 -31 -184
q-51 -103 -189 -103h-252q-28 0 -28 -26q0 -12 7 -19q7 -9 21 -9h476v-70zM224 180q0 31 -7 52q-11 26 -28 26q-46 0 -46 -68q0 -25 9 -46q13 -27 35 -28q16 0 26.5 18.5t10.5 45.5z" />
    <glyph glyph-name="mal_u" unicode="&#xd09;" horiz-adv-x="460" 
d="M460 -171h-291q-48 0 -77 32q-28 29 -28 71q0 39 25 64q28 28 78 28h108q108 0 108 198q0 83 -28 132q-31 55 -92 55q-49 0 -83 -28q-38 -31 -46 -84l4 4q7 13 26.5 23t36.5 8q51 -2 77 -35q29 -36 27 -104q-1 -68 -34 -108q-31 -37 -80 -37q-125 0 -127 212q0 66 34 125
q54 96 172 97q87 1 140 -67q52 -66 50 -178q-3 -124 -22 -175q-41 -108 -163 -108h-108q-23 0 -23 -25q0 -13 7 -21q7 -9 20 -9h289v-70zM229 192q1 58 -40 60q-39 1 -40 -58q0 -32 9 -51q10 -22 29 -23q18 -1 30 20t12 52z" />
    <glyph glyph-name="mal_uu" unicode="&#xd0a;" horiz-adv-x="897" 
d="M897 253q0 -108 -56 -181q-58 -73 -150 -73q-42 0 -70 9q-32 12 -61 40v89l18 -24q16 -18 40 -29q31 -15 75 -15q61 0 98 61q33 55 33 123q0 74 -9 106q-11 47 -45 47q-33 0 -33 -46v-144h-77v137q0 20 -7 33.5t-20 13.5q-49 0 -47 -78q0 -46 16 -107h-74q-14 51 -14 107
q0 157 120 157q50 0 66 -37q23 35 63 35q63 0 92 -38q42 -50 42 -186zM460 -171h-291q-48 0 -77 32q-28 29 -28 71q0 39 25 64q28 28 78 28h108q108 0 108 198q0 83 -28 132q-31 55 -92 55q-49 0 -83 -28q-38 -31 -46 -84l4 4q7 13 26.5 23t36.5 8q51 -2 77 -35
q29 -36 27 -104q-1 -68 -34 -108q-31 -37 -80 -37q-125 0 -127 212q0 65 34 126q54 96 172 96q85 0 139 -66q53 -69 51 -179q-3 -124 -22 -175q-41 -108 -163 -108h-108q-23 0 -23 -25q0 -13 7 -21q7 -9 20 -9h289v-70zM229 192q1 58 -40 60q-39 1 -40 -58q0 -32 9 -51
q10 -22 29 -23q18 -1 30 20t12 52z" />
    <glyph glyph-name="mal_vocalic_r" unicode="&#xd0b;" horiz-adv-x="499" 
d="M502 335q0 -142 -83 -190q74 -48 74 -149q0 -77 -55 -123q-58 -49 -158 -49q-104 0 -162 48q-57 46 -57 126q0 49 21.5 87.5t58.5 57.5q-38 0 -59 56q-20 53 -20 133q0 71 31 111q31 37 83 37q89 0 92 -130q1 -51 -27 -87q-28 -34 -66 -34q-25 0 -46 18l-5 1
q38 -84 152 -84q63 0 104 25t53 64h-3q-24 -25 -50 -25q-34 0 -56 36q-23 37 -23 85q1 51 24 89q27 42 73 42q104 0 104 -145zM398 300q17 0 24 16q9 13 9 35q0 20 -9 37t-24 17t-24 -17q-8 -14 -8 -35q0 -20 8 -36q9 -17 24 -17zM170 300q15 0 22 16q8 14 8 35q0 22 -9 37
q-9 17 -24 17q-29 0 -29 -49q0 -20 8 -38q9 -18 24 -18zM413 11q0 71 -55 98q-38 -15 -82 -15q-40 0 -74 12q-30 -19 -41 -37q-16 -25 -16 -67q0 -23 10 -42.5t28 -34t42 -23t51 -8.5q63 0 100 31.5t37 85.5z" />
    <glyph glyph-name="mal_vocalic_l" unicode="&#xd0c;" horiz-adv-x="720" 
d="M709 238q0 -237 -129 -240q-55 -1 -90 46q-33 43 -36 117q-2 67 30 111q30 44 79 45q49 3 66 -32q2 2 4 0q-23 120 -118 120q-55 0 -84 -35q-20 -26 -20 -59v-311h-82v311q0 40 -26 68q-24 25 -56 25q-56 0 -90 -39q-35 -40 -37 -113h3q3 22 27 40q22 17 45 19
q51 2 80 -42t26 -113q-1 -69 -31 -113q-31 -43 -83 -43q-74 0 -109 86q-27 64 -27 164q0 74 32 132q51 96 174 96q49 0 77 -25q20 -17 38 -48q33 76 143 76q116 0 166 -104q28 -60 28 -139zM621 161q0 28 -11 52q-12 26 -33 26q-22 0 -34 -23q-12 -21 -12 -52q1 -84 51 -84
q40 0 39 81zM229 158q0 33 -11 53q-11 23 -31 24q-17 1 -30 -13q-14 -17 -14 -44q-1 -17 2 -33t8 -32q13 -34 32 -34q20 -2 32 24q12 22 12 55z" />
    <glyph glyph-name="glyph48" unicode="&#xf8ff;" 
d="M188 166q0 -27 -19.5 -47t-47.5 -20q-29 0 -48 20t-19 47q0 28 19 48t48 20q27 0 47 -20t20 -48z" />
    <glyph glyph-name="mal_e" unicode="&#xd0e;" horiz-adv-x="853" 
d="M850 208q0 -144 -40 -208h-87q15 14 32 84q15 67 15 118q0 90 -31 148q-30 55 -75 63v-404q0 -167 -102 -170q-28 -1 -53.5 10t-47 32t-37 51t-24.5 68h-178q28 55 28 125q0 37 -16 57q-17 20 -39 20q-21 0 -38 -20q-21 -26 -21 -66q0 -54 34 -116h-84q-27 52 -27 116
q0 70 31 114q37 54 114 54q57 0 91 -40t34 -107q0 -31 -9 -62h67q-5 30 -8 57.5t-3 52.5v15t1 15q7 109 66 189q67 93 173 93q113 0 175 -80q59 -77 59 -209zM583 75v338q-41 0 -81 -64q-43 -67 -43 -147q0 -87 6 -127h118zM582 0h-104q28 -88 73 -87q31 0 31 47v40z" />
    <glyph glyph-name="mal_ee" unicode="&#xd0f;" horiz-adv-x="848" 
d="M845 117q0 -54 -24 -91q-25 -40 -69 -40q-24 0 -55 17v71q16 -10 31 -10q20 0 34 20q12 18 12 42q0 22 -11 39q-14 17 -34 17q-19 1 -28 0v81h28q42 0 40 53q-3 87 -107 87v-427q0 -138 -104 -141q-54 -2 -96 45q-38 43 -60 120h-184q30 58 30 115q0 31 -11 56
q-15 31 -44 31q-24 0 -40 -18q-20 -23 -20 -67q0 -56 34 -117h-85q-27 51 -27 117q0 71 31 112q34 46 105 51q57 3 94 -37q38 -41 38 -110q0 -30 -7 -57h72q-12 40 -12 91q0 123 60 209q70 105 201 105q108 0 163 -55q44 -47 44 -114v-10.5t-1 -10.5q-8 -56 -45 -75
q47 -29 47 -99zM581 74l-1 324q-55 -16 -88 -73q-38 -62 -38 -157q0 -45 9 -94h118zM582 0h-105q23 -93 73 -91q32 2 32 48v43z" />
    <glyph glyph-name="mal_ai" unicode="&#xd10;" horiz-adv-x="1347" 
d="M1309 190q0 -118 -45 -190h-86q16 16 31 76q15 58 15 109q0 89 -31 147q-28 55 -75 64v-387q0 -167 -101 -170q-57 -2 -101.5 42t-60.5 119h-178q28 55 28 125q0 37 -16 57q-17 20 -40 20q-21 0 -38 -20q-20 -26 -20 -66q0 -54 34 -116h-84q-28 52 -28 116q0 68 32 114
q37 54 114 54q57 0 90.5 -40t34.5 -107q0 -32 -10 -62h64q-6 34 -6 122q0 108 62 191q69 91 177 91q131 0 192 -94q46 -73 46 -195zM1037 75v321q-39 0 -80 -65q-43 -67 -43 -146q0 -70 6 -110h117zM1036 0h-103q0 -19 20 -50q24 -37 53 -37q30 0 30 47v40zM458 226
q0 -108 -56 -226h-81q63 99 63 222q0 80 -29 132q-33 57 -93 57q-59 0 -96 -43q-40 -45 -42 -119h2q3 19 26 36q24 18 53 18q105 0 105 -154q0 -69 -32 -109t-86 -40q-70 0 -106 73q-29 64 -29 165q0 92 40 154q55 87 176 87q87 0 137 -69q48 -68 48 -184zM231 152
q0 32 -9 52q-10 22 -30 22t-34 -17q-16 -19 -16 -57q0 -30 10 -50q12 -26 33 -26q20 0 34 23q10 21 12 53z" />
    <glyph glyph-name="glyph49" unicode="&#xd9;" 
d="M188 166q0 -27 -19.5 -47t-47.5 -20q-29 0 -48 20t-19 47q0 28 19 48t48 20q27 0 47 -20t20 -48z" />
    <glyph glyph-name="mal_o" unicode="&#xd12;" horiz-adv-x="475" 
d="M475 129q0 -53 -23 -88q-29 -41 -86 -41q-7 0 -31 8v78q13 -8 24 -8q17 0 28 18q9 16 9 38q0 66 -48 66h-7v79h7q24 0 38 13t14 33q0 82 -122 82q-55 0 -95 -36q-41 -39 -48 -100v-1q4 15 22 30q19 15 49 13q49 -2 77 -45.5t26 -115.5q-3 -69 -32 -110q-30 -42 -84 -42
q-67 0 -102 71q-29 61 -29 158q0 84 33 146q54 102 186 102q192 0 192 -152q0 -74 -56 -91q28 -1 44 -38q14 -33 14 -67zM235 155q1 32 -11 54.5t-31 23.5q-18 1 -29.5 -16.5t-11.5 -45.5q-1 -34 9 -59q10 -28 30 -28q18 0 31 20.5t13 50.5z" />
    <glyph glyph-name="mal_oo" unicode="&#xd13;" horiz-adv-x="779" 
d="M752 231q0 -124 -48 -184q-38 -47 -101 -47q-48 0 -86 29v94q11 -13 18 -20l9 -9q22 -16 58 -16t56 47q16 39 16 102q0 175 -78 175q-36 0 -58 -19l-21 -26v80q33 42 98 42q59 0 95 -55q42 -65 42 -193zM475 129q0 -53 -23 -88q-29 -41 -86 -41q-7 0 -31 8v78
q13 -8 24 -8q17 0 28 18q9 16 9 38q0 66 -48 66h-7v79h7q24 0 38 13t14 33q0 82 -122 82q-55 0 -95 -36q-41 -39 -48 -100v-1q4 15 22 30q19 15 49 13q49 -2 77 -45.5t26 -115.5q-3 -69 -32 -110q-30 -42 -84 -42q-67 0 -102 71q-29 61 -29 158q0 85 33 147q54 102 186 102
q192 0 192 -153q0 -80 -56 -91q29 -2 45 -38q13 -29 13 -67zM235 155q1 32 -11 54.5t-31 23.5q-18 1 -29.5 -16.5t-11.5 -45.5q-1 -34 9 -59q10 -28 30 -28q18 0 31 20.5t13 50.5z" />
    <glyph glyph-name="mal_au" unicode="&#xd14;" horiz-adv-x="897" 
d="M475 129q0 -53 -23 -88q-29 -41 -86 -41q-7 0 -31 8v78q13 -8 24 -8q17 0 28 18q9 16 9 38q0 66 -48 66h-7v80h7q24 0 38 13t14 33q0 82 -122 82q-55 0 -95 -36q-41 -40 -48 -101v-1q4 15 22 30q19 15 49 13q49 -2 77 -45.5t26 -115.5q-3 -69 -32 -110q-30 -42 -84 -42
q-67 0 -102 71q-29 61 -29 158q0 85 33 147q54 102 186 102q192 0 192 -153q0 -74 -56 -91q28 -1 44 -38q14 -33 14 -67zM897 253q0 -108 -56 -181q-58 -73 -150 -73q-39 0 -76 15q-35 13 -55 34v87q1 -12 32 -34q44 -32 101 -32q61 0 98 61q33 55 33 124q0 75 -9 107
q-12 48 -45 48t-33 -48v-144h-77v137q0 20 -7 33.5t-20 13.5q-49 0 -47 -78q0 -47 16 -108h-74q-14 51 -14 107q0 157 120 157q50 0 66 -36q16 35 63 35q63 0 92 -38q42 -51 42 -187zM235 155q1 32 -11 54.5t-31 23.5q-18 1 -29.5 -16.5t-11.5 -45.5q-1 -34 9 -59
q10 -28 30 -28q18 0 31 20.5t13 50.5z" />
    <glyph glyph-name="mal_ka" unicode="&#xd15;" horiz-adv-x="659" 
d="M659 142q0 -142 -107 -142q-4 0 -9.5 0.5t-12.5 1.5v80q11 -7 22 -7q35 0 35 58q0 24 -11 41q-12 20 -30 20h-7q-11 -95 -60 -147q-48 -49 -123 -49q-77 0 -108 40q-8 -16 -25 -26q-23 -14 -48 -14q-64 0 -97 43q-27 37 -27 97q0 53 30 91q31 42 88 42h11q9 92 55 148
q49 61 125 61q71 0 117 -52q50 -56 59 -157q52 0 87 -30q36 -35 36 -99zM455 273q-1 50 -22 86q-26 41 -74 41q-50 0 -75 -42q-22 -35 -23 -85h194zM263 195q6 -52 28 -83q26 -35 68 -35q37 0 63 33.5t31 84.5h-190zM212 99q-21 34 -27 96q-5 2 -10 0q-49 0 -53 -57
q-2 -26 11 -48t32 -22q31 0 47 31z" />
    <glyph glyph-name="mal_kha" unicode="&#xd16;" horiz-adv-x="647" 
d="M641 0h-316v8q50 58 55 201q1 82 -27 134q-33 58 -96 60q-52 1 -90 -37q-39 -41 -45 -108h3q12 47 79 47q46 0 73.5 -42t27.5 -111q0 -65 -31 -108q-32 -49 -89 -47q-126 4 -126 234q0 82 33 145q53 101 174 101q101 0 154 -78q45 -68 45 -173q0 -89 -30 -153h120l-8 406
h80zM229 155q0 69 -38 69q-21 0 -34 -20t-13 -49q0 -33 10 -52q10 -22 29 -22q46 0 46 74z" />
    <glyph glyph-name="mal_ga" unicode="&#xd17;" horiz-adv-x="568" 
d="M546 236q0 -57 -19 -126q-9 -33 -19.5 -60.5t-23.5 -49.5h-89q71 133 71 245q0 60 -15 101q-21 57 -66 57q-65 0 -65 -62q0 -41 25 -119q12 -42 12 -80q0 -64 -35 -102q-37 -40 -105 -40q-75 0 -116 68q-39 66 -39 184t61 227h88q-70 -95 -70 -218q0 -85 13 -127
q16 -55 59 -55q64 0 64 63q0 38 -19 99q-16 49 -16 94q0 69 35.5 107t101.5 38q167 0 167 -244z" />
    <glyph glyph-name="mal_gha" unicode="&#xd18;" horiz-adv-x="853" 
d="M854 0h-499q1 51 3 94t4 79h-160q25 38 25 95q0 32 -13.5 49.5t-36.5 16.5q-21 0 -34 -18.5t-13 -47.5q0 -56 29 -96h-88q-21 37 -21 96q0 61 34 101q38 44 98 44q51 0 88 -32q37 -31 37 -81q0 -35 -7 -55h62q1 9 3 22.5t4 32.5q20 179 160 179q147 0 161 -179
q4 -39 9 -128h-257l-4 -95l328 1l-15 401h84zM617 244q-1 10 -3 23.5t-4 32.5q-6 54 -20 78q-18 27 -56 27q-42 0 -61 -28q-17 -23 -22 -77l-5 -56h171z" />
    <glyph glyph-name="mal_nga" unicode="&#xd19;" horiz-adv-x="625" 
d="M627 329q0 -31 -17 -60q-19 -33 -53 -39q30 -4 50 -36q18 -29 18 -70q0 -55 -29 -87q-31 -37 -93 -37q-14 0 -29 5q-5 1 -7.5 2t-4.5 2q-3 1 -4 1v75q18 -9 37 -9q49 0 49 54q0 62 -59 62h-26v75h26q62 0 60 62q-1 73 -66 73q-62 0 -62 -50v-352h-82v315q0 92 -83 92
q-52 0 -85 -41q-32 -40 -29 -94q9 13 15 19q19 14 49 14q49 0 76 -45q27 -44 24 -114q-5 -146 -111 -146q-66 0 -99 72q-27 60 -27 160q0 86 30 146q50 101 170 101q39 0 69 -15q32 -14 44 -40q7 25 39 40q28 15 62 15q72 0 110 -39t38 -111zM225 150q0 75 -36 75
q-39 0 -39 -75q0 -28 10.5 -47.5t28.5 -19.5q16 0 27 20q9 18 9 47z" />
    <glyph glyph-name="mal_cha" unicode="&#xd1a;" horiz-adv-x="591" 
d="M590 0h-526v76h133q74 0 111 55q24 36 24 67q0 65 -50 65q-47 0 -47 -58q0 -30 17 -64h-87q-14 36 -14 64q0 62 31 97q34 40 99 42q57 1 94 -36q40 -39 40 -103q0 -79 -55 -127h140l-15 402h82z" />
    <glyph glyph-name="mal_chha" unicode="&#xd1b;" horiz-adv-x="877" 
d="M884 243q0 -110 -23 -168q-31 -76 -110 -76q-55 0 -89 43q-35 44 -36 115q-1 35 6.5 64.5t21.5 50.5t34.5 33t46.5 12q46 0 72 -44h2q0 52 -36 91q-35 39 -85 39q-69 0 -105 -52q-32 -49 -32 -130q0 -87 31 -159l32 -62h-556v74h134q75 0 113 56q25 36 24 66q0 27 -14 46
q-13 19 -37 19q-26 0 -40 -20q-14 -19 -14 -46q0 -31 16 -57h-81q-13 35 -13 70q0 57 33 93q36 40 100 41q57 1 92 -35t38 -100q3 -86 -46 -132h140q-29 41 -32 160q-3 110 55 177t156 67q116 0 168 -97q34 -61 34 -139zM747 83q22 0 35 25q11 24 11 55q0 29 -11 51
q-13 22 -36 22q-42 -2 -42 -79q0 -29 12 -51q14 -23 31 -23z" />
    <glyph glyph-name="mal_ja" unicode="&#xd1c;" horiz-adv-x="583" 
d="M585 298q0 -42 -12 -73q-16 -39 -48 -53q29 -8 44 -34q14 -26 13 -53q-3 -44 -30 -68q-29 -27 -77 -23q-34 1 -61 25q-29 26 -27 65q-61 -40 -105 -61q-29 -13 -57.5 -18.5t-54.5 -4.5q-49 3 -76 27q-26 23 -26 60q0 83 94 83h244q42 0 74 39q31 38 31 85q0 54 -12 82
q-17 35 -58 35q-24 0 -45 -17t-21 -39v-148h-75v136q0 28 -22 49q-26 23 -62 23q-48 0 -71.5 -21.5t-23.5 -57.5l13 20q16 16 53 16q41 0 61 -32q14 -23 14 -50q0 -40 -25.5 -64.5t-67.5 -24.5q-43 0 -71 28q-36 34 -36 104q0 54 25 89q40 57 134 57q42 0 74 -12
q35 -14 45 -36q19 47 97 47q148 0 148 -180zM521 90q-4 28 -39 28q-15 0 -25 -7q-13 -7 -13 -19q0 -38 35 -40q42 -2 42 38zM204 290q-2 30 -31 30q-32 0 -32 -32q0 -12 8 -20.5t20 -8.5q35 0 35 31zM173 116q-30 0 -30 -28q0 -12 12.5 -20t32.5 -6q37 3 61 12
q13 5 32.5 15.5t47.5 26.5h-156z" />
    <glyph glyph-name="mal_jha" unicode="&#xd1d;" horiz-adv-x="1014" 
d="M1014 246q0 -246 -176 -246q-32 0 -58 14q-27 13 -32 36q-17 -34 -52 -44q-21 -7 -67 -7q-122 0 -122 144q0 17 1.5 37t5.5 43q2 17 3.5 32.5t1.5 29.5q0 66 -25 100q-24 34 -67 34q-15 0 -35 -5q70 -49 70 -190q0 -100 -33 -160q-36 -64 -103 -64q-60 0 -98 65
q-37 62 -37 161q0 132 67 181q-4 1 -10 1q-55 0 -85 -45q-34 -47 -34 -141q0 -85 26 -157q18 -49 36 -65h-96q-13 20 -28 84q-17 76 -17 140q0 114 49 182q50 71 136 71q57 0 99 -20q30 21 101 21q79 0 123 -53q41 -50 41 -133q0 -13 -1.5 -26.5t-3.5 -27.5q-10 -56 -10 -91
q0 -72 53 -72q30 0 48 21q15 16 15 42v340h84v-352q0 -21 18 -34q16 -15 38 -15q54 0 76 49q19 39 19 127q0 47 -20 115q-23 73 -53 110h95q57 -107 57 -232zM380 219q0 138 -53 158q-56 -23 -56 -158q0 -137 53 -137q28 0 43 40q13 36 13 97z" />
    <glyph glyph-name="mal_nya" unicode="&#xd1e;" horiz-adv-x="856" 
d="M854 218q-3 -121 -45 -218h-95q29 36 45 109q14 64 14 116q0 187 -108 187q-9 0 -14 -1q36 -27 52 -85q15 -50 15 -110q0 -216 -135 -216q-66 0 -102 59q-34 55 -34 155q0 154 67 197q-11 4 -25 4q-33 0 -56 -22t-23 -50v-343h-79v339q0 26 -21 45.5t-51 19.5
q-57 0 -93 -39q-34 -37 -40 -102h1q4 21 29 33q20 11 44 11q43 0 72 -39q33 -44 30 -126q-1 -67 -34 -106q-30 -36 -82 -36q-68 0 -101 75q-25 57 -25 158q0 84 27 143q49 102 172 102q89 0 110 -55q10 28 48 43q36 14 76 14q59 0 88 -26q28 23 97 23q84 0 131 -65
q48 -68 45 -194zM632 214q0 60 -15 111q-16 53 -40 64q-23 -11 -37 -64q-13 -48 -13 -111q0 -137 53 -137q52 0 52 137zM228 152q2 30 -9 50q-11 23 -33 23q-42 0 -42 -67q0 -36 13 -55q11 -17 29 -17q19 0 30 20q11 18 12 46z" />
    <glyph glyph-name="mal_tta" unicode="&#xd1f;" horiz-adv-x="413" 
d="M400 162q0 -162 -167 -162q-99 0 -166 67v99q14 -17 25 -28.5t21 -18.5q52 -39 120 -39q42 0 66 20t25 55q1 28 -16 46t-48 18q-16 0 -43 -7q-29 -6 -44 -6q-106 0 -106 130q0 83 71 121q44 22 98 22q85 0 144 -44v-86q-59 58 -134 58q-42 0 -67 -13q-35 -20 -35 -59
q0 -50 41 -50q17 0 41 7q21 6 43 6q55 0 89 -31q42 -38 42 -105z" />
    <glyph glyph-name="mal_ttha" unicode="&#xd20;" horiz-adv-x="472" 
d="M461 242q0 -108 -47 -173q-51 -69 -148 -69q-91 0 -146 69q-53 68 -53 173t55 170q55 66 144 66q95 0 146 -65q49 -61 49 -171zM380 239q0 73 -27 115q-32 45 -89 45q-55 0 -87 -47q-31 -46 -31 -115q0 -67 32 -111q32 -47 84 -47q57 0 87.5 42.5t30.5 117.5z" />
    <glyph glyph-name="mal_dda" unicode="&#xd21;" horiz-adv-x="785" 
d="M775 243q4 -123 -45 -184q-45 -58 -131 -58q-65 0 -96 52q-32 -54 -108 -54q-71 0 -105 48q-28 40 -28 104q0 42 10 78q17 63 17 99q0 75 -67 75q-43 0 -65 -49q-20 -42 -20 -95q0 -141 71 -259h-95q-11 23 -21.5 51.5t-18.5 63.5q-17 73 -17 123q0 79 21 135
q40 106 151 106q70 0 108 -42q35 -41 35 -110q0 -33 -8 -76q-16 -70 -16 -108q0 -68 50 -68q65 0 65 58v345h83v-345q0 -22 17 -37t39 -15q91 0 91 172q0 55 -25 133q-23 76 -42 92h96q51 -85 54 -235z" />
    <glyph glyph-name="mal_ddha" unicode="&#xd22;" horiz-adv-x="841" 
d="M831 251q0 -257 -209 -252q-31 1 -64 12q-42 13 -59 39q-30 -50 -99 -50q-70 0 -104 49q-29 40 -29 103q0 34 9 69q15 58 15 97q0 81 -67 81q-46 0 -71 -61q-20 -48 -20 -107q0 -82 33 -161q8 -21 17.5 -38.5t19.5 -31.5h-94q-22 31 -39 92q-19 67 -19 134q-1 82 22 141
q46 112 170 112q131 0 131 -146q0 -17 -2 -36t-6 -40q-17 -85 -17 -116q0 -65 51 -65q58 0 58 56v346h83v-319q0 -86 98 -86q45 0 74 29q22 24 32 56l6 32q-17 -26 -53 -26q-48 0 -78 38q-33 43 -33 124q0 76 34 116q31 37 84 37q126 0 126 -228zM740 321q1 30 -8 52
q-10 24 -28 25q-19 1 -30.5 -19t-11.5 -53q0 -84 36 -84q41 0 42 79z" />
    <glyph glyph-name="mal_nna" unicode="&#xd23;" horiz-adv-x="852" 
d="M841 233q-4 -127 -54 -232h-102q35 33 58 118q17 66 17 107q0 88 -18 129q-21 47 -73 47q-22 0 -39 -16t-17 -37v-349h-84v342q0 26 -14 45q-15 20 -40 20q-33 0 -49 -18q-15 -17 -15 -42v-347h-82v309q0 44 -22 69q-23 29 -67 29q-54 0 -86.5 -44.5t-33.5 -119.5h3
q3 25 22 41q21 18 52 18q47 0 74 -37q30 -39 30 -111q0 -75 -30 -115t-84 -40q-73 0 -108 77q-28 60 -28 165q0 79 30 138q49 100 170 100q41 0 71 -13q34 -14 48 -38q25 51 105 51q77 0 96 -48q26 46 98 46q178 0 172 -244zM229 157q0 70 -42 70q-20 0 -32 -19
q-12 -20 -12 -55q0 -33 10 -54q12 -25 32 -25q21 0 33 26q11 24 11 57z" />
    <glyph glyph-name="mal_ta" unicode="&#xd24;" horiz-adv-x="629" 
d="M611 238q-1 -38 -3.5 -69t-6.5 -54q-12 -66 -42 -115h-83q14 11 38 90q25 85 27 141q2 84 -31 136q-30 47 -70 47q-12 0 -21 -4q58 -51 58 -195q0 -97 -37 -155q-38 -60 -102 -60q-62 0 -99 61t-37 163q0 134 69 188q-5 1 -15 1q-53 0 -86 -50q-33 -52 -31 -142
q1 -36 7.5 -70.5t17.5 -67.5q20 -60 44 -83h-86q-53 80 -58 226q-3 108 48 180q52 72 128 73q68 2 100 -32q38 34 91 32q84 -1 131 -58q52 -61 49 -183zM393 217q0 65 -12 112q-13 55 -42 61q-29 -8 -47 -60q-14 -48 -14 -110q0 -146 55 -146q30 0 46 43q14 40 14 100z" />
    <glyph glyph-name="mal_tha" unicode="&#xd25;" horiz-adv-x="598" 
d="M595 0h-537l26 479h73l-17 -407h98l17 251q6 83 58 123q41 32 105 32q65 0 109 -36q48 -39 52 -106zM510 72l-10 261q-2 31 -25 53q-25 25 -59 24q-15 0 -30 -5.5t-26.5 -15t-19 -22t-7.5 -25.5l-17 -270h194z" />
    <glyph glyph-name="mal_da" unicode="&#xd26;" horiz-adv-x="372" 
d="M369 127q0 -57 -36 -91q-38 -36 -104 -36q-22 0 -44 8v77q12 -7 44 -9q26 0 43.5 14.5t17.5 41.5q0 34 -15 49q-16 16 -57 16h-27v77h27q74 0 74 57q0 75 -74 75q-56 0 -74 -57q-8 -29 -8 -88v-261h-74v266q0 213 156 213q75 0 114 -40q37 -37 37 -102q0 -79 -56 -105
q56 -14 56 -105z" />
    <glyph glyph-name="mal_dha" unicode="&#xd27;" horiz-adv-x="608" 
d="M595 247q0 -247 -172 -247q-67 0 -96 47q-29 -47 -96 -47q-170 0 -170 240q0 140 69 239h92q-16 -21 -27.5 -39t-18.5 -33q-30 -65 -33 -150v-22q0 -159 88 -159q21 0 38.5 16t17.5 38v349h82v-349q0 -23 16 -38.5t38 -15.5q51 0 73 52q18 43 18 134q0 120 -68 217h90
q59 -70 59 -232z" />
    <glyph glyph-name="mal_na" unicode="&#xd28;" horiz-adv-x="604" 
d="M590 238q-1 -68 -14 -120q-7 -29 -18.5 -58.5t-27.5 -59.5h-89q14 5 38 87q26 89 26 140q0 89 -14 128q-20 48 -70 48q-22 0 -38 -15q-17 -17 -17 -43v-345h-82v345q0 28 -18 45q-17 15 -38 15q-46 0 -68 -49q-20 -43 -20 -112v-21q5 -83 28 -152q19 -52 37 -71h-85
q-23 32 -40 104q-17 67 -18 132q-2 114 41 177q43 66 125 66q73 0 97 -45q13 20 42 34q27 11 52 11q178 0 171 -241z" />
    <glyph glyph-name="mal_nnna" unicode="&#xd29;" horiz-adv-x="650" 
d="M411 0h-82v311q0 40 -26 68q-24 25 -56 25q-56 0 -90 -39q-35 -40 -37 -113h3q3 22 27 40q22 17 45 19q51 2 80 -42t26 -113q-1 -69 -31 -113q-31 -43 -83 -43q-74 0 -109 86q-27 64 -27 164q0 74 32 132q51 96 174 96q49 0 77 -25q20 -17 38 -48q6 35 30.5 54.5
t62.5 19.5q178 0 171 -241q-1 -68 -14 -120q-7 -29 -18.5 -58.5t-27.5 -59.5h-89q14 5 38 87q26 89 26 140q0 89 -14 128q-20 48 -70 48q-22 0 -38 -15q-17 -17 -17 -43zM229 158q0 33 -11 53q-11 23 -31 24q-17 1 -30 -13q-14 -17 -14 -44q-1 -17 2 -33t8 -32
q13 -34 32 -34q20 -2 32 24q12 22 12 55z" />
    <glyph glyph-name="mal_pa" unicode="&#xd2a;" horiz-adv-x="612" 
d="M602 0h-370q30 64 30 114q0 85 -61 85q-54 0 -54 -85q0 -56 31 -114h-94q-11 31 -17.5 59.5t-7.5 54.5q-3 78 35.5 123.5t107.5 45.5q70 0 107 -43q35 -41 35 -102q0 -10 -1 -14q-1 -9 -2.5 -21.5t-5.5 -29.5h181l-20 406h82z" />
    <glyph glyph-name="mal_pha" unicode="&#xd2b;" horiz-adv-x="763" 
d="M749 0h-500q11 29 16.5 56t6.5 52q0 97 -64 97q-75 0 -71 -97q1 -50 30 -108h-87q-26 66 -26 108q0 88 45 135q40 45 112 45q74 0 113 -50q33 -42 33 -105q0 -28 -8 -57h65l9 247q4 82 51 123q38 34 104 34q64 0 105 -37q44 -38 47 -105zM666 76l-11 261q-1 29 -22.5 49
t-51.5 20q-38 0 -60 -21q-18 -18 -20 -51l-7 -258h172z" />
    <glyph glyph-name="mal_ba" unicode="&#xd2c;" horiz-adv-x="846" 
d="M836 0h-347q18 12 46 79q34 78 34 152q0 87 -18 126q-22 46 -75 46q-20 0 -39 -17q-19 -18 -19 -42v-344h-82v338q0 34 -28 53q-23 16 -55 16q-103 0 -119 -141l2 1q16 35 63 37q51 1 78 -42q26 -41 26 -113q0 -148 -114 -148q-63 0 -97 69q-29 59 -31 162q-2 80 36 148
q52 99 167 99q89 0 113 -53q23 53 103 53q174 0 174 -229q0 -119 -33 -180h127l-10 409h83zM232 158q0 27 -11 47q-12 20 -32 20t-30 -21q-11 -20 -11 -46q0 -32 10 -52q11 -23 31 -23q21 0 33 23q10 20 10 52z" />
    <glyph glyph-name="mal_bha" unicode="&#xd2d;" horiz-adv-x="405" 
d="M380 110q0 -51 -31.5 -80.5t-88.5 -29.5q-27 0 -55 9v71q23 -17 46 -17q55 0 55 42q0 37 -35 37q-4 0 -12.5 -1t-12.5 -1q-33 0 -49 25q-16 22 -16 65q0 51 16 73q18 25 61 25q5 0 13 -0.5t12 -0.5q29 0 29 31q0 45 -76 45q-66 0 -85 -49q-8 -21 -8 -71v-283h-77v274
q0 92 31 141q40 64 139 64q61 0 98 -25q46 -31 46 -96q0 -103 -70 -103q-8 0 -19 2.5t-16 2.5q-22 0 -22 -31q0 -22 19 -22q5 0 14 1.5t14 1.5q37 0 59 -28q21 -27 21 -72z" />
    <glyph glyph-name="mal_ma" unicode="&#xd2e;" horiz-adv-x="420" 
d="M406 0h-343v52q87 52 145 112q81 84 81 163q0 76 -70 76q-38 0 -60.5 -31.5t-22.5 -85.5q-1 -28 5 -58.5t17 -63.5h-81q-16 65 -16 122q-1 94 43 145q42 48 118 48q72 0 110 -43t36 -118h28zM342 65l-4 169h-7q-18 -44 -53 -88q-44 -55 -92 -81h156z" />
    <glyph glyph-name="mal_ya" unicode="&#xd2f;" horiz-adv-x="648" 
d="M636 262q0 -139 -60 -209q-50 -56 -126 -56q-60 0 -100 31q-46 -28 -90 -28q-93 0 -148 61q-63 67 -63 194q0 86 22 140q33 82 112 82q24 0 44 -15q24 -17 27 -48q18 39 46 53q22 12 66 12q73 0 111 -78q30 -60 30 -137q0 -144 -74 -185v-3q10 -2 15 -2q46 0 74 49
q33 54 33 148q0 76 -21 141q-16 50 -36 67h92q46 -76 46 -217zM430 264q0 60 -19 97q-20 41 -53 41t-52 -45q-19 -41 -19 -102q0 -56 20 -105q21 -50 51 -59q72 31 72 173zM276 69q-30 23 -48.5 68t-18.5 97q0 6 0.5 16.5t0.5 21t0.5 20.5t0.5 16q0 95 -37 95q-25 0 -38 -36
q-16 -39 -16 -119q0 -98 49 -144q37 -36 91 -36h8t8 1z" />
    <glyph glyph-name="mal_ra" unicode="&#xd30;" horiz-adv-x="485" 
d="M468 242q0 -243 -135 -243q-47 0 -82 41q-37 43 -37 116q0 69 29.5 108.5t78.5 39.5q50 0 70 -36q-14 138 -120 138q-66 0 -101 -50q-33 -48 -33 -134q0 -51 25 -130q10 -30 18 -53t16 -39h-80q-21 32 -36 107q-15 70 -15 122q0 112 53 180q55 69 153 69q109 0 159 -81
q37 -59 37 -155zM377 159q0 79 -47 77q-19 0 -31 -24q-11 -24 -11 -53q1 -17 3.5 -31t7.5 -25q12 -26 32 -26q19 0 32.5 23.5t13.5 58.5z" />
    <glyph glyph-name="mal_rra" unicode="&#xd31;" horiz-adv-x="391" 
d="M372 238q1 -130 -48 -238h-77q11 19 28 89q8 38 12.5 69.5t4.5 57.5q2 80 -15 128q-20 56 -63 56q-88 0 -83 -182q1 -36 5.5 -70.5t14.5 -68.5q15 -50 33 -79h-83q-14 20 -31 87q-17 74 -18 131q-2 123 40 191.5t120 68.5q155 0 160 -240z" />
    <glyph glyph-name="mal_la" unicode="&#xd32;" horiz-adv-x="571" 
d="M560 0h-497l11 243q9 235 162 235q81 0 122 -68q42 -76 41 -235h-250l-3 -99h330l-13 402h79zM320 252q-4 151 -84 149q-78 -2 -83 -149h167z" />
    <glyph glyph-name="mal_lla" unicode="&#xd33;" horiz-adv-x="487" 
d="M472 -171h-305q-50 0 -78 31q-27 28 -27 70q0 38 26 66q29 29 79 29h106q72 0 98 25q23 21 23 68q0 67 -40 67h-18v86h17q36 0 36 54q0 44 -28 62q-25 16 -88 16q-136 0 -146 -118h2q3 12 18 27q22 19 51 19q44 0 73 -35q30 -38 30 -105q0 -68 -31 -108q-29 -40 -78 -41
q-71 -5 -104 64q-13 26 -19 61t-7 80q0 76 26 131q49 103 184 103q111 0 155 -42t44 -144q0 -22 -14 -44q-16 -22 -36 -25q21 -10 34 -34q15 -29 15 -66q0 -72 -25 -110q-40 -61 -142 -61h-129q-11 0 -19.5 -8.5t-8.5 -19.5q0 -28 42 -28h284v-70zM225 190q0 68 -41 68
q-39 0 -40 -66q0 -32 9 -51q11 -23 29 -23t30 18q13 19 13 54z" />
    <glyph glyph-name="mal_llla" unicode="&#xd34;" horiz-adv-x="461" 
d="M456 314q0 -125 -108 -159q13 -36 13 -67q0 -55 -44 -84q-33 -21 -79 -21q-65 0 -97 38v95l26 -32q31 -26 75 -26t44 43q0 20 -10 41q-21 -6 -44 -6q-65 0 -106 37q-52 46 -52 141q0 82 24 165h81q-31 -80 -31 -149q0 -127 105 -122q-9 10 -24 51q-15 45 -15 71
q0 150 120 150q54 0 86 -41q36 -44 36 -125zM381 315q0 40 -13 63q-15 27 -42 27q-15 0 -27 -17q-11 -19 -11 -48q0 -52 36 -119q25 7 42 35q15 27 15 59z" />
    <glyph glyph-name="mal_va" unicode="&#xd35;" horiz-adv-x="629" 
d="M613 0h-326v6q28 43 46 104q14 53 16 103q4 186 -97 186q-110 0 -106 -184q0 -47 19 -107q20 -67 46 -103l-1 -5h-88q-54 97 -57 232q-3 112 46 179q50 68 138 68q97 0 142 -67q39 -59 42 -173q3 -96 -36 -174h127l-14 414h84z" />
    <glyph glyph-name="mal_sha" unicode="&#xd36;" horiz-adv-x="598" 
d="M583 226q-2 -225 -123 -225q-53 0 -83 41q-28 38 -31 111q-2 71 24 115q28 45 78 45q55 0 66 -42h4q-8 63 -45 101q-35 35 -74 35q-47 0 -78 -29q-32 -32 -32 -89q0 -19 3 -41q10 -49 10 -96q0 -154 -105 -154q-79 0 -112 54q-27 46 -27 153v17t1 19q1 32 6.5 66t15.5 70
q16 61 39 102h87q-78 -114 -78 -231q0 -40 1.5 -67t3.5 -41q12 -72 53 -72t41 68q0 39 -14 115q-5 26 -5 47q0 77 48 127q49 52 131 52q114 0 163 -97q32 -66 32 -154zM495 152q0 38 -11 61t-29 22q-39 -2 -39 -83q0 -31 11 -55q12 -26 30 -24q38 2 38 79z" />
    <glyph glyph-name="mal_ssa" unicode="&#xd37;" horiz-adv-x="731" 
d="M720 0h-509v6q34 55 30 116q-4 73 -51 73q-31 0 -44 -28q-9 -21 -9 -45q0 -40 10 -81q9 -38 15 -41h-82q-25 61 -24 122q2 65 36 107q36 43 101 45q60 1 96 -41q32 -41 32 -100q0 -35 -10 -65h79q13 37 21 77q8 38 15 56q-83 6 -119 62q-25 38 -23 88q2 63 45 97
q40 32 97 32q46 0 77 -31.5t33 -82.5q1 -44 -13 -90q28 0 65 22q39 23 37 40l-5 141h78zM634 69l-7 176q-68 -41 -118 -41q-6 -24 -39 -135h164zM465 345q1 26 -11.5 42t-34.5 16q-27 0 -43.5 -16t-16.5 -43q2 -27 16 -44q24 -26 75 -26q13 45 15 71z" />
    <glyph glyph-name="mal_sa" unicode="&#xd38;" horiz-adv-x="786" 
d="M772 233q0 -85 -24 -140q-41 -93 -138 -93q-75 0 -113.5 36t-38.5 102q0 34 10 73q17 70 17 112q0 78 -55 78q-59 0 -59 -60v-341h-82v341q0 57 -58 57q-52 0 -74 -48q-19 -39 -19 -129q0 -116 63 -221h-95q-17 28 -30 93q-16 68 -16 129q0 126 45 194q45 64 128 64
q72 0 97 -46q16 23 36 34q21 10 64 10q69 0 101 -53q27 -44 27 -115q0 -50 -12 -99q-8 -38 -8 -62q0 -72 69 -72q44 0 67 54q17 43 17 102q0 87 -45 170q-17 28 -54 75h99q81 -120 81 -245z" />
    <glyph glyph-name="mal_ha" unicode="&#xd39;" horiz-adv-x="796" 
d="M793 236q-1 -138 -61 -236h-86l18 35q10 21 17.5 42t13.5 41q17 59 17 104q0 84 -21 126q-26 51 -84 51q-106 0 -106 -173q0 -69 28 -147q21 -59 36 -79h-331q25 63 25 115q0 87 -52 87q-27 0 -44 -22.5t-17 -64.5q0 -51 30 -115h-89q-13 31 -19 59.5t-7 55.5
q-2 38 8 69.5t29.5 54t47 35t60.5 12.5q68 0 106 -47q33 -41 33 -104q0 -47 -9 -69h121q-33 56 -35 154q-3 127 48 194q50 65 140 65q91 0 138.5 -62.5t44.5 -180.5z" />
    <glyph glyph-name="mal_ttta" unicode="&#xd3a;" horiz-adv-x="522" 
d="M31 478h72l-13 -503h398v-77h-185v-148h-77v148h-214z" />
    <glyph glyph-name="glyph58" 
d="M188 166q0 -27 -19.5 -47t-47.5 -20q-29 0 -48 20t-19 47q0 28 19 48t48 20q27 0 47 -20t20 -48z" />
    <glyph glyph-name="glyph105" 
d="M188 166q0 -27 -19.5 -47t-47.5 -20q-29 0 -48 20t-19 47q0 28 19 48t48 20q27 0 47 -20t20 -48z" />
    <glyph glyph-name="mal_avagraha" unicode="&#xd3d;" horiz-adv-x="598" 
d="M263 133q-32 -71 -63 -109t-77 -38q-16 0 -34 5q-71 18 -92 87l23 85l15 -1q7 -41 25.5 -65.5t45.5 -33.5q41 -10 66 29q3 5 7.5 14t12.5 27t19.5 46t29.5 71l84 195l-1 -1q39 148 136 148q17 0 39 -5q71 -18 92 -87l-23 -86l-15 1q-7 42 -25.5 66.5t-45.5 33.5
q-41 8 -66 -30q-3 -5 -7.5 -14t-12.5 -26.5t-20 -45.5t-30 -71l-83 -195v0z" />
    <glyph glyph-name="mal_aamatra" unicode="&#xd3e;" horiz-adv-x="317" 
d="M304 231q0 -124 -48 -184q-38 -47 -101 -47q-48 0 -86 29v94q11 -13 18.5 -20t9.5 -9q20 -16 57 -16q36 0 56 47q16 39 16 102q0 175 -78 175q-36 0 -58 -19l-21 -26v80q34 42 98 42q59 0 95 -55q42 -65 42 -193z" />
    <glyph glyph-name="mal_imatra" unicode="&#xd3f;" horiz-adv-x="163" 
d="M149 -11h-80v469q0 47 -12 65q-13 22 -50 22q-62 0 -98 -40v97q10 12 43 21t67 9q130 0 130 -194v-449z" />
    <glyph glyph-name="mal_iimatra" unicode="&#xd40;" horiz-adv-x="292" 
d="M264 0h-79v450h-4q-17 -30 -59 -32q-51 -2 -79 29q-28 29 -28 82q0 45 28 73q30 30 84 30q137 0 137 -149v-483zM178 529q-5 19 -21 29q-12 9 -24 9q-50 0 -50 -38q0 -17 11.5 -28t27.5 -11q48 0 56 39z" />
    <glyph glyph-name="mal_umatra" unicode="&#xd41;" horiz-adv-x="285" 
d="M289 -18q0 -72 -38 -116q-35 -41 -86 -41q-52 0 -83 43.5t-31 113.5q0 64 31 105q30 40 77 46q33 132 33 197q0 68 -40 68q-36 0 -64 -31q-10 -17 -23 -35v99q33 48 92 48q44 0 73 -29q36 -38 36 -118q0 -83 -41 -215q28 -15 46 -52.5t18 -82.5zM217 -18q0 29 -13.5 52
t-33.5 23q-21 0 -35 -22.5t-14 -52.5q0 -33 12 -55q14 -23 34 -23q21 0 35.5 22t14.5 56z" />
    <glyph glyph-name="mal_uumatra" unicode="&#xd42;" horiz-adv-x="281" 
d="M290 -19q0 -36 -9.5 -65.5t-26 -50.5t-39.5 -33t-50 -12q-57 0 -87 46q-28 41 -28 114q0 63 33 107q30 40 78 48q36 136 36 205q0 65 -33 65q-60 0 -99 -72v93q11 18 40 35q31 18 60 18q103 0 103 -140q0 -85 -39 -220q28 -18 44.5 -55.5t16.5 -82.5zM239 -20
q2 53 -27 82l-5 -6q12 -23 10 -51q-1 -23 -16 -39q-13 -15 -36 -13q-35 2 -35 52q2 31 17 52l-8 5q-35 -27 -35 -82q0 -44 16 -70q17 -29 46 -29q33 0 53 32q18 26 20 67z" />
    <glyph glyph-name="mal_signvocalic_r" unicode="&#xd43;" horiz-adv-x="191" 
d="M140 479q33 -183 33 -319q0 -165 -48 -249q-45 -80 -125 -78q-112 5 -113 85q-1 39 31 64q27 21 72 23q58 1 89 -24q18 52 18 173q0 203 -39 325h82zM53 -77q-21 26 -61 26q-42 0 -42 -27q0 -26 39 -26q46 0 64 27z" />
    <glyph glyph-name="mal_signvocalic_rr" unicode="&#xd44;" horiz-adv-x="191" 
d="M140 479q33 -183 33 -319q0 -165 -48 -249q-45 -80 -125 -78q-112 5 -113 85q-1 39 31 64q27 21 72 23q58 1 89 -24q18 52 18 173q0 203 -39 325h82zM53 -77q-21 26 -61 26q-42 0 -42 -27q0 -26 39 -26q46 0 64 27z" />
    <glyph glyph-name="glyph59" 
d="M188 166q0 -27 -19.5 -47t-47.5 -20q-29 0 -48 20t-19 47q0 28 19 48t48 20q27 0 47 -20t20 -48z" />
    <glyph glyph-name="mal_ematra" unicode="&#xd46;" horiz-adv-x="464" 
d="M458 226q0 -108 -56 -226h-81q63 99 63 222q0 83 -28 132q-32 56 -94 56q-59 0 -96 -42q-40 -45 -42 -119h2q3 19 26 36q24 18 53 18q105 0 105 -154q0 -69 -32 -109t-86 -40q-70 0 -106 73q-29 64 -29 166q0 91 37 153q51 88 160 88q102 0 155 -68q49 -64 49 -186z
M231 152q0 32 -9 52q-10 22 -30 22t-34 -17q-16 -19 -16 -57q0 -30 10 -50q12 -26 33 -26q20 0 34 23q10 21 12 53z" />
    <glyph glyph-name="mal_eematra" unicode="&#xd47;" horiz-adv-x="369" 
d="M356 356q0 -42 -23 -68q-26 -29 -76 -29q-81 0 -81 105q0 17 7 31.5t12 19.5q-67 -28 -67 -179q0 -126 55 -166q-17 26 -17 71q0 25 17 51q24 36 70 36q50 0 75 -31q25 -28 25 -78q0 -51 -30 -85q-31 -37 -90 -37q-174 0 -174 240q0 243 186 243q51 0 83 -39
q28 -34 28 -85zM285 119q0 17 -8 30q-9 14 -24 14q-31 0 -31 -44q0 -49 29 -49q17 0 26 16q8 14 8 33zM291 364q0 16 -10 28.5t-21 12.5t-19 -14.5t-8 -32.5q0 -15 8 -26q7 -13 20 -13t22 14q8 14 8 31z" />
    <glyph glyph-name="mal_aimatra" unicode="&#xd48;" horiz-adv-x="975" 
d="M923 226q0 -108 -56 -226h-81q63 99 63 222q0 80 -29 132q-33 57 -93 57t-97 -43q-39 -45 -42 -119h3q3 19 26 36q24 18 52 18q105 0 105 -154q0 -69 -32.5 -109t-84.5 -40q-72 0 -106 73q-29 64 -29 165q0 92 40 154q55 87 176 87q87 0 137 -69q48 -68 48 -184zM696 152
q0 32 -9 52q-10 22 -30 22t-34 -17q-16 -19 -16 -57q0 -30 10 -50q11 -26 33 -26q20 0 34 23q10 21 12 53zM458 226q0 -108 -56 -226h-81q63 99 63 222q0 80 -29 132q-33 57 -93 57q-59 0 -96 -43q-40 -45 -42 -119h2q3 19 26 36q24 18 53 18q105 0 105 -154q0 -69 -32 -109
t-86 -40q-70 0 -106 73q-29 64 -29 165q0 92 40 154q55 87 176 87q87 0 137 -69q48 -68 48 -184zM231 152q0 32 -9 52q-10 22 -30 22t-34 -17q-16 -19 -16 -57q0 -30 10 -50q12 -26 33 -26q20 0 34 23q10 21 12 53z" />
    <glyph glyph-name="glyph60" 
d="M188 166q0 -27 -19.5 -47t-47.5 -20q-29 0 -48 20t-19 47q0 28 19 48t48 20q27 0 47 -20t20 -48z" />
    <glyph glyph-name="mal_omatra" unicode="&#xd4a;" horiz-adv-x="1309" 
d="M1254 231q0 -123 -47 -184q-39 -47 -102 -47q-47 0 -85 29v94q11 -13 18 -20l9 -9q20 -16 57 -16q36 0 56 47q16 39 16 102q0 175 -78 175q-37 0 -57 -19l-21 -26v80q33 42 97 42q59 0 96 -55q41 -65 41 -193zM458 226q0 -108 -56 -226h-81q63 99 63 222q0 80 -29 132
q-33 57 -93 57q-59 0 -96 -43q-40 -45 -42 -119h2q3 19 26 36q24 18 53 18q105 0 105 -154q0 -69 -32 -109t-86 -40q-70 0 -106 73q-29 64 -29 165q0 92 40 154q55 87 176 87q87 0 137 -69q48 -68 48 -184zM231 152q0 32 -9 52q-10 22 -30 22t-34 -17q-16 -19 -16 -57
q0 -30 10 -50q12 -26 33 -26q20 0 34 23q10 21 12 53z" />
    <glyph glyph-name="mal_oomatra" unicode="&#xd4b;" horiz-adv-x="1157" 
d="M356 356q0 -42 -23 -68q-26 -29 -76 -29q-81 0 -81 105q0 17 7 31.5t12 19.5q-67 -28 -67 -179q0 -126 55 -166q-17 26 -17 71q0 25 17 51q24 36 70 36q50 0 75 -31q25 -28 25 -78q0 -51 -30 -85q-31 -37 -90 -37q-174 0 -174 240q0 243 186 243q51 0 83 -39
q28 -34 28 -85zM1121 231q0 -124 -48 -184q-38 -47 -101 -47q-48 0 -86 29v94q11 -13 18.5 -20t9.5 -9q20 -16 57 -16q36 0 56 47q16 39 16 102q0 175 -78 175q-36 0 -58 -19l-21 -26v80q33 42 98 42q59 0 96 -55q41 -65 41 -193zM285 119q0 17 -8 30q-9 14 -24 14
q-31 0 -31 -44q0 -49 29 -49q17 0 26 16q8 14 8 33zM291 364q0 16 -10 28.5t-21 12.5t-19 -14.5t-8 -32.5q0 -15 8 -26q7 -13 20 -13t22 14q8 14 8 31z" />
    <glyph glyph-name="mal_aumatra" unicode="&#xd4c;" horiz-adv-x="1438" 
d="M1400 253q0 -108 -56 -181q-57 -73 -150 -73q-42 0 -70 9q-31 12 -62 40v89q5 -6 9.5 -12t9.5 -12q16 -18 40 -29q31 -15 75 -15q61 0 98 61q33 55 33 123q0 72 -8 106q-14 47 -46 47q-33 0 -33 -46v-144h-77v137q0 20 -7.5 33.5t-19.5 13.5q-49 0 -47 -78q0 -46 16 -107
h-74q-14 51 -14 107q0 157 121 157q49 0 65 -37q23 35 63 35q63 0 93 -38q41 -50 41 -186zM458 226q0 -108 -56 -226h-81q63 99 63 222q0 80 -29 132q-33 57 -93 57q-59 0 -96 -43q-40 -45 -42 -119h2q3 19 26 36q24 18 53 18q105 0 105 -154q0 -69 -32 -109t-86 -40
q-70 0 -106 73q-29 64 -29 165q0 92 40 154q55 87 176 87q87 0 137 -69q48 -68 48 -184zM231 152q0 32 -9 52q-10 22 -30 22t-34 -17q-16 -19 -16 -57q0 -30 10 -50q12 -26 33 -26q20 0 34 23q10 21 12 53z" />
    <glyph glyph-name="mal_chandrakkala" unicode="&#xd4d;" horiz-adv-x="11" 
d="M153 588q0 -40 -30 -67q-34 -28 -92 -28q-49 0 -80 21q-35 26 -35 70q0 24 9 48h81q-12 -14 -12 -44q0 -35 37 -35q43 0 43 38q0 11 -5 25t-5 16h79q10 -17 10 -44z" />
    <glyph glyph-name="mal_dot_reph" unicode="&#xd4e;" horiz-adv-x="0" 
d="M-25 536q0 -27 -19.5 -47t-47.5 -20q-29 0 -48 20t-19 47q0 28 19 48t48 20q27 0 47 -20t20 -48z" />
    <glyph glyph-name="glyph61" 
d="M188 166q0 -27 -19.5 -47t-47.5 -20q-29 0 -48 20t-19 47q0 28 19 48t48 20q27 0 47 -20t20 -48z" />
    <glyph glyph-name="glyph62" 
d="M188 166q0 -27 -19.5 -47t-47.5 -20q-29 0 -48 20t-19 47q0 28 19 48t48 20q27 0 47 -20t20 -48z" />
    <glyph glyph-name="glyph63" 
d="M188 166q0 -27 -19.5 -47t-47.5 -20q-29 0 -48 20t-19 47q0 28 19 48t48 20q27 0 47 -20t20 -48z" />
    <glyph glyph-name="glyph64" 
d="M188 166q0 -27 -19.5 -47t-47.5 -20q-29 0 -48 20t-19 47q0 28 19 48t48 20q27 0 47 -20t20 -48z" />
    <glyph glyph-name="glyph65" 
d="M188 166q0 -27 -19.5 -47t-47.5 -20q-29 0 -48 20t-19 47q0 28 19 48t48 20q27 0 47 -20t20 -48z" />
    <glyph glyph-name="glyph83" 
d="M188 166q0 -27 -19.5 -47t-47.5 -20q-29 0 -48 20t-19 47q0 28 19 48t48 20q27 0 47 -20t20 -48z" />
    <glyph glyph-name="glyph84" 
d="M188 166q0 -27 -19.5 -47t-47.5 -20q-29 0 -48 20t-19 47q0 28 19 48t48 20q27 0 47 -20t20 -48z" />
    <glyph glyph-name="glyph85" 
d="M188 166q0 -27 -19.5 -47t-47.5 -20q-29 0 -48 20t-19 47q0 28 19 48t48 20q27 0 47 -20t20 -48z" />
    <glyph glyph-name="mal_length_mark" unicode="&#xd57;" horiz-adv-x="458" 
d="M443 253q0 -108 -56 -181q-57 -73 -150 -73q-42 0 -70 9q-31 12 -62 40v89q5 -6 9.5 -12t9.5 -12q16 -18 40 -29q31 -15 75 -15q61 0 98 61q33 55 33 123q0 72 -8 106q-14 47 -46 47q-33 0 -33 -46v-144h-77v137q0 20 -7.5 33.5t-18.5 13.5q-50 0 -48 -78q0 -46 16 -107
h-74q-14 51 -14 107q0 157 121 157q49 0 65 -37q23 35 63 35q63 0 93 -38q41 -50 41 -186z" />
    <glyph glyph-name="glyph87" 
d="M188 166q0 -27 -19.5 -47t-47.5 -20q-29 0 -48 20t-19 47q0 28 19 48t48 20q27 0 47 -20t20 -48z" />
    <glyph glyph-name="glyph88" 
d="M188 166q0 -27 -19.5 -47t-47.5 -20q-29 0 -48 20t-19 47q0 28 19 48t48 20q27 0 47 -20t20 -48z" />
    <glyph glyph-name="glyph89" 
d="M188 166q0 -27 -19.5 -47t-47.5 -20q-29 0 -48 20t-19 47q0 28 19 48t48 20q27 0 47 -20t20 -48z" />
    <glyph glyph-name="glyph90" 
d="M188 166q0 -27 -19.5 -47t-47.5 -20q-29 0 -48 20t-19 47q0 28 19 48t48 20q27 0 47 -20t20 -48z" />
    <glyph glyph-name="glyph91" 
d="M188 166q0 -27 -19.5 -47t-47.5 -20q-29 0 -48 20t-19 47q0 28 19 48t48 20q27 0 47 -20t20 -48z" />
    <glyph glyph-name="glyph92" 
d="M188 166q0 -27 -19.5 -47t-47.5 -20q-29 0 -48 20t-19 47q0 28 19 48t48 20q27 0 47 -20t20 -48z" />
    <glyph glyph-name="glyph93" 
d="M188 166q0 -27 -19.5 -47t-47.5 -20q-29 0 -48 20t-19 47q0 28 19 48t48 20q27 0 47 -20t20 -48z" />
    <glyph glyph-name="glyph94" 
d="M188 166q0 -27 -19.5 -47t-47.5 -20q-29 0 -48 20t-19 47q0 28 19 48t48 20q27 0 47 -20t20 -48z" />
    <glyph glyph-name="mal_vocalic_rr" unicode="&#xd60;" horiz-adv-x="499" 
d="M502 335q0 -142 -83 -190q74 -48 74 -149q0 -77 -55 -123q-58 -49 -158 -49q-104 0 -162 48q-57 46 -57 126q0 49 21.5 87.5t58.5 57.5q-38 0 -59 56q-20 53 -20 133q0 71 31 111q31 37 83 37q89 0 92 -130q1 -51 -27 -87q-28 -34 -66 -34q-25 0 -46 18l-5 1
q38 -84 152 -84q63 0 104 25t53 64h-3q-24 -25 -50 -25q-34 0 -56 36q-23 37 -23 85q1 51 24 89q27 42 73 42q104 0 104 -145zM398 300q17 0 24 16q9 13 9 35q0 20 -9 37t-24 17t-24 -17q-8 -14 -8 -35q0 -20 8 -36q9 -17 24 -17zM170 300q15 0 22 16q8 14 8 35q0 22 -9 37
q-8 17 -24 17q-29 0 -29 -49q0 -20 8 -38q9 -18 24 -18zM413 11q0 71 -55 98q-38 -15 -82 -15q-40 0 -74 12q-30 -19 -41 -37q-16 -25 -16 -67q0 -23 10 -42.5t28 -34t42 -23t51 -8.5q63 0 100 31.5t37 85.5zM392 2q0 -28 -14 -46.5t-36 -18.5t-36 18t-14 46q0 67 49 67
q24 0 38 -20q13 -16 13 -46zM354 0q0 27 -13 27q-12 -2 -12 -27q0 -23 12 -23q13 0 13 23zM276 2q0 -28 -13.5 -46.5t-35.5 -18.5t-36.5 18t-14.5 46q0 67 50 67q24 0 38 -20q12 -17 12 -46zM240 0q0 27 -14 27q-12 -2 -12 -27q0 -23 12 -23q14 0 14 23z" />
    <glyph glyph-name="mal_vocalic_ll" unicode="&#xd61;" horiz-adv-x="856" 
d="M815 101q0 -124 -63 -194q-56 -60 -135 -60q-78 0 -128 52v81q46 -63 128 -63q44 0 82 39q43 46 43 124q0 124 -29 141q5 -221 -129 -221q-54 0 -85.5 40.5t-31.5 107.5q1 93 48 135q37 32 110 41q-9 44 -44 68q-28 19 -67 19q-46 0 -74 -18q-30 -20 -30 -50v-343h-79
v339q0 26 -21 45.5t-51 19.5q-57 0 -93 -39q-34 -37 -40 -102h1q4 21 29 33q20 11 44 11q43 0 72 -39q33 -44 30 -126q-1 -67 -34 -106q-30 -36 -82 -36q-68 0 -101 75q-25 57 -25 158q0 84 27 143q49 102 172 102q89 0 110 -55q30 56 157 56q74 0 126 -49q50 -47 58 -119
q105 -20 105 -210zM635 243q-94 0 -94 -86q1 -19 2.5 -32.5t5.5 -21.5q11 -23 37 -23q32 0 43 54q6 30 6 109zM228 152q2 30 -9 50q-11 23 -33 23q-42 0 -42 -67q0 -36 13 -55q11 -17 29 -17q19 0 30 20q11 18 12 46z" />
    <glyph glyph-name="mal__singh_vocalic_l" unicode="&#xd62;" horiz-adv-x="14" 
d="M-26 -141q0 -63 -19 -101q-23 -41 -63 -41q-30 0 -52 25q-10 14 -15 30.5t-5 39.5q0 49 20 75q21 24 48 24q8 0 17.5 -3t15.5 -6q-2 8 -4.5 17.5t-6.5 18.5q-9 20 -24.5 31t-34.5 11q-21 0 -36 -15q-16 -16 -16 -44v-204h-46v219q0 20 -12 32t-32 12q-30 -1 -49.5 -21.5
t-25.5 -57.5q13 10 35 10q27 0 48 -24q20 -26 20 -75q0 -42 -20 -70q-22 -25 -52 -25q-40 0 -62 42q-19 38 -19 107q0 61 29 105q17 24 41 37.5t54 13.5q27 0 44.5 -6t27.5 -24q24 31 73 31q60 0 91 -45q30 -44 30 -119zM-80 -176q-1 10 -4 17.5t-7 13.5q-3 3 -8 5.5
t-10 1.5q-14 0 -21 -15q-2 -6 -4 -15.5t-2 -20.5q1 -21 8.5 -35t20.5 -14q10 0 20 19q4 10 6 20.5t1 22.5zM-307 -189q0 24 -6 36q-8 15 -20 15q-12 2 -20 -8q-9 -10 -10 -30q-1 -22 11 -48q6 -14 16 -14q12 0 20 14t9 35z" />
    <glyph glyph-name="mal__singh_vocalic_ll" unicode="&#xd63;" horiz-adv-x="11" 
d="M-18 -223q0 -79 -37 -116q-32 -34 -77 -34q-22 0 -42 10t-35 25v51l11 3q10 -17 26 -30q8 -5 19 -8.5t21 -3.5q27 0 45 22q25 26 25 81q0 33 -3 52t-15 26q-1 -30 -5 -56t-12 -40q-17 -39 -58 -39q-36 0 -54 29q-17 25 -17 67q0 44 23 70q12 14 29.5 19.5t39.5 5.5h5
q-2 11 -6 22t-12 19q-18 19 -38 19q-19 0 -34 -15q-14 -14 -14 -40v-195h-44v208q0 20 -11.5 31t-30.5 11q-58 -2 -70 -73q12 9 33 9q27 0 45 -24h-1q21 -24 21 -71q0 -20 -5.5 -36t-15.5 -30q-20 -25 -48 -25q-40 0 -59 41q-8 18 -13.5 44.5t-5.5 56.5q0 59 27 101
q33 50 92 50q47 0 66 -31q18 31 68 31q45 0 76 -37h-1q24 -31 28 -71q26 -5 44 -33q20 -34 20 -96zM-128 -133q-54 0 -54 -53q0 -17 7 -33q7 -14 21 -14q32 0 30 100h-4zM-335 -189q1 11 -1 20t-5 15q-8 14 -18 14q-11 1 -20 -8q-7 -9 -8 -28q-1 -11 1 -21.5t5 -19.5
q8 -17 20 -17q11 0 18.5 12.5t7.5 32.5z" />
    <glyph glyph-name="glyph99" 
d="M188 166q0 -27 -19.5 -47t-47.5 -20q-29 0 -48 20t-19 47q0 28 19 48t48 20q27 0 47 -20t20 -48z" />
    <glyph glyph-name="glyph100" 
d="M188 166q0 -27 -19.5 -47t-47.5 -20q-29 0 -48 20t-19 47q0 28 19 48t48 20q27 0 47 -20t20 -48z" />
    <glyph glyph-name="mal_zero" unicode="&#xd66;" horiz-adv-x="472" 
d="M461 242q0 -108 -47 -173q-51 -69 -148 -69q-91 0 -146 69q-53 68 -53 173t55 170q55 66 144 66q95 0 146 -65q49 -61 49 -171zM380 239q0 73 -27 115q-32 45 -89 45q-55 0 -87 -47q-31 -46 -31 -115q0 -67 32 -111q32 -47 84 -47q57 0 87.5 42.5t30.5 117.5z" />
    <glyph glyph-name="mal_one" unicode="&#xd67;" horiz-adv-x="827" 
d="M808 1h-583q-71 0 -71 -58q0 -42 52 -42h273v-83h-273q-55 0 -93 32q-41 35 -41 93q0 63 42 102t111 39h246l7 238q1 82 55 123q43 34 107 34q62 0 106 -36q47 -39 48 -106zM715 84l-8 249q0 29 -20.5 46.5t-54.5 17.5q-31 0 -49.5 -18t-19.5 -47l-5 -248h157z" />
    <glyph glyph-name="mal_two" unicode="&#xd68;" horiz-adv-x="633" 
d="M622 -1h-332q27 27 50 103q20 69 20 120q0 173 -91 173q-54 0 -79 -46q-22 -40 -22 -127q0 -50 17 -120q18 -77 43 -102h-90q-51 78 -54 229q-1 104 46 176q51 73 136 73q95 0 142 -75q39 -64 37 -168q-3 -97 -28 -160h205v-76z" />
    <glyph glyph-name="mal_three" unicode="&#xd69;" horiz-adv-x="792" 
d="M782 0h-258v247q0 83 -19 118.5t-67 35.5q-24 0 -38.5 -17t-14.5 -40v-344h-84v344q0 59 -44 59q-88 0 -88 -185q0 -40 20 -118q19 -79 37 -100h-94q-47 114 -47 225t39 177q44 77 133 77q58 0 88 -38q35 38 92 38q85 0 126 -47q44 -53 44 -175v-181h175v-76z" />
    <glyph glyph-name="mal_four" unicode="&#xd6a;" horiz-adv-x="494" 
d="M473 228q0 -96 -30 -157q-36 -71 -103 -71q-65 0 -102 67q-33 61 -33 154q0 47 12 95q14 60 42 91q-42 -5 -67 -42q-31 -44 -31 -132q0 -61 16 -115q21 -76 66 -118h-95q-67 100 -68 233q-2 119 52 186q56 73 162 68q27 -2 51 -13q11 16 11 34q0 40 -44 40q-47 0 -75 -33
v91q36 14 37 15q21 6 51 6q53 0 82 -36q24 -30 24 -76t-21 -80q28 -33 44 -86q19 -57 19 -121zM390 233q0 104 -42 148q-26 -9 -45 -58q-17 -48 -17 -94q0 -61 12 -100q15 -46 43 -46q49 0 49 150z" />
    <glyph glyph-name="mal_five" unicode="&#xd6b;" horiz-adv-x="747" 
d="M716 264q0 -122 -20 -220l-24 -86h-98q23 37 38 112q10 45 14.5 93t4.5 101q0 274 -227 274q-110 0 -174 -72q-63 -74 -63 -202q0 -180 50 -250q41 -56 137 -56q126 0 126 136q0 100 -50 100h-48v82h52q51 0 51 54q0 37 -21 60q-18 19 -44 19q-91 0 -91 -127v-282h-79
v289q0 67 27 117q43 79 143 79q70 0 109 -46q35 -43 35 -109q0 -69 -42 -100q20 -20 32 -61q10 -36 10 -80q0 -100 -59 -159q-58 -56 -151 -56q-128 0 -198 91q-77 101 -77 299q0 160 87 258q88 100 238 100q141 0 222 -82q90 -92 90 -276z" />
    <glyph glyph-name="mal_six" unicode="&#xd6c;" horiz-adv-x="811" 
d="M798 16l-136 -156h-94l147 167v249q0 120 -76 120q-64 0 -64 -54v-342h-84v342q0 21 -14 37q-17 17 -44 17q-23 0 -40 -17q-15 -15 -15 -37v-342h-84v328q0 27 -12 47q-13 22 -41 22q-78 0 -78 -176q0 -54 19 -117q19 -69 48 -104h-93q-18 27 -37 94q-20 72 -21 129
q-2 111 34 178q42 77 128 77q67 0 97 -40q28 40 95 40q68 0 102 -37q34 39 104 39q159 0 159 -195v-269z" />
    <glyph glyph-name="mal_seven" unicode="&#xd6d;" horiz-adv-x="374" 
d="M366 243q0 -243 -164 -243q-32 0 -63 10t-47 24v100q32 -53 109 -53q36 0 57 22.5t24 64.5q-32 -24 -75 -24q-56 0 -93 35q-43 40 -43 123q0 175 141 175q91 0 127 -70q27 -54 27 -164zM278 307q0 88 -70 88q-62 0 -62 -88q0 -82 64 -82q68 0 68 82z" />
    <glyph glyph-name="mal_eight" unicode="&#xd6e;" horiz-adv-x="629" 
d="M614 24q-3 -61 -41.5 -110t-97 -74.5t-129 -23.5t-139.5 43l35 41q63 -19 111 -17.5t83.5 16.5t60.5 42t43 59h-253v6q28 43 46 104q14 53 16 103q4 186 -97 186q-110 0 -106 -184q0 -47 19 -107q20 -67 46 -103l-1 -5h-88q-54 97 -57 232q-3 112 46 179q50 68 138 68
q97 0 142 -67q39 -59 42 -173q3 -96 -36 -174h127l-14 414h84z" />
    <glyph glyph-name="mal_nine" unicode="&#xd6f;" horiz-adv-x="713" 
d="M611 223q0 55 -16 106q-13 44 -28 56q-24 -14 -41 -61q-18 -48 -18 -106q0 -142 51 -142q52 0 52 147zM630 431q26 -29 44 -95q20 -71 17 -135q-5 -103 -32 -148q-32 -53 -102 -53q-121 0 -121 216q0 142 64 196q-14 5 -27 5q-33 0 -63 -24q-29 -24 -29 -49v-344h-81v336
q0 28 -17 48q-17 17 -37 17q-87 0 -87 -185q0 -121 61 -216h-85q-53 86 -53 226q0 118 42.5 184.5t118.5 68.5q42 1 64 -8q28 -12 45 -48q13 28 53 43q37 14 81 14q45 0 78 -15l92 142l62 -33z" />
    <glyph glyph-name="mal_ten" unicode="&#xd70;" horiz-adv-x="763" 
d="M311 15q-23 -109 -92.5 -144.5t-204.5 -0.5l13 47q49 -4 87.5 3t63.5 21t36.5 33.5t7.5 40.5l-14 464h84l14 -328q19 -75 80 -75q21 0 38.5 16t17.5 38v349h82v-349q0 -23 16 -38.5t38 -15.5q51 0 73 52q18 43 18 134q0 120 -68 217h90q59 -70 59 -232q0 -247 -172 -247
q-67 0 -96 47q-29 -47 -96 -47q-42 0 -75 15z" />
    <glyph glyph-name="mal_one_hundred" unicode="&#xd71;" horiz-adv-x="450" 
d="M443 249q0 -61 -14.5 -110t-43 -83.5t-72.5 -53t-102 -18.5q-72 0 -172 31l54 64q36 -9 64 -14t48 -5q83 0 122 49.5t39 134.5q0 158 -48 158q-8 0 -15.5 -4.5t-12.5 -15.5q-6 -8 -6 -33v-140h-79v146q0 47 -30 47q-8 0 -15 -4.5t-12 -10.5q-6 -9 -9.5 -22t-3.5 -33
q0 -63 14 -122h-73q-8 31 -12 61t-4 61q0 75 35 113q30 35 80 35t72 -28q23 28 71 28q28 0 50.5 -12.5t37.5 -33.5q37 -59 37 -185z" />
    <glyph glyph-name="mal_one_thousand" unicode="&#xd72;" horiz-adv-x="1040" 
d="M816 284q20 0 46.5 8.5t42.5 20.5q-11 -3 -18 -3q-120 0 -120 145q0 63 36 102q34 37 85 37q30 0 54 -13t41 -36t26.5 -56.5t9.5 -73.5q0 -49 -14.5 -85.5t-43.5 -65.5q-55 -55 -144 -55h-185q1 -6 1 -12v-12q0 -184 -110 -184q-51 0 -79 37q-28 34 -28 96q0 152 115 151
h29q-14 122 -105 122q-30 0 -49 -12q-31 -18 -31 -59v-336h-82v336q0 67 -52 67q-80 0 -80 -181q0 -27 4 -60.5t12 -73.5q17 -78 28 -88h-88q-34 102 -34 234q0 113 39 178q40 67 119 67q72 0 95 -51q38 50 129 50q61 0 104 -40q56 -51 60 -154h187zM847 456q0 -69 41 -69
q43 0 43 63q0 34 -13 51q-12 17 -31 17q-18 0 -29 -16.5t-11 -45.5zM539 209q-23 0 -36 -19q-11 -17 -11 -44q0 -63 28 -63q26 0 34 45q2 9 2.5 29t1.5 52h-19z" />
    <glyph glyph-name="mal_one_quarter" unicode="&#xd73;" horiz-adv-x="802" 
d="M769 399h-489q-20 0 -46.5 -8.5t-42.5 -20.5q10 3 18 3q120 0 120 -145q0 -63 -36 -102q-34 -37 -85 -37q-30 0 -54 13t-41 36t-26.5 56t-9.5 74q0 97 58 154q55 55 144 55h490v-78zM249 227q0 69 -41 69q-43 0 -43 -63q0 -34 13 -51q12 -17 31 -17q18 0 29 16.5t11 45.5
z" />
    <glyph glyph-name="mal_one_half" unicode="&#xd74;" horiz-adv-x="629" 
d="M410 409q-44 10 -90 13.5t-86.5 -11.5t-71 -54t-42.5 -114h3q3 25 22 41q21 18 52 18q47 0 74 -37q30 -39 30 -111q0 -75 -30 -115t-84 -40q-73 0 -108 77q-28 60 -28 165q0 79 31.5 132.5t88 82t134.5 31.5t171 -20q19 13 19 38q0 57 -53 57q-21 0 -56 -16v69
q40 15 69 15q54 0 85 -29.5t31 -78.5q0 -16 -3 -32q-8 -33 -25 -60q65 -80 65 -213q0 -216 -134 -216t-137 222q-1 50 17 102q21 55 56 84zM526 223q0 98 -47 154q-30 -14 -46 -57q-20 -44 -18 -99q1 -141 59 -141q52 0 52 143zM229 157q0 70 -42 70q-20 0 -32 -19
q-12 -20 -12 -55q0 -33 10 -54q12 -25 32 -25q21 0 33 26q11 24 11 57z" />
    <glyph glyph-name="mal_three_quarters" unicode="&#xd75;" horiz-adv-x="737" 
d="M635 223q0 55 -16 106q-13 44 -28 56q-24 -14 -41 -61q-18 -48 -18 -106q0 -142 51 -142q52 0 52 147zM251 479q20 0 38 -1.5t34 -7t29.5 -16.5t23.5 -31q13 27 53 42q37 14 81 14q45 0 78 -15q19 16 19 41q0 57 -53 57q-21 0 -57 -16v69q40 15 70 15q56 0 86 -31
q29 -31 29 -80q0 -7 -0.5 -14t-1.5 -15q-4 -27 -26 -59q26 -29 44 -95q20 -71 17 -135q-5 -103 -32 -148q-32 -53 -102 -53q-121 0 -121 215q0 142 64 196q-14 6 -27 6q-33 0 -63 -24q-29 -24 -29 -49v-344h-81v335q0 35 -24 53t-60 18q-54 0 -86.5 -44t-33.5 -119h3
q3 25 22 41q21 18 52 18q47 0 74 -37q30 -39 30 -111q0 -75 -30 -115t-84 -40q-73 0 -108 77q-28 60 -28 165q0 79 30 138q49 100 170 100zM229 157q0 70 -42 70q-20 0 -32 -19q-12 -20 -12 -55q0 -33 10 -54q12 -25 32 -25q21 0 33 26q11 24 11 57z" />
    <glyph glyph-name="glyph163" 
d="M188 166q0 -27 -19.5 -47t-47.5 -20q-29 0 -48 20t-19 47q0 28 19 48t48 20q27 0 47 -20t20 -48z" />
    <glyph glyph-name="glyph164" 
d="M188 166q0 -27 -19.5 -47t-47.5 -20q-29 0 -48 20t-19 47q0 28 19 48t48 20q27 0 47 -20t20 -48z" />
    <glyph glyph-name="glyph165" 
d="M188 166q0 -27 -19.5 -47t-47.5 -20q-29 0 -48 20t-19 47q0 28 19 48t48 20q27 0 47 -20t20 -48z" />
    <glyph glyph-name="mal_date_mark" unicode="&#xd79;" horiz-adv-x="728" 
d="M707 209h-75q1 -6 1 -12v-12q0 -184 -110 -184q-51 0 -79 37q-28 34 -28 96q0 152 115 151h29q-14 122 -105 122q-30 0 -49 -12q-31 -18 -31 -59v-336h-82v336q0 67 -52 67q-80 0 -80 -181q0 -27 4 -60.5t12 -73.5q17 -78 28 -88h-88q-34 102 -34 234q0 113 39 178
q40 67 119 67q72 0 95 -51q38 50 129 50q61 0 104 -40q56 -51 60 -154h78v-75zM539 209q-23 0 -36 -19q-11 -17 -11 -44q0 -63 28 -63q26 0 34 45q2 9 2.5 29t1.5 52h-19z" />
    <glyph glyph-name="mal_chillu_nn" unicode="&#xd7a;" horiz-adv-x="977" 
d="M954 211q0 -98 -32 -153q-34 -58 -100 -58q-62 0 -95 57q-34 55 -34 154q0 139 74 189q-18 9 -41 9q-38 0 -63 -19q-29 -21 -29 -54v-336h-84v343q0 26 -15 46q-17 21 -42 21q-54 0 -54 -62v-348h-83v346q0 24 -21.5 41t-50.5 18q-27 2 -50.5 -7.5t-41 -28.5t-28.5 -46
t-14 -60q1 12 17 26q22 18 57 17q100 -1 100 -156q0 -69 -30.5 -109.5t-81.5 -40.5q-70 0 -104 76q-29 63 -29 156q0 78 32 142q52 105 175 105q75 0 106 -46q6 22 34 35t61 14q73 1 108 -45q19 45 122 45q61 0 111 -18q19 16 19 41q0 57 -54 57q-20 0 -56 -16v69
q42 15 70 15q54 0 86 -30q30 -29 30 -78q0 -17 -4 -32q-6 -33 -25 -60q60 -65 60 -219zM875 215q0 98 -46 156q-58 -37 -58 -160q0 -134 52 -134t52 138zM209 225q-22 0 -32 -19q-9 -18 -9 -45q0 -31 10 -52q10 -24 28 -24t29 24t11 52q0 63 -37 64z" />
    <glyph glyph-name="mal_chillu_n" unicode="&#xd7b;" horiz-adv-x="713" 
d="M691 201q-5 -103 -32 -148q-32 -53 -102 -53q-121 0 -121 216q0 142 64 196q-14 5 -27 5q-33 0 -63 -24q-29 -24 -29 -49v-344h-81v336q0 28 -17 48q-17 17 -37 17q-87 0 -87 -185q0 -121 61 -216h-85q-53 86 -53 226q0 118 42.5 184.5t118.5 68.5q42 1 64 -8
q28 -12 45 -48q13 28 53 43q37 14 81 14q45 0 78 -15q19 16 19 41q0 56 -53 56q-21 0 -57 -16v69q40 15 70 15q56 0 86 -31q29 -31 29 -80q0 -7 -0.5 -14t-1.5 -15q-4 -27 -26 -59q26 -29 44 -95q20 -71 17 -135zM611 223q0 55 -16 106q-13 44 -28 56q-24 -14 -41 -61
q-18 -48 -18 -106q0 -142 51 -142q52 0 52 147z" />
    <glyph glyph-name="mal_chillu_rr" unicode="&#xd7c;" horiz-adv-x="499" 
d="M478 217q0 -216 -134 -216t-137 222q-1 50 17 102q21 55 56 84q-58 0 -89 -45q-35 -47 -35 -141q0 -64 21 -143q15 -60 27 -79h-81q-41 108 -41 218q0 132 43 194q46 66 147 66q36 0 74 -12q19 13 19 38q0 57 -53 57q-21 0 -56 -16v69q40 15 69 15q54 0 85 -29.5
t31 -78.5q0 -16 -3 -32q-8 -33 -25 -60q65 -80 65 -213zM396 223q0 98 -47 154q-30 -14 -46 -57q-20 -44 -18 -99q1 -141 59 -141q52 0 52 143z" />
    <glyph glyph-name="mal_chillu_l" unicode="&#xd7d;" horiz-adv-x="764" 
d="M742 202q-3 -105 -24 -148q-26 -54 -90 -54q-62 0 -87 54q-23 49 -23 153q0 62 16 116q17 54 39 79q-51 18 -92 18q-29 0 -56 -9q55 -48 55 -205q0 -206 -126 -206q-63 0 -100 60q-37 59 -37 157q0 145 67 196q-4 1 -7.5 1h-6.5q-55 0 -86 -55q-33 -56 -30 -151
q1 -71 29 -138l34 -70h-80q-11 19 -20 43.5t-17 53.5q-18 67 -18 132q0 112 48 181q48 70 123 70q82 0 111 -30q46 31 125 31q75 0 131 -29q19 20 23 46q2 8 2 12q0 21 -15 36.5t-39 15.5q-21 0 -57 -16v69q40 15 70 15q52 0 83 -29q30 -29 30 -78q0 -60 -40 -116
q27 -27 47 -88q19 -59 18 -117zM667 213q0 46 -13 91q-12 42 -27 54q-33 -47 -36 -145q-1 -45 3 -79q9 -57 34 -57q29 0 36 55q3 25 3 81zM404 208q0 63 -16 117q-15 55 -35 66q-28 -4 -46 -61q-17 -54 -17 -115q0 -60 14 -99q17 -41 48 -41q52 0 52 133z" />
    <glyph glyph-name="mal_chillu_ll" unicode="&#xd7e;" horiz-adv-x="657" 
d="M638 217q0 -217 -137 -217q-128 0 -128 207q0 66 22 119q24 62 70 87q-18 5 -33 5q-53 0 -90 -39q-37 -37 -37 -90q0 -15 5 -33q18 -77 18 -131q0 -125 -94 -125q-83 0 -118 59q-34 58 -34 194q0 64 18 133q17 59 36 92h86q-65 -118 -65 -216q0 -189 64 -189q34 0 34 43
q0 10 -3 29t-8 48q-6 31 -9.5 54.5t-4.5 39.5q-5 90 52 144q53 50 138 50q45 0 92 -15q18 13 18 38q0 58 -52 58q-21 0 -57 -16v69q40 15 70 15q54 0 85 -29.5t31 -78.5q0 -16 -3 -32q-8 -37 -26 -62q60 -65 60 -211zM562 224q0 56 -14 101q-12 44 -31 57q-27 -15 -48 -64
q-22 -51 -22 -108q0 -135 52 -135q63 0 63 149z" />
    <glyph glyph-name="mal_chillu_k" unicode="&#xd7f;" horiz-adv-x="839" 
d="M795 428q0 -40 -13 -81t-35 -77q34 -15 53.5 -47t19.5 -70q0 -37 -20 -74q-29 -52 -75 -69q-15 -7 -34 -7q-11 0 -24.5 4t-24.5 10q-49 28 -49 83q0 45 26 103h-76q-5 -46 -19 -82t-35 -65q-47 -56 -118 -56q-63 0 -111 46q-2 -5 -8 -11.5t-11 -11.5q-25 -23 -61 -23
q-52 0 -81 41q-13 18 -19.5 40t-6.5 51q0 62 28 101q34 42 95 43q1 41 13.5 74.5t36.5 63.5q52 66 125 66t118 -50q47 -53 54 -154h113q13 4 25 19.5t21 36.5t14.5 45.5t5.5 46.5q0 26 -8.5 45t-28.5 19q-45 0 -75 -67h-25v86q41 59 95 59q115 0 115 -138zM463 277
q-12 128 -95 128q-37 0 -67 -42q-26 -37 -31 -86h193zM272 202q5 -50 28 -85q13 -19 30.5 -29.5t37.5 -10.5q42 0 66 39q12 18 19 39t9 47h-190zM699 225l11 -6q-16 -30 -24.5 -47.5t-10.5 -24.5q-4 -11 -6 -21.5t-2 -18.5q0 -18 9 -24q14 -8 29.5 -0.5t27.5 29.5
q8 15 11 29.5t1 27.5q-4 14 -12 26.5t-23 23.5l6 10zM199 83q12 12 18 33q-18 30 -21 88q-27 -1 -40 -19.5t-13 -52.5q0 -59 37 -59q10 0 19 10zM218 120q-1 -1 -1 -4l2 -3z" />
    <glyph glyph-name="glyph174" 
d="M188 166q0 -27 -19.5 -47t-47.5 -20q-29 0 -48 20t-19 47q0 28 19 48t48 20q27 0 47 -20t20 -48z" />
    <glyph glyph-name="glyph175" 
d="M188 166q0 -27 -19.5 -47t-47.5 -20q-29 0 -48 20t-19 47q0 28 19 48t48 20q27 0 47 -20t20 -48z" />
    <glyph glyph-name="glyph130" 
d="M188 166q0 -27 -19.5 -47t-47.5 -20q-29 0 -48 20t-19 47q0 28 19 48t48 20q27 0 47 -20t20 -48z" />
    <glyph glyph-name="non-joiner" unicode="&#x200c;" horiz-adv-x="0" 
d="M11 -85h-22v572h22v-572z" />
    <glyph glyph-name="joiner" unicode="&#x200d;" horiz-adv-x="0" 
d="M67 421l-15 -15l-41 42v-533h-22v533l-41 -42l-15 15l52 52l-52 51l15 16l52 -53l52 53l15 -16l-52 -51z" />
    <glyph glyph-name="glyph179" horiz-adv-x="492" 
d="M544 186h-432l-44 46h432z" />
    <glyph glyph-name="glyph212" horiz-adv-x="351" 
d="M326 266h-121v-398h-59v398h-122v50h122v135h59v-135h121v-50z" />
    <glyph glyph-name="glyph213" horiz-adv-x="431" 
d="M398 231h-37v180l-42 -180h-38l-41 180v-180h-38v220h60l38 -170l38 170h60v-220zM176 414h-59v-183h-42v183h-59v37h160v-37z" />
    <glyph glyph-name="dotted_circle" unicode="&#x25cc;" horiz-adv-x="0" 
 />
    <glyph glyph-name="mal_vattu" horiz-adv-x="197" 
d="M312 -142q-56 -27 -118 -27q-119 0 -119 224q0 78 9.5 182.5t28.5 239.5h81l-20 -144q-21 -165 -24 -268v-28q0 -120 54 -129q10 -2 18 -2q46 0 90 36v-84z" />
    <glyph glyph-name="mal_lavattu" horiz-adv-x="571" 
d="M560 0h-497l11 243q9 235 162 235q81 0 122 -68q42 -76 41 -235h-250l-3 -99h330l-13 402h79zM320 252q-4 151 -84 149q-78 -2 -83 -149h167zM723 588q0 -40 -30 -67q-34 -28 -92 -28q-49 0 -80 21q-35 26 -35 70q0 24 9 48h81q-12 -14 -12 -44q0 -35 37 -35q43 0 43 38
q0 11 -5 25t-5 16h79q10 -17 10 -44z" />
    <glyph glyph-name="mal_half_r" horiz-adv-x="499" 
d="M478 217q0 -216 -134 -216t-137 222q-1 50 17 102q21 55 56 84q-58 0 -89 -45q-35 -47 -35 -141q0 -64 21 -143q15 -60 27 -79h-81q-41 108 -41 218q0 132 43 194q46 66 147 66q36 0 74 -12q19 13 19 38q0 57 -53 57q-21 0 -56 -16v69q40 15 69 15q54 0 85 -29.5
t31 -78.5q0 -16 -3 -32q-8 -33 -25 -60q65 -80 65 -213zM396 223q0 98 -47 154q-30 -14 -46 -57q-20 -44 -18 -99q1 -141 59 -141q52 0 52 143z" />
    <glyph glyph-name="mal_half_t" horiz-adv-x="764" 
d="M742 202q-3 -105 -24 -148q-26 -54 -90 -54q-62 0 -87 54q-23 49 -23 153q0 62 16 116q17 54 39 79q-51 18 -92 18q-29 0 -56 -9q55 -48 55 -205q0 -206 -126 -206q-63 0 -100 60q-37 59 -37 157q0 145 67 196q-4 1 -7.5 1h-6.5q-55 0 -86 -55q-33 -56 -30 -151
q1 -71 29 -138l34 -70h-80q-11 19 -20 43.5t-17 53.5q-18 67 -18 132q0 112 48 181q48 70 123 70q82 0 111 -30q46 31 125 31q75 0 131 -29q19 20 23 46q2 8 2 12q0 21 -15 36.5t-39 15.5q-21 0 -57 -16v69q40 15 70 15q52 0 83 -29q30 -29 30 -78q0 -60 -40 -116
q27 -27 47 -88q19 -59 18 -117zM667 213q0 46 -13 91q-12 42 -27 54q-33 -47 -36 -145q-1 -45 3 -79q9 -57 34 -57q29 0 36 55q3 25 3 81zM404 208q0 63 -16 117q-15 55 -35 66q-28 -4 -46 -61q-17 -54 -17 -115q0 -60 14 -99q17 -41 48 -41q52 0 52 133z" />
    <glyph glyph-name="mal_half_n" horiz-adv-x="713" 
d="M691 201q-5 -103 -32 -148q-32 -53 -102 -53q-121 0 -121 216q0 142 64 196q-14 5 -27 5q-33 0 -63 -24q-29 -24 -29 -49v-344h-81v336q0 28 -17 48q-17 17 -37 17q-87 0 -87 -185q0 -121 61 -216h-85q-53 86 -53 226q0 118 42.5 184.5t118.5 68.5q42 1 64 -8
q28 -12 45 -48q13 28 53 43q37 14 81 14q45 0 78 -15q19 16 19 41q0 56 -53 56q-21 0 -57 -16v69q40 15 70 15q56 0 86 -31q29 -31 29 -80q0 -7 -0.5 -14t-1.5 -15q-4 -27 -26 -59q26 -29 44 -95q20 -71 17 -135zM611 223q0 55 -16 106q-13 44 -28 56q-24 -14 -41 -61
q-18 -48 -18 -106q0 -142 51 -142q52 0 52 147z" />
    <glyph glyph-name="mal_half_nn" horiz-adv-x="977" 
d="M954 211q0 -98 -32 -153q-34 -58 -100 -58q-62 0 -95 57q-34 55 -34 154q0 139 74 189q-18 9 -41 9q-38 0 -63 -19q-29 -21 -29 -54v-336h-84v343q0 26 -15 46q-17 21 -42 21q-54 0 -54 -62v-348h-83v346q0 24 -21.5 41t-50.5 18q-27 2 -50.5 -7.5t-41 -28.5t-28.5 -46
t-14 -60q1 12 17 26q22 18 57 17q100 -1 100 -156q0 -69 -30.5 -109.5t-81.5 -40.5q-70 0 -104 76q-29 63 -29 156q0 78 32 142q52 105 175 105q75 0 106 -46q6 22 34 35t61 14q73 1 108 -45q19 45 122 45q61 0 111 -18q19 16 19 41q0 57 -54 57q-20 0 -56 -16v69
q42 15 70 15q54 0 86 -30q30 -29 30 -78q0 -17 -4 -32q-6 -33 -25 -60q60 -65 60 -219zM875 215q0 98 -46 156q-58 -37 -58 -160q0 -134 52 -134t52 138zM209 225q-22 0 -32 -19q-9 -18 -9 -45q0 -31 10 -52q10 -24 28 -24t29 24t11 52q0 63 -37 64z" />
    <glyph glyph-name="mal_half_ll" horiz-adv-x="657" 
d="M638 217q0 -217 -137 -217q-128 0 -128 207q0 66 22 119q24 62 70 87q-18 5 -33 5q-53 0 -90 -39q-37 -37 -37 -90q0 -15 5 -33q18 -77 18 -131q0 -125 -94 -125q-83 0 -118 59q-34 58 -34 194q0 64 18 133q17 59 36 92h86q-65 -118 -65 -216q0 -189 64 -189q34 0 34 43
q0 10 -3 29t-8 48q-6 31 -9.5 54.5t-4.5 39.5q-5 90 52 144q53 50 138 50q45 0 92 -15q18 13 18 38q0 58 -52 58q-21 0 -57 -16v69q40 15 70 15q54 0 85 -29.5t31 -78.5q0 -16 -3 -32q-8 -37 -26 -62q60 -65 60 -211zM562 224q0 56 -14 101q-12 44 -31 57q-27 -15 -48 -64
q-22 -51 -22 -108q0 -135 52 -135q63 0 63 149z" />
    <glyph glyph-name="mal_half_ll1" horiz-adv-x="838" 
d="M800 175q0 -38 -11.5 -68.5t-31.5 -52.5t-48 -34t-61 -12q-98 0 -145 119q-14 -27 -35.5 -50.5t-47 -40.5t-54 -26.5t-56.5 -9.5q-38 0 -70.5 16t-56 45t-37 70t-14.5 91h34q3 -33 16.5 -62.5t34 -52t46 -35.5t52.5 -13q25 0 46 8t40.5 23.5t39.5 38.5t44 52
q-54 190 -200 190q-98 0 -167 -57l-60 -58q-5 2 -20 26q31 42 57.5 69.5t53 43.5t56 22t66.5 6q48 0 89 -14.5t73.5 -40t54.5 -60.5t31 -77q12 17 28.5 33.5t35 29t37 20.5t34.5 8q72 0 109 -39t37 -108zM735 170q0 48 -25.5 73t-65.5 25q-51 0 -106 -87q1 -22 10 -41
t22.5 -33.5t30 -23t33.5 -8.5q21 0 39.5 8t32 21t21.5 30.5t8 35.5z" />
    <glyph glyph-name="glyph176" 
d="M188 166q0 -27 -19.5 -47t-47.5 -20q-29 0 -48 20t-19 47q0 28 19 48t48 20q27 0 47 -20t20 -48z" />
    <glyph glyph-name="glyph177" 
d="M188 166q0 -27 -19.5 -47t-47.5 -20q-29 0 -48 20t-19 47q0 28 19 48t48 20q27 0 47 -20t20 -48z" />
    <glyph glyph-name="glyph178" horiz-adv-x="10" 
d="M-107 0h54v-113q0 -19 -10.5 -34.5t-26.5 -26.5t-34 -17t-33 -6q-23 0 -45 5t-39 15.5t-28 26t-11 37.5q0 20 11 33.5t26.5 21t33 10.5t31.5 3q27 0 40.5 -4.5t30.5 -15.5v65zM-252 -113q0 -12 7 -20.5t17 -14.5t21.5 -9t20.5 -3q45 0 61.5 14t16.5 32q0 19 -19.5 30
t-43.5 11q-36 0 -58.5 -10t-22.5 -30z" />
    <glyph glyph-name="glyph180" horiz-adv-x="10" 
d="M1 11l6 -225h-404q17 11 43 29t65 44.5t92.5 64t125.5 87.5h72zM-80 -68q-44 -30 -65.5 -44t-31 -20.5t-12 -8.5l-7.5 -6h120q-1 23 -2 38.5t-2 40.5z" />
    <glyph glyph-name="mal_blwf_la" horiz-adv-x="10" 
d="M1 -109q0 -51 -31 -83q-37 -37 -100 -37q-72 0 -94 39q-13 22 -13 72q0 37 -20 54q-16 13 -43 14l-42 2q35 -26 35 -80q0 -48 -27 -73t-75 -25t-78 31q-29 29 -29 74q0 119 187 119q81 0 118 -32q31 -27 31 -81q0 -28 6 -38q12 -19 45 -19q69 0 69 69q0 81 -56 76v26
q68 0 93 -28q24 -26 24 -80zM-365 -120q0 19 -14 38q-13 15 -26 19q-24 -3 -38.5 -17t-14.5 -35q0 -57 43 -57q50 0 50 52z" />
    <glyph glyph-name="glyph181" horiz-adv-x="10" 
d="M1 -109q0 -51 -31 -83q-37 -37 -100 -37q-72 0 -94 39q-13 22 -13 72q0 37 -20 54q-16 13 -43 14l-42 2q35 -26 35 -80q0 -48 -27 -73t-75 -25t-78 31q-29 29 -29 74q0 119 187 119q81 0 118 -32q31 -27 31 -81q0 -28 6 -38q12 -19 45 -19q69 0 69 69q0 81 -56 76v26
q68 0 93 -28q24 -26 24 -80zM-365 -120q0 19 -14 38q-13 15 -26 19q-24 -3 -38.5 -17t-14.5 -35q0 -57 43 -57q50 0 50 52z" />
    <glyph glyph-name="glyph182" horiz-adv-x="10" 
d="M-120 -168q16 15 26 34t10 41q0 18 -6.5 34t-17 27.5t-24.5 18.5t-30 7h-4q23 -23 30.5 -47.5t7.5 -44.5q0 -18 -5.5 -35.5t-16 -31.5t-25.5 -23t-35 -9q-14 0 -27.5 7.5t-24 20t-17 30.5t-6.5 39q0 23 9.5 46.5t24.5 41.5h-6q-12 0 -24 -6t-21.5 -15.5t-15.5 -22.5
t-6 -28q0 -26 13 -50.5t38 -42.5l-36 -21q-26 22 -42.5 53t-16.5 69q0 22 8 42.5t22.5 36.5t35 25.5t45.5 9.5q14 0 26 -2t26 -10q28 12 56 12q27 0 50.5 -9.5t40 -26t26 -39t9.5 -49.5t-17.5 -57t-48.5 -55l-28 11zM-215 -147q14 0 22 14.5t8 34.5q0 41 -28 69
q-19 -18 -27 -36t-8 -36q0 -23 11 -34.5t22 -11.5z" />
    <glyph glyph-name="glyph183" horiz-adv-x="259" 
d="M253 -119q0 -21 -7.5 -41t-21.5 -36t-33.5 -25.5t-43.5 -9.5t-43.5 10t-33.5 26.5t-21.5 38t-7.5 44.5t8 44t21.5 36.5t32.5 25t41 9.5q27 0 47.5 -10.5t34 -28t20.5 -39.5t7 -44zM76 -83q14 -17 28.5 -24.5t30.5 -7.5q20 0 35.5 9t28.5 25q-22 43 -61 43
q-23 0 -39 -13.5t-23 -31.5zM136 -141q-14 0 -29.5 7.5t-35.5 24.5q0 -31 19 -53.5t48 -22.5t48 20t19 55q-18 -14 -34.5 -22.5t-34.5 -8.5z" />
    <glyph glyph-name="glyph184" horiz-adv-x="259" 
d="M253 -119q0 -21 -7.5 -41t-21.5 -36t-33.5 -25.5t-43.5 -9.5t-43.5 10t-33.5 26.5t-21.5 38t-7.5 44.5t7.5 44t21 36.5t33 25t42.5 9.5q27 0 47 -10.5t33.5 -28t20.5 -39.5t7 -44zM71 -112q0 -29 18.5 -51t48.5 -22q29 0 48 22t19 51q0 30 -19 52t-48 22q-30 0 -48.5 -22
t-18.5 -52z" />
    <glyph glyph-name="glyph185" horiz-adv-x="233" 
d="M115 602q24 0 45 -9t37 -25t25 -37t9 -45t-9 -45t-24.5 -37t-36.5 -25t-45 -9t-45.5 9t-37 25t-25 37t-9.5 45t9 45t25 37t37 25t45 9zM31 486q0 -35 25 -59.5t60 -24.5t59 24.5t24 59.5t-24.5 59.5t-59.5 24.5t-59.5 -24.5t-24.5 -59.5z" />
    <glyph glyph-name="mal_dummy" horiz-adv-x="355" 
d="M46 0v512h266v-512h-266zM92 46h174v418h-174v-418z" />
    <glyph glyph-name="glyph187" 
d="M188 166q0 -27 -19.5 -47t-47.5 -20q-29 0 -48 20t-19 47q0 28 19 48t48 20q27 0 47 -20t20 -48z" />
    <glyph glyph-name="glyph188" 
d="M188 166q0 -27 -19.5 -47t-47.5 -20q-29 0 -48 20t-19 47q0 28 19 48t48 20q27 0 47 -20t20 -48z" />
    <glyph glyph-name="glyph189" 
d="M188 166q0 -27 -19.5 -47t-47.5 -20q-29 0 -48 20t-19 47q0 28 19 48t48 20q27 0 47 -20t20 -48z" />
    <glyph glyph-name="glyph190" 
d="M188 166q0 -27 -19.5 -47t-47.5 -20q-29 0 -48 20t-19 47q0 28 19 48t48 20q27 0 47 -20t20 -48z" />
    <glyph glyph-name="glyph191" 
d="M188 166q0 -27 -19.5 -47t-47.5 -20q-29 0 -48 20t-19 47q0 28 19 48t48 20q27 0 47 -20t20 -48z" />
    <glyph glyph-name="glyph193" 
d="M188 166q0 -27 -19.5 -47t-47.5 -20q-29 0 -48 20t-19 47q0 28 19 48t48 20q27 0 47 -20t20 -48z" />
    <glyph glyph-name="glyph194" 
d="M188 166q0 -27 -19.5 -47t-47.5 -20q-29 0 -48 20t-19 47q0 28 19 48t48 20q27 0 47 -20t20 -48z" />
    <glyph glyph-name="glyph195" 
d="M188 166q0 -27 -19.5 -47t-47.5 -20q-29 0 -48 20t-19 47q0 28 19 48t48 20q27 0 47 -20t20 -48z" />
    <glyph glyph-name="glyph196" 
d="M188 166q0 -27 -19.5 -47t-47.5 -20q-29 0 -48 20t-19 47q0 28 19 48t48 20q27 0 47 -20t20 -48z" />
    <glyph glyph-name="glyph197" 
d="M188 166q0 -27 -19.5 -47t-47.5 -20q-29 0 -48 20t-19 47q0 28 19 48t48 20q27 0 47 -20t20 -48z" />
    <glyph glyph-name="glyph198" 
d="M188 166q0 -27 -19.5 -47t-47.5 -20q-29 0 -48 20t-19 47q0 28 19 48t48 20q27 0 47 -20t20 -48z" />
    <glyph glyph-name="glyph199" unicode="&#x200a;" horiz-adv-x="0" 
 />
    <glyph glyph-name="rupees" unicode="&#x20a8;" horiz-adv-x="321" 
d="M310 450l-38 -59h-55q8 -13 11 -28h82l-38 -58h-41q-6 -49 -38 -79.5t-80 -35.5l147 -190h-84q-53 69 -87.5 113.5t-50.5 63.5q-2 2 -4 5l-4 6q-3 4 -5 8v51q3 0 10 -0.5t10 -0.5q6 -1 11.5 -1.5t9.5 -0.5q37 0 63 15t31 46h-154l33 58l110 2q-9 13 -26 19.5t-36 6.5h-81
l33 59h271z" />
    <glyph glyph-name="mal_yavattu" horiz-adv-x="133" 
d="M130 12q0 -86 -32.5 -133t-94.5 -47q-65 0 -106 42v100q42 -57 89 -57q44 0 59 33q8 19 8 62v465h77v-465z" />
    <glyph glyph-name="mal_zerowidth" unicode="&#x200b;" horiz-adv-x="0" 
d="M11 -85h-22v572h22v-572z" />
    <glyph glyph-name="mal_vavattu" horiz-adv-x="186" 
d="M174 -102h-246v77h168l-13 503h72z" />
    <glyph glyph-name="mal_ka_halant" horiz-adv-x="659" 
d="M659 142q0 -142 -107 -142q-4 0 -9.5 0.5t-12.5 1.5v80q11 -7 22 -7q35 0 35 58q0 24 -11 41q-12 20 -30 20h-7q-11 -95 -60 -147q-48 -49 -123 -49q-77 0 -108 40q-8 -16 -25 -26q-23 -14 -48 -14q-64 0 -97 43q-27 37 -27 97q0 53 30 91q31 42 88 42h11q9 92 55 148
q49 61 125 61q71 0 117 -52q50 -56 59 -157q52 0 87 -30q36 -35 36 -99zM455 273q-1 50 -22 86q-26 41 -74 41q-50 0 -75 -42q-22 -35 -23 -85h194zM263 195q6 -52 28 -83q26 -35 68 -35q37 0 63 33.5t31 84.5h-190zM212 99q-21 34 -27 96q-5 2 -10 0q-49 0 -53 -57
q-2 -26 11 -48t32 -22q31 0 47 31zM813 588q0 -40 -30 -67q-34 -28 -92 -28q-49 0 -80 21q-35 26 -35 70q0 24 9 48h81q-12 -14 -12 -44q0 -35 37 -35q43 0 43 38q0 11 -5 25t-5 16h79q10 -17 10 -44z" />
    <glyph glyph-name="mal_kha_halant" horiz-adv-x="647" 
d="M641 0h-316v8q50 58 55 201q1 82 -27 134q-33 58 -96 60q-52 1 -90 -37q-39 -41 -45 -108h3q12 47 79 47q46 0 73.5 -42t27.5 -111q0 -65 -31 -108q-32 -49 -89 -47q-126 4 -126 234q0 82 33 145q53 101 174 101q101 0 154 -78q45 -68 45 -173q0 -89 -30 -153h120l-8 406
h80zM229 155q0 69 -38 69q-21 0 -34 -20t-13 -49q0 -33 10 -52q10 -22 29 -22q46 0 46 74zM803 588q0 -40 -30 -67q-34 -28 -92 -28q-49 0 -80 21q-35 26 -35 70q0 24 9 48h81q-12 -14 -12 -44q0 -35 37 -35q43 0 43 38q0 11 -5 25t-5 16h79q10 -17 10 -44z" />
    <glyph glyph-name="mal_ga_halant" horiz-adv-x="568" 
d="M546 236q0 -57 -19 -126q-9 -33 -19.5 -60.5t-23.5 -49.5h-89q71 133 71 245q0 60 -15 101q-21 57 -66 57q-65 0 -65 -62q0 -41 25 -119q12 -42 12 -80q0 -64 -35 -102q-37 -40 -105 -40q-75 0 -116 68q-39 66 -39 184t61 227h88q-70 -95 -70 -218q0 -85 13 -127
q16 -55 59 -55q64 0 64 63q0 38 -19 99q-16 49 -16 94q0 69 35.5 107t101.5 38q167 0 167 -244zM723 588q0 -40 -30 -67q-34 -28 -92 -28q-49 0 -80 21q-35 26 -35 70q0 24 9 48h81q-12 -14 -12 -44q0 -35 37 -35q43 0 43 38q0 11 -5 25t-5 16h79q10 -17 10 -44z" />
    <glyph glyph-name="mal_gha_halant" horiz-adv-x="853" 
d="M854 0h-499q1 51 3 94t4 79h-160q25 38 25 95q0 32 -13.5 49.5t-36.5 16.5q-21 0 -34 -18.5t-13 -47.5q0 -56 29 -96h-88q-21 37 -21 96q0 61 34 101q38 44 98 44q51 0 88 -32q37 -31 37 -81q0 -35 -7 -55h62q1 9 3 22.5t4 32.5q20 179 160 179q147 0 161 -179
q4 -39 9 -128h-257l-4 -95l328 1l-15 401h84zM617 244q-1 10 -3 23.5t-4 32.5q-6 54 -20 78q-18 27 -56 27q-42 0 -61 -28q-17 -23 -22 -77l-5 -56h171zM1012 588q0 -40 -30 -67q-34 -28 -92 -28q-49 0 -80 21q-35 26 -35 70q0 24 9 48h81q-12 -14 -12 -44q0 -35 37 -35
q43 0 43 38q0 11 -5 25t-5 16h79q10 -17 10 -44z" />
    <glyph glyph-name="mal_nga_halant" horiz-adv-x="625" 
d="M627 329q0 -31 -17 -60q-19 -33 -53 -39q30 -4 50 -36q18 -29 18 -70q0 -55 -29 -87q-31 -37 -93 -37q-14 0 -29 5q-5 1 -7.5 2t-4.5 2q-3 1 -4 1v75q18 -9 37 -9q49 0 49 54q0 62 -59 62h-26v75h26q62 0 60 62q-1 73 -66 73q-62 0 -62 -50v-352h-82v315q0 92 -83 92
q-52 0 -85 -41q-32 -40 -29 -94q9 13 15 19q19 14 49 14q49 0 76 -45q27 -44 24 -114q-5 -146 -111 -146q-66 0 -99 72q-27 60 -27 160q0 86 30 146q50 101 170 101q39 0 69 -15q32 -14 44 -40q7 25 39 40q28 15 62 15q72 0 110 -39t38 -111zM225 150q0 75 -36 75
q-39 0 -39 -75q0 -28 10.5 -47.5t28.5 -19.5q16 0 27 20q9 18 9 47zM773 588q0 -40 -30 -67q-34 -28 -92 -28q-49 0 -80 21q-35 26 -35 70q0 24 9 48h81q-12 -14 -12 -44q0 -35 37 -35q43 0 43 38q0 11 -5 25t-5 16h79q10 -17 10 -44z" />
    <glyph glyph-name="mal_cha_halant" horiz-adv-x="591" 
d="M590 0h-526v76h133q74 0 111 55q24 36 24 67q0 65 -50 65q-47 0 -47 -58q0 -30 17 -64h-87q-14 36 -14 64q0 62 31 97q34 40 99 42q57 1 94 -36q40 -39 40 -103q0 -79 -55 -127h140l-15 402h82zM753 588q0 -40 -30 -67q-34 -28 -92 -28q-49 0 -80 21q-35 26 -35 70
q0 24 9 48h81q-12 -14 -12 -44q0 -35 37 -35q43 0 43 38q0 11 -5 25t-5 16h79q10 -17 10 -44z" />
    <glyph glyph-name="mal_chha_halant" horiz-adv-x="877" 
d="M884 243q0 -110 -23 -168q-31 -76 -110 -76q-55 0 -89 43q-35 44 -36 115q-1 35 6.5 64.5t21.5 50.5t34.5 33t46.5 12q46 0 72 -44h2q0 52 -36 91q-35 39 -85 39q-69 0 -105 -52q-32 -49 -32 -130q0 -87 31 -159l32 -62h-556v74h134q75 0 113 56q25 36 24 66q0 27 -14 46
q-13 19 -37 19q-26 0 -40 -20q-14 -19 -14 -46q0 -31 16 -57h-81q-13 35 -13 70q0 57 33 93q36 40 100 41q57 1 92 -35t38 -100q3 -86 -46 -132h140q-29 41 -32 160q-3 110 55 177t156 67q116 0 168 -97q34 -61 34 -139zM747 83q22 0 35 25q11 24 11 55q0 29 -11 51
q-13 22 -36 22q-42 -2 -42 -79q0 -29 12 -51q14 -23 31 -23zM1033 588q0 -40 -30 -67q-34 -28 -92 -28q-49 0 -80 21q-35 26 -35 70q0 24 9 48h81q-12 -14 -12 -44q0 -35 37 -35q43 0 43 38q0 11 -5 25t-5 16h79q10 -17 10 -44z" />
    <glyph glyph-name="mal_ja_halant" horiz-adv-x="583" 
d="M585 297q0 -42 -12 -72q-16 -39 -48 -53q29 -8 44 -34q14 -26 13 -53q-3 -44 -30 -68q-29 -27 -77 -23q-34 1 -61 25q-29 26 -27 65q-61 -40 -105 -61q-29 -13 -57.5 -18.5t-54.5 -4.5q-49 3 -76 27q-26 23 -26 60q0 83 94 83h244q42 0 74 39q31 37 31 85q0 54 -12 81
q-17 35 -58 35q-24 0 -45 -17t-21 -39v-147h-75v135q0 28 -22 49q-26 23 -62 23q-48 0 -71.5 -21t-23.5 -57l13 20q16 16 53 16q41 0 61 -32q14 -23 14 -50q0 -40 -25.5 -64.5t-67.5 -24.5q-43 0 -71 28q-36 34 -36 104q0 53 25 88q40 57 134 57q42 0 74 -12q35 -14 45 -36
q19 47 97 47q148 0 148 -180zM521 90q-4 28 -39 28q-15 0 -25 -7q-13 -7 -13 -19q0 -38 35 -40q42 -2 42 38zM204 290q-2 30 -31 30q-32 0 -32 -32q0 -12 8 -20.5t20 -8.5q35 0 35 31zM173 116q-30 0 -30 -28q0 -12 12.5 -20t32.5 -6q37 3 61 12q13 5 32.5 15.5t47.5 26.5
h-156zM734 588q0 -40 -30 -67q-34 -28 -92 -28q-49 0 -80 21q-35 26 -35 70q0 24 9 48h81q-12 -14 -12 -44q0 -35 37 -35q43 0 43 38q0 11 -5 25t-5 16h79q10 -17 10 -44z" />
    <glyph glyph-name="mal_jha_halant" horiz-adv-x="1014" 
d="M1014 246q0 -246 -176 -246q-32 0 -58 14q-27 13 -32 36q-17 -34 -52 -44q-21 -7 -67 -7q-122 0 -122 144q0 17 1.5 37t5.5 43q2 17 3.5 32.5t1.5 29.5q0 66 -25 100q-24 34 -67 34q-15 0 -35 -5q70 -49 70 -190q0 -100 -33 -160q-36 -64 -103 -64q-60 0 -98 65
q-37 62 -37 161q0 132 67 181q-4 1 -10 1q-55 0 -85 -45q-34 -47 -34 -141q0 -85 26 -157q18 -49 36 -65h-96q-13 20 -28 84q-17 76 -17 140q0 114 49 182q50 71 136 71q57 0 99 -20q30 21 101 21q79 0 123 -53q41 -50 41 -133q0 -13 -1.5 -26.5t-3.5 -27.5q-10 -56 -10 -91
q0 -72 53 -72q30 0 48 21q15 16 15 42v340h84v-352q0 -21 18 -34q16 -15 38 -15q54 0 76 49q19 39 19 127q0 47 -20 115q-23 73 -53 110h95q57 -107 57 -232zM380 219q0 138 -53 158q-56 -23 -56 -158q0 -137 53 -137q28 0 43 40q13 36 13 97zM1163 588q0 -40 -30 -67
q-34 -28 -92 -28q-49 0 -80 21q-35 26 -35 70q0 24 9 48h81q-12 -14 -12 -44q0 -35 37 -35q43 0 43 38q0 11 -5 25t-5 16h79q10 -17 10 -44z" />
    <glyph glyph-name="mal_nya_halant" horiz-adv-x="856" 
d="M854 218q-3 -121 -45 -218h-95q29 36 45 109q14 64 14 116q0 187 -108 187q-9 0 -14 -1q36 -27 52 -85q15 -50 15 -110q0 -216 -135 -216q-66 0 -102 59q-34 55 -34 155q0 154 67 197q-11 4 -25 4q-33 0 -56 -22t-23 -50v-343h-79v339q0 26 -21 45.5t-51 19.5
q-57 0 -93 -39q-34 -37 -40 -102h1q4 21 29 33q20 11 44 11q43 0 72 -39q33 -44 30 -126q-1 -67 -34 -106q-30 -36 -82 -36q-68 0 -101 75q-25 57 -25 158q0 84 27 143q49 102 172 102q89 0 110 -55q10 28 48 43q36 14 76 14q59 0 88 -26q28 23 97 23q84 0 131 -65
q48 -68 45 -194zM632 214q0 60 -15 111q-16 53 -40 64q-23 -11 -37 -64q-13 -48 -13 -111q0 -137 53 -137q52 0 52 137zM228 152q2 30 -9 50q-11 23 -33 23q-42 0 -42 -67q0 -36 13 -55q11 -17 29 -17q19 0 30 20q11 18 12 46zM1003 588q0 -40 -30 -67q-34 -28 -92 -28
q-49 0 -80 21q-35 26 -35 70q0 24 9 48h81q-12 -14 -12 -44q0 -35 37 -35q43 0 43 38q0 11 -5 25t-5 16h79q10 -17 10 -44z" />
    <glyph glyph-name="mal_tta_halant" horiz-adv-x="413" 
d="M400 162q0 -162 -167 -162q-99 0 -166 67v99q14 -17 25 -28.5t21 -18.5q52 -39 120 -39q42 0 66 20t25 55q1 28 -16 46t-48 18q-16 0 -43 -7q-29 -6 -44 -6q-106 0 -106 130q0 83 71 121q44 22 98 22q85 0 144 -44v-86q-59 58 -134 58q-42 0 -67 -13q-35 -20 -35 -59
q0 -50 41 -50q17 0 41 7q21 6 43 6q55 0 89 -31q42 -38 42 -105zM563 588q0 -40 -30 -67q-34 -28 -92 -28q-49 0 -80 21q-35 26 -35 70q0 24 9 48h81q-12 -14 -12 -44q0 -35 37 -35q43 0 43 38q0 11 -5 25t-5 16h79q10 -17 10 -44z" />
    <glyph glyph-name="mal_ttha_halant" horiz-adv-x="472" 
d="M461 242q0 -108 -47 -173q-51 -69 -148 -69q-91 0 -146 69q-53 68 -53 173t55 170q55 66 144 66q95 0 146 -65q49 -61 49 -171zM380 239q0 73 -27 115q-32 45 -89 45q-55 0 -87 -47q-31 -46 -31 -115q0 -67 32 -111q32 -47 84 -47q57 0 87.5 42.5t30.5 117.5zM624 588
q0 -40 -30 -67q-34 -28 -92 -28q-49 0 -80 21q-35 26 -35 70q0 24 9 48h81q-12 -14 -12 -44q0 -35 37 -35q43 0 43 38q0 11 -5 25t-5 16h79q10 -17 10 -44z" />
    <glyph glyph-name="mal_dda_halant" horiz-adv-x="785" 
d="M775 243q4 -123 -45 -184q-45 -58 -131 -58q-65 0 -96 52q-32 -54 -108 -54q-71 0 -105 48q-28 40 -28 104q0 42 10 78q17 63 17 99q0 75 -67 75q-43 0 -65 -49q-20 -42 -20 -95q0 -141 71 -259h-95q-11 23 -21.5 51.5t-18.5 63.5q-17 73 -17 123q0 79 21 135
q40 106 151 106q70 0 108 -42q35 -41 35 -110q0 -33 -8 -76q-16 -70 -16 -108q0 -68 50 -68q65 0 65 58v345h83v-345q0 -22 17 -37t39 -15q91 0 91 172q0 55 -25 133q-23 76 -42 92h96q51 -85 54 -235zM935 588q0 -40 -30 -67q-34 -28 -92 -28q-49 0 -80 21q-35 26 -35 70
q0 24 9 48h81q-12 -14 -12 -44q0 -35 37 -35q43 0 43 38q0 11 -5 25t-5 16h79q10 -17 10 -44z" />
    <glyph glyph-name="mal_ddha_halant" horiz-adv-x="841" 
d="M831 251q0 -257 -209 -252q-31 1 -64 12q-42 13 -59 39q-30 -50 -99 -50q-70 0 -104 49q-29 40 -29 103q0 34 9 69q15 58 15 97q0 81 -67 81q-46 0 -71 -61q-20 -48 -20 -107q0 -82 33 -161q8 -21 17.5 -38.5t19.5 -31.5h-94q-22 31 -39 92q-19 67 -19 134q-1 82 22 141
q46 112 170 112q131 0 131 -146q0 -17 -2 -36t-6 -40q-17 -85 -17 -116q0 -65 51 -65q58 0 58 56v346h83v-319q0 -86 98 -86q45 0 74 29q22 24 32 56l6 32q-17 -26 -53 -26q-48 0 -78 38q-33 43 -33 124q0 76 34 116q31 37 84 37q126 0 126 -228zM740 321q1 30 -8 52
q-10 24 -28 25q-19 1 -30.5 -19t-11.5 -53q0 -84 36 -84q41 0 42 79zM993 588q0 -40 -30 -67q-34 -28 -92 -28q-49 0 -80 21q-35 26 -35 70q0 24 9 48h81q-12 -14 -12 -44q0 -35 37 -35q43 0 43 38q0 11 -5 25t-5 16h79q10 -17 10 -44z" />
    <glyph glyph-name="mal_nna_halant" horiz-adv-x="852" 
d="M841 233q-4 -127 -54 -232h-102q35 33 58 118q17 66 17 106q0 88 -18 129q-21 47 -73 47q-22 0 -39 -16t-17 -37v-348h-84v341q0 26 -14 45q-15 20 -40 20q-33 0 -49 -18q-15 -17 -15 -42v-346h-82v308q0 44 -22 69q-23 29 -67 29q-54 0 -86.5 -44t-33.5 -119h3
q3 25 22 41q21 18 52 18q47 0 74 -37q30 -39 30 -111q0 -75 -30 -115t-84 -40q-73 0 -108 77q-28 60 -28 165q0 78 30 137q49 100 170 100q41 0 71 -13q34 -14 48 -38q25 51 105 51q77 0 96 -48q26 46 98 46q178 0 172 -243zM229 157q0 70 -42 70q-20 0 -32 -19
q-12 -20 -12 -55q0 -33 10 -54q12 -25 32 -25q21 0 33 26q11 24 11 57zM1013 588q0 -40 -30 -67q-34 -28 -92 -28q-49 0 -80 21q-35 26 -35 70q0 24 9 48h81q-12 -14 -12 -44q0 -35 37 -35q43 0 43 38q0 11 -5 25t-5 16h79q10 -17 10 -44z" />
    <glyph glyph-name="mal_ta_halant" horiz-adv-x="629" 
d="M611 238q-1 -38 -3.5 -69t-6.5 -54q-12 -66 -42 -115h-83q14 11 38 90q25 85 27 141q2 84 -31 136q-30 47 -70 47q-12 0 -21 -4q58 -51 58 -195q0 -97 -37 -155q-38 -60 -102 -60q-62 0 -99 61t-37 163q0 134 69 188q-5 1 -15 1q-53 0 -86 -50q-33 -52 -31 -142
q1 -36 7.5 -70.5t17.5 -67.5q20 -60 44 -83h-86q-53 80 -58 226q-3 108 48 180q52 72 128 73q68 2 100 -32q38 34 91 32q84 -1 131 -58q52 -61 49 -183zM393 217q0 65 -12 112q-13 55 -42 61q-29 -8 -47 -60q-14 -48 -14 -110q0 -146 55 -146q30 0 46 43q14 40 14 100z
M784 588q0 -40 -30 -67q-34 -28 -92 -28q-49 0 -80 21q-35 26 -35 70q0 24 9 48h81q-12 -14 -12 -44q0 -35 37 -35q43 0 43 38q0 11 -5 25t-5 16h79q10 -17 10 -44z" />
    <glyph glyph-name="mal_tha_halant" horiz-adv-x="598" 
d="M595 0h-537l26 479h73l-17 -407h98l17 251q6 83 58 123q41 32 105 32q65 0 109 -36q48 -39 52 -106zM510 72l-10 261q-2 31 -25 53q-25 25 -59 24q-15 0 -30 -5.5t-26.5 -15t-19 -22t-7.5 -25.5l-17 -270h194zM753 588q0 -40 -30 -67q-34 -28 -92 -28q-49 0 -80 21
q-35 26 -35 70q0 24 9 48h81q-12 -14 -12 -44q0 -35 37 -35q43 0 43 38q0 11 -5 25t-5 16h79q10 -17 10 -44z" />
    <glyph glyph-name="mal_da_halant" horiz-adv-x="372" 
d="M369 127q0 -57 -36 -91q-38 -36 -104 -36q-22 0 -44 8v77q12 -7 44 -9q26 0 43.5 14.5t17.5 41.5q0 34 -15 49q-16 16 -57 16h-27v77h27q74 0 74 57q0 75 -74 75q-56 0 -74 -57q-8 -29 -8 -88v-261h-74v266q0 213 156 213q75 0 114 -40q37 -37 37 -102q0 -79 -56 -105
q56 -14 56 -105zM533 588q0 -40 -30 -67q-34 -28 -92 -28q-49 0 -80 21q-35 26 -35 70q0 24 9 48h81q-12 -14 -12 -44q0 -35 37 -35q43 0 43 38q0 11 -5 25t-5 16h79q10 -17 10 -44z" />
    <glyph glyph-name="mal_dha_halant" horiz-adv-x="608" 
d="M595 247q0 -247 -172 -247q-67 0 -96 47q-29 -47 -96 -47q-170 0 -170 240q0 140 69 239h92q-16 -21 -27.5 -39t-18.5 -33q-30 -65 -33 -150v-22q0 -159 88 -159q21 0 38.5 16t17.5 38v349h82v-349q0 -23 16 -38.5t38 -15.5q51 0 73 52q18 43 18 134q0 120 -68 217h90
q59 -70 59 -232zM753 588q0 -40 -30 -67q-34 -28 -92 -28q-49 0 -80 21q-35 26 -35 70q0 24 9 48h81q-12 -14 -12 -44q0 -35 37 -35q43 0 43 38q0 11 -5 25t-5 16h79q10 -17 10 -44z" />
    <glyph glyph-name="mal_na_halant" horiz-adv-x="604" 
d="M590 238q-1 -68 -14 -120q-7 -29 -18.5 -58.5t-27.5 -59.5h-89q14 5 38 87q26 89 26 140q0 89 -14 128q-20 48 -70 48q-22 0 -38 -15q-17 -17 -17 -43v-345h-82v345q0 28 -18 45q-17 15 -38 15q-46 0 -68 -49q-20 -43 -20 -112v-21q5 -83 28 -152q19 -52 37 -71h-85
q-23 32 -40 104q-17 67 -18 132q-2 114 41 177q43 66 125 66q73 0 97 -45q13 20 42 34q27 11 52 11q178 0 171 -241zM753 588q0 -40 -30 -67q-34 -28 -92 -28q-49 0 -80 21q-35 26 -35 70q0 24 9 48h81q-12 -14 -12 -44q0 -35 37 -35q43 0 43 38q0 11 -5 25t-5 16h79
q10 -17 10 -44z" />
    <glyph glyph-name="mal_pa_halant" horiz-adv-x="612" 
d="M602 0h-370q30 64 30 114q0 85 -61 85q-54 0 -54 -85q0 -56 31 -114h-94q-11 31 -17.5 59.5t-7.5 54.5q-3 78 35.5 123.5t107.5 45.5q70 0 107 -43q35 -41 35 -102q0 -10 -1 -14q-1 -9 -2.5 -21.5t-5.5 -29.5h181l-20 406h82zM753 588q0 -40 -30 -67q-34 -28 -92 -28
q-49 0 -80 21q-35 26 -35 70q0 24 9 48h81q-12 -14 -12 -44q0 -35 37 -35q43 0 43 38q0 11 -5 25t-5 16h79q10 -17 10 -44z" />
    <glyph glyph-name="mal_pha_halant" horiz-adv-x="763" 
d="M749 0h-500q11 29 16.5 56t6.5 52q0 97 -64 97q-75 0 -71 -97q1 -50 30 -108h-87q-26 66 -26 108q0 88 45 135q40 45 112 45q74 0 113 -50q33 -42 33 -105q0 -28 -8 -57h65l9 247q4 82 51 123q38 34 104 34q64 0 105 -37q44 -38 47 -105zM666 76l-11 261q-1 29 -22.5 49
t-51.5 20q-38 0 -60 -21q-18 -18 -20 -51l-7 -258h172zM914 588q0 -40 -30 -67q-34 -28 -92 -28q-49 0 -80 21q-35 26 -35 70q0 24 9 48h81q-12 -14 -12 -44q0 -35 37 -35q43 0 43 38q0 11 -5 25t-5 16h79q10 -17 10 -44z" />
    <glyph glyph-name="mal_ba_halant" horiz-adv-x="846" 
d="M836 0h-347q18 12 46 79q34 78 34 152q0 87 -18 126q-22 46 -75 46q-20 0 -39 -17q-19 -18 -19 -42v-344h-82v338q0 34 -28 53q-23 16 -55 16q-103 0 -119 -141l2 1q16 35 63 37q51 1 78 -42q26 -41 26 -113q0 -148 -114 -148q-63 0 -97 69q-29 59 -31 162q-2 80 36 148
q52 99 167 99q89 0 113 -53q23 53 103 53q174 0 174 -229q0 -119 -33 -180h127l-10 409h83zM232 158q0 27 -11 47q-12 20 -32 20t-30 -21q-11 -20 -11 -46q0 -32 10 -52q11 -23 31 -23q21 0 33 23q10 20 10 52zM1003 588q0 -40 -30 -67q-34 -28 -92 -28q-49 0 -80 21
q-35 26 -35 70q0 24 9 48h81q-12 -14 -12 -44q0 -35 37 -35q43 0 43 38q0 11 -5 25t-5 16h79q10 -17 10 -44z" />
    <glyph glyph-name="mal_bha_halant" horiz-adv-x="405" 
d="M380 110q0 -51 -31.5 -80.5t-88.5 -29.5q-27 0 -55 9v71q23 -17 46 -17q55 0 55 42q0 37 -35 37q-4 0 -12.5 -1t-12.5 -1q-33 0 -49 25q-16 22 -16 65q0 51 16 73q18 25 61 25q5 0 13 -0.5t12 -0.5q29 0 29 31q0 45 -76 45q-66 0 -85 -49q-8 -21 -8 -71v-283h-77v274
q0 92 31 141q40 64 139 64q61 0 98 -25q46 -31 46 -96q0 -103 -70 -103q-8 0 -19 2.5t-16 2.5q-22 0 -22 -31q0 -22 19 -22q5 0 14 1.5t14 1.5q37 0 59 -28q21 -27 21 -72zM553 588q0 -40 -30 -67q-34 -28 -92 -28q-49 0 -80 21q-35 26 -35 70q0 24 9 48h81q-12 -14 -12 -44
q0 -35 37 -35q43 0 43 38q0 11 -5 25t-5 16h79q10 -17 10 -44z" />
    <glyph glyph-name="mal_ma_halant" horiz-adv-x="420" 
d="M406 0h-343v52q87 52 145 112q81 84 81 163q0 76 -70 76q-38 0 -60.5 -31.5t-22.5 -85.5q-1 -28 5 -58.5t17 -63.5h-81q-16 65 -16 122q-1 94 43 145q42 48 118 48q72 0 110 -43t36 -118h28zM342 65l-4 169h-7q-18 -44 -53 -88q-44 -55 -92 -81h156zM574 588
q0 -40 -30 -67q-34 -28 -92 -28q-49 0 -80 21q-35 26 -35 70q0 24 9 48h81q-12 -14 -12 -44q0 -35 37 -35q43 0 43 38q0 11 -5 25t-5 16h79q10 -17 10 -44z" />
    <glyph glyph-name="mal_ya_halant" horiz-adv-x="648" 
d="M636 262q0 -139 -60 -209q-50 -56 -126 -56q-60 0 -100 31q-46 -28 -90 -28q-93 0 -148 61q-63 67 -63 194q0 86 22 140q33 82 112 82q24 0 44 -15q24 -17 27 -48q18 39 46 53q22 12 66 12q73 0 111 -78q30 -60 30 -137q0 -144 -74 -185v-3q10 -2 15 -2q46 0 74 49
q33 54 33 148q0 76 -21 141q-16 50 -36 67h92q46 -76 46 -217zM430 264q0 60 -19 97q-20 41 -53 41t-52 -45q-19 -41 -19 -102q0 -56 20 -105q21 -50 51 -59q72 31 72 173zM276 69q-30 23 -48.5 68t-18.5 97q0 6 0.5 16.5t0.5 21t0.5 20.5t0.5 16q0 95 -37 95q-25 0 -38 -36
q-16 -39 -16 -119q0 -98 49 -144q37 -36 91 -36h8t8 1zM795 588q0 -40 -30 -67q-34 -28 -92 -28q-49 0 -80 21q-35 26 -35 70q0 24 9 48h81q-12 -14 -12 -44q0 -35 37 -35q43 0 43 38q0 11 -5 25t-5 16h79q10 -17 10 -44z" />
    <glyph glyph-name="mal_ra_halant" horiz-adv-x="485" 
d="M468 242q0 -243 -135 -243q-47 0 -82 41q-37 43 -37 116q0 69 29.5 108.5t78.5 39.5q50 0 70 -36q-14 138 -120 138q-66 0 -101 -50q-33 -48 -33 -134q0 -51 25 -130q10 -30 18 -53t16 -39h-80q-21 32 -36 107q-15 70 -15 122q0 112 53 180q55 69 153 69q109 0 159 -81
q37 -59 37 -155zM377 159q0 79 -47 77q-19 0 -31 -24q-11 -24 -11 -53q1 -17 3.5 -31t7.5 -25q12 -26 32 -26q19 0 32.5 23.5t13.5 58.5zM635 588q0 -40 -30 -67q-34 -28 -92 -28q-49 0 -80 21q-35 26 -35 70q0 24 9 48h81q-12 -14 -12 -44q0 -35 37 -35q43 0 43 38
q0 11 -5 25t-5 16h79q10 -17 10 -44z" />
    <glyph glyph-name="mal_rra_halant" horiz-adv-x="391" 
d="M372 238q1 -130 -48 -238h-77q11 19 28 89q8 38 12.5 69.5t4.5 57.5q2 80 -15 128q-20 56 -63 56q-88 0 -83 -182q1 -36 5.5 -70.5t14.5 -68.5q15 -50 33 -79h-83q-14 20 -31 87q-17 74 -18 131q-2 123 40 191.5t120 68.5q155 0 160 -240zM553 588q0 -40 -30 -67
q-34 -28 -92 -28q-49 0 -80 21q-35 26 -35 70q0 24 9 48h81q-12 -14 -12 -44q0 -35 37 -35q43 0 43 38q0 11 -5 25t-5 16h79q10 -17 10 -44z" />
    <glyph glyph-name="mal_la_halant" horiz-adv-x="571" 
d="M560 0h-497l11 243q9 235 162 235q81 0 122 -68q42 -76 41 -235h-250l-3 -99h330l-13 402h79zM320 252q-4 151 -84 149q-78 -2 -83 -149h167zM723 588q0 -40 -30 -67q-34 -28 -92 -28q-49 0 -80 21q-35 26 -35 70q0 24 9 48h81q-12 -14 -12 -44q0 -35 37 -35q43 0 43 38
q0 11 -5 25t-5 16h79q10 -17 10 -44z" />
    <glyph glyph-name="mal_lla_halant" horiz-adv-x="487" 
d="M472 -171h-305q-50 0 -78 31q-27 28 -27 70q0 38 26 66q29 29 79 29h106q72 0 98 25q23 21 23 68q0 67 -40 67h-18v86h17q36 0 36 54q0 44 -28 62q-25 16 -88 16q-136 0 -146 -118h2q3 12 18 27q22 19 51 19q44 0 73 -35q30 -38 30 -105q0 -68 -31 -108q-29 -40 -78 -41
q-71 -5 -104 64q-13 26 -19 61t-7 80q0 76 26 131q49 103 184 103q111 0 155 -42t44 -144q0 -22 -14 -44q-16 -22 -36 -25q21 -10 34 -34q15 -29 15 -66q0 -72 -25 -110q-40 -61 -142 -61h-129q-11 0 -19.5 -8.5t-8.5 -19.5q0 -28 42 -28h284v-70zM225 190q0 68 -41 68
q-39 0 -40 -66q0 -32 9 -51q11 -23 29 -23t30 18q13 19 13 54zM653 588q0 -40 -30 -67q-34 -28 -92 -28q-49 0 -80 21q-35 26 -35 70q0 24 9 48h81q-12 -14 -12 -44q0 -35 37 -35q43 0 43 38q0 11 -5 25t-5 16h79q10 -17 10 -44z" />
    <glyph glyph-name="mal_llla_halant" horiz-adv-x="461" 
d="M456 314q0 -125 -108 -159q13 -36 13 -67q0 -55 -44 -84q-33 -21 -79 -21q-65 0 -97 38v95l26 -32q31 -26 75 -26t44 43q0 20 -10 41q-21 -6 -44 -6q-65 0 -106 37q-52 46 -52 141q0 82 24 165h81q-31 -80 -31 -149q0 -127 105 -122q-9 10 -24 51q-15 45 -15 71
q0 150 120 150q54 0 86 -41q36 -44 36 -125zM381 315q0 40 -13 63q-15 27 -42 27q-15 0 -27 -17q-11 -19 -11 -48q0 -52 36 -119q25 7 42 35q15 27 15 59zM613 588q0 -40 -30 -67q-34 -28 -92 -28q-49 0 -80 21q-35 26 -35 70q0 24 9 48h81q-12 -14 -12 -44q0 -35 37 -35
q43 0 43 38q0 11 -5 25t-5 16h79q10 -17 10 -44z" />
    <glyph glyph-name="mal_va_halant" horiz-adv-x="629" 
d="M613 0h-326v6q28 43 46 104q14 53 16 103q4 186 -97 186q-110 0 -106 -184q0 -47 19 -107q20 -67 46 -103l-1 -5h-88q-54 97 -57 232q-3 112 46 179q50 68 138 68q97 0 142 -67q39 -59 42 -173q3 -96 -36 -174h127l-14 414h84zM785 588q0 -40 -30 -67q-34 -28 -92 -28
q-49 0 -80 21q-35 26 -35 70q0 24 9 48h81q-12 -14 -12 -44q0 -35 37 -35q43 0 43 38q0 11 -5 25t-5 16h79q10 -17 10 -44z" />
    <glyph glyph-name="mal_sha_halant" horiz-adv-x="598" 
d="M583 226q-2 -225 -123 -225q-53 0 -83 41q-28 38 -31 111q-2 71 24 115q28 45 78 45q55 0 66 -42h4q-8 63 -45 102q-35 35 -74 35q-47 0 -78 -29q-32 -32 -32 -89q0 -19 3 -41q10 -50 10 -97q0 -154 -105 -154q-79 0 -112 54q-27 46 -27 153v17t1 20q1 32 6.5 66t15.5 70
q16 61 39 102h87q-78 -115 -78 -231q0 -40 1.5 -67.5t3.5 -41.5q12 -72 53 -72t41 68q0 40 -14 116q-5 25 -5 46q0 78 48 128q49 52 131 52q114 0 163 -97q32 -66 32 -155zM495 152q0 38 -11 61t-29 22q-39 -2 -39 -83q0 -31 11 -55q12 -26 30 -24q38 2 38 79zM753 588
q0 -40 -30 -67q-34 -28 -92 -28q-49 0 -80 21q-35 26 -35 70q0 24 9 48h81q-12 -14 -12 -44q0 -35 37 -35q43 0 43 38q0 11 -5 25t-5 16h79q10 -17 10 -44z" />
    <glyph glyph-name="mal_ssa_halant" horiz-adv-x="731" 
d="M720 0h-509v6q34 55 30 116q-4 73 -51 73q-31 0 -44 -28q-9 -21 -9 -45q0 -40 10 -81q9 -38 15 -41h-82q-25 61 -24 122q2 65 36 107q36 43 101 45q60 1 96 -41q32 -41 32 -100q0 -35 -10 -65h79q13 37 21 77q8 38 15 56q-83 6 -119 62q-25 38 -23 88q2 63 45 97
q40 32 97 32q46 0 77 -31.5t33 -82.5q1 -44 -13 -90q28 0 65 22q39 23 37 40l-5 141h78zM875 588q0 -40 -30 -67q-34 -28 -92 -28q-49 0 -80 21q-35 26 -35 70q0 24 9 48h81q-12 -14 -12 -44q0 -35 37 -35q43 0 43 38q0 11 -5 25t-5 16h79q10 -17 10 -44zM634 69l-7 176
q-68 -41 -118 -41q-6 -24 -39 -135h164zM465 345q1 26 -11.5 42t-34.5 16q-27 0 -43.5 -16t-16.5 -43q2 -27 16 -44q24 -26 75 -26q13 45 15 71z" />
    <glyph glyph-name="mal_sa_halant" horiz-adv-x="786" 
d="M772 233q0 -85 -24 -140q-41 -93 -138 -93q-75 0 -113.5 36t-38.5 102q0 34 10 73q17 70 17 112q0 78 -55 78q-59 0 -59 -60v-341h-82v341q0 57 -58 57q-52 0 -74 -48q-19 -39 -19 -129q0 -116 63 -221h-95q-17 28 -30 93q-16 68 -16 129q0 126 45 194q45 64 128 64
q72 0 97 -46q16 23 36 34q21 10 64 10q69 0 101 -53q27 -44 27 -115q0 -50 -12 -99q-8 -38 -8 -62q0 -72 69 -72q44 0 67 54q17 43 17 102q0 87 -45 170q-17 28 -54 75h99q81 -120 81 -245zM945 588q0 -40 -30 -67q-34 -28 -92 -28q-49 0 -80 21q-35 26 -35 70q0 24 9 48h81
q-12 -14 -12 -44q0 -35 37 -35q43 0 43 38q0 11 -5 25t-5 16h79q10 -17 10 -44z" />
    <glyph glyph-name="mal_ha_halant" horiz-adv-x="796" 
d="M793 236q-1 -138 -61 -236h-86l18 35q10 21 17.5 42t13.5 41q17 59 17 104q0 84 -21 126q-26 51 -84 51q-106 0 -106 -173q0 -69 28 -147q21 -59 36 -79h-331q25 63 25 115q0 87 -52 87q-27 0 -44 -22.5t-17 -64.5q0 -51 30 -115h-89q-13 31 -19 59.5t-7 55.5
q-2 38 8 69.5t29.5 54t47 35t60.5 12.5q68 0 106 -47q33 -41 33 -104q0 -47 -9 -69h121q-33 56 -35 154q-3 127 48 194q50 65 140 65q91 0 138.5 -62.5t44.5 -180.5zM953 588q0 -40 -30 -67q-34 -28 -92 -28q-49 0 -80 21q-35 26 -35 70q0 24 9 48h81q-12 -14 -12 -44
q0 -35 37 -35q43 0 43 38q0 11 -5 25t-5 16h79q10 -17 10 -44z" />
    <glyph glyph-name="glyph200" 
d="M188 166q0 -27 -19.5 -47t-47.5 -20q-29 0 -48 20t-19 47q0 28 19 48t48 20q27 0 47 -20t20 -48z" />
    <glyph glyph-name="mal_ka_la" horiz-adv-x="678" 
d="M659 142q0 -142 -107 -142q-4 0 -9.5 0.5t-12.5 1.5v80q11 -7 22 -7q35 0 35 58q0 24 -11 41q-12 20 -30 20h-7q-11 -95 -60 -147q-48 -49 -123 -49q-77 0 -108 40q-8 -16 -25 -26q-23 -14 -48 -14q-64 0 -97 43q-27 37 -27 97q0 53 30 91q31 42 88 42h11q9 92 55 148
q49 61 125 61q71 0 117 -52q50 -56 59 -157q52 0 87 -30q36 -35 36 -99zM455 273q-1 50 -22 86q-26 41 -74 41q-50 0 -75 -42q-22 -35 -23 -85h194zM263 195q6 -52 28 -83q26 -35 68 -35q37 0 63 33.5t31 84.5h-190zM212 99q-21 34 -27 96q-5 2 -10 0q-49 0 -53 -57
q-2 -26 11 -48t32 -22q31 0 47 31zM633 -109q0 -51 -31 -83q-37 -37 -100 -37q-72 0 -94 39q-13 22 -13 72q0 37 -20 54q-16 13 -43 14l-42 2q35 -26 35 -80q0 -48 -27 -73t-75 -25t-78 31q-29 29 -29 74q0 119 187 119q81 0 118 -32q31 -27 31 -81q0 -28 6 -38
q12 -19 45 -19q69 0 69 69q0 81 -56 76v26q68 0 93 -28q24 -26 24 -80zM267 -120q0 19 -14 38q-13 15 -26 19q-24 -3 -38.5 -17t-14.5 -35q0 -57 43 -57q50 0 50 52z" />
    <glyph glyph-name="mal_kha_la" horiz-adv-x="647" 
d="M641 0h-316v8q50 58 55 201q1 82 -27 134q-33 58 -96 60q-52 1 -90 -37q-39 -41 -45 -108h3q12 47 79 47q46 0 73.5 -42t27.5 -111q0 -65 -31 -108q-32 -49 -89 -47q-126 4 -126 234q0 82 33 145q53 101 174 101q101 0 154 -78q45 -68 45 -173q0 -89 -30 -153h120l-8 406
h80zM229 155q0 69 -38 69q-21 0 -34 -20t-13 -49q0 -33 10 -52q10 -22 29 -22q46 0 46 74zM646 -112q0 -51 -27 -84q-33 -37 -87 -37q-60 0 -82 40q-11 24 -11 72q0 36 -16 52q-10 11 -34 13q-8 0 -14 0.5t-14 1.5q11 -13 18 -33t7 -44q0 -48 -23.5 -73.5t-65.5 -25.5
q-40 0 -68 31q-11 15 -18 34t-7 41q0 121 160 121q72 0 102 -33q28 -27 28 -83q0 -12 1 -21.5t4 -14.5q8 -17 34 -17q56 0 56 65q0 78 -47 73v32q59 0 83 -29q21 -25 21 -81zM332 -124q0 9 -3.5 18.5t-8.5 17.5q-11 12 -20 18q-19 -3 -30.5 -16t-11.5 -33q0 -53 34 -53
q40 0 40 48z" />
    <glyph glyph-name="mal_ga_la" horiz-adv-x="579" 
d="M541 213q0 -74 -24 -137q-19 -47 -43 -74q44 -24 44 -112q0 -49 -27 -83q-29 -38 -76 -36q-65 0 -85 38q-5 10 -8.5 30t-5.5 51q-5 75 -87 75q19 -11 30 -32q14 -26 14 -55q0 -45 -22 -73q-25 -34 -75 -34q-56 0 -81 40q-18 30 -18 78q0 30 12 56q18 37 54 50
q-45 20 -64 82q-8 26 -12 63.5t-5 85.5q-1 121 65 252h86q-13 -16 -39 -85q-27 -77 -30 -123q-1 -13 -1.5 -25.5t-0.5 -25.5q0 -169 65 -167q64 1 64 67q0 17 -6 48t-17 77q-13 46 -13 88q0 72 37 110t106 38q109 0 145 -114q18 -54 18 -153zM459 228q0 171 -76 171
q-71 0 -71 -66q0 -34 18 -91q21 -68 21 -117q0 -81 -54 -115q78 -21 78 -120q0 -35 4 -42q6 -17 32 -17q20 0 34 20q12 18 12 45q0 39 -17 64q-17 30 -50 31v11q35 22 55 96q7 29 10.5 61.5t3.5 68.5zM210 -122q0 54 -44 68q-32 -21 -32 -65q0 -52 42 -52q14 0 25 15
q9 15 9 34z" />
    <glyph glyph-name="mal_gha_la" horiz-adv-x="853" 
d="M854 0h-499q1 51 3 94t4 79h-160q25 38 25 95q0 32 -13.5 49.5t-36.5 16.5q-21 0 -34 -18.5t-13 -47.5q0 -56 29 -96h-88q-21 37 -21 96q0 61 34 101q38 44 98 44q51 0 88 -32q37 -31 37 -81q0 -35 -7 -55h62q1 9 3 22.5t4 32.5q20 179 160 179q147 0 161 -179
q4 -39 9 -128h-257l-4 -95l328 1l-15 401h84zM617 244q-1 10 -3 23.5t-4 32.5q-6 54 -20 78q-18 27 -56 27q-42 0 -61 -28q-17 -23 -22 -77l-5 -56h171zM861 -109q0 -51 -31 -83q-37 -37 -100 -37q-72 0 -94 39q-13 22 -13 72q0 37 -20 54q-16 13 -43 14l-42 2
q35 -26 35 -80q0 -48 -27 -73t-75 -25t-78 31q-29 29 -29 74q0 119 187 119q81 0 118 -32q31 -27 31 -81q0 -28 6 -38q12 -19 45 -19q69 0 69 69q0 81 -56 76v26q68 0 93 -28q24 -26 24 -80zM495 -120q0 19 -14 38q-13 15 -26 19q-24 -3 -38.5 -17t-14.5 -35q0 -57 43 -57
q50 0 50 52z" />
    <glyph glyph-name="mal_nga_la" horiz-adv-x="625" 
d="M612 -105q0 -51 -27 -84q-33 -37 -87 -37q-60 0 -82 40q-11 24 -11 72q0 36 -16 52q-10 11 -34 13q-8 0 -14 0.5t-14 1.5q11 -13 18 -33t7 -44q0 -48 -23.5 -73.5t-65.5 -25.5q-40 0 -68 31q-11 15 -18 34t-7 41q0 121 160 121h5v311q0 92 -83 92q-52 0 -85 -41
q-32 -40 -29 -94q9 13 15 19q19 14 49 14q49 0 76 -45q27 -44 24 -114q-5 -146 -111 -146q-66 0 -99 72q-27 60 -27 160q0 86 30 146q50 101 170 101q39 0 69 -15q32 -14 44 -40q7 25 39 40q28 15 62 15q72 0 110 -39t38 -111q0 -31 -17 -60q-19 -33 -53 -39q30 -4 50 -36
q18 -29 18 -70q0 -55 -29 -87q-22 -26 -59 -34q36 -6 54 -27q21 -25 21 -81zM375 0q39 -8 57 -29q28 -27 28 -83q0 -12 1 -21.5t4 -14.5q8 -17 34 -17q56 0 56 65q0 78 -47 73v27h-5q-14 0 -29 5q-5 1 -7.5 2t-4.5 2q-3 1 -4 1v75q18 -9 37 -9q49 0 49 54q0 62 -59 62h-26
v75h26q62 0 60 62q-1 73 -66 73q-62 0 -62 -50v-352h-42zM225 150q0 75 -36 75q-39 0 -39 -75q0 -28 10.5 -47.5t28.5 -19.5q16 0 27 20q9 18 9 47zM298 -117q0 9 -3.5 18.5t-8.5 17.5q-11 12 -20 18q-19 -3 -30.5 -16t-11.5 -33q0 -53 34 -53q40 0 40 48z" />
    <glyph glyph-name="mal_cha_la" horiz-adv-x="591" 
d="M590 0h-526v76h133q74 0 111 55q24 36 24 67q0 65 -50 65q-47 0 -47 -58q0 -30 17 -64h-87q-14 36 -14 64q0 62 31 97q34 40 99 42q57 1 94 -36q40 -39 40 -103q0 -79 -55 -127h140l-15 402h82zM601 -109q0 -51 -31 -83q-37 -37 -100 -37q-72 0 -94 39q-13 22 -13 72
q0 37 -20 54q-16 13 -43 14l-42 2q35 -26 35 -80q0 -48 -27 -73t-75 -25t-78 31q-29 29 -29 74q0 119 187 119q81 0 118 -32q31 -27 31 -81q0 -28 6 -38q12 -19 45 -19q69 0 69 69q0 81 -56 76v26q68 0 93 -28q24 -26 24 -80zM235 -120q0 19 -14 38q-13 15 -26 19
q-24 -3 -38.5 -17t-14.5 -35q0 -57 43 -57q50 0 50 52z" />
    <glyph glyph-name="mal_chha_la" horiz-adv-x="877" 
d="M884 243q0 -110 -23 -168q-31 -76 -110 -76q-55 0 -89 43q-35 44 -36 115q-1 35 6.5 64.5t21.5 50.5t34.5 33t46.5 12q46 0 72 -44h2q0 52 -36 91q-35 39 -85 39q-69 0 -105 -52q-32 -49 -32 -130q0 -87 31 -159l32 -62h-556v74h134q75 0 113 56q25 36 24 66q0 27 -14 46
q-13 19 -37 19q-26 0 -40 -20q-14 -19 -14 -46q0 -31 16 -57h-81q-13 35 -13 70q0 57 33 93q36 40 100 41q57 1 92 -35t38 -100q3 -86 -46 -132h140q-29 41 -32 160q-3 110 55 177t156 67q116 0 168 -97q34 -61 34 -139zM747 83q22 0 35 25q11 24 11 55q0 29 -11 51
q-13 22 -36 22q-42 -2 -42 -79q0 -29 12 -51q14 -23 31 -23zM632 -109q0 -51 -31 -83q-37 -37 -100 -37q-72 0 -94 39q-13 22 -13 72q0 37 -20 54q-16 13 -43 14l-42 2q35 -26 35 -80q0 -48 -27 -73t-75 -25t-78 31q-29 29 -29 74q0 119 187 119q81 0 118 -32q31 -27 31 -81
q0 -28 6 -38q12 -19 45 -19q69 0 69 69q0 81 -56 76v26q68 0 93 -28q24 -26 24 -80zM266 -120q0 19 -14 38q-13 15 -26 19q-24 -3 -38.5 -17t-14.5 -35q0 -57 43 -57q50 0 50 52z" />
    <glyph glyph-name="mal_ja_la" horiz-adv-x="583" 
d="M588 -109q0 -51 -31 -83q-37 -37 -100 -37q-72 0 -94 39q-13 22 -13 72q0 37 -20 54q-16 13 -43 14l-42 2q35 -26 35 -80q0 -48 -27 -73t-75 -25t-78 31q-29 29 -29 74q0 119 187 119q81 0 118 -32q31 -27 31 -81q0 -28 6 -38q12 -19 45 -19q69 0 69 69q0 81 -56 76v21
q-32 3 -57 25q-29 26 -27 65q-61 -40 -105 -61q-29 -13 -57.5 -18.5t-54.5 -4.5q-49 3 -76 27q-26 23 -26 60q0 83 94 83h244q42 0 74 39q31 38 31 85q0 54 -12 82q-17 35 -58 35q-24 0 -45 -17t-21 -39v-148h-75v136q0 28 -22 49q-26 23 -62 23q-48 0 -71.5 -21.5
t-23.5 -57.5l13 20q16 16 53 16q41 0 61 -32q14 -23 14 -50q0 -40 -25.5 -64.5t-67.5 -24.5q-43 0 -71 28q-36 34 -36 104q0 54 25 89q40 57 134 57q42 0 74 -12q35 -14 45 -36q19 47 97 47q148 0 148 -180q0 -42 -12 -73q-16 -39 -48 -53q29 -8 44 -34q14 -26 13 -53
q-3 -44 -30 -68q-8 -8 -18.5 -13t-22.5 -8q35 -6 53 -25q24 -26 24 -80zM222 -120q0 19 -14 38q-13 15 -26 19q-24 -3 -38.5 -17t-14.5 -35q0 -57 43 -57q50 0 50 52zM173 116q-30 0 -30 -28q0 -12 12.5 -20t32.5 -6q37 3 61 12q13 5 32.5 15.5t47.5 26.5h-156zM521 90
q-4 28 -39 28q-15 0 -25 -7q-13 -7 -13 -19q0 -38 35 -40q42 -2 42 38zM204 290q-2 30 -31 30q-32 0 -32 -32q0 -12 8 -20.5t20 -8.5q35 0 35 31z" />
    <glyph glyph-name="mal_jha_la" horiz-adv-x="1014" 
d="M1014 246q0 -246 -176 -246q-32 0 -58 14q-27 13 -32 36q-17 -34 -52 -44q-21 -7 -66 -7q-122 0 -122 144q0 17 1.5 37t4.5 43q2 17 3.5 32.5t1.5 29.5q0 66 -25 100q-24 34 -67 34q-15 0 -35 -5q70 -49 70 -190q0 -100 -33 -160q-36 -64 -103 -64q-60 0 -98 65
q-37 62 -37 161q0 132 67 181q-4 1 -10 1q-55 0 -85 -45q-34 -47 -34 -141q0 -85 26 -157q18 -49 36 -65h-96q-13 20 -28 84q-17 76 -17 140q0 114 49 182q50 71 136 71q57 0 99 -20q30 21 101 21q79 0 123 -53q41 -50 41 -133q0 -13 -1.5 -26.5t-3.5 -27.5q-9 -56 -9 -91
q0 -72 53 -72q29 0 47 21q15 16 15 42v340h84v-352q0 -21 18 -34q16 -15 38 -15q54 0 76 49q19 39 19 127q0 47 -20 115q-23 73 -53 110h95q57 -107 57 -232zM380 219q0 138 -53 158q-56 -23 -56 -158q0 -137 53 -137q28 0 43 40q13 36 13 97zM1011 -109q0 -51 -31 -83
q-37 -37 -100 -37q-72 0 -94 39q-13 22 -13 72q0 37 -20 54q-16 13 -43 14l-42 2q35 -26 35 -80q0 -48 -27 -73t-75 -25t-78 31q-29 29 -29 74q0 119 187 119q81 0 118 -32q31 -27 31 -81q0 -28 6 -38q12 -19 45 -19q69 0 69 69q0 81 -56 76v26q68 0 93 -28q24 -26 24 -80z
M645 -120q0 19 -14 38q-13 15 -26 19q-24 -3 -38.5 -17t-14.5 -35q0 -57 43 -57q50 0 50 52z" />
    <glyph glyph-name="mal_nya_la" horiz-adv-x="856" 
d="M854 218q-3 -121 -45 -218h-95q29 36 45 109q14 64 14 116q0 187 -108 187q-9 0 -14 -1q36 -27 52 -85q15 -50 15 -110q0 -216 -135 -216q-66 0 -102 59q-34 55 -34 155q0 154 67 197q-11 4 -25 4q-33 0 -56 -22t-23 -50v-343h-79v339q0 26 -21 45.5t-51 19.5
q-57 0 -93 -39q-34 -37 -40 -102h1q4 21 29 33q20 11 44 11q43 0 72 -39q33 -44 30 -126q-1 -67 -34 -106q-30 -36 -82 -36q-68 0 -101 75q-25 57 -25 158q0 84 27 143q49 102 172 102q89 0 110 -55q10 28 48 43q36 14 76 14q59 0 88 -26q28 23 97 23q84 0 131 -65
q48 -68 45 -194zM632 214q0 60 -15 111q-16 53 -40 64q-23 -11 -37 -64q-13 -48 -13 -111q0 -137 53 -137q52 0 52 137zM228 152q2 30 -9 50q-11 23 -33 23q-42 0 -42 -67q0 -36 13 -55q11 -17 29 -17q19 0 30 20q11 18 12 46zM855 -109q0 -51 -31 -83q-37 -37 -100 -37
q-72 0 -94 39q-13 22 -13 72q0 37 -20 54q-16 13 -43 14l-42 2q35 -26 35 -80q0 -48 -27 -73t-75 -25t-78 31q-29 29 -29 74q0 119 187 119q81 0 118 -32q31 -27 31 -81q0 -28 6 -38q12 -19 45 -19q69 0 69 69q0 81 -56 76v26q68 0 93 -28q24 -26 24 -80zM489 -120
q0 19 -14 38q-13 15 -26 19q-24 -3 -38.5 -17t-14.5 -35q0 -57 43 -57q50 0 50 52z" />
    <glyph glyph-name="mal_tta_la" horiz-adv-x="413" 
d="M400 162q0 -162 -167 -162q-99 0 -166 67v99q14 -17 25 -28.5t21 -18.5q52 -39 120 -39q42 0 66 20t25 55q1 28 -16 46t-48 18q-16 0 -43 -7q-29 -6 -44 -6q-106 0 -106 130q0 83 71 121q44 22 98 22q85 0 144 -44v-86q-59 58 -134 58q-42 0 -67 -13q-35 -20 -35 -59
q0 -50 41 -50q17 0 41 7q21 6 43 6q55 0 89 -31q42 -38 42 -105zM402 -105q0 -51 -27 -84q-33 -37 -87 -37q-60 0 -82 40q-11 24 -11 72q0 36 -16 52q-10 11 -34 13q-8 0 -14 0.5t-14 1.5q11 -13 18 -33t7 -44q0 -48 -23.5 -73.5t-65.5 -25.5q-40 0 -68 31q-11 15 -18 34
t-7 41q0 121 160 121q72 0 102 -33q28 -27 28 -83q0 -12 1 -21.5t4 -14.5q8 -17 34 -17q56 0 56 65q0 78 -47 73v32q59 0 83 -29q21 -25 21 -81zM88 -117q0 9 -3.5 18.5t-8.5 17.5q-11 12 -20 18q-19 -3 -30.5 -16t-11.5 -33q0 -53 34 -53q40 0 40 48z" />
    <glyph glyph-name="mal_ttha_la" horiz-adv-x="472" 
d="M461 242q0 -108 -47 -173q-51 -69 -148 -69q-91 0 -146 69q-53 68 -53 173t55 170q55 66 144 66q95 0 146 -65q49 -61 49 -171zM380 239q0 73 -27 115q-32 45 -89 45q-55 0 -87 -47q-31 -46 -31 -115q0 -67 32 -111q32 -47 84 -47q57 0 87.5 42.5t30.5 117.5zM462 -105
q0 -51 -27 -84q-33 -37 -87 -37q-60 0 -82 40q-11 24 -11 72q0 36 -16 52q-10 11 -34 13q-8 0 -14 0.5t-14 1.5q11 -13 18 -33t7 -44q0 -48 -23.5 -73.5t-65.5 -25.5q-40 0 -68 31q-11 15 -18 34t-7 41q0 121 160 121q72 0 102 -33q28 -27 28 -83q0 -12 1 -21.5t4 -14.5
q8 -17 34 -17q56 0 56 65q0 78 -47 73v32q59 0 83 -29q21 -25 21 -81zM148 -117q0 9 -3.5 18.5t-8.5 17.5q-11 12 -20 18q-19 -3 -30.5 -16t-11.5 -33q0 -53 34 -53q40 0 40 48z" />
    <glyph glyph-name="mal_dda_la" horiz-adv-x="785" 
d="M775 243q4 -123 -45 -184q-45 -58 -131 -58q-65 0 -96 52q-32 -54 -108 -54q-71 0 -105 48q-28 40 -28 104q0 42 10 78q17 63 17 99q0 75 -67 75q-43 0 -65 -49q-20 -42 -20 -95q0 -141 71 -259h-95q-11 23 -21.5 51.5t-18.5 63.5q-17 73 -17 123q0 79 21 135
q40 106 151 106q70 0 108 -42q35 -41 35 -110q0 -33 -8 -76q-16 -70 -16 -108q0 -68 50 -68q65 0 65 58v345h83v-345q0 -22 17 -37t39 -15q91 0 91 172q0 55 -25 133q-23 76 -42 92h96q51 -85 54 -235zM791 -109q0 -51 -31 -83q-37 -37 -100 -37q-72 0 -94 39q-13 22 -13 72
q0 37 -20 54q-16 13 -43 14l-42 2q35 -26 35 -80q0 -48 -27 -73t-75 -25t-78 31q-29 29 -29 74q0 119 187 119q81 0 118 -32q31 -27 31 -81q0 -28 6 -38q12 -19 45 -19q69 0 69 69q0 81 -56 76v26q68 0 93 -28q24 -26 24 -80zM425 -120q0 19 -14 38q-13 15 -26 19
q-24 -3 -38.5 -17t-14.5 -35q0 -57 43 -57q50 0 50 52z" />
    <glyph glyph-name="mal_ddha_la" horiz-adv-x="841" 
d="M831 251q0 -257 -209 -252q-31 1 -64 12q-42 13 -59 39q-30 -50 -99 -50q-70 0 -104 49q-29 40 -29 103q0 34 9 69q15 58 15 97q0 81 -67 81q-46 0 -71 -61q-20 -48 -20 -107q0 -82 33 -161q8 -21 17.5 -38.5t19.5 -31.5h-94q-22 31 -39 92q-19 67 -19 134q-1 82 22 141
q46 112 170 112q131 0 131 -146q0 -17 -2 -36t-6 -40q-17 -85 -17 -116q0 -65 51 -65q58 0 58 56v346h83v-319q0 -86 98 -86q45 0 74 29q22 24 32 56l6 32q-17 -26 -53 -26q-48 0 -78 38q-33 43 -33 124q0 76 34 116q31 37 84 37q126 0 126 -228zM740 321q1 30 -8 52
q-10 24 -28 25q-19 1 -30.5 -19t-11.5 -53q0 -84 36 -84q41 0 42 79zM841 -109q0 -51 -31 -83q-37 -37 -100 -37q-72 0 -94 39q-13 22 -13 72q0 37 -20 54q-16 13 -43 14l-42 2q35 -26 35 -80q0 -48 -27 -73t-75 -25q-47 0 -77 31q-29 29 -29 74q0 119 186 119q81 0 118 -32
q31 -27 31 -81q0 -28 6 -38q12 -19 45 -19q69 0 69 69q0 81 -56 76v26q68 0 93 -28q24 -26 24 -80zM475 -120q0 19 -14 38q-13 15 -26 19q-24 -3 -38.5 -17t-14.5 -35q0 -57 43 -57q50 0 50 52z" />
    <glyph glyph-name="mal_nna_la" horiz-adv-x="852" 
d="M841 233q-4 -127 -54 -232h-102q35 33 58 118q17 66 17 107q0 88 -18 129q-21 47 -73 47q-22 0 -39 -16t-17 -37v-349h-84v342q0 26 -14 45q-15 20 -40 20q-33 0 -49 -18q-15 -17 -15 -42v-347h-82v309q0 44 -22 69q-23 29 -67 29q-54 0 -86.5 -44.5t-33.5 -119.5h3
q3 25 22 41q21 18 52 18q47 0 74 -37q30 -39 30 -111q0 -75 -30 -115t-84 -40q-73 0 -108 77q-28 60 -28 165q0 79 30 138q49 100 170 100q41 0 71 -13q34 -14 48 -38q25 51 105 51q77 0 96 -48q26 46 98 46q178 0 172 -244zM229 157q0 70 -42 70q-20 0 -32 -19
q-12 -20 -12 -55q0 -33 10 -54q12 -25 32 -25q21 0 33 26q11 24 11 57zM860 -109q0 -51 -31 -83q-37 -37 -100 -37q-72 0 -94 39q-13 22 -13 72q0 37 -20 54q-16 13 -43 14l-42 2q35 -26 35 -80q0 -48 -27 -73t-75 -25t-78 31q-29 29 -29 74q0 119 187 119q81 0 118 -32
q31 -27 31 -81q0 -28 6 -38q12 -19 45 -19q69 0 69 69q0 81 -56 76v26q68 0 93 -28q24 -26 24 -80zM494 -120q0 19 -14 38q-13 15 -26 19q-24 -3 -38.5 -17t-14.5 -35q0 -57 43 -57q50 0 50 52z" />
    <glyph glyph-name="mal_ta_la" horiz-adv-x="629" 
d="M611 238q-1 -38 -3.5 -69t-6.5 -54q-12 -66 -42 -115h-83q14 11 38 90q25 85 27 141q2 84 -31 136q-30 47 -70 47q-12 0 -21 -4q58 -51 58 -195q0 -97 -37 -155q-38 -60 -102 -60q-62 0 -99 61t-37 163q0 134 69 188q-5 1 -15 1q-53 0 -86 -50q-33 -52 -31 -142
q1 -36 7.5 -70.5t17.5 -67.5q20 -60 44 -83h-86q-53 80 -58 226q-3 108 48 180q52 72 128 73q68 2 100 -32q38 34 91 32q84 -1 131 -58q52 -61 49 -183zM393 217q0 65 -12 112q-13 55 -42 61q-29 -8 -47 -60q-14 -48 -14 -110q0 -146 55 -146q30 0 46 43q14 40 14 100z
M631 -109q0 -51 -31 -83q-37 -37 -100 -37q-72 0 -94 39q-13 22 -13 72q0 37 -20 54q-16 13 -43 14l-42 2q35 -26 35 -80q0 -48 -27 -73t-75 -25t-78 31q-29 29 -29 74q0 119 187 119q81 0 118 -32q31 -27 31 -81q0 -28 6 -38q12 -19 45 -19q69 0 69 69q0 81 -56 76v26
q68 0 93 -28q24 -26 24 -80zM265 -120q0 19 -14 38q-13 15 -26 19q-24 -3 -38.5 -17t-14.5 -35q0 -57 43 -57q50 0 50 52z" />
    <glyph glyph-name="mal_tha_la" horiz-adv-x="598" 
d="M595 0h-537l26 479h73l-17 -407h98l17 251q6 83 58 123q41 32 105 32q65 0 109 -36q48 -39 52 -106zM510 72l-10 261q-2 31 -25 53q-25 25 -59 24q-15 0 -30 -5.5t-26.5 -15t-19 -22t-7.5 -25.5l-17 -270h194zM601 -109q0 -51 -31 -83q-37 -37 -100 -37q-72 0 -94 39
q-13 22 -13 72q0 37 -20 54q-16 13 -43 14l-42 2q35 -26 35 -80q0 -48 -27 -73t-75 -25t-78 31q-29 29 -29 74q0 119 187 119q81 0 118 -32q31 -27 31 -81q0 -28 6 -38q12 -19 45 -19q69 0 69 69q0 81 -56 76v26q68 0 93 -28q24 -26 24 -80zM235 -120q0 19 -14 38
q-13 15 -26 19q-24 -3 -38.5 -17t-14.5 -35q0 -57 43 -57q50 0 50 52z" />
    <glyph glyph-name="mal_da_la" horiz-adv-x="372" 
d="M363 -105q0 -51 -27 -84q-33 -37 -87 -37q-60 0 -82 40q-11 24 -11 72q0 36 -16 52q-10 11 -34 13q-8 0 -14 0.5t-14 1.5q11 -13 18 -33t7 -44q0 -48 -23.5 -73.5t-65.5 -25.5q-40 0 -68 31q-11 15 -18 34t-7 41q0 114 141 120v263q0 213 156 213q75 0 114 -40
q37 -37 37 -102q0 -79 -56 -105q56 -14 56 -105q0 -57 -36 -91q-23 -23 -60 -32q48 -3 69 -28t21 -81zM127 0q38 -8 56 -29q28 -27 28 -83q0 -12 1 -21.5t4 -14.5q8 -17 34 -17q56 0 56 65q0 78 -47 73v29q-8 -2 -15 -2h-15q-22 0 -44 8v77q12 -7 44 -9q26 0 43.5 14.5
t17.5 41.5q0 34 -15 49q-16 16 -57 16h-27v77h27q74 0 74 57q0 75 -74 75q-56 0 -74 -57q-8 -29 -8 -88v-261h-9zM49 -117q0 9 -3.5 18.5t-8.5 17.5q-11 12 -20 18q-19 -3 -30.5 -16t-11.5 -33q0 -53 34 -53q40 0 40 48z" />
    <glyph glyph-name="mal_dha_la" horiz-adv-x="608" 
d="M595 247q0 -247 -172 -247q-67 0 -96 47q-29 -47 -96 -47q-170 0 -170 240q0 140 69 239h92q-16 -21 -27.5 -39t-18.5 -33q-30 -65 -33 -150v-22q0 -159 88 -159q21 0 38.5 16t17.5 38v349h82v-349q0 -23 16 -38.5t38 -15.5q51 0 73 52q18 43 18 134q0 120 -67 217h89
q59 -70 59 -232zM612 -109q0 -51 -31 -83q-37 -37 -101 -37q-72 0 -94 39q-13 22 -13 72q0 37 -20 54q-16 13 -43 14l-42 2q35 -26 35 -80q0 -48 -27 -73t-75 -25t-78 31q-29 29 -29 74q0 119 187 119q81 0 118 -32q31 -27 31 -81q0 -28 6 -38q12 -19 45 -19q70 0 70 69
q0 81 -56 76v26q68 0 93 -28q24 -26 24 -80zM245 -120q0 19 -14 38q-13 15 -26 19q-24 -3 -38.5 -17t-14.5 -35q0 -57 43 -57q50 0 50 52z" />
    <glyph glyph-name="mal_na_la" horiz-adv-x="604" 
d="M590 238q-1 -68 -14 -120q-7 -29 -18.5 -58.5t-27.5 -59.5h-89q14 5 38 87q26 89 26 140q0 89 -14 128q-20 48 -70 48q-22 0 -38 -15q-17 -17 -17 -43v-345h-82v345q0 28 -18 45q-17 15 -38 15q-46 0 -68 -49q-20 -43 -20 -112v-21q5 -83 28 -152q19 -52 37 -71h-85
q-23 32 -40 104q-17 67 -18 132q-2 114 41 177q43 66 125 66q73 0 97 -45q13 20 42 34q27 11 52 11q178 0 171 -241zM601 -109q0 -51 -31 -83q-37 -37 -100 -37q-72 0 -94 39q-13 22 -13 72q0 37 -20 54q-16 13 -43 14l-42 2q35 -26 35 -80q0 -48 -27 -73t-75 -25t-78 31
q-29 29 -29 74q0 119 187 119q81 0 118 -32q31 -27 31 -81q0 -28 6 -38q12 -19 45 -19q69 0 69 69q0 81 -56 76v26q68 0 93 -28q24 -26 24 -80zM235 -120q0 19 -14 38q-13 15 -26 19q-24 -3 -38.5 -17t-14.5 -35q0 -57 43 -57q50 0 50 52z" />
    <glyph glyph-name="mal_nnna_la" horiz-adv-x="650" 
d="M411 0h-82v311q0 40 -26 68q-24 25 -56 25q-56 0 -90 -39q-35 -40 -37 -113h3q3 22 27 40q22 17 45 19q51 2 80 -42t26 -113q-1 -69 -31 -113q-31 -43 -83 -43q-74 0 -109 86q-27 64 -27 164q0 74 32 132q51 96 174 96q49 0 77 -25q20 -17 38 -48q6 35 30.5 54.5
t62.5 19.5q178 0 171 -241q-1 -68 -14 -120q-7 -29 -18.5 -58.5t-27.5 -59.5h-89q14 5 38 87q26 89 26 140q0 89 -14 128q-20 48 -70 48q-22 0 -38 -15q-17 -17 -17 -43zM229 158q0 33 -11 53q-11 23 -31 24q-17 1 -30 -13q-14 -17 -14 -44q-1 -17 2 -33t8 -32
q13 -34 32 -34q20 -2 32 24q12 22 12 55zM641 -109q0 -51 -31 -83q-37 -37 -100 -37q-72 0 -94 39q-13 22 -13 72q0 37 -20 54q-16 13 -43 14l-42 2q35 -26 35 -80q0 -48 -27 -73t-75 -25t-78 31q-29 29 -29 74q0 119 187 119q81 0 118 -32q31 -27 31 -81q0 -28 6 -38
q12 -19 45 -19q69 0 69 69q0 81 -56 76v26q68 0 93 -28q24 -26 24 -80zM275 -120q0 19 -14 38q-13 15 -26 19q-24 -3 -38.5 -17t-14.5 -35q0 -57 43 -57q50 0 50 52z" />
    <glyph glyph-name="mal_pa_la" horiz-adv-x="653" 
d="M624 0h-54q37 -41 37 -106q0 -48 -25 -82q-29 -39 -77 -39q-102 0 -102 111v16q2 37 -16 60q-20 29 -60 29q-10 0 -15 -1q40 -28 42 -94q1 -48 -22 -82q-25 -37 -74 -37q-54 0 -81 42q-20 32 -20 77q0 96 96 108v4q26 32 26 99q0 34 -17 59t-42 25q-69 0 -67 -89
q0 -51 24 -100h-81q-17 62 -17 100q0 168 143 168q67 0 103 -48q32 -43 31 -105q0 -29 -7 -53h191l-19 416h83zM550 -100q0 32 -16 60q-16 29 -43 40h-74q48 -29 48 -100q0 -33 6 -46q7 -19 34 -19q45 0 45 65zM294 -106q0 23 -10 42q-12 18 -30 21q-38 -17 -38 -63
q0 -59 42 -59q36 0 36 59z" />
    <glyph glyph-name="mal_pha_la" horiz-adv-x="763" 
d="M749 0h-500q11 29 16.5 56t6.5 52q0 97 -64 97q-75 0 -71 -97q1 -50 30 -108h-87q-26 66 -26 108q0 88 45 135q40 45 112 45q74 0 113 -50q33 -42 33 -105q0 -28 -8 -57h65l9 247q4 82 51 123q38 34 104 34q64 0 105 -37q44 -38 47 -105zM666 76l-11 261q-1 29 -22.5 49
t-51.5 20q-38 0 -60 -21q-18 -18 -20 -51l-7 -258h172zM771 -109q0 -51 -31 -83q-37 -37 -100 -37q-72 0 -94 39q-13 22 -13 72q0 37 -20 54q-16 13 -43 14l-42 2q35 -26 35 -80q0 -48 -27 -73t-75 -25t-78 31q-29 29 -29 74q0 119 187 119q81 0 118 -32q31 -27 31 -81
q0 -28 6 -38q12 -19 45 -19q69 0 69 69q0 81 -56 76v26q68 0 93 -28q24 -26 24 -80zM405 -120q0 19 -14 38q-13 15 -26 19q-24 -3 -38.5 -17t-14.5 -35q0 -57 43 -57q50 0 50 52z" />
    <glyph glyph-name="mal_ba_la" horiz-adv-x="903" 
d="M877 -102q0 -123 -109 -123q-64 0 -84 38q-12 24 -12 85q0 42 -26 66q-25 23 -66 23q-8 0 -12 -1q24 -11 37 -38t15 -59q1 -46 -22 -77q-29 -35 -78 -35q-58 0 -86 43q-20 34 -20 78q0 32 19 60q27 39 83 51q34 27 57 102q18 61 18 117q0 170 -91 170q-26 0 -44 -18
t-18 -44v-336h-83v325q0 15 -6 29.5t-15.5 25.5t-22.5 18t-27 7q-63 0 -97 -48q-31 -43 -31 -108l2 1q19 45 71 45q46 0 72 -50q21 -42 21 -99q0 -60 -25 -100q-28 -46 -79 -46q-68 0 -102 64q-33 61 -32 165q1 83 32 146q53 104 174 104q82 0 107 -46q12 20 41 32
q24 11 51 13q86 2 133 -56q51 -63 51 -184q0 -116 -32 -177h135l-17 417h84l18 -482h-24q8 -6 15 -17.5t12.5 -25t9 -28t3.5 -27.5zM810 -102q0 30 -18 58.5t-42 39.5h-58q43 -28 43 -98q0 -36 4 -45q6 -20 29 -20q42 0 42 65zM555 -111q-2 22 -12 39q-13 18 -32 22
q-15 -6 -26 -24q-8 -18 -8 -37q0 -51 43 -51q18 0 27 16q9 14 8 35zM252 146q1 28 -9 47q-10 21 -32 23q-20 2 -29 -21q-10 -18 -8 -49q1 -14 4.5 -25t8.5 -21q10 -22 29 -22q16 0 26 22q10 19 10 46z" />
    <glyph glyph-name="mal_bha_la" horiz-adv-x="405" 
d="M393 -105q0 -51 -27 -84q-33 -37 -88 -37q-60 0 -82 40q-11 24 -11 72q0 36 -16 52q-10 11 -34 13q-8 0 -14 0.5t-14 1.5q11 -13 18 -33t7 -44q0 -48 -23.5 -73.5t-65.5 -25.5q-40 0 -68 31q-11 15 -18 34t-7 41q0 103 116 118v273q0 92 31 141q40 64 139 64q61 0 98 -25
q46 -31 46 -96q0 -103 -70 -103q-8 0 -19 2.5t-16 2.5q-22 0 -22 -31q0 -22 19 -22q5 0 14 1.5t14 1.5q37 0 59 -28q21 -27 21 -72q0 -41 -21 -68.5t-59 -36.5q49 -3 72 -29q21 -25 21 -81zM143 2q47 -6 69 -31q28 -27 28 -83q0 -12 1 -21.5t4 -14.5q8 -17 34 -17
q57 0 57 65q0 78 -47 73v29q-7 -1 -14 -1.5t-15 -0.5q-27 0 -55 9v71q23 -17 46 -17q55 0 55 42q0 37 -35 37q-4 0 -12.5 -1t-12.5 -1q-33 0 -49 25q-16 22 -16 65q0 51 16 73q18 25 61 25q5 0 13 -0.5t12 -0.5q29 0 29 31q0 45 -76 45q-66 0 -85 -49q-8 -21 -8 -71v-281z
M78 -117q0 9 -3.5 18.5t-8.5 17.5q-11 12 -20 18q-19 -3 -30.5 -16t-11.5 -33q0 -53 34 -53q40 0 40 48z" />
    <glyph glyph-name="mal_ma_la" horiz-adv-x="456" 
d="M433 -106q-2 -50 -19 -81q-23 -37 -62 -38q-81 -2 -81 97v10t1 12q3 47 -25 75q-26 27 -59 26q48 -38 48 -118q0 -42 -18 -70q-19 -31 -53 -31q-85 0 -85 121q0 27 11 57q14 32 35 46h-40v39q82 48 151 124q84 91 84 165q0 72 -72 72q-40 0 -63 -28t-23 -79
q0 -76 17 -130h-82q-11 55 -11 138q0 79 50 131q47 47 113 47q73 0 113 -42t39 -118h15l14 -319h-27q29 -38 29 -106zM364 52l-6 185l-7 2q-27 -108 -156 -187h169zM382 -103q0 37 -13 66q-17 35 -40 35h-51q14 -1 28 -30q12 -29 12 -57q0 -46 5 -64q6 -21 27 -21
q15 0 24 22q8 21 8 49zM154 -42q-25 -15 -25 -78q0 -55 34 -55q24 0 24 49q0 21 -8 48q-11 32 -25 36z" />
    <glyph glyph-name="mal_ya_la" horiz-adv-x="648" 
d="M636 262q0 -139 -60 -209q-50 -56 -126 -56q-60 0 -100 31q-46 -28 -90 -28q-93 0 -148 61q-63 67 -63 194q0 86 22 140q33 82 112 82q24 0 44 -15q24 -17 27 -48q18 39 46 53q22 12 66 12q73 0 111 -78q30 -60 30 -137q0 -144 -74 -185v-3q10 -2 15 -2q46 0 74 49
q33 54 33 148q0 76 -21 141q-16 50 -36 67h92q46 -76 46 -217zM430 264q0 60 -19 97q-20 41 -53 41t-52 -45q-19 -41 -19 -102q0 -56 20 -105q21 -50 51 -59q72 31 72 173zM276 69q-30 23 -48.5 68t-18.5 97q0 6 0.5 16.5t0.5 21t0.5 20.5t0.5 16q0 95 -37 95q-25 0 -38 -36
q-16 -39 -16 -119q0 -98 49 -144q37 -36 91 -36h8t8 1zM601 -109q0 -51 -31 -83q-37 -37 -100 -37q-72 0 -94 39q-13 22 -13 72q0 37 -20 54q-16 13 -43 14l-42 2q35 -26 35 -80q0 -48 -27 -73t-75 -25t-78 31q-29 29 -29 74q0 119 187 119q81 0 118 -32q31 -27 31 -81
q0 -28 6 -38q12 -19 45 -19q69 0 69 69q0 81 -56 76v26q68 0 93 -28q24 -26 24 -80zM235 -120q0 19 -14 38q-13 15 -26 19q-24 -3 -38.5 -17t-14.5 -35q0 -57 43 -57q50 0 50 52z" />
    <glyph glyph-name="mal_ra_la" horiz-adv-x="485" 
d="M481 -105q0 -51 -27 -84q-33 -37 -86 -37q-60 0 -82 40q-11 24 -11 72q0 36 -16 52q-10 11 -34 13q-8 0 -14 0.5t-14 1.5q11 -13 18 -33t7 -44q0 -48 -23.5 -73.5t-65.5 -25.5q-40 0 -68 31q-11 15 -18 34t-7 41q0 99 109 117h-32q-21 32 -36 107q-15 70 -15 122
q0 112 53 180q55 69 153 69q109 0 159 -81q37 -59 37 -155q0 -243 -135 -243q-47 0 -82 41q-37 43 -37 116q0 69 29.5 108.5t78.5 39.5q50 0 70 -36q-14 138 -120 138q-66 0 -101 -50q-33 -48 -33 -134q0 -51 25 -130q9 -29 16.5 -50.5t15.5 -37.5h5q72 0 102 -33
q28 -27 28 -83q0 -12 1 -21.5t4 -14.5q8 -17 34 -17q55 0 55 65q0 78 -46 73v32q58 0 82 -29q21 -25 21 -81zM377 159q0 79 -47 77q-19 0 -31 -24q-11 -24 -11 -53q1 -17 3.5 -31t7.5 -25q12 -26 32 -26q19 0 32.5 23.5t13.5 58.5zM168 -117q0 9 -3.5 18.5t-8.5 17.5
q-11 12 -20 18q-19 -3 -30.5 -16t-11.5 -33q0 -53 34 -53q40 0 40 48z" />
    <glyph glyph-name="mal_rra_la" horiz-adv-x="391" 
d="M393 -105q0 -51 -27 -84q-33 -37 -87 -37q-60 0 -82 40q-11 24 -11 72q0 36 -16 52q-10 11 -34 13q-8 0 -14 0.5t-14 1.5q11 -13 18 -33t7 -44q0 -48 -23.5 -73.5t-65.5 -25.5q-40 0 -68 31q-11 15 -18 34t-7 41q0 117 147 121q-13 22 -28 83q-17 74 -18 131
q-2 123 40 191.5t120 68.5q155 0 160 -240q1 -128 -47 -236q30 -6 47 -26q21 -25 21 -81zM156 0q39 -8 57 -29q28 -27 28 -83q0 -12 1 -21.5t4 -14.5q8 -17 34 -17q56 0 56 65q0 78 -47 73v27h-42q11 19 28 89q8 38 12.5 69.5t4.5 57.5q2 80 -15 128q-20 56 -63 56
q-88 0 -83 -182q1 -36 5.5 -70.5t14.5 -68.5q15 -50 33 -79h-28zM79 -117q0 9 -3.5 18.5t-8.5 17.5q-11 12 -20 18q-19 -3 -30.5 -16t-11.5 -33q0 -53 34 -53q40 0 40 48z" />
    <glyph glyph-name="mal_la_la" horiz-adv-x="603" 
d="M582 0h-46q27 -27 27 -90q0 -133 -107 -133q-66 0 -85 45q-11 25 -14 95q-2 44 -20 62q-20 21 -66 21q21 -10 33 -44q10 -27 10 -60q0 -49 -27 -83q-28 -37 -77 -37q-44 0 -71 33q-29 35 -29 91q0 67 41 100h-65l12 239q7 240 162 240q80 0 121 -57q44 -64 44 -207v-22.5
t-1 -22.5h-251l-5 -103h332l-13 412h79zM338 243q-2 78 -16 111q-18 44 -64 44q-76 0 -81 -155h161zM503 -91q0 30 -13 56t-32 35h-72q18 -7 28 -31q10 -21 10 -49q0 -5 -0.5 -15.5t-0.5 -15.5q0 -50 33 -50q47 0 47 70zM248 -101q-5 71 -45 77q-32 -12 -32 -67
q0 -36 13 -55q10 -16 26 -16q19 0 30 18q10 17 8 43z" />
    <glyph glyph-name="mal_SA_RRA_RRA" horiz-adv-x="824" 
d="M792 237q0 -190 -97 -232q64 -19 64 -126q0 -61 -31 -107h-71q27 57 27 107q0 38 -11 58q-13 20 -47 22q-50 2 -50 -87q0 -45 34 -100h-81q-27 55 -27 107q0 44 14 78q14 37 39 41q-78 12 -78 130q0 41 11 93q15 64 15 104q0 75 -56 77q-57 1 -57 -52v-332
q85 -13 85 -146q0 -39 -29 -100h-73q27 40 27 100q0 83 -55 83q-51 0 -51 -76q0 -61 32 -107h-79q-28 63 -28 107q0 62 28 100q24 33 60 39v305q0 27 -11 47q-17 26 -48 26q-53 0 -72 -49q-15 -38 -15 -131q0 -49 17 -122q16 -71 36 -94h-89q-11 17 -27 86q-19 82 -20 140
q-3 124 47 191q45 62 125 62q72 0 98 -42q33 42 101 42t104 -46q32 -41 32 -111q0 -33 -7 -65q-17 -85 -17 -123q0 -76 61 -76q47 0 69 55q18 43 18 103q0 96 -25 178q-17 57 -36 84h90q54 -90 54 -241z" />
    <glyph glyph-name="mal_llla_la" horiz-adv-x="461" 
d="M453 -105q0 -51 -27 -84q-33 -37 -87 -37q-60 0 -82 40q-11 24 -11 72q0 36 -16 52q-10 11 -34 13q-8 0 -14 0.5t-14 1.5q10 -13 17 -33t7 -44q0 -48 -23.5 -73.5t-65.5 -25.5q-39 0 -67 31q-11 15 -18 34t-7 41q0 117 149 121l-10 8t-9 9v95l26 -32q31 -26 75 -26t44 43
q0 20 -10 41q-21 -6 -44 -6q-65 0 -106 37q-52 46 -52 141q0 82 24 165h80q-30 -80 -30 -149q0 -127 105 -122q-9 10 -24 51q-15 45 -15 71q0 150 120 150q54 0 86 -41q36 -44 36 -125q0 -125 -108 -159q13 -36 13 -67q0 -55 -44 -84q-13 -8 -27.5 -13t-31.5 -7q4 -3 7.5 -6
t7.5 -7q28 -27 28 -83q0 -12 1 -21.5t4 -14.5q8 -17 34 -17q56 0 56 65q0 78 -47 73v32q59 0 83 -29q21 -25 21 -81zM381 315q0 40 -13 63q-15 27 -42 27q-15 0 -27 -17q-11 -19 -11 -48q0 -52 36 -119q25 7 42 35q15 27 15 59zM139 -117q0 9 -3.5 18.5t-8.5 17.5
q-11 12 -20 18q-19 -3 -30.5 -16t-11.5 -33q0 -53 34 -53q40 0 40 48z" />
    <glyph glyph-name="mal_va_la" horiz-adv-x="629" 
d="M613 0h-326v6q28 43 46 104q14 53 16 103q4 186 -97 186q-110 0 -106 -184q0 -47 19 -107q20 -67 46 -103l-1 -5h-88q-54 97 -57 232q-3 112 46 179q50 68 138 68q97 0 142 -67q39 -59 42 -173q3 -96 -36 -174h127l-14 414h84zM631 -109q0 -51 -31 -83q-37 -37 -100 -37
q-72 0 -94 39q-13 22 -13 72q0 37 -20 54q-16 13 -43 14l-42 2q35 -26 35 -80q0 -48 -27 -73t-75 -25t-78 31q-29 29 -29 74q0 119 187 119q81 0 118 -32q31 -27 31 -81q0 -28 6 -38q12 -19 45 -19q69 0 69 69q0 81 -56 76v26q68 0 93 -28q24 -26 24 -80zM265 -120
q0 19 -14 38q-13 15 -26 19q-24 -3 -38.5 -17t-14.5 -35q0 -57 43 -57q50 0 50 52z" />
    <glyph glyph-name="mal_sha_la" horiz-adv-x="614" 
d="M597 218q0 -165 -64 -211q39 -35 39 -108q0 -51 -26 -86q-30 -39 -86 -39q-60 0 -80 35q-15 25 -15 90q1 75 -89 75q39 -41 39 -90q0 -42 -22 -73q-27 -38 -74 -38q-49 0 -79.5 30t-30.5 81q0 91 73 122q-45 4 -70.5 61t-25.5 156q0 59 16 127q17 77 43 127h85
q-22 -26 -45 -98q-26 -84 -26 -145q0 -65 14 -115q20 -62 55 -62q32 0 32 46q0 31 -12 96q-5 32 -8 56t-3 40q0 81 45 131q50 53 135 53q180 0 180 -261zM515 142q0 35 -11 65q-12 31 -31 30q-17 -2 -27 -28q-9 -26 -9 -61q0 -36 9 -60q12 -26 32 -26q16 0 27 24
q10 21 10 56zM529 264q-10 72 -37 105t-78 33q-102 0 -102 -127q0 -19 3 -41l12 -73q7 -41 7 -69q0 -58 -38 -76q5 1 15 1q53 0 84 -34q27 -29 27 -69q0 -7 -2 -19t-2 -18q0 -48 45 -48q23 0 37 21q11 19 13 49q2 32 -12 59q-14 29 -37 35q-43 0 -72 47q-28 43 -28 108
q0 157 99 162q28 2 44 -13q16 -14 17 -34zM251 -116q0 29 -14 52q-13 19 -31 19q-38 -17 -38 -71q0 -28 15 -43q12 -14 32 -14q14 0 25 17.5t11 39.5z" />
    <glyph glyph-name="mal_ssa_la" horiz-adv-x="731" 
d="M720 0h-509v6q34 55 30 116q-4 73 -51 73q-31 0 -44 -28q-9 -21 -9 -45q0 -40 10 -81q9 -38 15 -41h-82q-25 61 -24 122q2 65 36 107q36 43 101 45q60 1 96 -41q32 -41 32 -100q0 -35 -10 -65h79q13 37 21 77q8 38 15 56q-83 6 -119 62q-25 38 -23 88q2 63 45 97
q40 32 97 32q46 0 77 -31.5t33 -82.5q1 -44 -13 -90q28 0 65 22q39 23 37 40l-5 141h78zM731 -109q0 -51 -31 -83q-37 -37 -100 -37q-72 0 -94 39q-13 22 -13 72q0 37 -20 54q-16 13 -43 14l-42 2q35 -26 35 -80q0 -48 -27 -73t-75 -25t-78 31q-29 29 -29 74q0 119 187 119
q81 0 118 -32q31 -27 31 -81q0 -28 6 -38q12 -19 45 -19q69 0 69 69q0 81 -56 76v26q68 0 93 -28q24 -26 24 -80zM634 69l-7 176q-68 -41 -118 -41q-6 -24 -39 -135h164zM465 345q1 26 -11.5 42t-34.5 16q-27 0 -43.5 -16t-16.5 -43q2 -27 16 -44q24 -26 75 -26q13 45 15 71
zM365 -120q0 19 -14 38q-13 15 -26 19q-24 -3 -38.5 -17t-14.5 -35q0 -57 43 -57q50 0 50 52z" />
    <glyph glyph-name="mal_sa_la" horiz-adv-x="772" 
d="M773 247q0 -188 -90 -242q34 -33 34 -103q0 -48 -32 -89q-35 -42 -87 -42q-120 0 -120 107q0 41 -27 65q-23 22 -63 22h-9t-9 -1q43 -24 46 -86q1 -41 -24 -72q-29 -35 -75 -35q-119 0 -119 121q0 83 89 112v336q0 25 -19 41q-17 14 -39 14q-88 0 -88 -182q0 -65 27 -144
q24 -66 34 -69h-89q-23 37 -38 96q-16 63 -16 129q0 127 45 192q43 63 127 61q83 -1 94 -52q19 51 104 51q69 0 105 -53q30 -44 30 -110q0 -30 -6 -57q-19 -70 -19 -113q0 -78 66 -78q46 0 69 56q17 43 17 103q0 108 -33 186q-22 52 -43 67h93q65 -92 65 -231zM654 -98
q0 29 -11 56q-13 28 -34 33q-5 -1 -11 -1h-11q-61 0 -95 45q-33 42 -33 113q0 35 9 74q14 73 14 105q0 68 -54 70q-58 1 -58 -57v-331q19 3 37 3q58 0 94 -33q34 -31 34 -77q0 -3 -0.5 -9t-0.5 -10q0 -54 66 -54q27 0 42 24q12 19 12 49zM351 -116q0 26 -14.5 45t-35.5 21
q-24 -7 -32 -27q-5 -12 -5 -39q0 -21 11 -37q14 -17 35 -17q41 0 41 54z" />
    <glyph glyph-name="mal_ha_la" horiz-adv-x="790" 
d="M788 225q-1 -148 -52 -220q37 -16 37 -104q0 -48 -30 -84q-35 -39 -87 -38q-96 1 -96 91q0 7 0.5 14.5t1.5 16.5q1 5 1 15q0 35 -21 58q-24 26 -70 26q-5 0 -11 -0.5t-11 -1.5q51 -24 51 -108q0 -46 -26 -78q-28 -33 -73 -34q-47 -2 -76 29q-33 31 -33 88q0 78 53 105
h-111q7 8 14 35q11 36 11 64q0 47 -9 68q-14 30 -53 30q-61 0 -61 -98q0 -44 27 -99h-87q-23 66 -23 108q0 172 141 172q69 0 108 -48q34 -41 34 -104q0 -28 -8 -58h118q-31 70 -32 162q-4 246 195 246q89 0 135 -67q45 -65 43 -186zM711 -89q0 82 -73 89v5q37 26 53 101
q7 27 10 55.5t4 58.5q1 85 -21 127q-25 49 -85 49q-57 0 -81 -51q-19 -42 -18 -127q0 -57 14 -112q19 -73 59 -96v-1q18 -9 29 -32t11 -50q0 -6 -1 -17.5t-1 -17.5q0 -63 41 -63q28 0 43.5 21.5t15.5 60.5zM445 -106q0 73 -49 83q-48 -12 -48 -83q0 -31 15 -48t39 -17
q17 0 30 20t13 45z" />
    <glyph glyph-name="glyph201" 
d="M188 166q0 -27 -19.5 -47t-47.5 -20q-29 0 -48 20t-19 47q0 28 19 48t48 20q27 0 47 -20t20 -48z" />
    <glyph glyph-name="mal_ka_ka" horiz-adv-x="967" 
d="M954 229q0 -132 -42 -229h-82q45 82 45 226q0 174 -107 174q-104 0 -121 -128h28q59 0 94 -32q36 -35 36 -102q0 -61 -28 -98q-28 -40 -80 -40q-65 0 -96 66q-22 47 -22 114v9.5t1 9.5h-40q-9 -95 -60 -149q-49 -52 -124 -52q-77 0 -108 40q-8 -16 -25 -26
q-23 -14 -48 -14q-64 0 -97 43q-27 37 -27 97q0 53 30 91q31 42 88 42h11q9 92 55 148q49 61 125 61q70 0 117 -51q50 -55 59 -156h41q4 76 42 130q51 75 149 75q186 0 186 -249zM729 139q0 28 -17 45q-15 15 -37 15h-23q0 -124 41 -124q36 0 36 64zM455 273q-1 50 -22 86
q-26 41 -74 41q-50 0 -75 -42q-22 -35 -23 -85h194zM263 195q6 -52 28 -83q26 -35 68 -35q37 0 63 33.5t31 84.5h-190zM212 99q-21 34 -27 96q-5 2 -10 0q-49 0 -53 -57q-2 -26 11 -48t32 -22q31 0 47 31z" />
    <glyph glyph-name="mal_ka_ssa" horiz-adv-x="1129" 
d="M1097 0l-547 1v81q13 -7 22 -7q35 0 35 58q0 25 -10 41q-12 20 -30 20h-8q-9 -94 -59 -147q-48 -49 -123 -49q-76 0 -109 40q-8 -16 -25 -26q-23 -14 -47 -14q-66 0 -97 43q-28 37 -28 97q0 53 30 91q33 42 89 42h11q9 92 55 148q49 61 125 61q70 0 116 -52
q50 -56 59 -157q54 0 87 -30q37 -34 37 -99q0 -47 -9 -74h96q7 19 12.5 38t9.5 39l8.5 34l5.5 22q-81 6 -119 62q-25 38 -23 88q2 63 45 97q40 32 97 32q46 0 77.5 -31.5t32.5 -82.5q1 -47 -12 -90q27 0 64 22q38 23 38 40l-6 141h78zM842 345q1 26 -11 42t-35 16
q-26 0 -42.5 -16t-16.5 -43t16 -44q23 -26 75 -26q7 23 10 40.5t4 30.5zM1012 69l-7 176q-68 -41 -119 -41q-6 -24 -39 -135h165zM476 273q-1 50 -22 86q-26 41 -74 41q-49 0 -76 -42q-20 -34 -22 -85h194zM283 195q6 -50 29 -83q26 -35 68 -35q18 0 34 9t28 25t20.5 37.5
t11.5 46.5h-191zM233 99q-23 34 -27 96h-10q-50 0 -53 -57q-2 -26 11 -48t32 -22q29 0 47 31z" />
    <glyph glyph-name="mal_ga_ga" horiz-adv-x="562" 
d="M545 216q0 -150 -71 -223q39 -14 39 -94q0 -33 -13 -68q-7 -19 -14.5 -33.5t-17.5 -24.5h-72q50 53 50 125q0 37 -13.5 51t-47.5 14q-27 0 -43 -22q-17 -24 -15 -65q4 -105 -108 -105q-122 0 -122 131q0 27 15 56q14 25 35 46q-78 31 -82 215q-4 155 65 259h84
q-4 -2 -20 -36q-22 -45 -35 -88q-18 -62 -18 -109q0 -187 71 -185q54 0 54 60q0 31 -15 97q-13 56 -13 105q0 157 143 157q110 0 147 -115q17 -56 17 -148zM463 219q0 182 -76 182q-71 0 -71 -76q0 -38 17 -111q13 -45 13 -87q0 -72 -35.5 -109.5t-95.5 -34.5
q-27 -14 -42 -39q-13 -22 -13 -45q0 -70 59 -70q16 0 30 9q18 13 18 40q0 4 -0.5 12.5t-0.5 12.5q0 50 29 84q31 36 87 36q5 0 11 -0.5t11 -1.5q29 26 46 91q13 53 13 107z" />
    <glyph glyph-name="mal_ga_ma" horiz-adv-x="658" 
d="M637 -1l-397 1q-88 0 -124 66q-31 56 -31 181q0 57 21 123q20 66 51 109h93q-23 -20 -51 -90q-32 -81 -32 -142q0 -74 8 -109q16 -67 65 -67t49 65q0 41 -19 104q-12 39 -12 74q0 76 53 121q49 43 133 43q73 0 114 -35q42 -35 42 -100v-9t-1 -9h27zM521 325q0 29 -21 52
q-22 25 -59 25q-47 0 -73 -22q-32 -26 -32 -74q0 -36 16 -81q14 -39 14 -76q0 -39 -13 -66q168 139 168 242zM562 64l-3 164l-6 -2q-47 -105 -116 -162h125z" />
    <glyph glyph-name="mal_ga_na" horiz-adv-x="814" 
d="M795 233q-3 -94 -45 -233h-101q61 106 61 225q0 88 -15 126q-19 46 -70 46q-21 0 -37 -12.5t-16 -32.5v-352h-85v322q0 29 -13 51q-17 27 -45 27q-63 0 -63 -86q0 -15 3.5 -37t10.5 -51t10.5 -51t3.5 -37q0 -66 -36 -102t-103 -36q-113 0 -152 90q-20 51 -20 153
q0 50 17 116q9 34 21 63.5t26 55.5h89q-15 -17 -40 -84q-33 -90 -33 -163q-1 -151 82 -151q65 0 65 66q0 39 -19 111q-9 34 -9 69q0 66 31 106q34 46 101 46q46 0 72 -14q25 -11 42 -39q24 53 95 53q177 0 172 -245z" />
    <glyph glyph-name="mal_nga_ka" horiz-adv-x="713" 
d="M693 142q0 -142 -107 -142q-4 0 -9.5 0.5t-12.5 1.5v80q13 -7 22 -7q35 0 35 58q0 24 -11 41q-11 20 -29 20h-8q-11 -95 -60 -147q-48 -49 -122 -49q-78 0 -109 40q-8 -16 -25 -26q-23 -14 -48 -14q-64 0 -97 43q-27 37 -27 97q0 68 44 107q-26 40 -26 89q0 32 11.5 58.5
t30.5 45t44 29t52 10.5q37 0 69 -21q37 24 85 24q70 0 116 -52q50 -56 59 -157q54 0 87 -30q36 -35 36 -99zM489 273q-1 50 -22 86q-26 41 -73 41q-51 0 -76 -42q-22 -35 -23 -85h194zM259 404q-15 5 -25 5q-35 0 -56 -38q-7 -13 -7 -36q0 -45 27 -64h16q9 79 45 133z
M297 195q6 -52 28 -83q26 -35 69 -35q36 0 62 33.5t31 84.5h-190zM247 99q-22 34 -28 96q-5 2 -10 0q-49 0 -53 -57q-2 -26 11.5 -48t31.5 -22q30 0 48 31z" />
    <glyph glyph-name="mal_nga_nga" horiz-adv-x="963" 
d="M964 123q0 -122 -123 -122q-19 0 -40 7v79q19 -8 40 -8q19 0 31 15t12 37q0 66 -57 66h-29v68h29q27 1 42 24q12 19 12 50q0 33 -23 51q-20 14 -43 14q-34 0 -53.5 -20.5t-19.5 -57.5v-326h-81v324q0 42 -33 66q-25 19 -62 19q-10 0 -15 -1q59 -50 59 -194
q0 -214 -134 -214q-67 0 -103 60q-33 55 -33 155q0 65 18 118q20 58 51 71q-35 12 -72 12q-56 0 -110 -24q-44 -20 -72 -57q-24 -33 -26 -71h1q11 26 34 39q21 12 44 12q47 0 74 -40q29 -44 29 -129q0 -69 -30.5 -107.5t-81.5 -38.5q-147 0 -147 229q0 48 24 101
q36 80 117 122q54 27 140 27q91 0 138 -27q25 27 103 27q45 0 79 -14q39 -15 48 -45q23 59 114 59q73 0 112 -41q36 -36 36 -99q0 -48 -11 -73q-17 -33 -58 -37q27 -3 48 -30q22 -31 22 -76zM527 217q0 60 -14 111q-13 52 -38 60q-21 -8 -37 -60q-18 -54 -18 -111
q0 -143 53 -143q54 0 54 143zM233 146q0 39 -10.5 62.5t-27.5 23.5q-47 0 -47 -76q0 -27 15 -52q13 -26 30 -27q19 0 30 21q10 19 10 48z" />
    <glyph glyph-name="mal_cha_cha" horiz-adv-x="605" 
d="M591 -148h-417v8q131 64 160 140h-271v72h133q74 0 112 53q25 34 25 69q0 29 -14 48q-15 21 -44 21q-24 0 -37.5 -17.5t-13.5 -45.5q0 -33 17 -61h-81q-15 33 -15 55q0 66 30 105q34 45 103 45q60 0 98 -36q40 -37 40 -108q0 -89 -52 -126h138l-16 405h84zM508 -88l-2 88
h-95q-15 -55 -60 -88h157z" />
    <glyph glyph-name="mal_nya_nya" horiz-adv-x="1369" 
d="M1344 240q-1 -32 -4.5 -65.5t-9.5 -67.5q-11 -68 -27 -107h-99q8 14 16 33t16 44q24 79 24 162q0 186 -132 182q35 -20 54 -77q18 -53 18 -117q0 -104 -31 -162q-35 -65 -106 -65q-66 0 -103 66q-34 61 -34 161q0 141 67 181q-15 7 -31 7q-15 0 -29 -5.5t-25 -14.5
t-17.5 -20.5t-6.5 -23.5v-351h-82v335q0 37 -27 57q-24 18 -59 18q-5 0 -9 -0.5t-9 -2.5q58 -43 58 -182q0 -225 -131 -225q-69 0 -105 59q-36 58 -36 167q0 59 19 112q19 55 48 69q-14 4 -27 4q-40 0 -67 -23t-27 -53v-335h-84v320q0 31 -18 54q-21 27 -58 27
q-127 0 -129 -133l19 22q22 17 56 17q45 0 72 -37q27 -39 27 -111v-17q-8 -143 -110 -143q-131 0 -131 242q0 86 30 142q49 94 176 94q36 0 68 -15t43 -38q10 23 51 39q37 15 71 15q75 0 110 -28q31 28 96 28q93 0 125 -44q12 22 51 34q14 5 28.5 7.5t30.5 3.5q79 1 108 -35
q17 33 96 34q88 1 137 -55q53 -63 49 -183zM1119 224q0 152 -57 172q-27 -9 -42 -63q-13 -46 -13 -112q0 -61 14 -103q15 -46 42 -46q56 0 56 152zM674 218q0 65 -13 110q-15 52 -41 61q-24 -14 -39 -63q-15 -50 -15 -108q0 -144 55 -144q53 0 53 144zM234 147q0 85 -36 85
q-39 0 -39 -78q0 -30 11.5 -50.5t28.5 -20.5q16 0 25.5 18t9.5 46z" />
    <glyph glyph-name="mal_nya_cha" horiz-adv-x="1071" 
d="M1056 0h-321q1 0 17 23q21 28 33 71q18 61 18 146q0 84 -31 128q-29 42 -73 42q-5 0 -15 -2q26 -12 43 -71q12 -50 12 -118q0 -219 -130 -219q-67 0 -101 61q-32 56 -32 156q0 145 56 192q-14 2 -25 2q-37 0 -56 -25q-16 -20 -16 -52v-334h-82v327q0 28 -19 53
q-19 28 -49 28q-56 0 -93 -40q-33 -37 -41 -103h3q7 10 11.5 16.5t8.5 10.5q16 15 43 15q46 0 73 -44t25 -116q-5 -147 -106 -147q-128 0 -128 233q0 83 36 149q54 96 171 96q82 0 107 -59q10 28 45 45q31 15 73 15q62 0 94 -28q29 25 96 26q85 3 135 -60q53 -69 49 -191
q-3 -109 -29 -163h111l-15 415h82zM660 215q0 57 -15 113q-16 56 -37 64q-25 -13 -42 -68q-14 -50 -14 -109q0 -136 52 -136q56 0 56 136zM205 83q14 0 23 21q7 18 7 47q0 31 -7 49q-11 23 -26 23q-16 0 -27 -20q-9 -18 -9 -46t9 -49q11 -24 30 -25z" />
    <glyph glyph-name="mal_tta_tta" horiz-adv-x="417" 
d="M402 -17q5 -158 -184 -158q-37 0 -77 10q-43 9 -63 22v98l43 -30q46 -22 105 -23q42 -2 70 16q33 23 32 62q-1 29 -33 37q-5 1 -19.5 1.5t-38.5 0.5h-159v80l180 -1q26 0 46 14q21 16 23 46q0 54 -60 54q-8 0 -20.5 -1.5t-28.5 -5.5q-29 -7 -48 -7q-108 0 -106 138
q1 91 74 124q14 7 37 11t55 6q5 1 14 1q70 0 129 -38v-86q-42 25 -45 26q-42 18 -101 18q-87 0 -87 -63q0 -56 45 -56q17 0 38 7q24 7 51 7q53 0 86 -27q39 -33 39 -95q0 -77 -44 -103q46 -18 47 -85z" />
    <glyph glyph-name="mal_nna_nna" horiz-adv-x="899" 
d="M863 239q-3 -133 -33 -239h-86q9 22 16.5 49.5t12.5 62.5q5 32 8 60t3 53q0 88 -18 129q-21 47 -73 47q-22 0 -39 -17t-17 -39v-351q19 9 39 9q49 0 78 -27q36 -33 36 -96q0 -42 -29 -106h-74q35 44 35 103q0 24 -14 39.5t-36 15.5q-23 0 -37 -13t-14 -34v-111h-68v125
q0 21 -17 35q-17 12 -38 12q-56 0 -56 -44v-128h-69v141q0 17 -20 28q-18 9 -42 9q-17 0 -26 -4q21 -9 33.5 -32t12.5 -50q0 -38 -19 -64q-22 -31 -64 -31q-43 0 -70 27.5t-27 70.5q0 63 38 99.5t107 36.5q14 0 28 -1.5t29 -3.5v344q0 24 -19.5 41t-48.5 18
q-118 6 -134 -154q5 11 10 19t10 13q19 19 52 19q96 0 96 -159q0 -70 -30 -106q-29 -35 -80 -35q-125 0 -125 229q0 85 31 146q53 104 175 104q73 0 103 -40q7 19 37 30q27 10 63 10q76 1 102 -42q24 41 99 41q174 0 169 -239zM553 351q0 25 -19 40q-17 12 -41 12t-41 -14
q-18 -14 -18 -39v-356q7 12 59 12q37 0 60 -15v360zM244 146q0 78 -37 79q-34 1 -34 -79q0 -31 9 -52t24 -21q38 0 38 73zM271 -131q-1 46 -42 46q-20 -20 -20 -46q0 -17 9.5 -28t23.5 -11q15 0 23 12q7 12 6 27z" />
    <glyph glyph-name="mal_nna_tta" horiz-adv-x="868" 
d="M848 102q0 -102 -113 -102q-26 0 -62 11v81q27 -21 54 -23q20 -2 32 8.5t12 29.5q0 37 -44 35q-37 -1 -58 24q-19 23 -19 61t20 66q22 31 58 31q4 0 14 -1.5t15 -1.5q15 0 19 10q3 6 3 24q0 21 -24.5 37.5t-61.5 16.5q-40 0 -62 -21q-18 -18 -18 -44v-344h-84v344
q0 27 -14.5 45t-39.5 18q-55 0 -55 -58v-349h-82v341q0 30 -26 47q-23 15 -53 15q-27 0 -50.5 -11.5t-40.5 -32t-27.5 -48.5t-11.5 -61l2 -1q9 52 79 52q39 0 62 -38q25 -41 25 -116q0 -65 -28 -105q-30 -42 -84 -42q-126 0 -126 231q0 80 31 142q52 103 176 103
q82 0 110 -46q21 47 99 47q82 0 97 -48q27 49 110 49q81 0 122 -30q44 -32 44 -104q0 -48 -25 -73q-19 -19 -50 -19q-7 0 -17 2.5t-15 2.5q-19 0 -19 -24q0 -11 5.5 -20t16.5 -8h13q48 0 69.5 -24.5t21.5 -78.5zM219 147q2 31 -7 52q-11 24 -30 23q-38 -2 -38 -75
q0 -27 10 -44q11 -20 29 -20q15 0 26 20q8 17 10 44z" />
    <glyph glyph-name="mal_nna_dda" horiz-adv-x="1254" 
d="M1233 243q3 -124 -46 -185q-45 -58 -130 -58q-66 0 -97 52q-30 -53 -107 -53q-72 0 -107 47q-28 37 -28 100q0 39 11 83q15 52 15 91q0 83 -64 83q-67 0 -67 -62v-341h-84v341q0 26 -14 45q-15 20 -40 20q-33 0 -49 -18q-15 -17 -15 -42v-346h-82v308q0 44 -22 69
q-23 29 -67 29q-54 0 -86.5 -44t-33.5 -119h3q3 25 22 41q21 18 52 18q47 0 74 -37q30 -39 30 -111q0 -75 -30 -115t-84 -40q-73 0 -108 77q-28 60 -28 165q0 79 30 138q49 100 170 100q41 0 71 -13q34 -14 48 -39q25 52 105 52q77 0 96 -49q25 49 109 49q72 0 111 -43
q37 -40 37 -113q0 -32 -8 -72q-15 -72 -15 -108q0 -68 50 -68q64 0 64 57v347h83v-347q0 -22 17 -37t40 -15q90 0 90 173q0 53 -24 133q-23 76 -42 93h95q50 -86 55 -236zM229 157q0 70 -42 70q-20 0 -32 -19q-12 -20 -12 -55q0 -33 10 -54q12 -25 32 -25q21 0 33 26
q11 24 11 57z" />
    <glyph glyph-name="mal_nna_ma" horiz-adv-x="988" 
d="M964 0h-383v349q0 32 -22 48q-19 16 -50 16q-27 0 -43 -16q-19 -18 -19 -51v-345h-84v345q0 27 -27 47q-23 15 -50 15q-60 0 -94 -42q-31 -36 -39 -103h2q16 39 69 41q46 1 74 -48q26 -44 26 -107q1 -64 -26 -105q-30 -44 -84 -44q-132 0 -132 229q0 74 32 141
q54 109 175 109q92 0 116 -50q34 50 104 50q89 0 122 -51q24 29 54 40q27 10 77 10q74 0 118 -42q45 -44 42 -118h26zM839 326q0 74 -75 74q-48 0 -77.5 -24t-29.5 -61v-241q63 42 121 119q61 80 61 133zM891 77l-9 157h-5q-22 -48 -43 -78q-14 -19 -34 -39t-46 -40h137z
M251 149q0 32 -10 52q-10 23 -31 25q-23 2 -36 -23q-11 -21 -9 -54q1 -60 43 -65q43 -3 43 65z" />
    <glyph glyph-name="mal_ta_ta" horiz-adv-x="1097" 
d="M1077 241q0 -60 -18 -139q-16 -72 -35 -102h-91q63 88 63 239q0 172 -121 172q30 -22 46.5 -71.5t16.5 -110.5q0 -102 -33 -163q-36 -66 -105 -66q-66 0 -102 66q-32 62 -32 163q0 139 63 180q-5 1 -9 1h-9q-40 0 -66 -23q-25 -22 -25 -53v-334h-82v335q0 34 -26 55
q-23 19 -54 19q-12 0 -22 -3q56 -50 56 -181q0 -225 -129 -225q-67 0 -103 65q-33 60 -33 161q0 60 15 108q18 53 48 73h-14q-51 0 -83 -44q-34 -49 -34 -137q0 -57 9 -97q14 -59 52 -129h-94q-20 42 -34 111q-14 67 -14 123q0 112 49 176q49 67 137 67q68 0 96 -22
q18 15 45 19q5 1 18 2t35 2q28 1 64 -14q38 -16 56 -46q12 29 49 45q32 15 60 16h15q68 0 100 -24q25 24 93 24q82 0 128 -55q54 -62 54 -183zM855 225q0 66 -13 108q-15 51 -44 59q-54 -14 -54 -170q0 -65 13 -103q14 -47 43 -47t43 48q12 40 12 105zM414 218q0 58 -17 112
t-40 62q-51 -26 -51 -174q0 -63 12 -103q15 -47 43 -47q53 0 53 150z" />
    <glyph glyph-name="mal_ta_tha" horiz-adv-x="1090" 
d="M1069 0h-573q53 98 53 222q0 189 -121 189q65 -50 65 -196q0 -100 -35 -156q-36 -59 -105 -59q-65 0 -102 57q-39 60 -39 162q0 136 65 186q-117 1 -117 -170q0 -62 10 -121q15 -80 42 -114h-89q-16 26 -29 104q-12 70 -12 115q0 117 45 185q49 72 138 72q38 0 58 -5
q14 -3 32 -16q39 24 94 24q80 0 130 -65t50 -172q0 -18 -1.5 -42.5t-5.5 -56.5q-6 -61 -11 -73l98 1l16 248q4 83 58 126q43 34 107 34q70 0 112.5 -38.5t46.5 -107.5zM983 71l-17 254q-5 78 -78 79q-38 0 -60 -27q-21 -24 -22 -54l-9 -252h186zM410 214q0 61 -15 111
q-16 54 -44 63q-27 -12 -44 -63q-15 -47 -15 -108q0 -63 15 -100q17 -44 48 -44q30 0 43 46q12 37 12 95z" />
    <glyph glyph-name="mal_ta_bha" horiz-adv-x="847" 
d="M828 110q0 -51 -31.5 -80.5t-88.5 -29.5q-28 0 -56 9v71q23 -17 47 -17q55 0 55 42q0 37 -36 37q-4 0 -12 -1t-13 -1q-32 0 -48 25q-17 23 -17 65q0 50 17 73q18 25 61 25q4 0 13 -0.5t12 -0.5q28 0 28 31q0 45 -75 45q-66 0 -85 -49q-8 -21 -8 -71v-283h-77v335
q0 35 -22 57q-23 21 -53 21q-10 0 -20 -3q58 -51 58 -195q0 -97 -37 -155q-38 -60 -102 -60q-62 0 -99 61t-37 163q0 134 69 188q-5 1 -15 1q-53 0 -86 -50q-33 -52 -31 -142q1 -36 7.5 -70.5t17.5 -67.5q20 -60 44 -83h-86q-53 80 -58 226q-3 108 48 180q52 72 128 73
q68 2 100 -32q37 32 91 32q56 0 87 -17q24 -13 37 -40q34 57 129 57q61 0 98 -25q46 -31 46 -96q0 -103 -71 -103q-7 0 -18 2.5t-16 2.5q-22 0 -22 -31q0 -22 19 -22q5 0 14 1.5t14 1.5q37 0 59 -28q21 -27 21 -72zM393 217q0 65 -12 112q-13 55 -42 61q-29 -8 -47 -60
q-14 -48 -14 -110q0 -146 55 -146q30 0 46 43q14 40 14 100z" />
    <glyph glyph-name="mal_ta_sa" horiz-adv-x="1041" 
d="M1021 233q0 -85 -24 -140q-41 -93 -138 -93q-75 0 -113.5 36t-38.5 102q0 34 10 73q8 34 12 62t4 50q0 78 -54 78q-58 0 -58 -60v-341h-84v333q0 70 -68 70q-5 0 -11.5 -0.5t-13.5 -1.5q50 -45 50 -186q0 -97 -36 -155q-38 -60 -103 -60q-62 0 -99 61t-37 163
q0 134 69 188q-5 1 -15 1q-53 0 -86 -50q-33 -52 -31 -142q1 -36 7.5 -70.5t17.5 -68.5q19 -59 44 -82h-87q-57 85 -57 226q0 108 50 181q51 72 126 72q68 0 100 -32q9 8 17 13t15 9q30 11 77 11q87 0 112 -46q8 12 17.5 20.5t19.5 13.5q21 10 64 10q69 0 102 -53
q26 -44 26 -115q0 -50 -12 -99q-8 -38 -8 -62q0 -72 69 -72q44 0 67 54q16 41 16 102q0 90 -43 170q-29 55 -55 75h98q82 -119 82 -245zM410 217q0 65 -12 112q-13 55 -42 61q-30 -8 -46 -60q-15 -47 -15 -110q0 -146 56 -146q29 0 45 43q14 40 14 100z" />
    <glyph glyph-name="mal_ta_ma" horiz-adv-x="928" 
d="M902 0h-350v231q0 83 -27 136q-26 47 -61 47q-12 0 -21 -4q57 -51 57 -195q0 -97 -36 -155q-38 -60 -102 -60q-62 0 -99 61t-37 163q0 134 68 188q-5 1 -14 1q-53 0 -86 -50q-33 -52 -31 -142q1 -72 24 -138q21 -61 45 -83h-87q-53 81 -57 226q-3 108 48 180
q52 72 128 73q68 2 100 -32q38 34 91 32q87 -1 134 -63q42 63 129 63q72 0 110.5 -43t35.5 -118h28zM786 327q0 76 -71 76q-51 0 -69 -61q-11 -36 -11 -104q2 -4 1 -134q150 114 150 223zM838 65l-4 169h-6q-18 -44 -53 -88q-44 -54 -93 -81h156zM417 217q0 65 -12 112
q-13 55 -42 61q-31 -8 -47 -60q-14 -48 -14 -110q0 -146 55 -146q30 0 46 43q14 40 14 100z" />
    <glyph glyph-name="mal_ta_na" horiz-adv-x="810" 
d="M791 235q0 -29 -6 -62.5t-17 -72.5q-10 -33 -20 -58t-21 -42h-118q25 16 43.5 39.5t30.5 49.5q13 35 20.5 69t7.5 66q0 96 -19 137q-19 43 -67 43q-25 0 -41 -19q-14 -19 -14 -45v-340h-80v334q-2 43 -21 60q-20 17 -44 17h-4q8 -11 16 -26.5t14 -32.5q20 -60 20 -133
q0 -92 -35 -154q-38 -65 -102 -65q-65 0 -104 70v-1q-34 61 -34 159q0 66 20 126q7 18 14.5 31.5t16.5 25.5h-2q-19 -1 -36.5 -12t-31.5 -30q-17 -26 -26.5 -64t-9.5 -86q0 -27 4.5 -53.5t13.5 -55.5q20 -64 78 -110h-103q-16 19 -29.5 47.5t-21.5 58.5q-17 62 -17 127
q0 106 49 174q49 70 124 72q28 1 50.5 -3t42.5 -16q14 11 38.5 16t60.5 6q39 -2 64 -15.5t38 -35.5q15 23 39 35.5t52 12.5q167 0 167 -244zM391 221q0 68 -16 115q-17 47 -41 47q-23 0 -41 -46q-17 -49 -17 -113q0 -65 16 -106q8 -19 18 -29.5t23 -10.5q21 0 40 38
q8 21 13 47.5t5 57.5z" />
    <glyph glyph-name="mal_da_da" horiz-adv-x="402" 
d="M385 157q0 -76 -51 -89q25 -8 39 -39q11 -28 11 -63q0 -61 -30 -95q-38 -42 -112 -42q-25 0 -58 10v83q28 -15 58 -15q61 0 61 66q0 27 -10.5 44t-28.5 18q-35 1 -54 0v73h19.5t27.5 1q50 2 50 49q0 51 -43 51q-33 2 -53 0v81q18 -3 46 0q53 0 53 56q0 31 -23 48
q-17 12 -38 12q-95 0 -95 -136v-270h-73v281q0 198 161 198q142 0 142 -137v-10t-1 -10q-4 -61 -48 -76q50 -17 50 -89z" />
    <glyph glyph-name="mal_da_dha" horiz-adv-x="790" 
d="M772 241q0 -127 -37 -185q-38 -56 -115 -56q-81 0 -108 56q-35 -57 -153 -57q-84 0 -139 28v83q18 -15 44 -15q29 0 45 16q15 13 15 37q0 53 -42 53q-13 1 -23 0v84h23q18 0 32 15q10 11 10 29q0 76 -72 76q-89 0 -89 -122v-283h-78v275q0 72 25 121q40 82 142 82
q74 0 115 -39q38 -36 38 -99q0 -17 -3 -35q-6 -40 -43 -64q43 -22 40 -86q-3 -62 -64 -80v-3q18 -3 31 -3q49 0 78 25q28 22 28 54v330h82v-330q0 -28 14 -48q16 -24 50 -24q41 0 58 41q17 42 17 133q0 57 -18 134q-16 65 -32 94h82q20 -38 34 -105q13 -65 13 -132z" />
    <glyph glyph-name="mal_na_ta" horiz-adv-x="870" 
d="M855 239q0 -64 -14 -131q-7 -33 -15.5 -60t-19.5 -48h-87q55 88 55 230q0 183 -128 183q33 -23 53 -76q18 -50 18 -106q0 -231 -145 -231q-132 0 -132 224q0 59 17 108q16 49 48 75q-18 6 -33 6q-39 0 -63 -25q-22 -22 -22 -53v-335h-82v333q0 70 -63 70q-50 0 -68 -56
q-13 -38 -13 -129q0 -63 21 -129q20 -64 44 -89h-95q-8 19 -16 43.5t-15 55.5q-8 37 -12.5 69t-4.5 61q0 112 41 180q43 70 118 70q79 0 109 -57q14 32 50 48q34 14 75 14q77 0 101 -37q38 32 104 32q75 0 121 -55q53 -64 53 -185zM636 228q0 49 -13 89q-17 51 -45 69
q-28 -14 -44 -62q-18 -48 -18 -105q0 -151 59 -151q30 0 47 51q14 45 14 109z" />
    <glyph glyph-name="mal_na_da" horiz-adv-x="636" 
d="M605 124q0 -49 -27 -83q-32 -41 -89 -41q-39 0 -52 6v83q18 -7 37 -7q24 0 37 19q10 14 10 37t-12 40q-15 21 -45 21h-24v76h30q58 0 58 52q0 70 -75 70q-32 0 -51 -21q-15 -18 -15 -42v-334h-80v334q0 24 -14 41q-17 21 -47 21q-85 0 -82 -179q2 -51 15 -112
q17 -72 40 -105h-97q-8 19 -15 48t-14 69q-12 73 -12 116q0 246 171 246q25 0 52 -11q30 -14 42 -39q10 20 39 34q27 13 58 13q85 0 126 -45q36 -39 36 -110q0 -75 -57 -93q57 -21 57 -104z" />
    <glyph glyph-name="mal_na_na" horiz-adv-x="838" 
d="M815 234q0 -114 -58 -234h-88q65 122 65 232q0 86 -18 122q-20 42 -72 42q-26 0 -42 -21q-15 -20 -15 -45v-330h-84v349q0 26 -15 41t-40 15q-27 0 -44 -14q-18 -15 -18 -42v-349h-84v349q0 24 -18 38q-17 12 -41 12q-48 0 -66 -52q-13 -38 -13 -122q0 -102 49 -225h-84
q-46 124 -47 235q-3 114 36 176q42 66 125 66q81 0 101 -45q5 21 37 35q30 13 67 13q76 0 100 -46q29 44 94 44q86 0 128 -53q45 -59 45 -191z" />
    <glyph glyph-name="mal_na_pa" horiz-adv-x="807" 
d="M788 0h-337q78 124 78 239q0 75 -12 110q-19 52 -73 52q-25 0 -42 -20q-15 -18 -15 -40v-341h-83v341q0 25 -17 42.5t-41 17.5q-45 0 -65 -59q-17 -46 -17 -120q0 -59 16 -113q10 -38 29 -77q13 -29 16 -32h-90q-17 31 -34 99q-17 69 -18 129q-1 114 39 181q43 69 123 69
q73 0 102 -44q26 44 96 44q168 0 168 -242q0 -93 -34 -171h126l-14 413h81z" />
    <glyph glyph-name="mal_na_ma" horiz-adv-x="707" 
d="M690 0h-385v327q0 31 -21 54q-18 22 -40 22q-87 0 -87 -175q0 -75 26 -151l16 -38t16 -39h-86q-19 34 -34 105q-7 35 -10.5 68t-3.5 65q0 241 165 241q38 0 68.5 -18t38.5 -49q13 31 49 49t88 18q73 0 118 -42q44 -42 43 -115h23zM569 322q0 34 -22 56q-24 24 -69 24
q-38 0 -66 -23q-30 -26 -30 -71v-240q77 48 129 115q58 73 58 139zM612 63l-7 159h-4q0 -30 -37 -80q-20 -29 -41.5 -49t-44.5 -30h134z" />
    <glyph glyph-name="mal_na_tha" horiz-adv-x="1044" 
d="M1013 0h-551q14 5 38 87q26 89 26 140q0 90 -15 128q-20 48 -70 48q-22 0 -37 -15q-17 -17 -17 -43v-345h-82v345q0 28 -18 45q-17 15 -38 15q-46 0 -68 -49q-21 -42 -21 -112v-10.5t1 -10.5q5 -83 28 -152q19 -51 36 -71h-85q-24 34 -40 104q-17 71 -17 132
q0 128 42 187q41 56 124 56q73 0 97 -45q13 20 42 34q27 11 51 11q179 0 172 -241q-3 -98 -28 -166h73l17 251q6 82 57 123q43 32 106 32q65 0 109 -36q48 -39 52 -106zM928 72l-11 261q0 31 -25 53q-25 25 -59 24q-15 0 -29.5 -5.5t-26 -15t-19 -22t-7.5 -25.5l-17 -270
h194z" />
    <glyph glyph-name="mal_na_dha" horiz-adv-x="1029" 
d="M1009 233q0 -129 -45 -183q-41 -50 -128 -50q-34 0 -54 9.5t-41 34.5q-29 -44 -105 -44q-74 0 -112 41q-37 38 -37 110q0 32 8 72q15 69 15 106q0 74 -55 75q-32 1 -48 -21q-15 -18 -15 -45v-338h-84v354q0 20 -18 32q-17 11 -40 11q-51 0 -71 -47q-15 -38 -15 -128
q0 -67 20 -136q3 -11 11 -32.5t21 -53.5h-88q-46 95 -46 232q0 246 169 246q83 0 96 -43q16 28 47 37q19 6 61 6q71 0 107 -49q30 -41 30 -107q0 -30 -8 -64q-7 -32 -10.5 -58t-3.5 -46q0 -82 63 -82q41 0 55 29q8 18 8 58v319h82v-319q0 -34 15 -55q16 -25 46 -25
q52 0 72 45q17 37 17 117q0 58 -23 144q-18 71 -32 93h86q25 -47 39 -123q11 -64 11 -122z" />
    <glyph glyph-name="mal_pa_pa" horiz-adv-x="635" 
d="M617 0h-383q29 66 29 111q0 80 -59 80q-30 0 -47.5 -21.5t-16.5 -58.5q1 -62 27 -111h-84q-21 78 -21 111q0 78 36 119t103 41q69 0 105 -36t36 -97q0 -32 -11 -71h203l-10 214h-134q19 46 17 80q-3 44 -35 44q-36 0 -36 -55q0 -26 21 -69h-64q-17 38 -18 73
q-2 48 24 79.5t71 31.5q99 0 99 -92q0 -13 -1.5 -22.5t-1.5 -10.5h56l-4 139h80z" />
    <glyph glyph-name="mal_ba_ba" horiz-adv-x="872" 
d="M856 -148h-435l-1 9q142 74 185 139h-117q29 23 64 93q38 78 38 137q0 174 -99 174q-21 0 -36 -19.5t-15 -45.5v-339h-82v339q0 31 -25 50q-23 20 -52 18q-55 0 -91 -42q-38 -44 -44 -115l2 -1q21 53 76 53q48 0 76 -49q25 -43 25 -110q0 -143 -110 -143q-71 0 -105 75
q-27 60 -27 156q0 85 36 151q54 97 169 97q89 0 112 -66q8 35 40 52q24 13 54 15q83 4 130 -56q48 -62 48 -185q0 -108 -41 -176h136l-10 415h84zM771 -87l-1 87h-79q-5 -10 -11 -19t-12 -17q-11 -14 -22.5 -27t-24.5 -24h150zM249 143q2 30 -8 51q-10 24 -31 25
q-20 2 -30 -17q-10 -16 -10 -43q0 -28 10 -49q12 -29 33 -29q16 0 25 19q9 15 11 43z" />
    <glyph glyph-name="mal_ma_ma" horiz-adv-x="711" 
d="M695 -1h-612v42q77 35 152 126q81 97 81 172q0 65 -71 65q-36 0 -57.5 -40t-21.5 -101q0 -46 14 -99h-81q-13 53 -13 105q0 97 45 154q44 56 115 56q103 0 131 -73q36 73 130 73q150 0 150 -148h27zM577 335q0 27 -15 47q-20 24 -56 24q-56 0 -75 -58q-5 -17 -8 -42
t-2 -58l3 -176q29 28 54 57t45 58q54 82 54 148zM626 62l-5 200h-8q-6 -52 -42 -110q-16 -26 -33.5 -48.5t-37.5 -41.5h126zM365 62l-7 200h-5q-21 -68 -39 -99q-34 -61 -100 -101h151z" />
    <glyph glyph-name="mal_ya_ya" horiz-adv-x="657" 
d="M643 286q0 -181 -79 -254l18 -180h-421v12q86 33 132 76q13 12 24.5 28.5t22.5 36.5q-32 -9 -65 -9q-91 0 -149 63q-64 68 -64 190q0 93 14 143q25 87 100 87q68 0 82 -77q11 50 54 68q19 7 60 9q66 3 103.5 -54t35.5 -159q-1 -28 -5 -55.5t-12 -52.5q-16 -60 -48 -92v-4
q56 0 88 63q31 60 31 162q0 47 -15 114q-12 58 -22 76h88q27 -110 27 -191zM435 271q4 136 -72 138q-71 2 -71 -146q0 -62 22 -119q22 -61 52 -70q30 10 50 73q16 51 19 124zM285 65q-35 27 -56 83q-18 54 -18 118q1 32 -2 57.5t-8 43.5q-11 32 -25 32q-18 0 -30 -36
q-11 -41 -11 -108q0 -102 55 -153q43 -38 95 -37zM504 -88l-10 96q-27 -9 -46 -9q-17 0 -31 8q-21 -58 -69 -95h156z" />
    <glyph glyph-name="mal_va_va" horiz-adv-x="638" 
d="M625 -149h-397v13q45 27 76 48t48 37q10 8 20 20.5t21 28.5h-85q57 91 57 213q0 86 -18 130q-23 54 -79 54q-106 0 -106 -184q0 -52 19 -124q8 -32 15 -54t14 -33h-85q-44 94 -44 218q0 129 50 197q48 63 136 63q92 0 136 -59q43 -56 44 -174q1 -24 -1 -50t-6 -55
q-9 -62 -21 -76h122l-13 414h76zM544 -91l-3 89h-74q-7 -36 -71 -89h148z" />
    <glyph glyph-name="mal_sha_sha" horiz-adv-x="625" 
d="M602 218q0 -80 -24 -141q-24 -66 -62 -74q52 -37 52 -117q0 -48 -25 -79q-26 -35 -71 -35t-68.5 30t-23.5 84q0 60 46 91q-41 2 -71 -21q-27 -21 -25 -48q1 -7 1 -13.5v-11.5q0 -109 -91 -110q-48 -2 -75 39q-24 34 -24 85q0 66 40 100q-93 43 -93 226q0 58 15 127
q17 79 43 128h92q-33 -45 -51 -106q-5 -14 -9.5 -35t-9.5 -49q-2 -14 -3.5 -29.5t-1.5 -31.5q0 -68 19 -115q20 -55 55 -53q34 0 34 38q0 27 -15 92q-14 67 -14 100q0 85 45 135q46 54 134 54q110 0 155 -112q26 -64 26 -148zM481 62q17 0 28 30q10 24 10 61q0 36 -10 57
q-11 26 -30 26q-36 -2 -36 -86q0 -38 10 -62q11 -28 28 -26zM534 263q-11 70 -34 102q-27 37 -76 37t-80 -31q-32 -32 -32 -87q0 -28 7 -55q22 -84 22 -136q0 -102 -97 -106q-20 -8 -33 -33q-10 -24 -10 -57q0 -29 9 -48q12 -20 30 -20q26 0 32 30q2 10 2 49q0 40 38 73
q40 37 99 37h11q-51 37 -51 133q0 61 20 106q24 53 70 53q57 0 72 -50zM511 -114q0 23 -11 43.5t-28 25.5q-21 -6 -31 -30q-8 -19 -8 -39q0 -26 9 -44q12 -20 30 -20q39 0 39 64z" />
    <glyph glyph-name="mal_sa_sa" horiz-adv-x="823" 
d="M805 247q0 -206 -97 -252q27 -36 27 -92q0 -58 -27 -94q-33 -45 -104 -45q-56 0 -88 32q-30 31 -30 75q0 14 5 32q1 5 1.5 9t0.5 8q0 38 -46 38q-25 0 -40 -11t-15 -31v-143h-59v143q0 41 -64 42q-36 1 -55 -18t-19 -52q0 -53 45 -116h-73q-40 40 -40 112q0 60 30 90
q-32 43 -51 111q-19 63 -19 126q0 135 50 206q47 65 131 62q65 -3 94 -41q19 24 37 31q21 9 63 9q69 0 105 -55q32 -47 32 -112q0 -30 -7 -54q-19 -72 -19 -117q0 -79 65 -79q46 0 68 49q18 39 18 99q0 93 -34 185q-26 73 -42 84h92q20 -29 43 -108q22 -78 22 -123z
M671 -111q0 85 -34 95q-5 -1 -8.5 -1h-7.5q-60 0 -94 49q-32 47 -32 119q0 36 7 71q15 70 15 106q0 71 -55 72q-58 1 -58 -50v-358q9 20 50 20q42 0 69 -24q31 -27 31 -76q0 -8 -2 -24t-2 -24q0 -44 59 -44q62 0 62 69zM321 350q0 20 -17.5 33.5t-39.5 13.5q-95 0 -95 -193
q0 -47 16 -102q16 -59 39 -93q11 7 41 7q45 0 56 -26v360z" />
    <glyph glyph-name="mal_lla_lla" horiz-adv-x="969" 
d="M923 295q-3 -25 -15 -44q-15 -22 -36 -25q22 -9 35 -34q15 -29 15 -66q0 -70 -26 -110q-39 -61 -141 -61h-557q-11 0 -19.5 -8.5t-8.5 -19.5q0 -28 42 -28h697v-70h-718q-49 0 -79 31q-26 29 -26 70q0 38 26 66q29 29 79 29h106q72 0 98 25q22 21 22 67q0 67 -39 67h-18
v87h16q37 0 37 54q0 79 -116 79q-60 0 -97 -27q-45 -32 -49 -92h2q3 12 18 27q22 19 51 19q43 0 72 -35q31 -37 31 -105t-31 -108q-29 -40 -78 -41q-71 -5 -104 64q-13 26 -19 61t-7 80q-1 76 26 132q51 103 184 103q94 0 147.5 -42t53.5 -120q0 -6 -0.5 -12t-1.5 -13
q-1 -23 -16 -44q-13 -22 -34 -25q21 -10 34 -34q15 -29 15 -65q0 -64 -20 -102h251q71 0 97 25q23 21 23 67q0 67 -39 67h-18v87h16q37 0 37 54q0 79 -116 79q-61 0 -98 -27q-44 -32 -48 -92h2q1 11 19 27q20 19 49 19q44 0 73 -35q30 -38 30 -105q0 -68 -30 -108t-78 -41
q-71 -5 -104 64q-26 54 -26 141q-1 76 26 132q49 103 184 103q93 0 146 -42q54 -44 54 -121v-11t-1 -13zM677 190q0 68 -41 68q-39 0 -40 -66q-2 -32 9 -51q11 -23 29 -23t30 18q13 19 13 54zM249 190q0 68 -41 68q-39 0 -40 -66q-2 -32 9 -51q11 -23 29 -23t30 18
q13 19 13 54z" />
    <glyph glyph-name="mal_rra_rra" horiz-adv-x="434" 
d="M402 238q1 -31 -2.5 -64t-10.5 -68q-7 -32 -14.5 -59t-17.5 -47h-80q7 11 14 33t15 56q8 38 12.5 69.5t4.5 57.5q2 80 -15 128q-20 56 -63 56q-88 0 -83 -182q1 -36 5.5 -70.5t14.5 -68.5q8 -26 16 -45.5t16 -33.5h-83q-14 21 -30 87q-17 74 -18 131q-2 123 40 191.5
t120 68.5q154 0 159 -240zM366 -145q0 -47 -18 -83h-66q22 44 22 83q0 64 -50 64q-19 0 -35 -14q-16 -15 -16 -43q0 -41 21 -90h-65q-21 49 -21 90q0 55 31 86.5t85 31.5q61 0 89 -40q23 -32 23 -85z" />
    <glyph glyph-name="mal_ha_na" horiz-adv-x="1016" 
d="M980 238q-1 -68 -14 -120q-14 -59 -46 -118h-89q13 4 39 87q26 89 26 140q0 92 -16 128q-18 48 -69 48q-22 0 -38 -15q-17 -17 -17 -43v-345h-82v345q0 54 -47 54q-105 0 -105 -173q0 -69 28 -147q21 -59 36 -79h-332q26 66 26 115q0 87 -53 87q-27 0 -43.5 -22.5
t-16.5 -64.5q0 -51 30 -115h-89q-13 31 -19 59.5t-7 55.5q-2 38 8 69.5t29 54t46.5 35t60.5 12.5q69 0 107 -47q32 -41 32 -104q0 -47 -9 -69h121q-33 56 -35 154q-4 259 176 259q73 0 97 -45q13 20 42 34q27 11 52 11q178 0 171 -241z" />
    <glyph glyph-name="mal_ka_tta" horiz-adv-x="707" 
d="M527 -141q0 -92 -144 -92q-33 0 -75 14q-16 5 -26 10.5t-15 9.5v68q60 -48 133 -48q31 0 49 12q17 11 17 23q0 27 -50 27q-9 0 -25 -1.5t-23 -1.5q-49 0 -75 22q-22 19 -22 48q0 40 39 66q-18 10 -28 22q-8 -16 -25 -26q-23 -14 -48 -14q-64 0 -97 43q-27 37 -27 97
q0 53 30 91q31 42 89 42h10q11 92 56 148q49 61 125 61q70 0 116 -52q50 -56 59 -157q54 0 87 -30q36 -35 36 -99q0 -142 -107 -142q-4 0 -9.5 0.5t-12.5 1.5v80q13 -7 22 -7q35 0 35 58q0 24 -11 41q-11 20 -29 20h-8q-12 -127 -95 -174h33v-57q-32 32 -102 32
q-33 0 -55 -9q-24 -9 -24 -24q0 -27 48 -27q7 0 21.5 1t21.5 1q51 0 78.5 -20.5t27.5 -57.5zM489 273q-1 50 -22 86q-26 41 -73 41q-51 0 -76 -42q-22 -35 -23 -85h194zM297 195q6 -52 28 -83q26 -35 69 -35q36 0 62 33.5t31 84.5h-190zM247 99q-22 34 -28 96q-5 2 -10 0
q-49 0 -53 -57q-2 -26 11.5 -48t31.5 -22q30 0 48 31z" />
    <glyph glyph-name="mal_ssa_tta" horiz-adv-x="1129" 
d="M1097 20v-57q-32 32 -102 32q-33 0 -55 -9q-24 -9 -24 -24q0 -27 48 -27q7 0 21.5 1t21.5 1q51 0 78.5 -20.5t27.5 -57.5q0 -92 -144 -92q-33 0 -75 14q-16 5 -26 10.5t-15 9.5v68q60 -48 133 -48q31 0 49 12q17 11 17 23q0 27 -50 27q-9 0 -25 -1.5t-23 -1.5
q-49 0 -75 22q-22 19 -22 48q0 31 20 50l-327 1v81q13 -7 22 -7q35 0 35 58q0 25 -10 41q-12 20 -30 20h-8q-9 -94 -59 -147q-48 -49 -123 -49q-76 0 -109 40q-8 -16 -25 -26q-23 -14 -47 -14q-66 0 -97 43q-28 37 -28 97q0 53 30 91q33 42 89 42h11q9 92 55 148
q49 61 125 61q70 0 116 -52q50 -56 59 -157q54 0 87 -30q37 -34 37 -99q0 -47 -9 -74h96q7 19 12.5 38t9.5 39l8.5 34l5.5 22q-81 6 -119 62q-25 38 -23 88q2 63 45 97q40 32 97 32q46 0 77.5 -31.5t32.5 -82.5q1 -47 -12 -90q27 0 64 22q38 23 38 40l-6 141h78zM1012 69
l-7 176q-68 -41 -119 -41q-6 -24 -39 -135h165zM476 273q-1 50 -22 86q-26 41 -74 41q-49 0 -76 -42q-20 -34 -22 -85h194zM283 195q6 -50 29 -83q26 -35 68 -35q18 0 34 9t28 25t20.5 37.5t11.5 46.5h-191zM842 345q1 26 -11 42t-35 16q-26 0 -42.5 -16t-16.5 -43t16 -44
q23 -26 75 -26q7 23 10 40.5t4 30.5zM233 99q-23 34 -27 96h-10q-50 0 -53 -57q-2 -26 11 -48t32 -22q29 0 47 31z" />
    <glyph glyph-name="mal_sha_cha" horiz-adv-x="909" 
d="M884 0h-497v63l91 1q77 0 129 47q45 40 45 86q0 50 -6 70q-11 41 -44 51q2 -12 3 -34t1 -54q0 -56 -37 -92q-35 -33 -91 -35q-121 -3 -121 127q0 58 35 102q34 45 97 60q-23 17 -62 17q-51 0 -85 -32q-36 -35 -36 -92q0 -22 6 -46q13 -56 13 -104q0 -135 -109 -135
q-66 0 -100 63t-33 178q2 128 58 238h86l-18 -33q-23 -42 -36 -80q-19 -57 -19 -113q0 -178 62 -178q32 0 32 51q0 14 -2 35t-6 49t-5.5 48.5t-1.5 34.5q0 84 51 134q54 54 153 54q110 0 145 -83q66 1 108 -51q41 -52 41 -126q0 -101 -64 -155h136l-19 412h81zM528 253
q0 47 -11 74q-31 1 -61 -30q-29 -32 -29 -67q0 -57 43 -57q21 0 38 17q20 22 20 63z" />
    <glyph glyph-name="mal_ka_ta" horiz-adv-x="659" 
d="M659 142q0 -142 -107 -142q-4 0 -9.5 0.5t-12.5 1.5v80q11 -7 22 -7q35 0 35 58q0 24 -11 41q-12 20 -30 20h-7q-11 -95 -60 -147q-48 -49 -123 -49q-77 0 -108 40q-8 -16 -25 -26q-23 -14 -48 -14q-64 0 -97 43q-27 37 -27 97q0 53 30 91q31 42 88 42h11q9 92 55 148
q49 61 125 61q71 0 117 -52q50 -56 59 -157q52 0 87 -30q36 -35 36 -99zM455 273q-1 50 -22 86q-26 41 -74 41q-50 0 -75 -42q-22 -35 -23 -85h194zM263 195q6 -52 28 -83q26 -35 68 -35q37 0 63 33.5t31 84.5h-190zM212 99q-21 34 -27 96q-5 2 -10 0q-49 0 -53 -57
q-2 -26 11 -48t32 -22q31 0 47 31zM425 -208q16 15 26 34t10 40q0 18 -6.5 34t-17 27.5t-24.5 18.5t-30 7h-4q23 -23 30.5 -47.5t7.5 -43.5q0 -18 -5.5 -35.5t-16 -31.5t-25.5 -23t-35 -9q-14 0 -27.5 7.5t-24 20t-17 30.5t-6.5 38q0 23 9.5 46.5t24.5 41.5h-6q-12 0 -24 -6
t-21.5 -15.5t-15.5 -22.5t-6 -28q0 -26 13 -50t38 -42l-36 -21q-26 22 -42.5 53t-16.5 68q0 22 8 42.5t22.5 36.5t35 25.5t45.5 9.5q14 0 26 -2t26 -10q28 12 56 12q27 0 50.5 -9.5t40 -26t26 -39t9.5 -48.5q0 -27 -17.5 -57t-48.5 -55l-28 11zM330 -187q14 0 22 14.5
t8 34.5t-6.5 37t-21.5 32q-19 -18 -27 -36t-8 -36q0 -23 11 -34.5t22 -11.5z" />
    <glyph glyph-name="mal_chillu_n_rr" horiz-adv-x="721" 
d="M698 218q0 -175 -62 -210q51 -26 51 -128q0 -57 -31 -110h-71q33 45 33 110q0 89 -60 89q-33 0 -50.5 -24.5t-17.5 -64.5q0 -64 25 -110h-72q-22 56 -22 110q0 51 18 86.5t48 44.5q-52 43 -52 209q0 56 23 110q21 45 46 64q-23 9 -43 9q-35 0 -56 -27q-18 -23 -18 -48
v-327h-84v350q0 19 -18 31q-17 12 -38 12q-52 0 -71 -58q-12 -41 -11 -120q2 -126 50 -216h-89q-40 104 -43 229q-6 249 164 249q81 0 100 -46q30 47 127 47q52 0 84 -12q9 12 18 23.5t9 27.5q0 32 -43 32q-24 0 -43 -9l-24 -14v84q1 0 8 3t16.5 6.5t20.5 6.5t22 3
q62 0 94 -31q32 -29 32 -81q0 -33 -17 -61q-8 -11 -11 -17t-5 -7q63 -86 63 -215zM618 224q0 50 -14 98q-14 40 -27 51q-26 -16 -46 -67q-20 -54 -20 -108q0 -149 50 -149q36 0 49 55q8 40 8 120z" />
    <glyph glyph-name="glyph202" 
d="M188 166q0 -27 -19.5 -47t-47.5 -20q-29 0 -48 20t-19 47q0 28 19 48t48 20q27 0 47 -20t20 -48z" />
    <glyph glyph-name="mal_ka_ka_ra" horiz-adv-x="1151" 
d="M1135 229q0 -132 -42 -229h-83q45 82 45 226q0 174 -107 174q-105 0 -120 -128h27q60 0 95 -32q36 -35 36 -102q0 -61 -28 -98q-28 -40 -81 -40q-65 0 -95 66q-22 47 -22 114v9.5t1 9.5h-40q-11 -97 -60 -149t-124 -52q-76 0 -109 40q-8 -16 -25 -26q-23 -14 -47 -14
q-64 0 -97 43q-28 37 -28 97q0 53 30 91q33 42 89 42h11q11 92 55 148q49 61 125 61q69 0 116 -51q52 -55 59 -156h42q5 78 42 130q51 75 148 75q187 0 187 -249zM910 139q0 28 -17 45q-17 15 -38 15h-22q0 -124 41 -124q36 0 36 64zM636 273q-3 52 -22 86q-26 41 -74 41
q-49 0 -76 -42q-20 -34 -22 -85h194zM443 195q6 -50 29 -83q26 -35 68 -35q37 0 62 34q28 35 32 84h-191zM393 99q-21 34 -27 96q-6 1 -10 0q-50 0 -53 -57q-2 -27 11 -48q13 -22 32 -22q29 0 47 31zM312 -142q-56 -27 -118 -27q-119 0 -119 224q0 78 9.5 183t28.5 239h81
q-6 -38 -11 -74t-9 -70q-10 -84 -16 -150t-8 -118v-28q0 -120 54 -129q10 -2 18 -2q46 0 90 36v-84z" />
    <glyph glyph-name="mal_ka_ssa_ra" horiz-adv-x="1277" 
d="M711 1v81q13 -7 22 -7q36 0 36 58q0 24 -11 41q-12 20 -30 20h-8q-11 -96 -59 -147q-48 -49 -123 -49q-76 0 -109 40q-8 -16 -25 -26q-23 -14 -47 -14q-66 0 -97 43q-28 37 -28 97q0 53 30 91q33 42 89 42h11q11 92 55 148q49 61 125 61q70 0 116 -52q50 -56 59 -157
q54 0 87 -30q37 -34 37 -99q0 -44 -8 -74h95q7 19 12.5 38.5t9.5 39.5l14 55q-84 8 -119 62q-25 38 -23 88q3 62 45 97q40 32 97 32q46 0 78 -32q30 -30 32 -82q1 -47 -12 -90q25 -1 64 22q40 23 38 40l-6 141h78l22 -479zM1003 345q1 26 -10.5 42t-34.5 16
q-27 0 -43.5 -15.5t-16.5 -43.5q2 -27 16 -44q23 -26 75 -26q7 23 10 40.5t4 30.5zM1166 245q-68 -41 -119 -41q-3 -12 -12.5 -45t-26.5 -90h165zM637 273q-3 52 -22 86q-26 41 -74 41q-49 0 -76 -42q-20 -34 -22 -85h194zM444 195q6 -50 29 -83q26 -35 68 -35q37 0 62 34
q28 35 32 84h-191zM394 99q-21 34 -27 96h-10q-50 0 -53 -57q-2 -27 11 -48q13 -22 32 -22q29 0 47 31zM312 -142q-56 -27 -118 -27q-119 0 -119 224q0 78 9.5 183t28.5 239h81q-6 -38 -11 -74t-9 -70q-10 -84 -16 -150t-8 -118v-28q0 -120 54 -129q10 -2 18 -2q46 0 90 36
v-84z" />
    <glyph glyph-name="mal_ga_ga_ra" horiz-adv-x="801" 
d="M784 216q0 -150 -71 -223q39 -14 39 -94q0 -33 -13 -68q-13 -40 -31 -58h-73q50 53 50 125q0 37 -13 51t-48 14q-27 0 -42 -22q-17 -24 -16 -65q4 -105 -108 -105q-122 0 -122 131q0 28 16 56q14 27 35 46q-79 32 -83 215q-4 156 66 259h83q-3 -3 -19 -36
q-22 -42 -36 -88q-18 -62 -18 -109q0 -187 71 -185q54 1 54 60q0 31 -15 97q-13 56 -13 105q0 157 144 157q109 0 146 -115q17 -56 17 -148zM703 219q0 182 -77 182q-70 0 -70 -76q0 -38 17 -111q12 -47 12 -87q0 -72 -36 -109q-36 -38 -95 -35q-26 -14 -41 -39
q-14 -23 -14 -45q0 -70 59 -70q18 0 30 9q18 13 18 40q0 4 -0.5 12.5t-0.5 12.5q0 51 30 84q31 36 86 36q5 0 11 -0.5t11 -1.5q30 28 46 91q7 28 10.5 54.5t3.5 52.5zM312 -142q-56 -27 -118 -27q-119 0 -119 224q0 78 9.5 183t28.5 239h81q-6 -38 -11 -74t-9 -70
q-10 -84 -16 -150t-8 -118v-28q0 -120 54 -129q10 -2 18 -2q46 0 90 36v-84z" />
    <glyph glyph-name="mal_ga_ma_ra" horiz-adv-x="817" 
d="M796 -1l-397 1q-88 0 -124 66q-31 56 -31 181q0 57 21 123q20 66 51 109h93q-23 -20 -51 -90q-32 -81 -32 -142q0 -74 8 -109q16 -67 65 -67t49 65q0 41 -19 104q-12 39 -12 74q0 76 53 121q49 43 133 43q73 0 114 -35q42 -35 42 -100v-9t-1 -9h27zM680 325q0 29 -21 52
q-22 25 -59 25q-47 0 -73 -22q-32 -26 -32 -74q0 -36 16 -81q14 -39 14 -76q0 -39 -13 -66q168 139 168 242zM721 64l-3 164l-6 -2q-47 -105 -116 -162h125zM312 -142q-56 -27 -118 -27q-119 0 -119 224q0 78 9.5 182.5t28.5 239.5h81l-20 -144q-21 -165 -24 -268v-28
q0 -120 54 -129q10 -2 18 -2q46 0 90 36v-84z" />
    <glyph glyph-name="mal_ga_na_ra" horiz-adv-x="985" 
d="M963 233q-3 -94 -45 -233h-101q61 106 61 225q0 88 -15 126q-19 46 -70 46q-21 0 -37 -12.5t-16 -32.5v-352h-85v322q0 29 -13 51q-17 27 -45 27q-63 0 -63 -86q0 -15 3.5 -37t10.5 -51t10.5 -51t3.5 -37q0 -66 -36 -102t-103 -36q-113 0 -152 90q-20 51 -20 153
q0 50 17 116q9 34 21 63.5t26 55.5h89q-15 -17 -40 -84q-33 -90 -33 -163q-1 -151 82 -151q65 0 65 66q0 39 -19 111q-9 34 -9 69q0 66 31 106q34 46 101 46q46 0 72 -14q25 -11 42 -39q24 53 95 53q177 0 172 -245zM312 -142q-56 -27 -118 -27q-119 0 -119 224
q0 78 9.5 182.5t28.5 239.5h81l-20 -144q-21 -165 -24 -268v-28q0 -120 54 -129q10 -2 18 -2q46 0 90 36v-84z" />
    <glyph glyph-name="mal_nga_ka_ra" horiz-adv-x="859" 
d="M839 142q0 -142 -107 -142q-4 0 -9.5 0.5t-12.5 1.5v80q13 -7 22 -7q35 0 35 58q0 24 -11 41q-11 20 -29 20h-8q-11 -95 -60 -147q-48 -49 -122 -49q-78 0 -109 40q-8 -16 -25 -26q-23 -14 -48 -14q-64 0 -97 43q-27 37 -27 97q0 68 44 107q-26 40 -26 89q0 32 11.5 58.5
t30.5 45t44 29t52 10.5q37 0 69 -21q37 24 85 24q70 0 116 -52q50 -56 59 -157q54 0 87 -30q36 -35 36 -99zM635 273q-1 50 -22 86q-26 41 -73 41q-51 0 -76 -42q-22 -35 -23 -85h194zM405 404q-15 5 -25 5q-35 0 -56 -38q-7 -13 -7 -36q0 -45 27 -64h16q9 79 45 133z
M443 195q6 -52 28 -83q26 -35 69 -35q36 0 62 33.5t31 84.5h-190zM393 99q-22 34 -28 96q-5 2 -10 0q-49 0 -53 -57q-2 -26 11.5 -48t31.5 -22q30 0 48 31zM312 -142q-56 -27 -118 -27q-119 0 -119 224q0 78 9.5 182.5t28.5 239.5h81l-20 -144q-21 -165 -24 -268v-28
q0 -120 54 -129q10 -2 18 -2q46 0 90 36v-84z" />
    <glyph glyph-name="mal_nga_nga_ra" horiz-adv-x="1161" 
d="M1162 123q0 -122 -123 -122q-19 0 -40 7v79q19 -8 40 -8q19 0 31 15t12 37q0 66 -57 66h-29v68h29q27 1 42 24q12 19 12 50q0 33 -23 51q-20 14 -43 14q-34 0 -53.5 -20.5t-19.5 -57.5v-326h-81v324q0 42 -33 66q-25 19 -62 19q-10 0 -15 -1q59 -50 59 -194
q0 -214 -134 -214q-67 0 -103 60q-33 55 -33 155q0 65 18 118q20 58 51 71q-35 12 -72 12q-56 0 -110 -24q-44 -20 -72 -57q-24 -33 -26 -71h1q11 26 34 39q21 12 44 12q47 0 74 -40q29 -44 29 -129q0 -69 -30.5 -107.5t-81.5 -38.5q-147 0 -147 229q0 48 24 101
q36 80 117 122q54 27 140 27q91 0 138 -27q25 27 103 27q45 0 79 -14q39 -15 48 -45q23 59 114 59q73 0 112 -41q36 -36 36 -99q0 -48 -11 -73q-17 -33 -58 -37q27 -3 48 -30q22 -31 22 -76zM312 -142q-56 -27 -118 -27q-119 0 -119 224q0 78 9.5 182.5t28.5 239.5h81
l-20 -144q-21 -165 -24 -268v-28q0 -120 54 -129q10 -2 18 -2q46 0 90 36v-84zM725 217q0 60 -14 111q-13 52 -38 60q-21 -8 -37 -60q-18 -54 -18 -111q0 -143 53 -143q54 0 54 143zM431 146q0 39 -10.5 62.5t-27.5 23.5q-47 0 -47 -76q0 -27 15 -52q13 -26 30 -27
q19 0 30 21q10 19 10 48z" />
    <glyph glyph-name="mal_cha_cha_ra" horiz-adv-x="803" 
d="M789 -148h-417v8q131 64 160 140h-271v72h133q74 0 112 53q25 34 25 69q0 29 -14 48q-15 21 -44 21q-24 0 -37.5 -17.5t-13.5 -45.5q0 -33 17 -61h-81q-15 33 -15 55q0 66 30 105q34 45 103 45q60 0 98 -36q40 -37 40 -108q0 -89 -52 -126h138l-16 405h84zM706 -88l-2 88
h-95q-15 -55 -60 -88h157zM312 -142q-56 -27 -118 -27q-119 0 -119 224q0 78 9.5 182.5t28.5 239.5h81l-20 -144q-21 -165 -24 -268v-28q0 -120 54 -129q10 -2 18 -2q46 0 90 36v-84z" />
    <glyph glyph-name="mal_nya_nya_ra" horiz-adv-x="1542" 
d="M1520 240q-1 -32 -4.5 -65.5t-9.5 -67.5q-11 -68 -27 -107h-99q8 14 16 33t16 44q24 79 24 162q0 186 -132 182q35 -20 54 -77q18 -53 18 -117q0 -104 -31 -162q-35 -65 -106 -65q-66 0 -103 66q-34 61 -34 161q0 141 67 181q-15 7 -31 7q-15 0 -29 -5.5t-25 -14.5
t-17.5 -20.5t-6.5 -23.5v-351h-82v335q0 37 -27 57q-24 18 -59 18q-5 0 -9 -0.5t-9 -2.5q58 -43 58 -182q0 -225 -131 -225q-69 0 -105 59q-36 58 -36 167q0 59 19 112q19 55 48 69q-14 4 -27 4q-40 0 -67 -23t-27 -53v-335h-84v320q0 31 -18 54q-21 27 -58 27
q-127 0 -129 -133l19 22q22 17 56 17q45 0 72 -37q27 -39 27 -111v-17q-8 -143 -110 -143q-131 0 -131 242q0 86 30 142q49 94 176 94q36 0 68 -15t43 -38q10 23 51 39q37 15 71 15q75 0 110 -28q31 28 96 28q93 0 125 -44q12 22 51 34q14 5 28.5 7.5t30.5 3.5q79 1 108 -35
q17 33 96 34q88 1 137 -55q53 -63 49 -183zM1295 224q0 152 -57 172q-27 -9 -42 -63q-13 -46 -13 -112q0 -61 14 -103q15 -46 42 -46q56 0 56 152zM850 218q0 65 -13 110q-15 52 -41 61q-24 -14 -39 -63q-15 -50 -15 -108q0 -144 55 -144q53 0 53 144zM410 147q0 85 -36 85
q-39 0 -39 -78q0 -30 11.5 -50.5t28.5 -20.5q16 0 25.5 18t9.5 46zM312 -142q-56 -27 -118 -27q-119 0 -119 224q0 78 9.5 182t28.5 239h81l-20 -144q-21 -164 -24 -267v-28q0 -120 54 -129q10 -2 18 -2q46 0 90 36v-84z" />
    <glyph glyph-name="mal_nya_cha_ra" horiz-adv-x="1250" 
d="M1229 0h-321q1 0 17 23q21 28 33 71q18 61 18 146q0 84 -31 128q-29 42 -73 42q-5 0 -15 -2q26 -12 43 -71q12 -50 12 -118q0 -219 -130 -219q-67 0 -101 61q-32 56 -32 156q0 145 56 192q-14 2 -25 2q-37 0 -56 -25q-16 -20 -16 -52v-334h-82v327q0 28 -19 53
q-19 28 -49 28q-56 0 -93 -40q-33 -37 -41 -103h3q7 10 11.5 16.5t8.5 10.5q16 15 43 15q46 0 73 -44t25 -116q-5 -147 -106 -147q-128 0 -128 233q0 83 36 149q54 96 171 96q82 0 107 -59q10 28 45 45q31 15 73 15q62 0 94 -28q29 25 96 26q85 3 135 -60q53 -69 49 -191
q-3 -109 -29 -163h111l-15 415h82zM312 -142q-56 -27 -118 -27q-119 0 -119 224q0 78 9.5 182.5t28.5 239.5h81l-20 -144q-21 -165 -24 -268v-28q0 -120 54 -129q10 -2 18 -2q46 0 90 36v-84zM833 215q0 57 -15 113q-16 56 -37 64q-25 -13 -42 -68q-14 -50 -14 -109
q0 -136 52 -136q56 0 56 136zM378 83q14 0 23 21q7 18 7 47q0 31 -7 49q-11 23 -26 23q-16 0 -27 -20q-9 -18 -9 -46t9 -49q11 -24 30 -25z" />
    <glyph glyph-name="mal_tta_tta_ra" horiz-adv-x="661" 
d="M646 -17q5 -158 -184 -158q-37 0 -77 10q-43 9 -63 22v98l43 -30q46 -22 105 -23q42 -2 70 16q33 23 32 62q-1 29 -33 37q-5 1 -19.5 1.5t-38.5 0.5h-159v80l180 -1q26 0 46 14q21 16 23 46q0 54 -60 54q-8 0 -20.5 -1.5t-28.5 -5.5q-29 -7 -48 -7q-108 0 -106 138
q1 91 74 124q14 7 37 11t55 6q5 1 14 1q70 0 129 -38v-86q-42 25 -45 26q-42 18 -101 18q-87 0 -87 -63q0 -56 45 -56q17 0 38 7q24 7 51 7q53 0 86 -27q39 -33 39 -95q0 -77 -44 -103q46 -18 47 -85zM312 -142q-56 -27 -118 -27q-119 0 -119 224q0 78 9.5 182.5t28.5 239.5
h81l-20 -144q-21 -165 -24 -268v-28q0 -120 54 -129q10 -2 18 -2q46 0 90 36v-84z" />
    <glyph glyph-name="mal_nna_nna_ra" horiz-adv-x="1097" 
d="M1061 239q-3 -133 -33 -239h-86q9 22 16.5 49.5t12.5 62.5q5 32 8 60t3 53q0 88 -18 129q-21 47 -73 47q-22 0 -39 -17t-17 -39v-351q19 9 39 9q49 0 78 -27q36 -33 36 -96q0 -42 -29 -106h-74q35 44 35 103q0 24 -14 39.5t-36 15.5q-23 0 -37 -13t-14 -34v-111h-68v125
q0 21 -17 35q-17 12 -38 12q-56 0 -56 -44v-128h-69v141q0 17 -20 28q-18 9 -42 9q-17 0 -26 -4q21 -9 33.5 -32t12.5 -50q0 -38 -19 -64q-22 -31 -64 -31q-43 0 -70 27.5t-27 70.5q0 63 38 99.5t107 36.5q14 0 28 -1.5t29 -3.5v344q0 24 -19.5 41t-48.5 18
q-118 6 -134 -154q5 11 10 19t10 13q19 19 52 19q96 0 96 -159q0 -70 -30 -106q-29 -35 -80 -35q-125 0 -125 229q0 85 31 146q53 104 175 104q73 0 103 -40q7 19 37 30q27 10 63 10q76 1 102 -42q24 41 99 41q174 0 169 -239zM751 351q0 25 -19 40q-17 12 -41 12t-41 -14
q-18 -14 -18 -39v-356q7 12 59 12q37 0 60 -15v360zM442 146q0 78 -37 79q-34 1 -34 -79q0 -31 9 -52t24 -21q38 0 38 73zM469 -131q-1 46 -42 46q-20 -20 -20 -46q0 -17 9.5 -28t23.5 -11q15 0 23 12q7 12 6 27zM312 -142q-56 -27 -118 -27q-119 0 -119 224q0 78 9.5 182.5
t28.5 239.5h81l-20 -144q-21 -165 -24 -268v-28q0 -120 54 -129q10 -2 18 -2q46 0 90 36v-84z" />
    <glyph glyph-name="mal_nna_tta_ra" horiz-adv-x="1052" 
d="M1036 102q0 -102 -112 -102q-26 0 -62 11v81q27 -21 53 -23q21 -2 33 8.5t12 29.5q0 36 -45 35q-36 -2 -57 24q-19 23 -19 61q0 37 20 65q22 31 57 31q5 0 15 -1.5t15 -1.5q15 0 19 10q3 6 3 24q0 23 -25 39q-23 16 -61 16q-41 0 -62 -21q-19 -18 -19 -44v-344h-83v344
q0 26 -15 44.5t-40 18.5q-54 0 -54 -58v-349h-82v341q0 30 -26 47q-23 15 -53 15q-55 0 -91 -43q-37 -43 -39 -110l2 -1q7 52 79 52q38 0 62 -38q25 -41 25 -116q0 -65 -28 -105q-32 -42 -84 -42q-127 0 -127 231q0 76 32 142q52 103 176 103q82 0 110 -46q21 47 98 47
q83 0 97 -48q27 49 111 49q82 0 121 -30q44 -32 44 -104q0 -49 -25 -73q-19 -19 -49 -19q-8 0 -17.5 2.5t-14.5 2.5q-20 0 -20 -24q0 -11 6 -20t16 -8h14q48 0 69 -24.5t21 -78.5zM408 147q2 31 -7 52q-11 23 -30 23q-38 -2 -38 -75q0 -27 10 -44q11 -20 29 -20q15 0 26 20
q8 17 10 44zM312 -142q-56 -27 -118 -27q-119 0 -119 224q0 78 9.5 183t28.5 239h81q-6 -38 -11 -74t-9 -70q-10 -84 -16 -150t-8 -118v-28q0 -120 54 -129q10 -2 18 -2q46 0 90 36v-84z" />
    <glyph glyph-name="mal_nna_dda_ra" horiz-adv-x="1446" 
d="M1426 243q5 -123 -45 -185q-46 -58 -131 -58q-66 0 -97 52q-29 -53 -107 -53q-72 0 -107 47q-27 37 -27 100q0 39 11 83q14 56 14 91q0 83 -64 83q-67 0 -67 -62v-341h-83v341q0 27 -15 45q-17 20 -40 20q-33 0 -49 -18q-15 -17 -15 -42v-346h-82v308q0 43 -22 69
q-23 29 -66 29q-55 0 -87 -44q-32 -43 -34 -119h3q3 25 22 41q21 18 52 18q48 0 75 -37q30 -39 30 -111q0 -75 -31 -115q-30 -40 -83 -40q-74 0 -109 77q-28 60 -28 165q0 79 30 138q49 100 170 100q42 0 72 -13q34 -14 47 -39q27 52 105 52q76 0 97 -49q25 49 108 49
q74 0 111 -43q37 -40 37 -113q0 -17 -2 -34.5t-6 -37.5q-15 -71 -15 -108q0 -68 50 -68q64 0 64 57v347h83v-347q0 -22 17 -37q16 -15 40 -15q90 0 90 173q0 55 -24 133q-23 75 -42 93h96q51 -89 54 -236zM422 157q0 70 -41 70q-20 0 -33 -19q-12 -20 -12 -55q0 -30 11 -54
q10 -25 31 -25q19 0 33 26q11 24 11 57zM312 -142q-56 -27 -118 -27q-119 0 -119 224q0 78 9.5 183t28.5 239h81q-6 -38 -11 -74t-9 -70q-10 -84 -16 -150t-8 -118v-28q0 -120 54 -129q10 -2 18 -2q46 0 90 36v-84z" />
    <glyph glyph-name="mal_nna_ma_ra" horiz-adv-x="1153" 
d="M1137 0h-383v349q0 32 -22 48q-19 16 -50 16q-27 0 -43 -16q-19 -18 -19 -51v-345h-84v345q0 27 -27 47q-23 15 -50 15q-60 0 -94 -42q-31 -36 -39 -103h2q16 39 69 41q46 1 74 -48q26 -44 26 -107q1 -64 -26 -105q-30 -44 -84 -44q-132 0 -132 229q0 74 32 141
q54 109 175 109q92 0 116 -50q34 50 104 50q89 0 122 -51q24 29 54 40q27 10 77 10q74 0 118 -42q45 -44 42 -118h26zM1012 326q0 74 -75 74q-48 0 -77.5 -24t-29.5 -61v-241q63 42 121 119q61 80 61 133zM1064 77l-9 157h-5q-22 -48 -43 -78q-14 -19 -34 -39t-46 -40h137z
M424 149q0 32 -10 52q-10 23 -31 25q-23 2 -36 -23q-11 -21 -9 -54q1 -60 43 -65q43 -3 43 65zM312 -142q-56 -27 -118 -27q-119 0 -119 224q0 78 9.5 182.5t28.5 239.5h81l-20 -144q-21 -165 -24 -268v-28q0 -120 54 -129q10 -2 18 -2q46 0 90 36v-84z" />
    <glyph glyph-name="mal_ta_ta_ra" horiz-adv-x="1265" 
d="M1244 241q0 -60 -18 -139q-18 -72 -35 -102h-91q63 88 63 239q0 172 -121 172q30 -24 46 -72q17 -51 17 -110q0 -102 -33 -163q-36 -66 -105 -66q-66 0 -102 66q-32 62 -32 163q0 139 63 180q-5 0 -9.5 0.5t-8.5 0.5q-40 0 -66 -23q-25 -22 -25 -53v-334h-82v335
q0 34 -26 55q-23 19 -54 19q-13 0 -22 -3q56 -50 56 -181q0 -225 -129 -225q-67 0 -103 65q-33 60 -33 161q0 58 15 108q18 53 48 73h-14q-51 0 -83 -44q-34 -47 -34 -137q0 -57 9 -97q7 -28 19.5 -60.5t32.5 -68.5h-94q-20 42 -34 111q-7 33 -10.5 63.5t-3.5 59.5
q0 112 49 176q51 67 137 67q68 0 96 -22q16 13 45 19q5 1 18 2t35 2q29 1 64 -14q40 -16 56 -46q12 29 49 45q14 7 29 11t31 5h15q67 0 100 -24q25 24 93 24q82 0 128 -55q54 -62 54 -183zM1022 225q0 66 -13 108q-16 52 -44 59q-54 -14 -54 -170q0 -65 13 -103
q14 -47 43 -47t43 48q12 40 12 105zM581 218q0 58 -17 112t-40 62q-51 -26 -51 -174q0 -64 12 -103q15 -47 43 -47q53 0 53 150zM312 -142q-56 -27 -118 -27q-119 0 -119 224q0 78 9.5 183t28.5 239h81q-6 -38 -11 -74t-9 -70q-10 -84 -16 -150t-8 -118v-28q0 -120 54 -129
q10 -2 18 -2q46 0 90 36v-84z" />
    <glyph glyph-name="mal_ta_tha_ra" horiz-adv-x="1253" 
d="M1237 0h-573q53 98 53 222q0 189 -121 189q65 -50 65 -196q0 -100 -35 -156q-36 -59 -105 -59q-65 0 -102 57q-39 60 -39 162q0 136 65 186q-117 1 -117 -170q0 -62 10 -121q15 -80 42 -114h-89q-16 26 -29 104q-12 70 -12 115q0 117 45 185q49 72 138 72q38 0 58 -5
q14 -3 32 -16q39 24 94 24q80 0 130 -65t50 -172q0 -18 -1.5 -42.5t-5.5 -56.5q-6 -61 -11 -73l98 1l16 248q4 83 58 126q43 34 107 34q70 0 112.5 -38.5t46.5 -107.5zM1151 71l-17 254q-5 78 -78 79q-38 0 -60 -27q-21 -24 -22 -54l-9 -252h186zM578 214q0 61 -15 111
q-16 54 -44 63q-27 -12 -44 -63q-15 -47 -15 -108q0 -63 15 -100q17 -44 48 -44q30 0 43 46q12 37 12 95zM312 -142q-56 -27 -118 -27q-119 0 -119 224q0 78 9.5 182.5t28.5 239.5h81l-20 -144q-21 -165 -24 -268v-28q0 -120 54 -129q10 -2 18 -2q46 0 90 36v-84z" />
    <glyph glyph-name="mal_ta_bha_ra" horiz-adv-x="1032" 
d="M1016 110q0 -51 -31.5 -80.5t-88.5 -29.5q-28 0 -56 9v71q23 -17 47 -17q55 0 55 42q0 37 -36 37q-4 0 -12 -1t-13 -1q-32 0 -48 25q-17 23 -17 65q0 50 17 73q18 25 61 25q4 0 13 -0.5t12 -0.5q28 0 28 31q0 45 -75 45q-66 0 -85 -49q-8 -21 -8 -71v-283h-77v335
q0 35 -22 57q-23 21 -53 21q-10 0 -20 -3q58 -51 58 -195q0 -97 -37 -155q-38 -60 -102 -60q-62 0 -99 61t-37 163q0 134 69 188q-5 1 -15 1q-53 0 -86 -50q-33 -52 -31 -142q1 -36 7.5 -70.5t17.5 -67.5q20 -60 44 -83h-86q-53 80 -58 226q-3 108 48 180q52 72 128 73
q68 2 100 -32q37 32 91 32q56 0 87 -17q24 -13 37 -40q34 57 129 57q61 0 98 -25q46 -31 46 -96q0 -103 -71 -103q-7 0 -18 2.5t-16 2.5q-22 0 -22 -31q0 -22 19 -22q5 0 14 1.5t14 1.5q37 0 59 -28q21 -27 21 -72zM581 217q0 65 -12 112q-13 55 -42 61q-29 -8 -47 -60
q-14 -48 -14 -110q0 -146 55 -146q30 0 46 43q14 40 14 100zM312 -142q-56 -27 -118 -27q-119 0 -119 224q0 78 9.5 182.5t28.5 239.5h81l-20 -144q-21 -165 -24 -268v-28q0 -120 54 -129q10 -2 18 -2q46 0 90 36v-84z" />
    <glyph glyph-name="mal_ta_sa_ra" horiz-adv-x="1199" 
d="M1179 233q0 -85 -24 -140q-41 -93 -138 -93q-75 0 -113.5 36t-38.5 102q0 34 10 73q8 34 12 62t4 50q0 78 -54 78q-58 0 -58 -60v-341h-84v333q0 70 -68 70q-5 0 -11.5 -0.5t-13.5 -1.5q50 -45 50 -186q0 -97 -36 -155q-38 -60 -103 -60q-62 0 -99 61t-37 163
q0 134 69 188q-5 1 -15 1q-53 0 -86 -50q-33 -52 -31 -142q1 -36 7.5 -70.5t17.5 -68.5q19 -59 44 -82h-87q-57 85 -57 226q0 108 50 181q51 72 126 72q68 0 100 -32q9 8 17 13t15 9q30 11 77 11q87 0 112 -46q8 12 17.5 20.5t19.5 13.5q21 10 64 10q69 0 102 -53
q26 -44 26 -115q0 -50 -12 -99q-8 -38 -8 -62q0 -72 69 -72q44 0 67 54q16 41 16 102q0 90 -43 170q-29 55 -55 75h98q82 -119 82 -245zM568 217q0 65 -12 112q-13 55 -42 61q-30 -8 -46 -60q-15 -47 -15 -110q0 -146 56 -146q29 0 45 43q14 40 14 100zM312 -142
q-56 -27 -118 -27q-119 0 -119 224q0 78 9.5 182.5t28.5 239.5h81l-20 -144q-21 -165 -24 -268v-28q0 -120 54 -129q10 -2 18 -2q46 0 90 36v-84z" />
    <glyph glyph-name="mal_ta_ma_ra" horiz-adv-x="1080" 
d="M1054 0h-350v231q0 83 -27 136q-26 47 -61 47q-12 0 -21 -4q57 -51 57 -195q0 -97 -36 -155q-38 -60 -102 -60q-62 0 -99 61t-37 163q0 134 68 188q-5 1 -14 1q-53 0 -86 -50q-33 -52 -31 -142q1 -72 24 -138q21 -61 45 -83h-87q-53 81 -57 226q-3 108 48 180
q52 72 128 73q68 2 100 -32q38 34 91 32q87 -1 134 -63q42 63 129 63q72 0 110.5 -43t35.5 -118h28zM938 327q0 76 -71 76q-51 0 -69 -61q-11 -36 -11 -104q2 -4 1 -134q150 114 150 223zM990 65l-4 169h-6q-18 -44 -53 -88q-44 -54 -93 -81h156zM569 217q0 65 -12 112
q-13 55 -42 61q-31 -8 -47 -60q-14 -48 -14 -110q0 -146 55 -146q30 0 46 43q14 40 14 100zM312 -142q-56 -27 -118 -27q-119 0 -119 224q0 78 9.5 182.5t28.5 239.5h81l-20 -144q-21 -165 -24 -268v-28q0 -120 54 -129q10 -2 18 -2q46 0 90 36v-84z" />
    <glyph glyph-name="mal_ta_na_ra" horiz-adv-x="990" 
d="M970 235q0 -29 -6 -62.5t-17 -72.5q-10 -33 -20 -58t-21 -42h-118q25 16 43.5 39.5t30.5 49.5q13 35 20.5 69t7.5 66q0 96 -19 137q-19 43 -67 43q-25 0 -41 -19q-14 -19 -14 -45v-340h-80v334q-2 43 -21 60q-20 17 -44 17h-4q8 -11 16 -26.5t14 -32.5q20 -60 20 -133
q0 -92 -35 -154q-38 -65 -102 -65q-65 0 -104 70v-1q-34 61 -34 159q0 66 20 126q7 18 14.5 31.5t16.5 25.5h-2q-19 -1 -36.5 -12t-31.5 -30q-17 -26 -26.5 -64t-9.5 -86q0 -27 4.5 -53.5t13.5 -55.5q20 -64 78 -110h-103q-16 19 -29.5 47.5t-21.5 58.5q-17 62 -17 127
q0 106 49 174q49 70 124 72q28 1 50.5 -3t42.5 -16q14 11 38.5 16t60.5 6q39 -2 64 -15.5t38 -35.5q15 23 39 35.5t52 12.5q167 0 167 -244zM570 221q0 68 -16 115q-17 47 -41 47q-23 0 -41 -46q-17 -49 -17 -113q0 -65 16 -106q8 -19 18 -29.5t23 -10.5q21 0 40 38
q8 21 13 47.5t5 57.5zM312 -142q-56 -27 -118 -27q-119 0 -119 224q0 78 9.5 182.5t28.5 239.5h81l-20 -144q-21 -165 -24 -268v-28q0 -120 54 -129q10 -2 18 -2q46 0 90 36v-84z" />
    <glyph glyph-name="mal_da_da_ra" horiz-adv-x="578" 
d="M561 157q0 -76 -51 -89q25 -8 39 -39q11 -28 11 -63q0 -61 -30 -95q-38 -42 -112 -42q-25 0 -58 10v83q28 -15 58 -15q61 0 61 66q0 27 -10.5 44t-28.5 18q-35 1 -54 0v73h19.5t27.5 1q50 2 50 49q0 51 -43 51q-33 2 -53 0v81q18 -3 46 0q53 0 53 56q0 31 -23 48
q-17 12 -38 12q-95 0 -95 -136v-270h-73v281q0 198 161 198q142 0 142 -137v-10t-1 -10q-4 -61 -48 -76q50 -17 50 -89zM312 -142q-56 -27 -118 -27q-119 0 -119 224q0 78 9.5 182.5t28.5 239.5h81l-20 -144q-21 -165 -24 -268v-28q0 -120 54 -129q10 -2 18 -2q46 0 90 36
v-84z" />
    <glyph glyph-name="mal_da_dha_ra" horiz-adv-x="963" 
d="M946 241q0 -127 -37 -185q-38 -56 -115 -56q-81 0 -108 56q-35 -57 -153 -57q-84 0 -139 28v83q18 -15 44 -15q29 0 45 16q15 13 15 37q0 53 -42 53q-13 1 -23 0v84h23q18 0 32 15q10 11 10 29q0 76 -72 76q-89 0 -89 -122v-283h-78v275q0 72 25 121q40 82 142 82
q74 0 115 -39q38 -36 38 -99q0 -17 -3 -35q-6 -40 -43 -64q43 -22 40 -86q-3 -62 -64 -80v-3q18 -3 31 -3q49 0 78 25q28 22 28 54v330h82v-330q0 -28 14 -48q16 -24 50 -24q41 0 58 41q17 42 17 133q0 57 -18 134q-16 65 -32 94h82q20 -38 34 -105q13 -65 13 -132z
M312 -142q-56 -27 -118 -27q-119 0 -119 224q0 78 9.5 182.5t28.5 239.5h81l-20 -144q-21 -165 -24 -268v-28q0 -120 54 -129q10 -2 18 -2q46 0 90 36v-84z" />
    <glyph glyph-name="mal_na_ta_ra" horiz-adv-x="1031" 
d="M1014 239q0 -33 -3 -66t-10 -65q-13 -64 -35 -108h-88q56 89 56 230q0 183 -128 183q32 -23 52 -76q18 -50 18 -106q0 -231 -145 -231q-131 0 -131 224q0 61 16 108q16 48 49 75q-20 6 -34 6q-40 0 -62 -25q-23 -23 -23 -53v-335h-82v333q0 70 -62 70q-50 0 -68 -56
q-14 -40 -14 -129q0 -63 21 -129q19 -61 44 -89h-94q-19 39 -32 99q-8 37 -12.5 69t-4.5 61q0 112 41 180q43 70 119 70q78 0 108 -57q13 31 51 48q33 14 74 14q77 0 101 -37q38 32 104 32q75 0 121 -55q53 -64 53 -185zM796 228q0 45 -14 89q-17 51 -45 69q-27 -14 -44 -62
q-18 -48 -18 -105q0 -151 59 -151q30 0 47 51q15 43 15 109zM312 -142q-56 -27 -118 -27q-119 0 -119 224q0 78 9.5 183t28.5 239h81q-6 -38 -11 -74t-9 -70q-10 -84 -16 -150t-8 -118v-28q0 -120 54 -129q10 -2 18 -2q46 0 90 36v-84z" />
    <glyph glyph-name="mal_na_da_ra" horiz-adv-x="783" 
d="M766 124q0 -49 -27 -83q-32 -41 -89 -41q-40 0 -53 6v83q18 -7 38 -7q24 0 37 19q10 14 10 37t-12 40q-17 21 -45 21h-24v76h30q58 0 58 52q0 70 -75 70q-33 0 -51 -21q-15 -18 -15 -42v-334h-80v334q0 24 -14 41q-17 21 -47 21q-85 0 -83 -179q1 -25 5 -53t11 -59
q17 -72 40 -105h-97q-8 19 -15 48t-14 69q-12 73 -12 116q0 246 171 246q25 0 52 -11q30 -14 42 -39q10 21 39 34q27 13 58 13q85 0 126 -45q36 -41 36 -110q0 -75 -57 -93q57 -21 57 -104zM312 -142q-56 -27 -118 -27q-119 0 -119 224q0 78 9.5 183t28.5 239h81
q-6 -38 -11 -74t-9 -70q-10 -84 -16 -150t-8 -118v-28q0 -120 54 -129q10 -2 18 -2q46 0 90 36v-84z" />
    <glyph glyph-name="mal_na_na_ra" horiz-adv-x="997" 
d="M973 234q0 -111 -59 -234h-87q65 122 65 232q0 86 -18 122q-21 42 -73 42q-26 0 -42 -21q-14 -20 -14 -45v-330h-84v349q0 26 -15.5 41t-39.5 15q-28 0 -45 -14q-18 -15 -18 -42v-349h-84v349q0 24 -18 38q-17 12 -41 12q-47 0 -65 -52q-14 -39 -14 -122q0 -99 50 -225
h-84q-45 125 -48 235q-3 114 36 176q42 66 125 66q81 0 101 -45q5 21 38 35q29 13 67 13q75 0 100 -46q29 44 93 44q86 0 128 -53q46 -58 46 -191zM312 -142q-56 -27 -118 -27q-119 0 -119 224q0 78 9.5 183t28.5 239h81q-6 -38 -11 -74t-9 -70q-10 -84 -16 -150t-8 -118
v-28q0 -120 54 -129q10 -2 18 -2q46 0 90 36v-84z" />
    <glyph glyph-name="mal_na_pa_ra" horiz-adv-x="968" 
d="M612 0q78 124 78 239q0 75 -12 110q-19 52 -73 52q-24 0 -42 -20q-15 -18 -15 -40v-341h-83v341q0 24 -17 43q-17 17 -41 17q-45 0 -65 -59q-17 -46 -17 -120q0 -59 16 -113q11 -38 30 -77l16 -32h-91q-17 30 -34 99q-17 71 -17 129q-2 115 38 181q43 69 123 69
q73 0 102 -44q26 44 96 44q168 0 168 -242q0 -93 -34 -171h126l-14 413h81l18 -478h-337zM312 -142q-56 -27 -118 -27q-119 0 -119 224q0 78 9.5 183t28.5 239h81q-6 -38 -11 -74t-9 -70q-10 -84 -16 -150t-8 -118v-28q0 -120 54 -129q10 -2 18 -2q46 0 90 36v-84z" />
    <glyph glyph-name="mal_na_ma_ra" horiz-adv-x="871" 
d="M854 0h-385v327q0 31 -21 54q-18 22 -40 22q-87 0 -87 -175q0 -75 26 -151l16 -38t16 -39h-86q-19 34 -34 105q-7 35 -10.5 68t-3.5 65q0 241 165 241q38 0 68.5 -18t38.5 -49q13 31 49 49t88 18q73 0 118 -42q44 -42 43 -115h23zM733 322q0 34 -22 56q-24 24 -69 24
q-38 0 -66 -23q-30 -26 -30 -71v-240q77 48 129 115q58 73 58 139zM776 63l-7 159h-4q0 -30 -37 -80q-20 -29 -41.5 -49t-44.5 -30h134zM312 -142q-56 -27 -118 -27q-119 0 -119 224q0 78 9.5 182.5t28.5 239.5h81l-20 -144q-21 -165 -24 -268v-28q0 -120 54 -129
q10 -2 18 -2q46 0 90 36v-84z" />
    <glyph glyph-name="mal_na_tha_ra" horiz-adv-x="1188" 
d="M1172 0h-551q14 5 38 87q26 89 26 140q0 90 -15 128q-20 48 -70 48q-22 0 -37 -15q-17 -17 -17 -43v-345h-82v345q0 28 -18 45q-17 15 -38 15q-46 0 -68 -49q-21 -42 -21 -112v-10.5t1 -10.5q5 -83 28 -152q19 -51 36 -71h-85q-24 34 -40 104q-17 71 -17 132
q0 128 42 187q41 56 124 56q73 0 97 -45q13 20 42 34q27 11 51 11q179 0 172 -241q-3 -98 -28 -166h73l17 251q6 82 57 123q43 32 106 32q65 0 109 -36q48 -39 52 -106zM1087 72l-11 261q0 31 -25 53q-25 25 -59 24q-15 0 -29.5 -5.5t-26 -15t-19 -22t-7.5 -25.5l-17 -270
h194zM312 -142q-56 -27 -118 -27q-119 0 -119 224q0 78 9.5 182.5t28.5 239.5h81l-20 -144q-21 -165 -24 -268v-28q0 -120 54 -129q10 -2 18 -2q46 0 90 36v-84z" />
    <glyph glyph-name="mal_na_dha_ra" horiz-adv-x="1200" 
d="M1176 233q0 -130 -46 -183q-41 -50 -128 -50q-35 0 -54 10q-18 10 -41 34q-29 -44 -105 -44q-73 0 -112 41q-37 37 -37 110q0 17 2 34.5t6 37.5q15 69 15 106q0 74 -55 75q-30 1 -48 -21q-15 -18 -15 -45v-338h-84v354q0 20 -18 32q-17 11 -40 11q-51 0 -71 -47
q-15 -38 -15 -128q0 -67 20 -136q3 -11 11.5 -32.5t21.5 -53.5h-89q-46 93 -46 232q0 246 170 246q82 0 95 -43q16 28 47 37q19 6 61 6q71 0 107 -49q30 -41 30 -107q0 -16 -1.5 -32t-5.5 -32q-7 -32 -10.5 -57.5t-3.5 -46.5q0 -82 63 -82q42 0 54 29q8 18 8 58v319h83v-319
q0 -34 15 -55q16 -25 45 -25q52 0 72 45q17 36 17 117q0 62 -22 144q-20 72 -33 93h86q26 -47 39 -123q12 -62 12 -122zM312 -142q-56 -27 -118 -27q-119 0 -119 224q0 78 9.5 183t28.5 239h81q-6 -38 -11 -74t-9 -70q-10 -84 -16 -150t-8 -118v-28q0 -120 54 -129
q10 -2 18 -2q46 0 90 36v-84z" />
    <glyph glyph-name="mal_pa_pa_ra" horiz-adv-x="796" 
d="M400 0q29 66 29 111q0 80 -59 80q-31 0 -48 -21.5t-16 -58.5q0 -60 27 -111h-83q-22 78 -22 111q0 78 35 119t104 41t105 -36t36 -97q0 -32 -11 -71h203l-10 214h-134q10 23 14 43t3 37q-3 44 -35 44q-36 0 -36 -55q0 -26 21 -69h-64q-8 19 -13 37t-5 36q-2 49 25 80
q25 31 70 31q99 0 99 -92q0 -13 -1.5 -22.5t-1.5 -10.5h56l-4 139h80l19 -479h-383zM312 -142q-56 -27 -118 -27q-119 0 -119 224q0 78 9.5 183t28.5 239h81q-6 -38 -11 -74t-9 -70q-10 -84 -16 -150t-8 -118v-28q0 -120 54 -129q10 -2 18 -2q46 0 90 36v-84z" />
    </font>
</defs>
</svg>
