<?xml version="1.0" standalone="no"?>
<!DOCTYPE svg PUBLIC "-//W3C//DTD SVG 1.1//EN" "http://www.w3.org/Graphics/SVG/1.1/DTD/svg11.dtd" >
<svg xmlns="http://www.w3.org/2000/svg" xmlns:xlink="http://www.w3.org/1999/xlink" version="1.1">
<metadata>
Created by FontForge 20150824 at Tue Feb  2 00:50:30 2016
 By Everything Fonts
Copyright (c) 2012 by (c) Summit Information Technologies Pvt. Ltd. All rights reserved.
</metadata>
<defs>
<font id="PanchariUni" horiz-adv-x="243" >
  <font-face 
    font-family="PanchariUni"
    font-weight="400"
    font-stretch="normal"
    units-per-em="1000"
    panose-1="2 0 4 0 0 0 0 0 0 0"
    ascent="800"
    descent="-200"
    x-height="376"
    cap-height="519"
    bbox="-575 -546 2618 1473"
    underline-thickness="40"
    underline-position="-210"
    unicode-range="U+0020-F8FF"
  />
<missing-glyph horiz-adv-x="500" 
d="M438 649v-649h-375v649h375zM375 587h-250v-524h250v524z" />
    <glyph glyph-name=".notdef" horiz-adv-x="500" 
d="M438 649v-649h-375v649h375zM375 587h-250v-524h250v524z" />
    <glyph glyph-name="NULL" unicode="&#xb7;" horiz-adv-x="0" 
 />
    <glyph glyph-name="CR" unicode="&#x201a;" horiz-adv-x="270" 
 />
    <glyph glyph-name="space" unicode=" " horiz-adv-x="270" 
 />
    <glyph glyph-name="exclam" unicode="!" horiz-adv-x="201" 
d="M137 129h-59v390h59v-390zM137 0h-73v72h73v-72z" />
    <glyph glyph-name="quotedbl" unicode="&#x22;" horiz-adv-x="258" 
d="M227 434l-17 -99h-39l-17 184h73v-85zM102 434l-16 -99h-39l-17 184h72v-85z" />
    <glyph glyph-name="numbersign" unicode="#" horiz-adv-x="404" 
d="M394 323h-70l-25 -129h67v-51h-78l-29 -143h-54l30 143h-114l-29 -143h-53l29 143h-60v51h70l27 129h-68v53h78l29 143h54l-30 -143h114l30 143h53l-29 -143h58v-53zM270 323h-112l-26 -129h113z" />
    <glyph glyph-name="dollar" unicode="$" horiz-adv-x="404" 
d="M370 150q0 -34 -11.5 -62t-31 -49t-47.5 -33.5t-60 -13.5v-55h-38v54q-144 16 -154 155h69q7 -87 85 -101v198q-143 28 -143 140q0 66 38.5 102t104.5 42v55h38v-55q125 -8 139 -128h-70q-6 67 -69 75v-178q86 -18 118 -51t32 -95zM182 475q-75 -14 -75 -87q0 -65 75 -84
v171zM301 145q0 37 -16.5 56.5t-64.5 33.5v-190q81 10 81 100z" />
    <glyph glyph-name="percent" unicode="%" horiz-adv-x="644" 
d="M599 129q0 -62 -30.5 -100t-88.5 -38q-56 0 -87 38t-31 100q0 60 29.5 99t88.5 39q55 0 87 -38t32 -100zM489 519l-283 -519h-52l283 519h52zM282 390q0 -62 -30 -100t-89 -38q-55 0 -86 38t-31 100q0 59 30.5 98t86.5 39q57 0 88 -39t31 -98zM542 129q0 94 -62 94
q-60 0 -60 -94t60 -94q62 0 62 94zM224 390q0 94 -61 94t-61 -94t61 -94t61 94z" />
    <glyph glyph-name="ampersand" unicode="&#x26;" horiz-adv-x="483" 
d="M446 35l-52 -44l-44 57q-61 -57 -154 -57q-34 0 -64 11.5t-52 31.5t-35.5 47.5t-13.5 61.5q0 48 29 83t91 71q-54 71 -54 115q0 53 38 84t90 31q25 0 46.5 -8t37.5 -23t26 -35.5t10 -44.5q0 -70 -101 -130l104 -130q17 41 18 88h69q-6 -78 -42 -144zM281 415
q0 25 -17.5 42.5t-41.5 17.5q-25 0 -42.5 -16t-17.5 -40q0 -31 31 -69l17 -22q71 39 71 87zM186 254q-86 -50 -86 -107q0 -20 7.5 -38t20.5 -31.5t30.5 -21.5t37.5 -8q72 0 116 47z" />
    <glyph glyph-name="quotesingle" unicode="'" horiz-adv-x="138" 
d="M105 434l-15 -99h-41l-17 99v85h73v-85z" />
    <glyph glyph-name="parenleft" unicode="(" horiz-adv-x="242" 
d="M169 -152q-125 164 -125 339q0 180 125 340h46q-106 -172 -106 -340q0 -167 106 -339h-46z" />
    <glyph glyph-name="parenright" unicode=")" horiz-adv-x="242" 
d="M198 187q0 -175 -126 -339h-46q106 172 106 339q0 168 -106 340h46q126 -160 126 -340z" />
    <glyph glyph-name="asterisk" unicode="*" horiz-adv-x="282" 
d="M258 423l-87 -19l59 -68l-44 -31l-46 77l-45 -77l-44 31l59 68l-87 19l17 51l82 -36l-8 89h54l-8 -89l82 36z" />
    <glyph glyph-name="plus" unicode="+" horiz-adv-x="423" 
d="M383 227h-141v-143h-60v143h-142v58h142v143h60v-143h141v-58z" />
    <glyph glyph-name="comma" unicode="," horiz-adv-x="201" 
d="M137 0q0 -102 -73 -102v33q36 0 36 69h-36v72h73v-72z" />
    <glyph glyph-name="hyphen" unicode="-" horiz-adv-x="405" 
d="M405 214h-276l-51 53h276z" />
    <glyph glyph-name="period" unicode="." horiz-adv-x="201" 
d="M137 0h-73v72h73v-72z" />
    <glyph glyph-name="slash" unicode="/" horiz-adv-x="201" 
d="M201 519l-150 -519h-51l150 519h51z" />
    <glyph glyph-name="zero" unicode="0" horiz-adv-x="404" 
d="M370 259q0 -268 -169 -268t-169 268t169 268t169 -268zM301 259q0 115 -23.5 165.5t-76.5 50.5q-55 0 -77.5 -52.5t-22.5 -163.5q0 -115 23.5 -165t76.5 -50q55 0 77.5 51.5t22.5 163.5z" />
    <glyph glyph-name="one" unicode="1" horiz-adv-x="404" 
d="M271 0h-66v408q-41 -27 -124 -27v51q121 0 140 95h50v-527z" />
    <glyph glyph-name="two" unicode="2" horiz-adv-x="404" 
d="M366 0h-343q0 24 6 46t21.5 45t41.5 49t67 57q45 34 71 59t41 45.5t20 39.5t5 42q0 92 -95 92q-91 0 -97 -98h-69q5 73 51 111.5t116 38.5q77 0 120 -41t43 -104q0 -30 -6 -53t-23 -47t-47 -52.5t-79 -68.5q-48 -40 -71 -65t-24 -34h251v-62z" />
    <glyph glyph-name="three" unicode="3" horiz-adv-x="404" 
d="M371 153q0 -37 -13 -66t-36 -51t-54.5 -33.5t-67.5 -11.5q-70 0 -117 38.5t-51 107.5h68q0 -43 29 -68t71 -25q48 0 75 30.5t27 76.5q0 102 -112 102h-26v52h15q98 0 98 89q0 81 -81 81t-89 -83h-68q7 63 46.5 99t108.5 36q66 0 108.5 -34t42.5 -101q0 -73 -71 -107
q46 -11 71.5 -47.5t25.5 -84.5z" />
    <glyph glyph-name="four" unicode="4" horiz-adv-x="404" 
d="M369 124h-70v-124h-67v124h-220v59l235 343h52v-343h70v-59zM232 183v237l-160 -237h160z" />
    <glyph glyph-name="five" unicode="5" horiz-adv-x="404" 
d="M374 176q0 -40 -13 -74t-36.5 -59t-56 -38.5t-71.5 -13.5q-70 0 -114.5 38t-52.5 107h69q13 -92 98 -92q48 0 78 37t30 89t-29 85t-80 33q-56 0 -95 -43h-52l22 274h279v-62h-222l-11 -144q38 31 96 31q34 0 64 -13.5t51.5 -36.5t33.5 -53.5t12 -64.5z" />
    <glyph glyph-name="six" unicode="6" horiz-adv-x="404" 
d="M373 168q0 -38 -13 -71t-34.5 -56.5t-51 -36.5t-64.5 -13q-87 0 -132.5 66.5t-45.5 185.5q0 284 184 284q130 0 147 -129h-67q-11 77 -83 77q-103 0 -113 -196q50 57 117 57q35 0 63 -14t49 -37t32.5 -53.5t11.5 -63.5zM304 164q0 50 -25.5 85t-71.5 35q-55 0 -108 -56
q3 -184 110 -184q43 0 69 34.5t26 85.5z" />
    <glyph glyph-name="seven" unicode="7" horiz-adv-x="404" 
d="M370 472l-188 -472h-75l193 457h-265v62h335v-47z" />
    <glyph glyph-name="eight" unicode="8" horiz-adv-x="417" 
d="M386 138q0 -33 -13 -61t-36 -46.5t-54.5 -29t-67.5 -10.5q-76 0 -123.5 37.5t-47.5 109.5q0 85 108 135q-88 49 -88 126q0 56 42 92t109 36q66 0 108.5 -32.5t42.5 -95.5q0 -77 -88 -126q108 -50 108 -135zM298 399q0 76 -83 76q-82 0 -82 -76q0 -62 82 -99q83 36 83 99z
M317 138q0 61 -102 105q-59 -27 -80.5 -51t-21.5 -54q0 -45 28.5 -69.5t73.5 -24.5q46 0 74 24.5t28 69.5z" />
    <glyph glyph-name="nine" unicode="9" horiz-adv-x="404" 
d="M370 276q0 -285 -183 -285q-62 0 -101 34.5t-47 94.5h69q8 -76 83 -76q99 0 111 195q-51 -56 -117 -56q-33 0 -62 13t-49.5 35.5t-32 53t-11.5 65.5q0 38 12 70t34 55.5t52 37.5t64 14q178 0 178 -251zM304 290q-4 185 -110 185q-43 0 -69 -34.5t-26 -86.5
q0 -49 25.5 -83.5t71.5 -34.5q56 0 108 54z" />
    <glyph glyph-name="colon" unicode=":" horiz-adv-x="201" 
d="M137 302h-73v74h73v-74zM137 0h-73v72h73v-72z" />
    <glyph glyph-name="semicolon" unicode=";" horiz-adv-x="201" 
d="M137 302h-73v74h73v-74zM137 0q0 -102 -73 -102v33q36 0 36 69h-36v72h73v-72z" />
    <glyph glyph-name="less" unicode="&#x3c;" horiz-adv-x="423" 
d="M383 81l-343 146v58l343 146v-63l-273 -112l273 -112v-63z" />
    <glyph glyph-name="equal" unicode="=" horiz-adv-x="423" 
d="M383 305h-343v60h343v-60zM383 147h-343v60h343v-60z" />
    <glyph glyph-name="greater" unicode="&#x3e;" horiz-adv-x="423" 
d="M383 227l-343 -146v63l272 112l-272 112v63l343 -146v-58z" />
    <glyph glyph-name="question" unicode="?" horiz-adv-x="404" 
d="M368 386q0 -66 -76 -130q-23 -19 -35.5 -31t-18.5 -24t-7 -29t-1 -44h-62q0 84 34 124l52 49q14 14 23 24t14 18.5t6.5 17t1.5 21.5q0 41 -28 67t-69 26q-85 0 -100 -98h-69q5 69 52 109.5t116 40.5q36 0 66.5 -9.5t53 -26.5t35 -43.5t12.5 -61.5zM237 0h-73v72h73v-72z
" />
    <glyph glyph-name="at" unicode="@" horiz-adv-x="736" 
d="M693 252q0 -58 -15.5 -104.5t-44 -79t-67.5 -50.5t-86 -18q-64 0 -68 59q-42 -59 -108 -59q-59 0 -94 39t-35 105q0 39 13.5 81.5t38.5 77.5t58.5 57.5t73.5 22.5q75 0 111 -45l8 35h64l-56 -237q-4 -19 -6 -34t-2 -26q0 -25 19 -25q30 0 56.5 12.5t46 38.5t31 64
t11.5 88t-19 91t-53 71t-80 47t-100 17q-65 0 -119 -25t-93.5 -67.5t-62 -100t-22.5 -121.5q0 -129 77.5 -198.5t227.5 -69.5q87 0 148 27l27 -43q-87 -34 -175 -34q-83 0 -149.5 22t-112.5 63.5t-71 100t-25 132.5q0 77 26 143t72.5 115t111 76.5t141.5 27.5
q68 0 123.5 -21t95.5 -57.5t61.5 -87t21.5 -110.5zM458 286q-30 45 -95 45q-24 0 -45.5 -16.5t-39 -43.5t-28 -60t-10.5 -65q0 -95 76 -95q37 0 70 29.5t45 85.5z" />
    <glyph glyph-name="A" unicode="A" horiz-adv-x="483" 
d="M484 0h-77l-61 158h-217l-57 -158h-72l199 519h74zM327 213l-91 240l-89 -240h180z" />
    <glyph glyph-name="B" unicode="B" horiz-adv-x="483" 
d="M446 151q0 -151 -194 -151h-193v519h184q82 0 129.5 -33.5t47.5 -99.5q0 -74 -75 -111q101 -24 101 -124zM353 381q0 40 -28.5 58t-88.5 18h-109v-156h115q111 0 111 80zM375 151q0 48 -30 68t-102 20h-116v-177h125q123 0 123 89z" />
    <glyph glyph-name="C" unicode="C" horiz-adv-x="523" 
d="M486 164q-9 -82 -65 -127.5t-146 -45.5q-56 0 -101 19.5t-76 54.5t-48 84.5t-17 110.5t17.5 110.5t48.5 84t76 53.5t100 19q83 0 141.5 -41.5t69.5 -124.5h-71q-6 52 -44.5 79.5t-94.5 27.5q-83 0 -127 -57t-44 -151q0 -101 45.5 -156t124.5 -55q130 0 140 115h71z" />
    <glyph glyph-name="D" unicode="D" horiz-adv-x="523" 
d="M486 262q0 -262 -264 -262h-163v519h163q264 0 264 -257zM416 262q0 104 -46 149.5t-149 45.5h-94v-395h94q103 0 149 46t46 154z" />
    <glyph glyph-name="E" unicode="E" horiz-adv-x="483" 
d="M445 0h-386v519h373v-62h-305v-158h286v-62h-286v-175h318v-62z" />
    <glyph glyph-name="F" unicode="F" horiz-adv-x="443" 
d="M408 457h-281v-160h243v-61h-243v-236h-68v519h349v-62z" />
    <glyph glyph-name="G" unicode="G" horiz-adv-x="564" 
d="M518 0h-50l-17 54q-53 -63 -166 -63q-55 0 -101.5 19.5t-80 55t-52 85t-18.5 109.5q0 59 18.5 108t51.5 84.5t79 55t101 19.5q91 0 153.5 -41.5t70.5 -124.5h-70q-10 107 -153 107q-86 0 -132.5 -55t-46.5 -153t48 -154.5t131 -56.5q112 0 167 75v78h-137v63h204v-265z
" />
    <glyph glyph-name="H" unicode="H" horiz-adv-x="523" 
d="M465 0h-68v244h-270v-244h-68v519h68v-213h270v213h68v-519z" />
    <glyph glyph-name="I" unicode="I" horiz-adv-x="201" 
d="M136 0h-69v519h69v-519z" />
    <glyph glyph-name="J" unicode="J" horiz-adv-x="362" 
d="M305 166q0 -94 -36.5 -134.5t-109.5 -40.5q-66 0 -102.5 40t-36.5 104v12h69q0 -94 70 -94q40 0 58.5 23t18.5 86v357h69v-353z" />
    <glyph glyph-name="K" unicode="K" horiz-adv-x="483" 
d="M482 0h-91l-184 259l-80 -80v-179h-68v519h68v-257l253 257h93l-218 -213z" />
    <glyph glyph-name="L" unicode="L" horiz-adv-x="404" 
d="M380 0h-321v519h68v-457h253v-62z" />
    <glyph glyph-name="M" unicode="M" horiz-adv-x="603" 
d="M546 0h-66v440l-148 -440h-62l-147 440v-440h-64v519h102l140 -433l142 433h103v-519z" />
    <glyph glyph-name="N" unicode="N" horiz-adv-x="523" 
d="M465 0h-71l-271 409v-409h-64v519h69l272 -410v410h65v-519z" />
    <glyph glyph-name="O" unicode="O" horiz-adv-x="564" 
d="M530 260q0 -61 -18.5 -110.5t-51 -84.5t-78 -54.5t-99.5 -19.5q-56 0 -102 20t-79 56.5t-51 85.5t-18 107q0 59 18.5 107.5t51.5 84.5t79 55.5t101 19.5q56 0 102 -20.5t78.5 -56t49.5 -84.5t17 -106zM459 260q0 98 -48 153t-127 55q-83 0 -131 -57.5t-48 -150.5
q0 -45 12 -83.5t35 -66.5t55.5 -44.5t74.5 -16.5q41 0 74 16t56 43.5t35 66t12 85.5z" />
    <glyph glyph-name="P" unicode="P" horiz-adv-x="483" 
d="M452 367q0 -160 -194 -160h-131v-207h-68v519h216q177 0 177 -152zM381 365q0 92 -118 92h-136v-188h131q123 0 123 96z" />
    <glyph glyph-name="Q" unicode="Q" horiz-adv-x="564" 
d="M539 7l-40 -48l-86 67q-56 -35 -130 -35q-56 0 -102 20t-79 56.5t-51 85.5t-18 107q0 59 18.5 107.5t51.5 84.5t79 55.5t101 19.5q56 0 102 -20.5t78.5 -56t49.5 -84.5t17 -106q0 -116 -67 -193zM459 260q0 98 -48 153t-127 55q-83 0 -131 -57.5t-48 -150.5
q0 -45 12 -83.5t35 -66.5t55.5 -44.5t74.5 -16.5t78 19l-52 40l42 48l62 -49q47 57 47 153z" />
    <glyph glyph-name="R" unicode="R" horiz-adv-x="523" 
d="M490 0h-74l-49 138q-13 37 -44 60.5t-69 23.5h-127v-222h-68v519h229q185 0 185 -146q0 -110 -116 -137q54 -20 81 -95zM401 373q0 88 -111 88h-163v-177h152q66 0 94 19.5t28 69.5z" />
    <glyph glyph-name="S" unicode="S" horiz-adv-x="483" 
d="M446 146q0 -31 -12 -59t-36 -49.5t-60.5 -34t-83.5 -12.5q-104 0 -161.5 46.5t-60.5 129.5h67q6 -55 45.5 -84.5t106.5 -29.5q55 0 92 23t37 65q0 27 -13 42t-41.5 26t-74.5 23t-112 33q-48 19 -68 48.5t-20 69.5q0 62 46 103t139 41q87 0 140 -38t56 -118h-66
q-8 95 -128 95q-55 0 -88 -19.5t-33 -58.5q0 -46 61 -66l121 -31q47 -13 76 -28.5t45 -34t21 -39.5t5 -43z" />
    <glyph glyph-name="T" unicode="T" horiz-adv-x="443" 
d="M427 457h-172v-457h-69v457h-170v62h411v-62z" />
    <glyph glyph-name="U" unicode="U" horiz-adv-x="523" 
d="M465 219q0 -122 -47.5 -175t-155.5 -53q-57 0 -95.5 13t-63 40.5t-34.5 71t-10 103.5v300h68v-299q0 -46 6 -78t21.5 -52t41.5 -28.5t66 -8.5q75 0 105 37t30 130v299h68v-300z" />
    <glyph glyph-name="V" unicode="V" horiz-adv-x="483" 
d="M478 519l-201 -519h-71l-201 519h72l165 -445l163 445h73z" />
    <glyph glyph-name="W" unicode="W" horiz-adv-x="684" 
d="M676 519l-144 -519h-65l-124 451l-126 -451h-65l-144 519h73l104 -422l116 422h82l117 -422l104 422h72z" />
    <glyph glyph-name="X" unicode="X" horiz-adv-x="483" 
d="M480 0h-84l-154 220l-155 -220h-84l199 274l-179 245h84l135 -192l134 192h84l-181 -245z" />
    <glyph glyph-name="Y" unicode="Y" horiz-adv-x="483" 
d="M480 519l-204 -299v-220h-69v220l-204 299h84l155 -240l155 240h83z" />
    <glyph glyph-name="Z" unicode="Z" horiz-adv-x="443" 
d="M423 0h-410v64l323 393h-293v62h371v-65l-322 -392h331v-62z" />
    <glyph glyph-name="bracketleft" unicode="[" horiz-adv-x="201" 
d="M190 -144h-141v663h141v-53h-74v-557h74v-53z" />
    <glyph glyph-name="backslash" unicode="\" horiz-adv-x="201" 
d="M201 0h-51l-150 519h51z" />
    <glyph glyph-name="bracketright" unicode="]" horiz-adv-x="201" 
d="M152 -144h-140v53h74v557h-74v53h140v-663z" />
    <glyph glyph-name="asciicircum" unicode="^" horiz-adv-x="340" 
d="M313 300h-66l-78 154l-78 -154h-65l118 219h50z" />
    <glyph glyph-name="underscore" unicode="_" horiz-adv-x="400" 
d="M405 -114h-410v36h410v-36z" />
    <glyph glyph-name="grave" unicode="`" horiz-adv-x="242" 
d="M161 428h-53l-78 99h84z" />
    <glyph glyph-name="a" unicode="a" horiz-adv-x="404" 
d="M353 0h-65v39q-52 -48 -133 -48q-56 0 -91.5 30t-35.5 78q0 132 226 132h34q0 31 -3.5 51t-14 31t-28.5 15t-45 4q-90 0 -92 -64h-66q8 115 161 115q85 0 119 -32t34 -108v-243zM288 182h-46q-145 0 -145 -80q0 -58 78 -58q72 0 113 55v83z" />
    <glyph glyph-name="b" unicode="b" horiz-adv-x="404" 
d="M377 191q0 -91 -44 -145.5t-114 -54.5q-61 0 -103 38v-29h-67v519h67v-188q45 52 107 52q73 0 113.5 -51t40.5 -141zM308 191q0 141 -91 141q-55 0 -101 -65v-177q43 -46 99 -46q93 0 93 147z" />
    <glyph glyph-name="c" unicode="c" horiz-adv-x="362" 
d="M353 113q-7 -57 -47.5 -89.5t-104.5 -32.5q-86 0 -131 53.5t-45 142.5q0 95 48.5 145.5t127.5 50.5q62 0 103.5 -30.5t48.5 -89.5h-69q-2 33 -25.5 51t-57.5 18q-49 0 -78 -36t-29 -109q0 -143 107 -143q77 0 83 69h69z" />
    <glyph glyph-name="d" unicode="d" horiz-adv-x="404" 
d="M353 0h-65v45q-48 -54 -109 -54q-75 0 -114.5 52t-39.5 142q0 45 11.5 81t33 62t51 40.5t63.5 14.5q60 0 104 -37v173h65v-519zM288 286q-45 46 -99 46q-95 0 -95 -147q0 -141 91 -141q55 0 103 64v178z" />
    <glyph glyph-name="e" unicode="e" horiz-adv-x="404" 
d="M377 171h-282q4 -62 32.5 -94.5t81.5 -32.5q36 0 63 17.5t29 51.5h69q-8 -57 -51.5 -89.5t-109.5 -32.5q-86 0 -135 53t-49 143t48 143t128 53q87 0 131.5 -53t44.5 -143v-16zM307 224q-15 108 -106 108q-89 0 -104 -108h210z" />
    <glyph glyph-name="f" unicode="f" horiz-adv-x="201" 
d="M216 465q-16 3 -41 3q-47 0 -47 -60v-32h71v-53h-71v-323h-67v323h-55v53h55v32q0 119 105 119q34 0 50 -4v-58z" />
    <glyph glyph-name="g" unicode="g" horiz-adv-x="404" 
d="M353 29q0 -181 -163 -181q-69 0 -111 29t-42 84h70q0 -61 83 -61q52 0 75 30t23 96v19q-48 -54 -109 -54q-75 0 -114.5 52t-39.5 142q0 45 11.5 81t33 62t51 40.5t63.5 14.5q60 0 104 -37v30h65v-347zM288 286q-45 46 -99 46q-95 0 -95 -147q0 -141 91 -141q55 0 103 64
v178z" />
    <glyph glyph-name="h" unicode="h" horiz-adv-x="404" 
d="M355 0h-67v243q0 86 -71 86q-51 0 -101 -60v-269h-67v519h67v-191q50 55 112 55q127 0 127 -137v-246z" />
    <glyph glyph-name="i" unicode="i" horiz-adv-x="166" 
d="M116 446h-67v73h67v-73zM116 0h-67v376h67v-376z" />
    <glyph glyph-name="j" unicode="j" horiz-adv-x="166" 
d="M116 446h-67v73h67v-73zM116 -21q0 -71 -20.5 -101t-75.5 -30q-37 0 -45 5v56q12 -2 21.5 -4t15.5 -2q23 0 30 19t7 58v396h67v-397z" />
    <glyph glyph-name="k" unicode="k" horiz-adv-x="362" 
d="M360 0h-81l-121 191l-42 -41v-150h-67v519h67v-295l145 152h84l-143 -140z" />
    <glyph glyph-name="l" unicode="l" horiz-adv-x="166" 
d="M116 0h-67v519h67v-519z" />
    <glyph glyph-name="m" unicode="m" horiz-adv-x="603" 
d="M557 0h-67v243q0 86 -59 86q-49 0 -95 -60v-269h-67v243q0 86 -59 86q-48 0 -94 -60v-269h-67v376h67v-48q46 55 105 55q84 0 106 -67q33 41 58.5 54t54.5 13q117 0 117 -137v-246z" />
    <glyph glyph-name="n" unicode="n" horiz-adv-x="404" 
d="M355 0h-67v243q0 86 -71 86q-51 0 -101 -60v-269h-67v376h67v-48q50 55 112 55q127 0 127 -137v-246z" />
    <glyph glyph-name="o" unicode="o" horiz-adv-x="404" 
d="M377 187q0 -93 -47.5 -144.5t-128.5 -51.5q-86 0 -131 53.5t-45 142.5q0 95 48.5 145.5t127.5 50.5q87 0 131.5 -53t44.5 -143zM308 187q0 73 -29 109t-78 36t-78 -36t-29 -109q0 -143 107 -143t107 143z" />
    <glyph glyph-name="p" unicode="p" horiz-adv-x="404" 
d="M377 191q0 -91 -44 -145.5t-114 -54.5q-61 0 -103 38v-173h-67v520h67v-45q45 52 107 52q73 0 113.5 -51t40.5 -141zM308 191q0 141 -91 141q-55 0 -101 -65v-177q43 -46 99 -46q93 0 93 147z" />
    <glyph glyph-name="q" unicode="q" horiz-adv-x="404" 
d="M353 -144h-65v189q-48 -54 -109 -54q-75 0 -114.5 52t-39.5 142q0 45 11.5 81t33 62t51 40.5t63.5 14.5q60 0 104 -37v30h65v-520zM288 286q-45 46 -99 46q-95 0 -95 -147q0 -141 91 -141q55 0 103 64v178z" />
    <glyph glyph-name="r" unicode="r" horiz-adv-x="242" 
d="M244 314q-8 5 -40 5q-52 0 -88 -53v-266h-67v376h67v-53q39 60 98 60q8 0 15.5 -0.5t14.5 -1.5v-67z" />
    <glyph glyph-name="s" unicode="s" horiz-adv-x="362" 
d="M335 110q0 -51 -38 -85t-114 -34q-155 0 -160 122h67q1 -69 93 -69q84 0 84 60q0 16 -9.5 25t-29.5 16.5t-51 15.5t-76 22q-35 11 -52.5 35.5t-17.5 57.5q0 46 35.5 76.5t104.5 30.5q148 0 151 -105h-67q-3 54 -80 54t-77 -50q0 -16 7.5 -24t26.5 -15t49.5 -14.5
t77.5 -21.5q76 -26 76 -97z" />
    <glyph glyph-name="t" unicode="t" horiz-adv-x="201" 
d="M194 0q-12 -5 -47 -5q-26 0 -43.5 5t-27 17.5t-13.5 35t-4 57.5v213h-46v53h46v92h66v-92h61v-53h-61v-216q0 -37 9 -48.5t28 -11.5q9 0 18 0.5t14 1.5v-49z" />
    <glyph glyph-name="u" unicode="u" horiz-adv-x="404" 
d="M353 0h-65v48q-51 -57 -113 -57q-127 0 -127 139v246h67v-244q0 -85 70 -85q57 0 103 60v269h65v-376z" />
    <glyph glyph-name="v" unicode="v" horiz-adv-x="362" 
d="M353 376l-143 -376h-59l-142 376h73l100 -294l99 294h72z" />
    <glyph glyph-name="w" unicode="w" horiz-adv-x="523" 
d="M520 376l-113 -376h-64l-81 276l-81 -276h-64l-114 376h74l69 -286l85 286h60l86 -286l69 286h74z" />
    <glyph glyph-name="x" unicode="x" horiz-adv-x="362" 
d="M358 0h-83l-93 146l-95 -146h-82l139 194l-128 182h83l83 -132l81 132h83l-127 -180z" />
    <glyph glyph-name="y" unicode="y" horiz-adv-x="362" 
d="M353 376l-143 -376q-19 -48 -33.5 -78t-27.5 -46.5t-28.5 -22t-38.5 -5.5q-34 0 -43 5v61q8 -5 31 -5q50 0 81 91l-142 376h73l100 -294l99 294h72z" />
    <glyph glyph-name="z" unicode="z" horiz-adv-x="362" 
d="M347 0h-332v56l233 263h-220v57h308v-57l-235 -263h246v-56z" />
    <glyph glyph-name="braceleft" unicode="{" horiz-adv-x="242" 
d="M224 -152h-19q-42 0 -63.5 10t-32 35t-13 69t-5.5 113q0 83 -70 84v57q18 0 31.5 5.5t22 18.5t13 36t5.5 58q0 9 -0.5 22t-0.5 28q0 24 3 49.5t14 46t33 34t63 13.5h19v-54h-10q-44 0 -53 -44v-81q0 -74 -20 -110.5t-62 -50.5q82 -26 82 -159v-82q8 -43 53 -43h10v-55z
" />
    <glyph glyph-name="bar" unicode="|" horiz-adv-x="189" 
d="M122 -152h-55v671h55v-671z" />
    <glyph glyph-name="braceright" unicode="}" horiz-adv-x="242" 
d="M222 159q-21 -1 -34.5 -6.5t-22.5 -18.5t-12 -35t-3 -56q0 -51 -3 -87.5t-14 -60.5t-34 -35.5t-62 -11.5h-20v55h11q17 0 27.5 2.5t16 13t8 31t2.5 57.5v21q0 73 20 110t61 49q-47 14 -63 52.5t-18 110.5q0 39 -1.5 63t-6.5 37t-16 18t-30 5h-11v54h20q99 0 107 -81
l3 -37l4 -96q3 -97 71 -97v-57z" />
    <glyph glyph-name="asciitilde" unicode="~" horiz-adv-x="423" 
d="M392 447q-35 -42 -96 -42q-15 0 -40.5 7.5t-52 16t-49 16t-32.5 7.5q-45 0 -91 -48v72q38 43 98 43q14 0 38 -7.5t50.5 -16.5t50 -16t33.5 -7q46 0 91 48v-73z" />
    <glyph glyph-name="glyph45" unicode="&#x201e;" horiz-adv-x="550" 
d="M275 1473l11 -11h-22zM264 -535h11v-11z" />
    <glyph glyph-name="glyph46" unicode="&#x2030;" horiz-adv-x="550" 
d="M275 1473l11 -11h-22zM264 -535h11v-11z" />
    <glyph glyph-name="mal_anusvara" unicode="&#xd02;" horiz-adv-x="310" 
d="M302 105q0 -21 -8 -41.5t-22 -36t-33.5 -25t-42.5 -9.5t-42.5 10t-33.5 26.5t-22 38t-8 44.5q0 25 8 46t22.5 36t33.5 23.5t42 8.5q48 0 77 -33.5t29 -87.5zM254 112q0 31 -19 52.5t-48 21.5t-48 -21.5t-19 -52.5q0 -30 19 -51.5t48 -21.5t48 21.5t19 51.5z" />
    <glyph glyph-name="mal_visarga" unicode="&#xd03;" horiz-adv-x="259" 
d="M255 321q0 -21 -7 -40.5t-19 -34.5t-29 -23.5t-36 -8.5q-38 0 -65 26t-27 74q0 21 7.5 40.5t20.5 34t30 23.5t36 9q17 0 33 -8t28.5 -22t20 -32t7.5 -38zM255 92q0 -21 -7 -40.5t-19 -34.5t-29 -23.5t-36 -8.5q-38 0 -65 26t-27 74q0 21 7.5 40.5t20.5 34t30 23.5t36 9
q17 0 33 -8t28.5 -22t20 -32t7.5 -38zM207 317q0 30 -15 51t-35 21q-23 0 -39 -22.5t-16 -52.5q0 -29 15.5 -48.5t37.5 -19.5q21 0 36.5 20t15.5 51zM207 88q0 30 -15 51t-35 21q-23 0 -39 -22.5t-16 -52.5q0 -29 15.5 -48.5t37.5 -19.5q21 0 36.5 20t15.5 51z" />
    <glyph glyph-name="glyph47" unicode="&#xc1;" 
d="M188 166q0 -27 -19.5 -47t-47.5 -20q-29 0 -48 20t-19 47q0 28 19 48t48 20q27 0 47 -20t20 -48z" />
    <glyph glyph-name="mal_a" unicode="&#xd05;" horiz-adv-x="999" 
d="M961 189q0 -41 -10.5 -77t-28.5 -63t-43.5 -42.5t-55.5 -15.5q-24 0 -46.5 11.5t-39 32t-26.5 47.5t-10 58q0 32 10.5 60.5t30.5 51.5t47.5 38t62.5 20q-38 65 -109 65q-20 0 -39 -6t-34 -16.5t-24.5 -24.5t-9.5 -29v-299h-78v256q0 24 -10.5 45.5t-28 38t-39.5 26
t-46 9.5h-17q-3 -1 -8 -1h-5v-2q62 -29 62 -91q0 -54 -57 -87q72 -23 72 -85q0 -23 -9.5 -44.5t-26.5 -38t-39.5 -26t-47.5 -9.5q-33 0 -60 14.5t-46.5 40t-30.5 59t-11 71.5q0 118 88 188q-13 2 -25 3.5t-25 1.5q-32 0 -62 -14t-53.5 -37.5t-38 -54.5t-14.5 -65
q0 -123 89 -191l-31 -16q-100 81 -100 220q0 43 15.5 81t42.5 66.5t64 45.5t81 17q66 0 106 -22q44 22 116 22q24 0 47 -5.5t43.5 -15.5t37 -24t26.5 -31q49 76 133 76q43 0 81 -19t67 -51t46 -74t17 -88zM403 106q0 26 -22.5 44.5t-55.5 18.5h-24v32h23q13 0 26.5 6
t24 15.5t17 22t6.5 25.5q0 22 -19.5 46.5t-47.5 35.5q-20 -11 -36.5 -29.5t-28.5 -41.5t-19 -50t-7 -55q0 -26 7.5 -50t20 -42.5t30 -29.5t38.5 -11q27 0 47 19t20 44zM889 176q0 54 -23 105q-60 -7 -94.5 -41.5t-34.5 -88.5q0 -20 6.5 -38t17 -32.5t23.5 -23t27 -8.5
q32 0 55 35.5t23 91.5z" />
    <glyph glyph-name="mal_aa" unicode="&#xd06;" horiz-adv-x="1129" 
d="M1091 94q0 -53 -17 -97.5t-48 -76.5t-74 -50t-95 -18q-61 0 -113 23l16 41q28 -12 66 -12q44 0 82.5 18.5t67 50t44.5 72.5t16 86q0 25 -7.5 49t-20 44t-29.5 35.5t-36 22.5q18 -50 18 -93q0 -41 -10.5 -77t-28.5 -63t-43.5 -42.5t-55.5 -15.5q-24 0 -46.5 11.5t-39 32
t-26.5 47.5t-10 58q0 32 10.5 60.5t30.5 51.5t47.5 38t62.5 20q-38 65 -109 65q-20 0 -39 -6t-34 -16.5t-24.5 -24.5t-9.5 -29v-299h-78v256q0 24 -10.5 45.5t-28 38t-39.5 26t-46 9.5h-17q-3 -1 -8 -1h-5v-2q62 -29 62 -91q0 -54 -57 -87q72 -23 72 -85q0 -23 -9.5 -44.5
t-26.5 -38t-39.5 -26t-47.5 -9.5q-33 0 -60 14.5t-46.5 40t-30.5 59t-11 71.5q0 118 88 188q-13 2 -25 3.5t-25 1.5q-32 0 -62 -14t-53.5 -37.5t-38 -54.5t-14.5 -65q0 -123 89 -191l-31 -16q-100 81 -100 220q0 43 15.5 81t42.5 66.5t64 45.5t81 17q66 0 106 -22
q44 22 116 22q24 0 47 -5.5t43.5 -15.5t37 -24t26.5 -31q49 76 133 76q115 0 175 -107q37 -8 68 -27.5t52.5 -48t33.5 -65.5t12 -79zM403 106q0 26 -22.5 44.5t-55.5 18.5h-24v32h23q13 0 26.5 6t24 15.5t17 22t6.5 25.5q0 22 -19.5 46.5t-47.5 35.5q-20 -11 -36.5 -29.5
t-28.5 -41.5t-19 -50t-7 -55q0 -26 7.5 -50t20 -42.5t30 -29.5t38.5 -11q27 0 47 19t20 44zM889 176q0 54 -23 105q-60 -7 -94.5 -41.5t-34.5 -88.5q0 -20 6.5 -38t17 -32.5t23.5 -23t27 -8.5q32 0 55 35.5t23 91.5z" />
    <glyph glyph-name="mal_i" unicode="&#xd07;" horiz-adv-x="749" 
d="M711 214q0 -48 -11.5 -87.5t-32.5 -67.5t-49 -43.5t-61 -15.5h-397q-64 0 -64 -48q0 -34 44 -34h554v-78h-545q-101 0 -101 100q0 92 102 92h345q138 0 138 174q0 36 -9.5 66.5t-26.5 53.5t-40.5 36t-50.5 13q-36 0 -60.5 -19.5t-24.5 -54.5v-234h-78v215q0 18 -8.5 33.5
t-24 27.5t-37 19t-46.5 7q-55 0 -96.5 -31t-52.5 -85l4 -2q34 52 89 52q23 0 42 -10t33 -27t21.5 -38.5t7.5 -43.5q0 -24 -9 -46.5t-24.5 -39.5t-35.5 -27.5t-42 -10.5q-28 0 -51 11.5t-39.5 31.5t-26 47t-9.5 58q0 48 16 87t45 67t70 43.5t91 15.5q99 0 144 -74
q7 13 19.5 26.5t29 24t35.5 17t40 6.5q36 0 69 -18t58.5 -47t40.5 -66t15 -76zM213 187q0 32 -17 54t-41 22q-23 0 -39 -21t-16 -54q0 -37 16 -59.5t42 -22.5q22 0 38.5 23t16.5 58z" />
    <glyph glyph-name="mal_ii" unicode="&#xd08;" horiz-adv-x="1339" 
d="M1301 194q0 -97 -59 -153t-162 -56q-82 0 -130.5 32.5t-50.5 84.5h30q4 -35 39.5 -56t93.5 -21q161 0 161 179q0 78 -33.5 124.5t-88.5 46.5q-14 0 -27 -6t-23.5 -15.5t-16.5 -22t-6 -25.5v-130h-78v93q0 46 -23 76t-60 30q-45 0 -72 -42t-27 -108q0 -10 3 -46h-30
q-3 21 -3 55q0 41 10.5 75.5t30 59t48 38.5t63.5 14q18 0 36.5 -6t35 -15.5t29 -22t18.5 -25.5q15 29 51 49t79 20q36 0 65.5 -17t51 -47t33.5 -72t12 -91zM711 214q0 -48 -11.5 -87.5t-32.5 -67.5t-49 -43.5t-61 -15.5h-397q-64 0 -64 -48q0 -34 44 -34h554v-78h-545
q-101 0 -101 100q0 92 102 92h345q138 0 138 174q0 36 -9.5 66.5t-26.5 53.5t-40.5 36t-50.5 13q-36 0 -60.5 -19.5t-24.5 -54.5v-234h-78v215q0 18 -8.5 33.5t-24 27.5t-37 19t-46.5 7q-55 0 -96.5 -31t-52.5 -85l4 -2q34 52 89 52q23 0 42 -10t33 -27t21.5 -38.5
t7.5 -43.5q0 -24 -9 -46.5t-24.5 -39.5t-35.5 -27.5t-42 -10.5q-28 0 -51 11.5t-39.5 31.5t-26 47t-9.5 58q0 48 16 87t45 67t70 43.5t91 15.5q99 0 144 -74q7 13 19.5 26.5t29 24t35.5 17t40 6.5q36 0 69 -18t58.5 -47t40.5 -66t15 -76zM213 187q0 32 -17 54t-41 22
q-23 0 -39 -21t-16 -54q0 -37 16 -59.5t42 -22.5q22 0 38.5 23t16.5 58z" />
    <glyph glyph-name="mal_u" unicode="&#xd09;" horiz-adv-x="538" 
d="M500 214q0 -48 -11.5 -87.5t-32.5 -67.5t-49 -43.5t-61 -15.5h-186q-64 0 -64 -48q0 -34 44 -34h354v-78h-345q-101 0 -101 100q0 92 102 92h134q138 0 138 174q0 169 -185 169q-135 0 -159 -106l4 -3q34 52 89 52q23 0 42 -10t33 -27t21.5 -38.5t7.5 -43.5
q0 -24 -9 -46.5t-24.5 -39.5t-35.5 -27.5t-42 -10.5q-27 0 -50.5 11t-40 31.5t-26 48t-9.5 60.5q0 97 58.5 146t167.5 49q54 0 98 -14.5t74.5 -41.5t47 -65.5t16.5 -85.5zM213 202q0 32 -17 54t-41 22q-23 0 -39 -21t-16 -54q0 -37 16 -59.5t42 -22.5q22 0 38.5 23t16.5 58z
" />
    <glyph glyph-name="mal_uu" unicode="&#xd0a;" horiz-adv-x="1129" 
d="M1091 194q0 -97 -59 -153t-162 -56q-82 0 -130.5 32.5t-50.5 84.5h30q4 -35 39.5 -56t93.5 -21q161 0 161 179q0 78 -33.5 124.5t-88.5 46.5q-14 0 -27 -6t-23.5 -15.5t-16.5 -22t-6 -25.5v-130h-78v93q0 46 -23 76t-60 30q-45 0 -72 -42t-27 -108q0 -10 3 -46h-30
q-3 21 -3 55q0 41 10.5 75.5t30 59t48 38.5t63.5 14q18 0 36.5 -6t35 -15.5t29 -22t18.5 -25.5q15 29 51 49t79 20q36 0 65.5 -17t51 -47t33.5 -72t12 -91zM500 214q0 -48 -11.5 -87.5t-32.5 -67.5t-49 -43.5t-61 -15.5h-186q-64 0 -64 -48q0 -34 44 -34h354v-78h-345
q-101 0 -101 100q0 92 102 92h134q138 0 138 174q0 169 -185 169q-135 0 -159 -106l4 -3q34 52 89 52q23 0 42 -10t33 -27t21.5 -38.5t7.5 -43.5q0 -24 -9 -46.5t-24.5 -39.5t-35.5 -27.5t-42 -10.5q-27 0 -50.5 11t-40 31.5t-26 48t-9.5 60.5q0 97 58.5 146t167.5 49
q54 0 98 -14.5t74.5 -41.5t47 -65.5t16.5 -85.5zM213 202q0 32 -17 54t-41 22q-23 0 -39 -21t-16 -54q0 -37 16 -59.5t42 -22.5q22 0 38.5 23t16.5 58z" />
    <glyph glyph-name="mal_vocalic_r" unicode="&#xd0b;" horiz-adv-x="634" 
d="M596 -30q0 -67 -71.5 -103.5t-206.5 -36.5t-207.5 37t-72.5 103q0 89 112 110v2q-112 36 -112 170q0 34 9.5 64.5t27.5 53.5t43 37t57 14q24 0 44 -9t34.5 -24.5t22.5 -36.5t8 -45q0 -29 -8.5 -51.5t-23 -38t-34 -24t-41.5 -8.5q-61 0 -95 58h-2q0 -78 55.5 -112.5
t182.5 -34.5q125 0 180.5 34.5t55.5 112.5h-2q-34 -58 -95 -58q-48 0 -77.5 34t-29.5 88q0 24 8 45t22.5 36.5t34.5 24.5t44 9q30 0 55 -13.5t43.5 -36.5t28.5 -54t10 -65q0 -134 -112 -170v-2q112 -21 112 -110zM528 303q0 32 -19 55t-43 23q-23 0 -38.5 -21.5t-15.5 -53.5
q0 -39 16.5 -60.5t41.5 -21.5q24 0 41 22.5t17 56.5zM222 306q0 32 -15.5 53.5t-38.5 21.5q-24 0 -43 -23t-19 -55q0 -34 17 -56.5t41 -22.5q25 0 41.5 21.5t16.5 60.5zM524 -31q0 21 -15 38.5t-42 30t-65 19t-84 6.5q-100 0 -154 -27t-54 -67q0 -21 15 -39.5t42.5 -31.5
t65.5 -20.5t85 -7.5q46 0 84 7.5t65 20.5t42 31t15 40z" />
    <glyph glyph-name="mal_vocalic_l" unicode="&#xd0c;" horiz-adv-x="774" 
d="M711 181q-4 34 -22 68.5t-44 62.5t-58 45.5t-64 17.5q-36 0 -60.5 -19.5t-24.5 -54.5v-301h-78v282q0 18 -8.5 33.5t-24 27.5t-37 19t-46.5 7q-76 0 -121.5 -51.5t-54.5 -136.5l3 -3q12 20 22.5 33.5t22 21t24.5 10.5t30 3q24 0 44 -12t35 -31.5t23.5 -43t8.5 -47.5
q0 -57 -30.5 -89t-78.5 -32q-30 0 -55 12.5t-42.5 35.5t-27 55t-9.5 70q0 56 18 103t49.5 81.5t75.5 53.5t96 19q99 0 144 -74q7 13 19.5 26.5t29 24t35.5 17t40 6.5q42 0 77 -19t60.5 -52t39.5 -77.5t14 -95.5q0 -41 -10 -75t-28 -59t-43 -38.5t-55 -13.5q-48 0 -78.5 32
t-30.5 89q0 24 8.5 48t23.5 43t35.5 31t43.5 12q17 0 29.5 -3t24 -10.5t22 -20.5t23.5 -34zM688 124q0 33 -19.5 54.5t-50.5 21.5q-29 0 -47 -24.5t-18 -57.5q0 -14 5 -27.5t14 -24t21 -17t27 -6.5q14 0 26.5 7.5t21.5 19.5t14.5 26t5.5 28zM219 118q0 33 -18 57.5t-47 24.5
q-31 0 -50.5 -21.5t-19.5 -54.5q0 -15 5.5 -29.5t15 -26t21.5 -18.5t26 -7q15 0 27 6.5t21 17t14 24t5 27.5z" />
    <glyph glyph-name="glyph48" unicode="&#xf8ff;" 
d="M188 166q0 -27 -19.5 -47t-47.5 -20q-29 0 -48 20t-19 47q0 28 19 48t48 20q27 0 47 -20t20 -48z" />
    <glyph glyph-name="mal_e" unicode="&#xd0e;" horiz-adv-x="953" 
d="M915 127q0 -185 -144 -309l-47 19q113 104 113 276q0 53 -13 100t-36 81.5t-55 54.5t-70 20q-42 0 -77 -23t-60.5 -63.5t-39.5 -96.5t-14 -122v-32h134v283h78v-381q0 -51 -30 -83.5t-78 -32.5q-117 0 -131 182h-230v7q67 42 67 116q0 42 -26 70t-68 28q-24 0 -43.5 -8.5
t-34 -22.5t-22.5 -33.5t-8 -40.5q0 -54 48 -102l-28 -23q-62 68 -62 143q0 31 12.5 58t34 46t52 30t66.5 11q33 0 62 -12t50 -32.5t33 -48.5t12 -60q0 -55 -33 -94h116q-1 3 -1 13v20q0 174 61.5 265t181.5 91q50 0 92 -23.5t73 -64t48 -93.5t17 -113zM606 0h-131
q10 -124 73 -124q26 0 42 19t16 48v57z" />
    <glyph glyph-name="mal_ee" unicode="&#xd0f;" horiz-adv-x="944" 
d="M906 -22q0 -70 -32.5 -112t-92.5 -42q-27 0 -49 9l-10 59q19 -10 41 -10q28 0 43.5 29t15.5 77q0 26 -6 49t-17 40t-26 27t-33 10h-21v40h13q30 0 49.5 28t19.5 65q0 54 -36 88t-102 34q-42 0 -77 -23t-60.5 -63.5t-39.5 -96.5t-14 -122v-32h134v283h78v-381
q0 -51 -30 -83.5t-78 -32.5q-117 0 -131 182h-230v7q67 42 67 116q0 42 -26 70t-68 28q-24 0 -43.5 -8.5t-34 -22.5t-22.5 -33.5t-8 -40.5q0 -54 48 -102l-28 -23q-62 68 -62 143q0 31 12.5 58t34 46t52 30t66.5 11q33 0 62 -12t50 -32.5t33 -48.5t12 -60q0 -55 -33 -94h116
q-1 3 -1 13v20q0 174 61.5 265t181.5 91q91 0 142.5 -46t51.5 -134q0 -34 -17 -64t-41 -42q85 -24 85 -157zM606 0h-131q10 -124 73 -124q26 0 42 19t16 48v57z" />
    <glyph glyph-name="mal_ai" unicode="&#xd10;" horiz-adv-x="1428" 
d="M1390 127q0 -185 -144 -309l-47 19q113 104 113 276q0 53 -13 100t-36 81.5t-55 54.5t-70 20q-42 0 -77 -23t-60.5 -63.5t-39.5 -96.5t-14 -122v-32h134v283h78v-381q0 -51 -30 -83.5t-78 -32.5q-117 0 -131 182h-230v7q67 42 67 116q0 42 -26 70t-68 28
q-24 0 -43.5 -8.5t-34 -22.5t-22.5 -33.5t-8 -40.5q0 -54 48 -102l-28 -23q-62 68 -62 143q0 31 12.5 58t34 46t52 30t66.5 11q33 0 62 -12t50 -32.5t33 -48.5t12 -60q0 -55 -33 -94h116q-1 3 -1 13v20q0 174 61.5 265t181.5 91q50 0 92 -23.5t73 -64t48 -93.5t17 -113z
M472 204q0 -119 -117 -219l-46 21q85 73 85 182q0 37 -12.5 70t-34 58t-50.5 39t-61 14q-35 0 -64 -14.5t-51 -40t-35.5 -60t-17.5 -73.5l3 -3q12 20 22.5 33.5t22 21t24.5 10.5t30 3q24 0 44 -12t35 -31.5t23.5 -43t8.5 -47.5q0 -57 -30.5 -89t-78.5 -32q-30 0 -55 12.5
t-42.5 35.5t-27 55t-9.5 70q0 53 16.5 100t45 82t68 55t84.5 20t85 -18t70 -48t47.5 -69t17.5 -82zM219 118q0 33 -18 57.5t-47 24.5q-31 0 -50.5 -21.5t-19.5 -54.5q0 -15 5.5 -29.5t15 -26t21.5 -18.5t26 -7q15 0 27 6.5t21 17t14 24t5 27.5zM1081 0h-131q10 -124 73 -124
q26 0 42 19t16 48v57z" />
    <glyph glyph-name="glyph49" unicode="&#xd9;" 
d="M188 166q0 -27 -19.5 -47t-47.5 -20q-29 0 -48 20t-19 47q0 28 19 48t48 20q27 0 47 -20t20 -48z" />
    <glyph glyph-name="mal_o" unicode="&#xd12;" horiz-adv-x="559" 
d="M521 109q0 -52 -37.5 -85t-95.5 -33q-29 0 -53 9l-12 56q22 -19 48 -19q33 0 52.5 19.5t19.5 43.5q0 18 -7.5 34.5t-20.5 29.5t-30.5 20.5t-36.5 7.5h-35v32q46 0 74 18t28 51q0 82 -140 82q-187 0 -207 -194l3 -3q12 20 22.5 33.5t22 21t24.5 10.5t30 3q24 0 44 -12
t35 -31.5t23.5 -43t8.5 -47.5q0 -57 -30.5 -89t-78.5 -32q-30 0 -55 12.5t-42.5 35.5t-27 55t-9.5 70q0 257 272 257q40 0 74 -8.5t58 -24t37.5 -37t13.5 -48.5q0 -56 -57 -92q37 -11 61 -39.5t24 -62.5zM219 118q0 33 -18 57.5t-47 24.5q-31 0 -50.5 -21.5t-19.5 -54.5
q0 -15 5.5 -29.5t15 -26t21.5 -18.5t26 -7q15 0 27 6.5t21 17t14 24t5 27.5z" />
    <glyph glyph-name="mal_oo" unicode="&#xd13;" horiz-adv-x="910" 
d="M872 211q0 -48 -12.5 -88.5t-35 -69.5t-54 -45.5t-69.5 -16.5q-66 0 -107 43.5t-41 118.5h30q20 -104 97 -104q27 0 49 12t37.5 34t24.5 52t9 66q0 31 -9 60.5t-24.5 52t-35.5 36t-42 13.5q-88 0 -106 -132h-30q3 85 39 131.5t102 46.5q40 0 73 -16t56 -44.5t36 -66.5
t13 -83zM521 109q0 -52 -37.5 -85t-95.5 -33q-29 0 -53 9l-12 56q22 -19 48 -19q33 0 52.5 19.5t19.5 43.5q0 18 -7.5 34.5t-20.5 29.5t-30.5 20.5t-36.5 7.5h-35v32q46 0 74 18t28 51q0 82 -140 82q-187 0 -207 -194l3 -3q12 20 22.5 33.5t22 21t24.5 10.5t30 3
q24 0 44 -12t35 -31.5t23.5 -43t8.5 -47.5q0 -57 -30.5 -89t-78.5 -32q-30 0 -55 12.5t-42.5 35.5t-27 55t-9.5 70q0 257 272 257q40 0 74 -8.5t58 -24t37.5 -37t13.5 -48.5q0 -56 -57 -92q37 -11 61 -39.5t24 -62.5zM219 118q0 33 -18 57.5t-47 24.5q-31 0 -50.5 -21.5
t-19.5 -54.5q0 -15 5.5 -29.5t15 -26t21.5 -18.5t26 -7q15 0 27 6.5t21 17t14 24t5 27.5z" />
    <glyph glyph-name="mal_au" unicode="&#xd14;" horiz-adv-x="1154" 
d="M1116 194q0 -97 -59 -153t-162 -56q-82 0 -130.5 32.5t-50.5 84.5h30q4 -35 39.5 -56t93.5 -21q161 0 161 179q0 78 -33.5 124.5t-88.5 46.5q-14 0 -27 -6t-23.5 -15.5t-16.5 -22t-6 -25.5v-130h-78v93q0 46 -23 76t-60 30q-45 0 -72 -42t-27 -108q0 -10 3 -46h-30
q-3 21 -3 55q0 41 10.5 75.5t30 59t48 38.5t63.5 14q18 0 36.5 -6t35 -15.5t29 -22t18.5 -25.5q15 29 51 49t79 20q36 0 65.5 -17t51 -47t33.5 -72t12 -91zM521 109q0 -52 -37.5 -85t-95.5 -33q-29 0 -53 9l-12 56q22 -19 48 -19q33 0 52.5 19.5t19.5 43.5q0 18 -7.5 34.5
t-20.5 29.5t-30.5 20.5t-36.5 7.5h-35v32q46 0 74 18t28 51q0 82 -140 82q-187 0 -207 -194l3 -3q12 20 22.5 33.5t22 21t24.5 10.5t30 3q24 0 44 -12t35 -31.5t23.5 -43t8.5 -47.5q0 -57 -30.5 -89t-78.5 -32q-30 0 -55 12.5t-42.5 35.5t-27 55t-9.5 70q0 257 272 257
q40 0 74 -8.5t58 -24t37.5 -37t13.5 -48.5q0 -56 -57 -92q37 -11 61 -39.5t24 -62.5zM219 118q0 33 -18 57.5t-47 24.5q-31 0 -50.5 -21.5t-19.5 -54.5q0 -15 5.5 -29.5t15 -26t21.5 -18.5t26 -7q15 0 27 6.5t21 17t14 24t5 27.5z" />
    <glyph glyph-name="mal_ka" unicode="&#xd15;" horiz-adv-x="733" 
d="M696 111q0 -24 -8.5 -45.5t-23.5 -38t-35 -26.5t-42 -10q-33 0 -59 17l-5 45q21 -15 37 -15q26 0 47 21t21 63q0 85 -81 85h-37q0 -49 -10.5 -88.5t-29.5 -68t-45.5 -44t-58.5 -15.5q-77 0 -114 75q-29 -75 -92 -75q-25 0 -47 10t-39 27.5t-27 42.5t-10 55
q0 54 32.5 83.5t95.5 29.5h64q0 37 9.5 70.5t26.5 58t41.5 39t54.5 14.5q60 0 99 -48.5t47 -133.5h62q57 0 92 -34t35 -94zM442 207h-183q-1 -4 -1 -7.5v-6.5v-13q0 -66 24.5 -104.5t63.5 -38.5q45 0 70.5 42t25.5 111v17zM442 239q-4 54 -28.5 92t-65.5 38q-38 0 -63.5 -35
t-25.5 -95h183zM229 207h-32q-92 0 -92 -76q0 -18 5 -35t13.5 -30t20.5 -21t26 -8q28 0 43.5 25t15.5 65v80z" />
    <glyph glyph-name="mal_kha" unicode="&#xd16;" horiz-adv-x="799" 
d="M753 0h-450v21q91 67 91 167q0 37 -12.5 70t-34 58t-50.5 39t-61 14q-35 0 -64 -14.5t-51 -40t-35.5 -60t-17.5 -73.5l3 -3q12 20 22.5 33.5t22 21t24.5 10.5t30 3q24 0 44 -12t35 -31.5t23.5 -43t8.5 -47.5q0 -57 -30.5 -89t-78.5 -32q-30 0 -55 12.5t-42.5 35.5t-27 55
t-9.5 70q0 52 16.5 99t45 82t67 55.5t83.5 20.5t85.5 -17.5t70.5 -47.5t48 -69.5t18 -82.5q0 -93 -78 -172h281v382h78v-414zM219 118q0 33 -18 57.5t-47 24.5q-31 0 -50.5 -21.5t-19.5 -54.5q0 -15 5.5 -29.5t15 -26t21.5 -18.5t26 -7q15 0 27 6.5t21 17t14 24t5 27.5z" />
    <glyph glyph-name="mal_ga" unicode="&#xd17;" horiz-adv-x="651" 
d="M613 221q0 -34 -10 -68t-27.5 -64.5t-41.5 -56t-51 -41.5l-24 23q112 70 112 194q0 31 -10.5 59.5t-28 49.5t-39.5 33.5t-46 12.5q-87 0 -87 -145v-57q0 -36 -12 -67t-32 -54t-46.5 -36t-55.5 -13q-36 0 -68 16.5t-56 44.5t-38 64.5t-14 77.5q0 32 10.5 65.5t28.5 63.5
t42.5 55.5t53.5 42.5l20 -24q-113 -81 -113 -197q0 -30 10 -57.5t27 -48t40 -33t49 -12.5q40 0 63 37.5t23 103.5v67q0 36 12 66t33 52t48.5 34t59.5 12q36 0 66.5 -15.5t53 -42.5t35.5 -63.5t13 -78.5z" />
    <glyph glyph-name="mal_gha" unicode="&#xd18;" horiz-adv-x="1080" 
d="M1034 0h-588v151h-233v7q29 17 49 47.5t20 61.5q0 19 -8 36t-21.5 30.5t-31 21.5t-36.5 8q-21 0 -41 -8.5t-35.5 -22.5t-25 -32t-9.5 -37q0 -52 53 -97l-28 -25q-32 34 -46.5 68.5t-14.5 70.5q0 66 46 103.5t121 37.5q32 0 60.5 -13t49.5 -34t33 -48.5t12 -56.5
q0 -49 -33 -86h119q0 64 12.5 109.5t36.5 74t58.5 41.5t77.5 13q85 0 136.5 -38.5t64.5 -123.5q4 -33 6 -108h-314v-119h432v382h78v-414zM802 183q0 57 -10.5 95t-29 61t-44.5 32.5t-57 9.5q-66 0 -101.5 -41.5t-35.5 -105.5v-51h278z" />
    <glyph glyph-name="mal_nga" unicode="&#xd19;" horiz-adv-x="782" 
d="M744 120q0 -26 -12.5 -49.5t-34.5 -41t-51.5 -28t-63.5 -10.5q-58 0 -77 9l-12 54q41 -23 70 -23q20 0 38.5 6.5t33 17.5t23 26t8.5 32q0 80 -100 80h-58v32q60 0 96.5 19t36.5 55q0 30 -26 53t-66 23q-23 0 -43.5 -5.5t-35.5 -15.5t-23.5 -23.5t-8.5 -29.5v-301h-78v282
q0 18 -8.5 33.5t-24 27.5t-37 19t-46.5 7q-76 0 -121.5 -51.5t-54.5 -136.5l3 -3q12 20 22.5 33.5t22 21t24.5 10.5t30 3q24 0 44 -12t35 -31.5t23.5 -43t8.5 -47.5q0 -57 -30.5 -89t-78.5 -32q-30 0 -55 12.5t-42.5 35.5t-27 55t-9.5 70q0 56 18 103t49.5 81.5t75.5 53.5
t96 19q100 0 143 -73q45 73 146 73q29 0 56.5 -9t49 -24t34.5 -34.5t13 -40.5q0 -69 -61 -100q38 -9 62 -35t24 -58zM219 118q0 33 -18 57.5t-47 24.5q-31 0 -50.5 -21.5t-19.5 -54.5q0 -15 5.5 -29.5t15 -26t21.5 -18.5t26 -7q15 0 27 6.5t21 17t14 24t5 27.5z" />
    <glyph glyph-name="mal_cha" unicode="&#xd1a;" horiz-adv-x="717" 
d="M671 0h-633v32h190q13 4 26.5 15.5t24 27t17.5 33t7 34.5q0 15 -5.5 29t-15 25.5t-22 18t-27.5 6.5q-32 0 -52.5 -23.5t-20.5 -57.5q0 -18 8 -32h-40q-10 19 -10 52q0 52 33 85.5t90 33.5q29 0 54.5 -10.5t44.5 -29t30 -42.5t11 -51q0 -61 -47 -114h259v382h78v-414z" />
    <glyph glyph-name="mal_chha" unicode="&#xd1b;" horiz-adv-x="954" 
d="M916 189q0 -41 -10.5 -77t-28.5 -63t-43.5 -42.5t-55.5 -15.5q-24 0 -46.5 11.5t-39 32t-26.5 47.5t-10 58q0 122 105 208q-18 15 -59 15q-35 0 -66 -15t-54 -40t-36.5 -57.5t-13.5 -68.5q0 -25 7.5 -51t20 -50t29.5 -43.5t36 -30.5l-1 -7h-586v32h190q13 4 26.5 15.5
t24 27t17.5 33t7 34.5q0 15 -5.5 29t-15 25.5t-22 18t-27.5 6.5q-32 0 -52.5 -23.5t-20.5 -57.5q0 -18 8 -32h-40q-10 19 -10 52q0 52 33 85.5t90 33.5q29 0 54.5 -10.5t44.5 -29t30 -42.5t11 -51q0 -61 -47 -114h214q-58 82 -58 166q0 46 16 86.5t44.5 71t68 48t86.5 17.5
q43 0 81 -19t67 -51t46 -74t17 -88zM844 176q0 22 -4.5 45t-12.5 44t-18 37.5t-21 25.5q-96 -78 -96 -172q0 -21 6.5 -40t17 -34t23.5 -24t27 -9q32 0 55 35.5t23 91.5z" />
    <glyph glyph-name="mal_ja" unicode="&#xd1c;" horiz-adv-x="670" 
d="M632 303q0 -66 -52.5 -103.5t-146.5 -37.5h-164q-137 0 -137 -67q0 -46 63 -46q56 0 134 37q150 70 204 70q39 0 66.5 -24t27.5 -58q0 -38 -27.5 -60.5t-64.5 -22.5q-38 0 -64 21.5t-26 52.5q0 23 12 40l-2 2q-71 -26 -139 -65q-90 -51 -151 -51q-21 0 -41 6.5t-35.5 18
t-25 27t-9.5 33.5q0 122 195 122h170q26 0 50.5 8t43 21.5t30 31t11.5 37.5q0 92 -95 92q-39 0 -61.5 -22.5t-22.5 -59.5v-70h-78v60q0 45 -29.5 70.5t-77.5 25.5q-57 0 -89 -35l2 -3q14 8 32 8q29 0 51 -21.5t22 -53.5q0 -20 -7 -36t-17.5 -28t-24.5 -18.5t-27 -6.5
q-40 0 -67 27t-27 67q0 28 14.5 52.5t38.5 43t54.5 29.5t63.5 11q105 0 150 -51q6 9 19.5 18t31.5 16.5t38 12t39 4.5q27 0 53 -10t46.5 -27t33 -40t12.5 -48zM572 80q0 20 -10 31t-34 13q-47 -3 -47 -46q0 -18 13.5 -29.5t33.5 -11.5q43 0 44 43zM153 282q0 20 -11 34
t-29 14q-17 0 -28 -14t-11 -34q0 -21 11 -34.5t28 -13.5t28.5 13.5t11.5 34.5z" />
    <glyph glyph-name="mal_jha" unicode="&#xd1d;" horiz-adv-x="1174" 
d="M1136 207q0 -47 -15 -86.5t-40.5 -68t-58 -45t-68.5 -16.5q-94 0 -133 70q-46 -70 -126 -70q-31 0 -57 13t-45 36.5t-30 55t-12 67.5l-2 86q-2 57 -32 91.5t-81 34.5q-41 0 -54 -7q101 -83 101 -199q0 -36 -10.5 -68t-29.5 -56.5t-45.5 -39t-57.5 -14.5q-27 0 -51 14
t-42 37.5t-28.5 55t-10.5 66.5q0 26 7.5 53.5t21 53.5t31 48.5t38.5 38.5q-24 11 -65 11q-30 0 -59 -14.5t-51.5 -38.5t-36.5 -55t-14 -63q0 -123 89 -191l-31 -16q-100 81 -100 220q0 43 15.5 81t42.5 66.5t64 45.5t81 17q59 0 108 -28q55 28 116 28q66 0 108 -44t44 -119
l2 -80q3 -141 96 -141q36 0 62 19.5t26 53.5v304h78v-259q0 -106 74 -106q27 0 52 13.5t44.5 36t31 53t11.5 64.5q0 104 -110 181l26 24q28 -21 51.5 -47.5t40 -54.5t25.5 -57t9 -55zM415 170q0 103 -82 173q-95 -77 -95 -180q0 -22 7 -42.5t19 -36.5t28.5 -25.5t34.5 -9.5
q19 0 35 9.5t28 26t18.5 38.5t6.5 47z" />
    <glyph glyph-name="mal_nya" unicode="&#xd1e;" horiz-adv-x="1042" 
d="M1004 193q0 -51 -30.5 -104t-84.5 -98l-46 16q83 83 83 174q0 41 -15 77.5t-40.5 63.5t-59 43t-70.5 16q-36 0 -56 -10q103 -87 103 -202q0 -36 -10.5 -68t-29.5 -56.5t-45.5 -39t-57.5 -14.5q-27 0 -51 14t-42 37.5t-28.5 55t-10.5 66.5q0 26 7.5 53.5t21 53.5t31 48.5
t38.5 38.5q-27 11 -65 11q-22 0 -41.5 -7t-34.5 -18.5t-23.5 -27.5t-8.5 -34v-282h-78v282q0 18 -8.5 33.5t-24 27.5t-37 19t-46.5 7q-76 0 -121.5 -51.5t-54.5 -136.5l3 -3q12 20 22.5 33.5t22 21t24.5 10.5t30 3q24 0 44 -12t35 -31.5t23.5 -43t8.5 -47.5q0 -57 -30.5 -89
t-78.5 -32q-30 0 -55 12.5t-42.5 35.5t-27 55t-9.5 70q0 56 18 103t49.5 81.5t75.5 53.5t96 19q100 0 143 -73q8 15 21.5 28.5t30.5 23.5t36 15.5t38 5.5q59 0 108 -28q55 28 116 28q49 0 92 -18t74.5 -48.5t49.5 -72t18 -89.5zM720 170q0 103 -82 173q-95 -77 -95 -180
q0 -22 7 -42.5t19 -36.5t28.5 -25.5t34.5 -9.5q19 0 35 9.5t28 26t18.5 38.5t6.5 47zM219 118q0 33 -18 57.5t-47 24.5q-31 0 -50.5 -21.5t-19.5 -54.5q0 -15 5.5 -29.5t15 -26t21.5 -18.5t26 -7q15 0 27 6.5t21 17t14 24t5 27.5z" />
    <glyph glyph-name="mal_tta" unicode="&#xd1f;" horiz-adv-x="456" 
d="M418 137q0 -30 -15.5 -57t-41.5 -46.5t-60.5 -31t-72.5 -11.5q-90 0 -181 58l2 46q94 -58 169 -58q27 0 51 7.5t42 20t28.5 28t10.5 32.5q0 28 -19 38.5t-76 10.5q-8 0 -20.5 -1t-26.5 -1.5t-27 -1.5t-21 -1q-54 0 -88 29t-34 75q0 31 14 58t38.5 47t59.5 31.5t77 11.5
q23 0 49 -5t51 -14t47.5 -21.5t37.5 -26.5l-25 -25q-58 52 -151 52q-29 0 -54 -8t-43 -21.5t-28.5 -31t-10.5 -35.5q0 -20 19.5 -32t47.5 -12q7 0 21 0.5t29 1.5t27.5 1.5t17.5 0.5q156 0 156 -108z" />
    <glyph glyph-name="mal_ttha" unicode="&#xd20;" horiz-adv-x="502" 
d="M464 204q0 -43 -16.5 -81.5t-45.5 -68t-68.5 -46.5t-85.5 -17q-44 0 -82 15.5t-66.5 43t-45 65t-16.5 82.5q0 48 15.5 89t43.5 71t65 47t81 17q48 0 89 -17t70 -46.5t45.5 -69t16.5 -84.5zM386 201q0 32 -12.5 61.5t-34.5 52t-50.5 35.5t-61.5 13t-62 -12.5t-50.5 -33.5
t-34 -49.5t-12.5 -60.5q0 -33 13 -63t35 -52.5t51 -35.5t61 -13t60.5 12.5t50.5 34.5t34.5 50.5t12.5 60.5z" />
    <glyph glyph-name="mal_dda" unicode="&#xd21;" horiz-adv-x="928" 
d="M890 207q0 -47 -15 -86.5t-40.5 -68t-58 -45t-68.5 -16.5q-94 0 -133 70q-46 -70 -126 -70q-35 0 -65 12t-52 34.5t-34 54.5t-12 71v86q0 52 -21.5 83t-56.5 31q-26 0 -49 -13t-40.5 -35t-28 -52.5t-10.5 -64.5q0 -114 105 -185l-21 -22q-29 16 -52 40t-39.5 52.5
t-25.5 60t-9 63.5q0 46 13 85.5t36 68t55.5 44.5t70.5 16q63 0 102 -44t39 -119v-86q0 -135 115 -135q36 0 62 19.5t26 53.5v304h78v-259q0 -106 74 -106q27 0 52 13.5t44.5 36t31 53t11.5 64.5q0 104 -110 181l26 24q28 -21 51.5 -47.5t40 -54.5t25.5 -57t9 -55z" />
    <glyph glyph-name="mal_ddha" unicode="&#xd22;" horiz-adv-x="969" 
d="M931 231q0 -54 -14 -98.5t-41 -76t-65.5 -48.5t-87.5 -17q-48 0 -88.5 20t-58.5 52q-45 -72 -132 -72q-34 0 -63 12.5t-50 35t-33 54t-12 70.5v86q0 52 -21.5 83t-56.5 31q-26 0 -49 -13t-40.5 -35t-28 -52.5t-10.5 -64.5q0 -114 105 -185l-21 -22q-29 16 -52 40
t-39.5 52.5t-25.5 60t-9 63.5q0 46 13.5 85.5t37.5 68t56 44.5t68 16q63 0 102 -44t39 -119v-86q0 -135 110 -135q35 0 61.5 21t26.5 55v301h78v-263q0 -24 10 -45t27.5 -36.5t40 -24t47.5 -8.5q70 0 108 52.5t38 145.5l-1 1q-23 -40 -43.5 -54t-53.5 -14q-23 0 -43.5 12
t-35.5 31t-23.5 43t-8.5 48q0 57 30.5 88t78.5 31q63 0 96.5 -50t33.5 -140zM889 289q0 14 -5.5 29t-14.5 28t-21.5 21t-26.5 8q-31 0 -49 -21.5t-18 -47.5q0 -39 18 -65.5t47 -26.5q30 0 50 22t20 53z" />
    <glyph glyph-name="mal_nna" unicode="&#xd23;" horiz-adv-x="1036" 
d="M998 207q0 -113 -135 -216l-41 19q98 101 98 195q0 37 -10.5 68.5t-28 54t-39.5 35t-44 12.5q-37 0 -62.5 -22t-25.5 -54v-299h-78v259q0 25 -8.5 45.5t-23.5 35t-34.5 22t-40.5 7.5q-37 0 -62 -19.5t-25 -47.5v-302h-78v282q0 18 -8.5 33.5t-24 27.5t-37 19t-46.5 7
q-76 0 -121.5 -51.5t-54.5 -136.5l3 -3q12 20 22.5 33.5t22 21t24.5 10.5t30 3q24 0 44 -12t35 -31.5t23.5 -43t8.5 -47.5q0 -57 -30.5 -89t-78.5 -32q-30 0 -55 12.5t-42.5 35.5t-27 55t-9.5 70q0 56 18 103t49.5 81.5t75.5 53.5t96 19q101 0 144 -73q45 73 127 73
q100 0 144 -68q17 31 51.5 49.5t74.5 18.5q37 0 69.5 -16.5t57 -45.5t39 -68t14.5 -84zM219 118q0 33 -18 57.5t-47 24.5q-31 0 -50.5 -21.5t-19.5 -54.5q0 -15 5.5 -29.5t15 -26t21.5 -18.5t26 -7q15 0 27 6.5t21 17t14 24t5 27.5z" />
    <glyph glyph-name="mal_ta" unicode="&#xd24;" horiz-adv-x="737" 
d="M699 193q0 -51 -30.5 -104t-84.5 -98l-46 16q83 83 83 174q0 41 -15 77.5t-40.5 63.5t-59 43t-70.5 16t-56 -10q103 -87 103 -202q0 -36 -10.5 -68t-29.5 -56.5t-45.5 -39t-57.5 -14.5q-27 0 -51 14t-42 37.5t-28.5 55t-10.5 66.5q0 26 7.5 53.5t21 53.5t31 48.5
t38.5 38.5q-24 11 -65 11q-30 0 -59 -14.5t-51.5 -38.5t-36.5 -55t-14 -63q0 -123 89 -191l-31 -16q-100 81 -100 220q0 43 15.5 81t42.5 66.5t64 45.5t81 17q59 0 108 -28q55 28 116 28q49 0 92 -18t74.5 -48.5t49.5 -72t18 -89.5zM415 170q0 103 -82 173q-95 -77 -95 -180
q0 -22 7 -42.5t19 -36.5t28.5 -25.5t34.5 -9.5q19 0 35 9.5t28 26t18.5 38.5t6.5 47z" />
    <glyph glyph-name="mal_tha" unicode="&#xd25;" horiz-adv-x="690" 
d="M652 0h-614v414h78v-382h155v212q0 81 51.5 129t139.5 48q42 0 77 -14t60 -40t39 -63t14 -83v-221zM622 32v150q0 187 -142 187q-131 0 -131 -144v-193h273z" />
    <glyph glyph-name="mal_da" unicode="&#xd26;" horiz-adv-x="466" 
d="M428 120q0 -26 -12.5 -49.5t-34.5 -41t-51.5 -28t-63.5 -10.5q-64 0 -77 7l-12 56q41 -23 70 -23q20 0 38.5 6.5t33 17.5t23 26t8.5 32q0 80 -100 80h-58v32q60 0 96.5 19.5t36.5 56.5q0 30 -26.5 52t-68.5 22q-36 0 -64.5 -15t-49 -42.5t-31.5 -66.5t-11 -87
q0 -71 27 -164l-37 -9q-13 54 -19.5 98t-6.5 80q0 58 15.5 104.5t44 79.5t68.5 50.5t88 17.5q30 0 57 -9.5t47.5 -25t32.5 -35t12 -38.5q0 -69 -61 -100q38 -9 62 -35t24 -58z" />
    <glyph glyph-name="mal_dha" unicode="&#xd27;" horiz-adv-x="697" 
d="M659 207q0 -47 -15 -86.5t-40.5 -68t-58 -45t-68.5 -16.5q-94 0 -133 70q-46 -70 -126 -70q-38 0 -70.5 16.5t-57 45t-38.5 67.5t-14 83q0 33 7.5 60.5t23.5 53t42 51t62 53.5l41 -19q-98 -104 -98 -197q0 -35 10 -65.5t27 -53t39 -36t46 -13.5q36 0 62 19.5t26 53.5v304
h78v-259q0 -106 74 -106q27 0 52 13.5t44.5 36t31 53t11.5 64.5q0 104 -110 181l26 24q28 -21 51.5 -47.5t40 -54.5t25.5 -57t9 -55z" />
    <glyph glyph-name="mal_na" unicode="&#xd28;" horiz-adv-x="697" 
d="M659 207q0 -113 -135 -216l-41 19q98 101 98 195q0 37 -10.5 68.5t-28 54t-39.5 35t-44 12.5q-37 0 -62.5 -22t-25.5 -54v-299h-78v259q0 48 -21 76t-53 28q-28 0 -53 -13t-44 -35.5t-30.5 -52.5t-11.5 -64q0 -103 110 -183l-26 -24q-29 22 -52 49t-39.5 55.5t-25.5 57
t-9 54.5q0 45 15 84t40 68t58 45.5t69 16.5q95 0 133 -68q17 31 51.5 49.5t74.5 18.5q37 0 69.5 -16.5t57 -45.5t39 -68t14.5 -84z" />
    <glyph glyph-name="mal_nnna" unicode="&#xd29;" horiz-adv-x="764" 
d="M401 343q9 22 23.5 37t32 24t36.5 13t38 4q39 0 74.5 -15.5t62 -44t42.5 -67.5t16 -87q0 -113 -135 -216l-41 19q98 101 98 195q0 37 -10.5 68.5t-28 54t-39.5 35t-44 12.5q-37 0 -62.5 -22t-25.5 -54v-299h-78v282q0 18 -8.5 33.5t-24 27.5t-37 19t-46.5 7
q-76 0 -121.5 -51.5t-54.5 -136.5l3 -3q12 20 22.5 33.5t22 21t24.5 10.5t30 3q24 0 44 -12t35 -31.5t23.5 -43t8.5 -47.5q0 -57 -30.5 -89t-78.5 -32q-30 0 -55 12.5t-42.5 35.5t-27 55t-9.5 70q0 56 18 103t49.5 81.5t75.5 53.5t96 19q25 0 45 -7t35 -18.5t26 -25.5
t18 -27zM219 118q0 33 -18 57.5t-47 24.5q-31 0 -50.5 -21.5t-19.5 -54.5q0 -15 5.5 -29.5t15 -26t21.5 -18.5t26 -7q15 0 27 6.5t21 17t14 24t5 27.5z" />
    <glyph glyph-name="mal_pa" unicode="&#xd2a;" horiz-adv-x="690" 
d="M644 0h-429v7q67 42 67 116q0 42 -26 70t-68 28q-24 0 -43.5 -8.5t-34 -22.5t-22.5 -33.5t-8 -40.5q0 -54 48 -102l-28 -23q-62 68 -62 143q0 31 12.5 58t34 46t52 30t66.5 11q33 0 62 -12t50 -32.5t33 -48.5t12 -60q0 -55 -33 -94h239v382h78v-414z" />
    <glyph glyph-name="mal_pha" unicode="&#xd2b;" horiz-adv-x="909" 
d="M870 0h-654v7q67 42 67 116q0 42 -26 70t-68 28q-24 0 -43.5 -8.5t-34 -22.5t-22.5 -33.5t-8 -40.5q0 -54 48 -102l-28 -23q-62 68 -62 143q0 31 12.5 58t34 46t52 30t66.5 11q33 0 62 -12t50 -32.5t33 -48.5t12 -60q0 -55 -33 -94h161v212q0 81 51.5 129t139.5 48
q42 0 77 -14t60 -40t39 -63t14 -83v-221zM840 32v150q0 187 -142 187q-131 0 -131 -144v-193h273z" />
    <glyph glyph-name="mal_ba" unicode="&#xd2c;" horiz-adv-x="987" 
d="M940 0h-389v23q100 82 100 183q0 36 -9.5 66.5t-26.5 53.5t-40.5 36t-50.5 13q-36 0 -60.5 -19.5t-24.5 -54.5v-301h-78v282q0 18 -8.5 33.5t-24 27.5t-37 19t-46.5 7q-76 0 -121.5 -51.5t-54.5 -136.5l3 -3q12 20 22.5 33.5t22 21t24.5 10.5t30 3q24 0 44 -12t35 -31.5
t23.5 -43t8.5 -47.5q0 -57 -30.5 -89t-78.5 -32q-30 0 -55 12.5t-42.5 35.5t-27 55t-9.5 70q0 56 18 103t49.5 81.5t75.5 53.5t96 19q99 0 144 -74q7 13 19.5 26.5t29 24t35.5 17t40 6.5q37 0 70 -17t58 -45.5t40 -66t15 -78.5q0 -95 -92 -178l2 -4h223v382h78v-414z
M220 118q0 33 -18 57.5t-47 24.5q-31 0 -50.5 -21.5t-19.5 -54.5q0 -15 5.5 -29.5t15 -26t21.5 -18.5t26 -7q15 0 27 6.5t21 17t14 24t5 27.5z" />
    <glyph glyph-name="mal_bha" unicode="&#xd2d;" horiz-adv-x="474" 
d="M436 82q0 -42 -35.5 -69.5t-101.5 -27.5q-43 0 -82.5 4t-74.5 12l-9 49q61 -19 133 -19q92 0 92 48q0 38 -80 38q-141 0 -141 71q0 36 23.5 59t62.5 23q8 0 22 -1.5t28.5 -3t26.5 -2.5t16 -1q15 0 26 12.5t11 26.5q0 15 -8.5 28.5t-23 23.5t-34.5 16t-44 6
q-169 0 -169 -212q0 -67 28 -163l-39 -9q-25 112 -25 179q0 118 55 184.5t161 66.5q36 0 68 -10t56.5 -27.5t38.5 -41t14 -50.5q0 -28 -21 -49.5t-53 -21.5q-22 0 -46.5 6.5t-36.5 6.5q-23 0 -41 -13t-18 -31q0 -36 71 -36l60 3q40 0 65 -20t25 -55z" />
    <glyph glyph-name="mal_ma" unicode="&#xd2e;" horiz-adv-x="480" 
d="M441 0h-402v132q0 66 4.5 119t24 91t58.5 58.5t109 20.5q206 0 206 -250v-171zM393 32v141q0 216 -152 216v-2q66 -44 66 -117q0 -32 -7.5 -58.5t-25 -53.5t-46 -57t-70.5 -69h235zM239 285q0 37 -21 60.5t-50 23.5q-99 0 -99 -171v-166q170 123 170 253z" />
    <glyph glyph-name="mal_ya" unicode="&#xd2f;" horiz-adv-x="745" 
d="M707 228q0 -50 -17 -93t-48 -75t-73.5 -50.5t-93.5 -18.5q-55 0 -77 12q-36 -12 -91 -12q-54 0 -103 19t-86 51t-58.5 75.5t-21.5 92.5q0 40 11 75.5t30.5 61t47 40.5t59.5 15q67 0 111 -81q60 81 139 81q28 0 54 -14t45 -36.5t30.5 -52.5t11.5 -61q0 -154 -131 -229
q20 -5 32 -5q37 0 72 16.5t62 45t43 66t16 79.5q0 96 -71 167l25 24q23 -29 39 -53.5t25.5 -47t13.5 -45t4 -47.5zM505 229q0 28 -7.5 53.5t-20.5 44.5t-31.5 30.5t-39.5 11.5h-1q-21 0 -39.5 -11.5t-32 -30t-21 -43t-7.5 -50.5q0 -27 7.5 -56t20.5 -55t31 -46.5t40 -31.5
q22 11 41 30.5t32 44t20.5 52.5t7.5 57zM353 28q-20 10 -39.5 33t-35.5 52.5t-25.5 62t-9.5 62.5q0 55 -23 90t-56 35q-20 0 -37.5 -11t-30.5 -29.5t-20.5 -43t-7.5 -51.5q0 -40 18.5 -77t50 -65.5t73 -45.5t88.5 -17q18 0 31.5 1.5t23.5 3.5z" />
    <glyph glyph-name="mal_ra" unicode="&#xd30;" horiz-adv-x="502" 
d="M464 189q0 -41 -10.5 -77t-28.5 -63t-43.5 -42.5t-55.5 -15.5q-24 0 -46.5 11.5t-39 32t-26.5 47.5t-10 58q0 122 105 208q-18 15 -59 15q-35 0 -66 -15.5t-54 -41t-36.5 -58t-13.5 -66.5q0 -106 91 -176l-21 -21q-24 18 -44.5 43t-35.5 52.5t-23.5 57t-8.5 56.5
q0 47 16 88.5t44.5 72t68 48.5t86.5 18q43 0 81 -19t67 -51t46 -74t17 -88zM392 176q0 22 -4.5 45t-12.5 44t-18 37.5t-21 25.5q-96 -78 -96 -172q0 -21 6.5 -40t17 -34t23.5 -24t27 -9q32 0 55 35.5t23 91.5z" />
    <glyph glyph-name="mal_rra" unicode="&#xd31;" horiz-adv-x="485" 
d="M447 213q0 -63 -37 -121.5t-106 -100.5l-26 38q91 61 91 156q0 33 -10 62t-28.5 50t-44.5 33.5t-57 12.5q-32 0 -59 -11t-47 -31t-31.5 -48.5t-11.5 -62.5q0 -113 102 -174l-16 -25q-60 38 -94 93t-34 113q0 48 16 89t44.5 71t68.5 47t88 17q39 0 74 -17t61.5 -45.5
t41.5 -66.5t15 -79z" />
    <glyph glyph-name="mal_la" unicode="&#xd32;" horiz-adv-x="674" 
d="M627 0h-588v183q0 64 12.5 109.5t36.5 74t58.5 41.5t77.5 13q85 0 136.5 -38.5t64.5 -123.5q4 -33 6 -108h-314v-119h432v382h78v-414zM395 183q0 57 -10.5 95t-29 61t-44.5 32.5t-57 9.5q-66 0 -101.5 -41.5t-35.5 -105.5v-51h278z" />
    <glyph glyph-name="mal_lla" unicode="&#xd33;" horiz-adv-x="540" 
d="M502 106q0 -106 -154 -106h-188q-64 0 -64 -48q0 -34 44 -34h354v-78h-345q-101 0 -101 100q0 92 102 92h148q126 0 126 81q0 80 -107 80v32q14 0 28.5 6t26.5 16.5t19.5 23.5t7.5 28q0 76 -140 76q-156 0 -181 -106l4 -3q34 52 89 52q23 0 42 -10t33 -27t21.5 -38.5
t7.5 -43.5q0 -24 -9 -46.5t-24.5 -39.5t-35.5 -27.5t-42 -10.5q-27 0 -50.5 11t-40 31.5t-26 48t-9.5 60.5q0 45 16 81t46 61.5t71.5 39t92.5 13.5q47 0 86.5 -8.5t67.5 -23t43.5 -34.5t15.5 -42q0 -69 -61 -100q86 -20 86 -107zM213 202q0 32 -17 54t-41 22q-23 0 -39 -21
t-16 -54q0 -37 16 -59.5t42 -22.5q22 0 38.5 23t16.5 58z" />
    <glyph glyph-name="mal_llla" unicode="&#xd34;" horiz-adv-x="487" 
d="M449 281q0 -55 -40 -96.5t-106 -59.5q8 -24 8 -44q0 -42 -29 -69t-80 -27q-34 0 -69 18t-56 46l24 24q45 -48 82 -48q56 0 56 63q0 9 -5 31q-43 0 -79 12t-62 33t-40.5 49.5t-14.5 61.5q0 82 66 153l35 -33q-33 -48 -33 -104q0 -27 10 -52t27 -44t38.5 -31t44.5 -13
q-41 65 -41 135q0 28 8.5 53t24.5 43t39 28.5t52 10.5q27 0 52.5 -11.5t45 -31t31 -45t11.5 -52.5zM407 282q0 16 -6.5 32t-17 28t-24 19.5t-28.5 7.5q-33 0 -55.5 -27.5t-22.5 -67.5q0 -63 39 -121q51 11 83 45.5t32 83.5z" />
    <glyph glyph-name="mal_va" unicode="&#xd35;" horiz-adv-x="695" 
d="M649 0h-381v19q101 74 101 166q0 33 -10 62t-28.5 50t-44.5 33.5t-57 12.5q-32 0 -59 -11t-47 -31t-31.5 -48.5t-11.5 -62.5q0 -113 102 -174l-16 -25q-60 38 -94 93t-34 113q0 48 16 89t44.5 71t68.5 47t88 17q39 0 74 -17t61.5 -45.5t41.5 -66.5t15 -79q0 -97 -78 -181
h202v382h78v-414z" />
    <glyph glyph-name="mal_sha" unicode="&#xd36;" horiz-adv-x="738" 
d="M700 189q0 -41 -10.5 -77t-28.5 -63t-43.5 -42.5t-55.5 -15.5q-24 0 -46.5 11.5t-39 32t-26.5 47.5t-10 58q0 124 113 214q-32 27 -82 27q-52 0 -81.5 -42.5t-29.5 -117.5v-60q0 -36 -12 -67t-32 -54t-46.5 -36t-55.5 -13q-36 0 -68 16.5t-56 44.5t-38 64.5t-14 77.5
q0 32 10.5 65.5t28.5 63.5t42.5 55.5t53.5 42.5l20 -24q-113 -81 -113 -197q0 -30 10 -57.5t27 -48t40 -33t49 -12.5q40 0 63 37.5t23 103.5v67q0 37 12.5 67t35 51.5t53 33.5t66.5 12q54 0 98 -17.5t76 -48.5t49.5 -73.5t17.5 -92.5zM628 176q0 106 -51 156
q-101 -83 -101 -176q0 -21 6.5 -40t17 -34t23.5 -24t27 -9q32 0 55 35.5t23 91.5z" />
    <glyph glyph-name="mal_ssa" unicode="&#xd37;" horiz-adv-x="890" 
d="M843 0h-627v7q67 42 67 116q0 42 -26 70t-68 28q-24 0 -43.5 -8.5t-34 -22.5t-22.5 -33.5t-8 -40.5q0 -54 48 -102l-28 -23q-62 68 -62 143q0 31 12.5 58t34 46t52 30t66.5 11q33 0 62 -12t50 -32.5t33 -48.5t12 -60q0 -55 -33 -94h180v135q-29 0 -56 11.5t-47.5 30.5
t-33 44.5t-12.5 54.5q0 22 9.5 42.5t25.5 36t37.5 25t46.5 9.5q108 0 108 -134v-85q30 8 66 31.5t69.5 54.5t59 64.5t34.5 61.5h28v-414zM766 32v261q-15 -18 -38 -37.5t-49 -37t-50.5 -30t-42.5 -15.5v-141h180zM508 311q0 58 -52 58q-20 0 -34.5 -19.5t-14.5 -48.5
q0 -20 8 -37.5t21.5 -31t32 -22.5t39.5 -11v112z" />
    <glyph glyph-name="mal_sa" unicode="&#xd38;" horiz-adv-x="928" 
d="M890 186q0 -38 -15 -73t-40.5 -62t-60.5 -43.5t-75 -16.5q-29 0 -53 12t-41 33.5t-26.5 51.5t-9.5 66v86q0 135 -110 135q-37 0 -62.5 -22t-25.5 -54v-299h-78v259q0 48 -21 76t-53 28q-28 0 -53 -13t-44 -35.5t-30.5 -52.5t-11.5 -64q0 -103 110 -183l-26 -24
q-29 22 -52 49t-39.5 55.5t-25.5 57t-9 54.5q0 45 15 84t40 68t58 45.5t69 16.5q95 0 133 -68q17 31 51.5 49.5t74.5 18.5q34 0 63 -12.5t50 -35t33 -54.5t12 -70v-86q0 -51 20.5 -82.5t51.5 -31.5q27 0 52 13.5t44.5 36t31 51.5t11.5 61q0 24 -9 50.5t-24.5 52t-36.5 48
t-44 37.5l25 22q63 -48 97 -111t34 -124z" />
    <glyph glyph-name="mal_ha" unicode="&#xd39;" horiz-adv-x="927" 
d="M889 213q0 -63 -37 -121.5t-106 -100.5l-26 38q91 61 91 156q0 33 -10 62t-28.5 50t-44.5 33.5t-57 12.5q-64 0 -105 -41.5t-41 -111.5q0 -30 9.5 -59.5t26.5 -54t39.5 -43t48.5 -26.5v-7h-434v7q67 42 67 116q0 42 -26 70t-68 28q-24 0 -43.5 -8.5t-34 -22.5
t-22.5 -33.5t-8 -40.5q0 -54 48 -102l-28 -23q-62 68 -62 143q0 31 12.5 58t34 46t52 30t66.5 11q33 0 62 -12t50 -32.5t33 -48.5t12 -60q0 -55 -33 -94h229q-30 30 -51.5 76t-21.5 92q0 44 16 84t43.5 70.5t65 48.5t80.5 18q42 0 79 -16.5t64 -45t42.5 -66.5t15.5 -80z" />
    <glyph glyph-name="mal_ttta" unicode="&#xd3a;" horiz-adv-x="624" 
d="M39 414h78v-382h460v-32h-229v-155h-78v155h-231v414z" />
    <glyph glyph-name="glyph58" 
d="M188 166q0 -27 -19.5 -47t-47.5 -20q-29 0 -48 20t-19 47q0 28 19 48t48 20q27 0 47 -20t20 -48z" />
    <glyph glyph-name="glyph105" 
d="M188 166q0 -27 -19.5 -47t-47.5 -20q-29 0 -48 20t-19 47q0 28 19 48t48 20q27 0 47 -20t20 -48z" />
    <glyph glyph-name="mal_avagraha" unicode="&#xd3d;" horiz-adv-x="450" 
d="M257 126q0 -58 -28 -92t-82 -34q-22 0 -41.5 9.5t-34.5 26t-25 39t-11 48.5h24q3 -30 21.5 -50.5t47.5 -20.5q66 0 66 94v307q0 58 28 92t81 34q22 0 41.5 -9.5t35 -26t25 -39t10.5 -48.5h-24q-3 30 -21.5 50.5t-46.5 20.5q-66 0 -66 -94v-307z" />
    <glyph glyph-name="mal_aamatra" unicode="&#xd3e;" horiz-adv-x="395" 
d="M357 211q0 -48 -12.5 -88.5t-35 -69.5t-54 -45.5t-69.5 -16.5q-66 0 -107 43.5t-41 118.5h30q20 -104 97 -104q27 0 49 12t37.5 34t24.5 52t9 66q0 31 -9 60.5t-24.5 52t-35.5 36t-42 13.5q-88 0 -106 -132h-30q3 85 39 131.5t102 46.5q40 0 73 -16t56 -44.5t36 -66.5
t13 -83z" />
    <glyph glyph-name="mal_imatra" unicode="&#xd3f;" horiz-adv-x="190" 
d="M152 0h-78v433q0 94 -81 94q-35 0 -58 -20.5t-27 -50.5h-30q2 26 14 48.5t30.5 39t43 26t51.5 9.5q66 0 100.5 -34t34.5 -92v-453z" />
    <glyph glyph-name="mal_iimatra" unicode="&#xd40;" horiz-adv-x="263" 
d="M225 0h-78v433q0 110 -82 110q-8 0 -26 -5v-2q68 -17 68 -79q0 -15 -6 -28t-16.5 -23.5t-24 -16.5t-28.5 -6q-35 0 -58.5 23.5t-23.5 57.5q0 23 11 44t30 36.5t44.5 25t54.5 9.5q63 0 99 -33t36 -93v-453zM77 463q0 23 -21 39.5t-51 16.5q-25 -21 -25 -56q0 -21 13 -34.5
t33 -13.5q22 0 36.5 14t14.5 34z" />
    <glyph glyph-name="mal_umatra" unicode="&#xd41;" horiz-adv-x="250" 
d="M212 -119q0 -21 -8 -41.5t-22 -36t-33.5 -25t-42.5 -9.5t-42.5 10t-33.5 26.5t-22 38t-8 44.5q0 45 24.5 75.5t63.5 38.5q50 114 50 184q0 136 -107 171l6 64q137 -32 137 -193q0 -87 -54 -226q45 -8 68.5 -40.5t23.5 -80.5zM164 -112q0 31 -19 52.5t-48 21.5t-48 -21.5
t-19 -52.5q0 -30 19 -51.5t48 -21.5t48 21.5t19 51.5z" />
    <glyph glyph-name="mal_uumatra" unicode="&#xd42;" horiz-adv-x="250" 
d="M212 -119q0 -21 -8 -41.5t-22 -36t-33.5 -25t-42.5 -9.5t-42.5 10t-33.5 26.5t-22 38t-8 44.5q0 45 24.5 75.5t63.5 38.5q50 114 50 184q0 136 -107 171l6 64q137 -32 137 -193q0 -87 -54 -226q45 -8 68.5 -40.5t23.5 -80.5zM158 -81q-22 43 -61 43q-46 0 -62 -45
q26 -32 59 -32q36 0 64 34zM164 -110q-37 -31 -69 -31q-27 0 -65 32q0 -31 19 -53.5t48 -22.5t48 20.5t19 54.5z" />
    <glyph glyph-name="mal_signvocalic_r" unicode="&#xd43;" horiz-adv-x="326" 
d="M288 -82q0 -31 -12.5 -57t-34.5 -45.5t-50.5 -30.5t-60.5 -11q-63 0 -96.5 31t-33.5 77q0 52 31 84.5t79 32.5q21 0 39.5 -10t32.5 -25.5t22 -35.5t8 -41q0 -49 -38 -78l1 -3q38 12 60.5 44.5t22.5 70.5q0 62 -92 143q-88 78 -88 290q0 31 6 60h76q-2 -16 -3 -37t-1 -47
q0 -50 2.5 -84t10 -62t21 -54t35.5 -61q63 -98 63 -151zM182 -121q0 31 -19 52.5t-48 21.5t-48 -21.5t-19 -52.5q0 -30 19 -51.5t48 -21.5t48 21.5t19 51.5z" />
    <glyph glyph-name="mal_signvocalic_rr" unicode="&#xd44;" horiz-adv-x="326" 
d="M288 -82q0 -31 -12.5 -57t-34.5 -45.5t-50.5 -30.5t-60.5 -11q-63 0 -96.5 31t-33.5 77q0 52 31 84.5t79 32.5q21 0 39.5 -10t32.5 -25.5t22 -35.5t8 -41q0 -49 -38 -78l1 -3q38 12 60.5 44.5t22.5 70.5q0 62 -92 143q-88 78 -88 290q0 31 6 60h76q-2 -16 -3 -37t-1 -47
q0 -50 2.5 -84t10 -62t21 -54t35.5 -61q63 -98 63 -151zM182 -121q0 31 -19 52.5t-48 21.5t-48 -21.5t-19 -52.5q0 -30 19 -51.5t48 -21.5t48 21.5t19 51.5z" />
    <glyph glyph-name="glyph59" 
d="M188 166q0 -27 -19.5 -47t-47.5 -20q-29 0 -48 20t-19 47q0 28 19 48t48 20q27 0 47 -20t20 -48z" />
    <glyph glyph-name="mal_ematra" unicode="&#xd46;" horiz-adv-x="510" 
d="M472 204q0 -119 -117 -219l-46 21q85 73 85 182q0 37 -12.5 70t-34 58t-50.5 39t-61 14q-35 0 -64 -14.5t-51 -40t-35.5 -60t-17.5 -73.5l3 -3q12 20 22.5 33.5t22 21t24.5 10.5t30 3q24 0 44 -12t35 -31.5t23.5 -43t8.5 -47.5q0 -57 -30.5 -89t-78.5 -32q-30 0 -55 12.5
t-42.5 35.5t-27 55t-9.5 70q0 53 16.5 100t45 82t68 55t84.5 20t85 -18t70 -48t47.5 -69t17.5 -82zM219 118q0 33 -18 57.5t-47 24.5q-31 0 -50.5 -21.5t-19.5 -54.5q0 -15 5.5 -29.5t15 -26t21.5 -18.5t26 -7q15 0 27 6.5t21 17t14 24t5 27.5z" />
    <glyph glyph-name="mal_eematra" unicode="&#xd47;" horiz-adv-x="453" 
d="M415 103q0 -24 -12.5 -44.5t-34.5 -35.5t-52 -23.5t-64 -8.5q-47 0 -86.5 16.5t-68 45.5t-44 69t-15.5 87q0 45 16 83.5t44.5 67t67.5 45t86 16.5q34 0 64 -8.5t52 -23.5t34.5 -35.5t12.5 -44.5q0 -37 -24.5 -60.5t-58.5 -23.5q-42 0 -68 24t-26 55q0 43 41 78
q-13 7 -31 7q-28 0 -53.5 -14t-45 -38t-31.5 -57t-12 -71t11 -71.5t30.5 -59t45 -40.5t55.5 -15q18 0 31 7q-41 26 -41 72q0 31 26 55t68 24q33 0 58 -22.5t25 -55.5zM385 307q0 21 -15.5 41.5t-42.5 26.5q-16 -9 -28.5 -29.5t-12.5 -33.5q0 -24 13.5 -39.5t33.5 -15.5
q19 0 35.5 15t16.5 35zM385 105q0 16 -16.5 30t-35.5 14t-33 -14.5t-14 -34.5q0 -13 12.5 -33.5t28.5 -29.5q24 5 41 25t17 43z" />
    <glyph glyph-name="mal_aimatra" unicode="&#xd48;" horiz-adv-x="990" 
d="M952 204q0 -119 -117 -219l-46 21q85 73 85 182q0 37 -12.5 70t-34 58t-50.5 39t-61 14q-35 0 -64 -14.5t-51 -40t-35.5 -60t-17.5 -73.5l3 -3q12 20 22.5 33.5t22 21t24.5 10.5t30 3q24 0 44 -12t35 -31.5t23.5 -43t8.5 -47.5q0 -57 -30.5 -89t-78.5 -32q-30 0 -55 12.5
t-42.5 35.5t-27 55t-9.5 70q0 53 16.5 100t45 82t68 55t84.5 20t85 -18t70 -48t47.5 -69t17.5 -82zM472 204q0 -119 -117 -219l-46 21q85 73 85 182q0 37 -12.5 70t-34 58t-50.5 39t-61 14q-35 0 -64 -14.5t-51 -40t-35.5 -60t-17.5 -73.5l3 -3q12 20 22.5 33.5t22 21
t24.5 10.5t30 3q24 0 44 -12t35 -31.5t23.5 -43t8.5 -47.5q0 -57 -30.5 -89t-78.5 -32q-30 0 -55 12.5t-42.5 35.5t-27 55t-9.5 70q0 53 16.5 100t45 82t68 55t84.5 20t85 -18t70 -48t47.5 -69t17.5 -82zM699 118q0 33 -18 57.5t-47 24.5q-31 0 -50.5 -21.5t-19.5 -54.5
q0 -15 5.5 -29.5t15 -26t21.5 -18.5t26 -7q15 0 27 6.5t21 17t14 24t5 27.5zM219 118q0 33 -18 57.5t-47 24.5q-31 0 -50.5 -21.5t-19.5 -54.5q0 -15 5.5 -29.5t15 -26t21.5 -18.5t26 -7q15 0 27 6.5t21 17t14 24t5 27.5z" />
    <glyph glyph-name="glyph60" 
d="M188 166q0 -27 -19.5 -47t-47.5 -20q-29 0 -48 20t-19 47q0 28 19 48t48 20q27 0 47 -20t20 -48z" />
    <glyph glyph-name="mal_omatra" unicode="&#xd4a;" horiz-adv-x="395" 
d="M357 211q0 -48 -12.5 -88.5t-35 -69.5t-54 -45.5t-69.5 -16.5q-66 0 -107 43.5t-41 118.5h30q20 -104 97 -104q27 0 49 12t37.5 34t24.5 52t9 66q0 31 -9 60.5t-24.5 52t-35.5 36t-42 13.5q-88 0 -106 -132h-30q3 85 39 131.5t102 46.5q40 0 73 -16t56 -44.5t36 -66.5
t13 -83z" />
    <glyph glyph-name="mal_oomatra" unicode="&#xd4b;" horiz-adv-x="395" 
d="M357 211q0 -48 -12.5 -88.5t-35 -69.5t-54 -45.5t-69.5 -16.5q-66 0 -107 43.5t-41 118.5h30q20 -104 97 -104q27 0 49 12t37.5 34t24.5 52t9 66q0 31 -9 60.5t-24.5 52t-35.5 36t-42 13.5q-88 0 -106 -132h-30q3 85 39 131.5t102 46.5q40 0 73 -16t56 -44.5t36 -66.5
t13 -83z" />
    <glyph glyph-name="mal_aumatra" unicode="&#xd4c;" horiz-adv-x="1329" 
d="M472 204q0 -119 -117 -219l-46 21q85 73 85 182q0 37 -12.5 70t-34 58t-50.5 39t-61 14q-35 0 -64 -14.5t-51 -40t-35.5 -60t-17.5 -73.5l3 -3q12 20 22.5 33.5t22 21t24.5 10.5t30 3q24 0 44 -12t35 -31.5t23.5 -43t8.5 -47.5q0 -57 -30.5 -89t-78.5 -32q-30 0 -55 12.5
t-42.5 35.5t-27 55t-9.5 70q0 53 16.5 100t45 82t68 55t84.5 20t85 -18t70 -48t47.5 -69t17.5 -82zM219 118q0 33 -18 57.5t-47 24.5q-31 0 -50.5 -21.5t-19.5 -54.5q0 -15 5.5 -29.5t15 -26t21.5 -18.5t26 -7q15 0 27 6.5t21 17t14 24t5 27.5zM1291 194q0 -97 -59 -153
t-162 -56q-82 0 -130.5 32.5t-50.5 84.5h30q4 -35 39.5 -56t93.5 -21q161 0 161 179q0 78 -33.5 124.5t-88.5 46.5q-14 0 -27 -6t-23.5 -15.5t-16.5 -22t-6 -25.5v-130h-78v93q0 46 -23 76t-60 30q-45 0 -72 -42t-27 -108q0 -10 3 -46h-30q-3 21 -3 55q0 41 10.5 75.5t30 59
t48 38.5t63.5 14q18 0 36.5 -6t35 -15.5t29 -22t18.5 -25.5q15 29 51 49t79 20q36 0 65.5 -17t51 -47t33.5 -72t12 -91z" />
    <glyph glyph-name="mal_chandrakkala" unicode="&#xd4d;" horiz-adv-x="19" 
d="M13 623q0 -75 -35 -114.5t-92 -39.5q-26 0 -49 9t-40 25t-27 37.5t-10 46.5t3 36h73q-4 -9 -4 -38q0 -26 20 -45t48 -19q35 0 59 27t24 75h30z" />
    <glyph glyph-name="mal_dot_reph" unicode="&#xd4e;" horiz-adv-x="0" 
d="M-25 536q0 -27 -19.5 -47t-47.5 -20q-29 0 -48 20t-19 47q0 28 19 48t48 20q27 0 47 -20t20 -48z" />
    <glyph glyph-name="glyph61" 
d="M188 166q0 -27 -19.5 -47t-47.5 -20q-29 0 -48 20t-19 47q0 28 19 48t48 20q27 0 47 -20t20 -48z" />
    <glyph glyph-name="glyph62" 
d="M188 166q0 -27 -19.5 -47t-47.5 -20q-29 0 -48 20t-19 47q0 28 19 48t48 20q27 0 47 -20t20 -48z" />
    <glyph glyph-name="glyph63" 
d="M188 166q0 -27 -19.5 -47t-47.5 -20q-29 0 -48 20t-19 47q0 28 19 48t48 20q27 0 47 -20t20 -48z" />
    <glyph glyph-name="glyph64" 
d="M188 166q0 -27 -19.5 -47t-47.5 -20q-29 0 -48 20t-19 47q0 28 19 48t48 20q27 0 47 -20t20 -48z" />
    <glyph glyph-name="glyph65" 
d="M188 166q0 -27 -19.5 -47t-47.5 -20q-29 0 -48 20t-19 47q0 28 19 48t48 20q27 0 47 -20t20 -48z" />
    <glyph glyph-name="glyph83" 
d="M188 166q0 -27 -19.5 -47t-47.5 -20q-29 0 -48 20t-19 47q0 28 19 48t48 20q27 0 47 -20t20 -48z" />
    <glyph glyph-name="glyph84" 
d="M188 166q0 -27 -19.5 -47t-47.5 -20q-29 0 -48 20t-19 47q0 28 19 48t48 20q27 0 47 -20t20 -48z" />
    <glyph glyph-name="glyph85" 
d="M188 166q0 -27 -19.5 -47t-47.5 -20q-29 0 -48 20t-19 47q0 28 19 48t48 20q27 0 47 -20t20 -48z" />
    <glyph glyph-name="mal_length_mark" unicode="&#xd57;" horiz-adv-x="639" 
d="M601 194q0 -97 -59 -153t-162 -56q-82 0 -130.5 32.5t-50.5 84.5h30q4 -35 39.5 -56t93.5 -21q161 0 161 179q0 78 -33.5 124.5t-88.5 46.5q-14 0 -27 -6t-23.5 -15.5t-16.5 -22t-6 -25.5v-130h-78v93q0 46 -23 76t-60 30q-45 0 -72 -42t-27 -108q0 -10 3 -46h-30
q-3 21 -3 55q0 41 10.5 75.5t30 59t48 38.5t63.5 14q18 0 36.5 -6t35 -15.5t29 -22t18.5 -25.5q15 29 51 49t79 20q36 0 65.5 -17t51 -47t33.5 -72t12 -91z" />
    <glyph glyph-name="glyph87" 
d="M188 166q0 -27 -19.5 -47t-47.5 -20q-29 0 -48 20t-19 47q0 28 19 48t48 20q27 0 47 -20t20 -48z" />
    <glyph glyph-name="glyph88" 
d="M188 166q0 -27 -19.5 -47t-47.5 -20q-29 0 -48 20t-19 47q0 28 19 48t48 20q27 0 47 -20t20 -48z" />
    <glyph glyph-name="glyph89" 
d="M188 166q0 -27 -19.5 -47t-47.5 -20q-29 0 -48 20t-19 47q0 28 19 48t48 20q27 0 47 -20t20 -48z" />
    <glyph glyph-name="glyph90" 
d="M188 166q0 -27 -19.5 -47t-47.5 -20q-29 0 -48 20t-19 47q0 28 19 48t48 20q27 0 47 -20t20 -48z" />
    <glyph glyph-name="glyph91" 
d="M188 166q0 -27 -19.5 -47t-47.5 -20q-29 0 -48 20t-19 47q0 28 19 48t48 20q27 0 47 -20t20 -48z" />
    <glyph glyph-name="glyph92" 
d="M188 166q0 -27 -19.5 -47t-47.5 -20q-29 0 -48 20t-19 47q0 28 19 48t48 20q27 0 47 -20t20 -48z" />
    <glyph glyph-name="glyph93" 
d="M188 166q0 -27 -19.5 -47t-47.5 -20q-29 0 -48 20t-19 47q0 28 19 48t48 20q27 0 47 -20t20 -48z" />
    <glyph glyph-name="glyph94" 
d="M188 166q0 -27 -19.5 -47t-47.5 -20q-29 0 -48 20t-19 47q0 28 19 48t48 20q27 0 47 -20t20 -48z" />
    <glyph glyph-name="mal_vocalic_rr" unicode="&#xd60;" horiz-adv-x="634" 
d="M596 -30q0 -67 -71.5 -103.5t-206.5 -36.5t-207.5 37t-72.5 103q0 89 112 110v2q-112 36 -112 170q0 34 9.5 64.5t27.5 53.5t43 37t57 14q24 0 44 -9t34.5 -24.5t22.5 -36.5t8 -45q0 -29 -8.5 -51.5t-23 -38t-34 -24t-41.5 -8.5q-61 0 -95 58h-2q0 -78 55.5 -112.5
t182.5 -34.5q125 0 180.5 34.5t55.5 112.5h-2q-34 -58 -95 -58q-48 0 -77.5 34t-29.5 88q0 24 8 45t22.5 36.5t34.5 24.5t44 9q30 0 55 -13.5t43.5 -36.5t28.5 -54t10 -65q0 -134 -112 -170v-2q112 -21 112 -110zM528 303q0 32 -19 55t-43 23q-23 0 -38.5 -21.5t-15.5 -53.5
q0 -39 16.5 -60.5t41.5 -21.5q24 0 41 22.5t17 56.5zM222 306q0 32 -15.5 53.5t-38.5 21.5q-24 0 -43 -23t-19 -55q0 -34 17 -56.5t41 -22.5q25 0 41.5 21.5t16.5 60.5zM524 -31q0 21 -15 38.5t-42 30t-65 19t-84 6.5q-100 0 -154 -27t-54 -67q0 -21 15 -39.5t42.5 -31.5
t65.5 -20.5t85 -7.5q46 0 84 7.5t65 20.5t42 31t15 40zM429 -44q0 -19 -13.5 -32.5t-32.5 -13.5t-32.5 13.5t-13.5 32.5t13.5 32.5t32.5 13.5q18 0 32 -13.5t14 -32.5zM277 -43q0 -19 -13.5 -32.5t-32.5 -13.5t-32.5 13.5t-13.5 32.5t13.5 32.5t32.5 13.5t32.5 -13.5
t13.5 -32.5z" />
    <glyph glyph-name="mal_vocalic_ll" unicode="&#xd61;" horiz-adv-x="945" 
d="M905 94q0 -53 -17 -97.5t-48 -76.5t-74 -50t-95 -18q-61 0 -113 23l16 41q28 -12 66 -12q44 0 82.5 18.5t67 50t44.5 72.5t16 86q0 25 -7.5 49t-20 44t-29.5 35.5t-36 22.5q18 -50 18 -93q0 -41 -10.5 -77t-28.5 -63t-43.5 -42.5t-55.5 -15.5q-24 0 -46.5 11.5t-39 32
t-26.5 47.5t-10 58q0 32 10.5 60.5t30.5 51.5t47.5 38t62.5 20q-38 65 -109 65q-20 0 -39 -6t-34 -16.5t-24.5 -24.5t-9.5 -29v-299h-78v252q0 24 -11 45.5t-28.5 37.5t-40 25.5t-46.5 9.5q-76 0 -121.5 -52t-54.5 -137l3 -3q12 20 22.5 33.5t22 21t24.5 10.5t30 3
q24 0 44 -12t35 -31.5t23.5 -43t8.5 -47.5q0 -57 -30.5 -89t-78.5 -32q-30 0 -55 12.5t-42.5 35.5t-27 55t-9.5 70q0 56 17.5 103t49 81.5t75 53.5t95.5 19q24 0 47 -5.5t43.5 -15.5t37 -24t26.5 -31q49 76 133 76q115 0 175 -107q37 -8 68 -27.5t52.5 -48t33.5 -65.5
t12 -79zM703 176q0 54 -23 105q-60 -7 -94.5 -41.5t-34.5 -88.5q0 -20 6.5 -38t17 -32.5t23.5 -23t27 -8.5q32 0 55 35.5t23 91.5zM221 118q0 33 -18 57.5t-47 24.5q-31 0 -50.5 -21.5t-19.5 -54.5q0 -15 5.5 -29.5t15 -26t21.5 -18.5t26 -7q15 0 27 6.5t21 17t14 24t5 27.5
z" />
    <glyph glyph-name="mal__singh_vocalic_l" unicode="&#xd62;" horiz-adv-x="14" 
d="M-26 -154q-3 22 -14.5 44.5t-28.5 40.5t-38 29.5t-42 11.5q-23 0 -39 -12.5t-16 -35.5v-195h-50v183q0 23 -21 39t-55 16q-48 0 -77.5 -33t-35.5 -88l2 -2q16 26 28.5 35t35.5 9q15 0 28 -8t23 -20t15.5 -27.5t5.5 -30.5q0 -38 -19.5 -58t-50.5 -20q-40 0 -64 30.5
t-24 80.5q0 36 11.5 66.5t32.5 53t49.5 35t62.5 12.5q64 0 93 -48q8 17 31 32.5t49 15.5q27 0 50 -12.5t39.5 -34t25.5 -50t9 -61.5q0 -54 -24.5 -87t-63.5 -33q-32 0 -51 20t-19 58q0 15 5.5 30.5t15 28t23 20t28.5 7.5q21 0 34 -9t29 -35zM-42 -191q0 22 -12.5 36
t-32.5 14q-19 0 -30.5 -16t-11.5 -38q0 -18 12 -33t31 -15t31.5 17.5t12.5 34.5zM-346 -195q0 22 -11 38t-30 16q-20 0 -33 -14t-13 -36q0 -20 14 -36t31 -16q19 0 30.5 15t11.5 33z" />
    <glyph glyph-name="mal__singh_vocalic_ll" unicode="&#xd63;" horiz-adv-x="11" 
d="M-14 -220q0 -34 -11 -62.5t-31 -49t-48 -32t-62 -11.5q-20 0 -38.5 3t-35.5 11l11 27q9 -5 20 -6.5t23 -1.5q28 0 53 12t43.5 32t29 47t10.5 56q0 32 -18 60t-43 38q12 -33 12 -61q0 -26 -6.5 -49.5t-18.5 -40.5t-28.5 -27t-35.5 -10q-32 0 -55.5 27.5t-23.5 68.5
q0 42 26.5 73t71.5 37q-24 42 -71 42q-12 0 -24.5 -4t-22.5 -11t-16 -16t-6 -19v-193h-51v164q0 15 -7 29t-18.5 24t-26.5 16t-30 6q-49 0 -78.5 -33.5t-35.5 -88.5l2 -2q16 26 29 35t36 9q15 0 28 -8t22.5 -20t15 -27.5t5.5 -30.5q0 -38 -19.5 -58t-51.5 -20
q-39 0 -62.5 30.5t-23.5 80.5q0 36 11.5 66.5t31.5 53t48.5 35t62.5 12.5q30 0 58 -13.5t41 -36.5q33 50 86 50q74 0 114 -70q49 -10 78.5 -48.5t29.5 -94.5zM-146 -166q0 34 -14 68q-38 -5 -61 -27t-23 -57q0 -13 4.5 -25t11 -21.5t15 -15t17.5 -5.5q21 0 35.5 23.5
t14.5 59.5zM-458 -204q0 22 -11.5 38t-30.5 16q-20 0 -32.5 -14t-12.5 -36q0 -20 13 -36t31 -16q19 0 31 15t12 33z" />
    <glyph glyph-name="glyph99" 
d="M188 166q0 -27 -19.5 -47t-47.5 -20q-29 0 -48 20t-19 47q0 28 19 48t48 20q27 0 47 -20t20 -48z" />
    <glyph glyph-name="glyph100" 
d="M188 166q0 -27 -19.5 -47t-47.5 -20q-29 0 -48 20t-19 47q0 28 19 48t48 20q27 0 47 -20t20 -48z" />
    <glyph glyph-name="mal_zero" unicode="&#xd66;" horiz-adv-x="502" 
d="M464 204q0 -43 -16.5 -81.5t-45.5 -68t-68.5 -46.5t-85.5 -17q-44 0 -82 15.5t-66.5 43t-45 65t-16.5 82.5q0 48 15.5 89t43.5 71t65 47t81 17q48 0 89 -17t70 -46.5t45.5 -69t16.5 -84.5zM386 201q0 32 -12.5 61.5t-34.5 52t-50.5 35.5t-61.5 13t-62 -12.5t-50.5 -33.5
t-34 -49.5t-12.5 -60.5q0 -33 13 -63t35 -52.5t51 -35.5t61 -13t60.5 12.5t50.5 34.5t34.5 50.5t12.5 60.5z" />
    <glyph glyph-name="mal_one" unicode="&#xd67;" horiz-adv-x="647" 
d="M226 32v212q0 81 51.5 129t139.5 48q42 0 77 -14t60 -40t39 -63t14 -83v-221h-455q-64 0 -64 -48q0 -34 44 -34h472v-78h-463q-101 0 -101 100q0 92 102 92h84zM577 32v150q0 187 -142 187q-131 0 -131 -144v-193h273z" />
    <glyph glyph-name="mal_two" unicode="&#xd68;" horiz-adv-x="691" 
d="M651 0h-381v19q101 74 101 166q0 33 -10 62t-28.5 50t-44.5 33.5t-57 12.5q-32 0 -59 -11t-47 -31t-31.5 -48.5t-11.5 -62.5q0 -113 102 -174l-16 -25q-60 38 -94 93t-34 113q0 48 16 89t44.5 71t68.5 47t88 17q39 0 74 -17t61.5 -45.5t41.5 -66.5t15 -79q0 -97 -78 -181
h280v-32z" />
    <glyph glyph-name="mal_three" unicode="&#xd69;" horiz-adv-x="987" 
d="M422 347q7 13 19.5 26.5t29 24t35.5 17t40 6.5q37 0 70 -17t58 -45.5t40 -66t15 -78.5q0 -95 -92 -178l2 -4h301v-32h-389v23q100 82 100 183q0 36 -9.5 66.5t-26.5 53.5t-40.5 36t-50.5 13q-36 0 -60.5 -19.5t-24.5 -54.5v-301h-78v277q0 87 -93 87q-29 0 -56 -13.5
t-48 -36t-33.5 -52.5t-12.5 -64q0 -103 110 -183l-26 -24q-29 22 -52 49t-39.5 55.5t-25.5 57t-9 54.5q0 45 16 84t43 68t61.5 45.5t71.5 16.5q49 0 91.5 -20.5t62.5 -53.5z" />
    <glyph glyph-name="mal_four" unicode="&#xd6a;" horiz-adv-x="502" 
d="M464 189q0 -41 -10.5 -77t-28.5 -63t-43.5 -42.5t-55.5 -15.5q-24 0 -46.5 11.5t-39 32t-26.5 47.5t-10 58q0 122 105 208q-18 15 -59 15q-35 0 -66 -15.5t-54 -41t-36.5 -58t-13.5 -66.5q0 -106 91 -176l-21 -21q-24 18 -44.5 43t-35.5 52.5t-23.5 57t-8.5 56.5
q0 47 16 88.5t44.5 72t68 48.5t86.5 18q54 0 95 -27q21 22 21 53q0 14 -5.5 27t-16 23.5t-25 17t-32.5 6.5q-43 0 -79 -40l-23 14q18 35 53 59.5t77 24.5q48 0 73.5 -28t25.5 -76q0 -44 -41 -97q88 -79 88 -189zM392 176q0 22 -4.5 45t-12.5 44t-18 37.5t-21 25.5
q-96 -78 -96 -172q0 -21 6.5 -40t17 -34t23.5 -24t27 -9q32 0 55 35.5t23 91.5z" />
    <glyph glyph-name="mal_five" unicode="&#xd6b;" horiz-adv-x="540" 
d="M502 202q0 -91 -42 -164l-43 31q27 61 27 125q0 96 -48 150.5t-135 54.5q-36 0 -65.5 -13.5t-51.5 -36.5t-34 -54.5t-12 -68.5q0 -78 39.5 -126t117.5 -48q35 0 58.5 16.5t23.5 42.5q0 29 -15 40.5t-59 11.5v59q59 0 59 40q0 31 -44 31q-48 0 -48 -48v-135h-59v140
q0 45 29.5 74t74.5 29q21 0 39.5 -7t33 -19t23 -29t8.5 -36q0 -40 -27 -61q45 -24 45 -81q0 -29 -11.5 -52.5t-31 -40t-45.5 -25.5t-54 -9q-51 0 -91.5 17t-68 47.5t-42.5 72.5t-15 92q0 49 17 92t47 75t71 50.5t88 18.5q54 0 98.5 -20t76 -54.5t49 -81t17.5 -100.5z" />
    <glyph glyph-name="mal_six" unicode="&#xd6c;" horiz-adv-x="1036" 
d="M421 348q45 73 127 73q100 0 144 -68q17 31 51.5 49.5t74.5 18.5q180 0 180 -264q0 -46 -16 -90.5t-44.5 -83.5t-69 -70t-89.5 -50q-78 -30 -193 -30q-167 0 -288 64l24 30q73 -51 212 -51q84 0 154.5 20t122 56.5t80.5 88t29 114.5q0 220 -122 220q-37 0 -62.5 -22
t-25.5 -54v-299h-78v259q0 25 -8.5 45.5t-23.5 35t-34.5 22t-40.5 7.5q-37 0 -62 -19.5t-25 -47.5v-302h-78v278q0 37 -27 62t-76 25q-27 0 -52 -13t-44.5 -36t-31.5 -53.5t-12 -64.5q0 -103 110 -183l-26 -24q-29 22 -52 49t-39.5 55.5t-25.5 57t-9 54.5q0 45 15 84t40 68
t58 45.5t69 16.5q25 0 50.5 -5.5t47.5 -15t39.5 -23t26.5 -29.5z" />
    <glyph glyph-name="mal_seven" unicode="&#xd6d;" horiz-adv-x="510" 
d="M38 210q0 118 117 219l46 -21q-85 -73 -85 -182q0 -39 13 -72t35 -57t50.5 -38t59.5 -14q34 0 62.5 14t50.5 39.5t36 59.5t19 75l-3 3q-12 -21 -23 -34.5t-22.5 -21t-24.5 -10t-29 -2.5q-23 0 -43.5 12t-35.5 31t-23.5 43t-8.5 48q0 57 30.5 89t78.5 32q30 0 55 -12.5
t42.5 -35.5t27 -55t9.5 -70q0 -53 -16.5 -100t-45 -82t-68 -55t-84.5 -20t-85 18t-70 48t-47.5 69t-17.5 82zM291 296q0 -33 18 -57.5t47 -24.5q31 0 50.5 21.5t19.5 54.5q0 13 -5.5 27.5t-14.5 26.5t-21.5 19.5t-26.5 7.5q-15 0 -27.5 -7t-21.5 -17.5t-13.5 -24t-4.5 -26.5
z" />
    <glyph glyph-name="mal_eight" unicode="&#xd6e;" horiz-adv-x="691" 
d="M243 -112q82 -25 152 -25q41 0 74 10.5t56 29t35.5 43.5t12.5 54h-303v19q101 74 101 166q0 33 -10 62t-28.5 50t-44.5 33.5t-57 12.5q-32 0 -59 -11t-47 -31t-31.5 -48.5t-11.5 -62.5q0 -113 102 -174l-16 -25q-60 38 -94 93t-34 113q0 48 16 89t44.5 71t68.5 47t88 17
q39 0 74 -17t61.5 -45.5t41.5 -66.5t15 -79q0 -97 -78 -181h202v382h78v-414q0 -85 -53 -136t-150 -51q-88 0 -215 47z" />
    <glyph glyph-name="mal_nine" unicode="&#xd6f;" horiz-adv-x="733" 
d="M695 183q0 -40 -11.5 -75t-30.5 -61t-44.5 -41t-52.5 -15q-33 0 -52.5 16.5t-27.5 44t-6 64t11.5 76.5t26.5 80.5t38 77.5q-3 5 -12 9.5t-21.5 8t-26.5 5.5t-27 2q-39 0 -63.5 -21t-24.5 -52v-302h-78v259q0 48 -21 76t-53 28q-28 0 -53 -13t-44 -35.5t-30.5 -52.5
t-11.5 -64q0 -103 110 -183l-26 -24q-29 22 -52 49t-39.5 55.5t-25.5 57t-9 54.5q0 45 15 84t40 68t58 45.5t69 16.5q96 0 133 -70q46 70 126 70q53 0 92 -17q18 50 38 96.5t42 94.5l40 -3q-21 -43 -43 -95t-41 -115q19 -14 35 -36.5t28 -49.5t18.5 -56t6.5 -57zM623 178
q0 49 -11.5 86t-37.5 65q-26 -45 -44 -94.5t-24 -91t2 -68t35 -26.5q34 0 57 36t23 93z" />
    <glyph glyph-name="mal_ten" unicode="&#xd70;" horiz-adv-x="936" 
d="M288 414h78v-278q15 -44 45 -71.5t66 -27.5t62 19.5t26 53.5v304h78v-259q0 -106 74 -106q27 0 52 13.5t44.5 36t31 53t11.5 64.5q0 104 -110 181l26 24q28 -21 51.5 -47.5t40 -54.5t25.5 -57t9 -55q0 -47 -15 -86.5t-40.5 -68t-58 -45t-68.5 -16.5q-94 0 -133 70
q-46 -70 -126 -70q-52 0 -93 29q-4 -44 -19 -78.5t-39 -59t-55.5 -37.5t-67.5 -13q-34 0 -70.5 11.5t-74.5 36.5l10 28q63 -24 112 -24q60 0 94 36t34 110v384z" />
    <glyph glyph-name="mal_one_hundred" unicode="&#xd71;" horiz-adv-x="697" 
d="M659 190q0 -62 -15 -123t-48 -109t-86 -78t-130 -30q-22 0 -46 2.5t-50 8.5v48q21 -4 40.5 -5.5t36.5 -1.5q55 0 92.5 15.5t62.5 41.5t38.5 58.5t20 66t7.5 65.5t1 56q0 37 -11 68.5t-28.5 54t-39.5 35t-45 12.5q-37 0 -62.5 -22t-25.5 -54v-299h-78v259q0 48 -21 76
t-53 28q-28 0 -53 -13t-44 -35.5t-30.5 -52.5t-11.5 -64q0 -103 110 -183l-26 -24q-29 22 -52 49t-39.5 55.5t-25.5 57t-9 54.5q0 45 15 84t40 68t58 45.5t69 16.5q95 0 133 -68q17 31 51.5 49.5t74.5 18.5q37 0 69 -16.5t56 -45.5t38.5 -68t16.5 -84v-17z" />
    <glyph glyph-name="mal_one_thousand" unicode="&#xd72;" horiz-adv-x="1052" 
d="M699 206q0 -44 -7.5 -83.5t-23.5 -68.5t-39.5 -46t-54.5 -17q-22 0 -41.5 11t-34 28.5t-23 40.5t-8.5 47t6 46t21 38.5t40.5 26t65.5 9.5q6 0 11.5 -0.5t11.5 -0.5q-4 26 -16 50.5t-30 44t-40 31.5t-44 12q-33 0 -60.5 -20t-27.5 -56v-299h-78v259q0 51 -22.5 77.5
t-51.5 26.5q-24 0 -48.5 -11.5t-44.5 -32.5t-33 -51.5t-13 -69.5q0 -42 24.5 -90.5t85.5 -92.5l-26 -24q-26 21 -49 46.5t-40 53.5t-27 57.5t-10 58.5q0 54 17.5 94.5t44.5 67t59 39.5t61 13q51 0 83.5 -18.5t49.5 -49.5q17 32 52 50t74 18q36 0 67 -16t55 -42t40 -58.5
t21 -66.5h86q0 5 -0.5 9t-0.5 9q0 41 9 75t25.5 58.5t40 38t51.5 13.5q22 0 41.5 -9t34 -24.5t23 -36.5t8.5 -45q0 -28 -7 -50t-24.5 -37.5t-47.5 -24t-77 -8.5h-159zM564 49q29 0 46 32.5t17 99.5v25q-7 0 -13 0.5t-11 0.5q-53 0 -76.5 -19.5t-23.5 -63.5q0 -31 16.5 -53
t44.5 -22zM917 383q-29 0 -46 -27t-17 -93v-25q6 -1 12.5 -1h11.5q53 0 76.5 19.5t23.5 63.5q0 31 -16.5 47t-44.5 16z" />
    <glyph glyph-name="mal_one_quarter" unicode="&#xd73;" horiz-adv-x="655" 
d="M617 427v-78h-433q-110 0 -110 -82q0 -8 5 -26h2q17 68 79 68q15 0 28 -6t23.5 -16.5t16.5 -24t6 -28.5q0 -35 -23.5 -58.5t-57.5 -23.5q-23 0 -44 11t-36.5 30t-25 44.5t-9.5 54.5q0 63 33 99t93 36h453zM154 279q-23 0 -39.5 -21t-16.5 -51q21 -25 56 -25q21 0 34.5 13
t13.5 33q0 22 -14 36.5t-34 14.5z" />
    <glyph glyph-name="mal_one_half" unicode="&#xd74;" horiz-adv-x="613" 
d="M270 380q-42 -2 -77 -17.5t-61.5 -41.5t-43 -62t-20.5 -78l3 -3q12 20 22.5 33.5t22 21t24.5 10.5t30 3q24 0 44 -12t35 -31.5t23.5 -43t8.5 -47.5q0 -57 -30.5 -89t-78.5 -32q-30 0 -55 12.5t-42.5 35.5t-27 55t-9.5 70q0 58 18.5 106t51.5 82t78.5 52.5t99.5 18.5
q50 0 96.5 -13.5t74.5 -35.5q28 34 28 73q0 14 -5.5 27t-16 23.5t-25 17t-32.5 6.5q-43 0 -79 -40l-23 14q18 35 53 59.5t77 24.5q48 0 73.5 -28t25.5 -76q0 -46 -53 -120q19 -16 36.5 -39.5t30.5 -50t20.5 -53.5t7.5 -51q0 -32 -10.5 -62.5t-28 -54.5t-41 -38.5
t-48.5 -14.5q-29 0 -52 10.5t-39.5 28.5t-25.5 42.5t-9 51.5q0 112 99 210q-24 25 -59 35.5t-74 10.5h-17zM503 157q0 19 -5.5 42.5t-14.5 45.5t-20.5 40t-23.5 27q-16 -14 -30.5 -34.5t-26 -43.5t-18.5 -46.5t-7 -43.5q0 -42 19 -68.5t45 -26.5q16 0 31 7.5t26 22t18 34.5
t7 44zM219 118q0 33 -18 57.5t-47 24.5q-31 0 -50.5 -21.5t-19.5 -54.5q0 -15 5.5 -29.5t15 -26t21.5 -18.5t26 -7q15 0 27 6.5t21 17t14 24t5 27.5z" />
    <glyph glyph-name="mal_three_quarters" unicode="&#xd75;" horiz-adv-x="798" 
d="M219 118q0 33 -18 57.5t-47 24.5q-31 0 -50.5 -21.5t-19.5 -54.5q0 -15 5.5 -29.5t15 -26t21.5 -18.5t26 -7q15 0 27 6.5t21 17t14 24t5 27.5zM524 375q-36 0 -61 -19.5t-25 -54.5v-301h-78v282q0 18 -8.5 33.5t-24 27.5t-37 19t-46.5 7q-76 0 -121.5 -51.5t-54.5 -136.5
l3 -3q12 20 22.5 33.5t22 21t24.5 10.5t30 3q24 0 44 -12t35 -31.5t23.5 -43t8.5 -47.5q0 -57 -30.5 -89t-78.5 -32q-30 0 -55 12.5t-42.5 35.5t-27 55t-9.5 70q0 56 18 103t49.5 81.5t75.5 53.5t96 19q99 0 144 -74q7 13 19.5 26.5t29 24t35.5 17t40 6.5q62 0 102 -22
q13 19 13 48q0 14 -5.5 27t-16 23.5t-25 17t-32.5 6.5q-43 0 -79 -40l-23 14q18 35 53 59.5t77 24.5q48 0 73.5 -28t25.5 -76q0 -44 -36 -93q19 -14 35 -36.5t28 -49.5t18.5 -56t6.5 -57q0 -40 -11.5 -75t-30.5 -61t-44.5 -41t-52.5 -15q-24 0 -45 11t-37.5 29.5t-26 43
t-9.5 52.5q0 122 108 223q-3 5 -12 9.5t-21.5 8t-26.5 5.5t-27 2zM688 178q0 98 -52 153q-19 -15 -36.5 -37.5t-31 -48t-21.5 -51.5t-8 -48q0 -42 20 -69.5t49 -27.5q34 0 57 36t23 93z" />
    <glyph glyph-name="glyph163" 
d="M188 166q0 -27 -19.5 -47t-47.5 -20q-29 0 -48 20t-19 47q0 28 19 48t48 20q27 0 47 -20t20 -48z" />
    <glyph glyph-name="glyph164" 
d="M188 166q0 -27 -19.5 -47t-47.5 -20q-29 0 -48 20t-19 47q0 28 19 48t48 20q27 0 47 -20t20 -48z" />
    <glyph glyph-name="glyph165" 
d="M188 166q0 -27 -19.5 -47t-47.5 -20q-29 0 -48 20t-19 47q0 28 19 48t48 20q27 0 47 -20t20 -48z" />
    <glyph glyph-name="mal_date_mark" unicode="&#xd79;" horiz-adv-x="750" 
d="M699 206v-19q0 -41 -9 -76.5t-25.5 -62t-39.5 -42t-51 -15.5q-22 0 -41.5 11t-34 28.5t-23 40.5t-8.5 47t6 46t21 38.5t40.5 26t65.5 9.5q6 0 11.5 -0.5t11.5 -0.5q-4 26 -16 50.5t-30 44t-40 31.5t-44 12q-33 0 -60.5 -20t-27.5 -56v-299h-78v259q0 51 -22.5 77.5
t-51.5 26.5q-24 0 -48.5 -11.5t-44.5 -32.5t-33 -51.5t-13 -69.5q0 -42 24.5 -90.5t85.5 -92.5l-26 -24q-26 21 -49 46.5t-40 53.5t-27 57.5t-10 58.5q0 54 17.5 94.5t44.5 67t59 39.5t61 13q51 0 83.5 -18.5t49.5 -49.5q17 32 52 50t74 18q36 0 67 -16t55 -42t40 -58.5
t21 -66.5h51v-32h-48zM564 49q26 0 44.5 28.5t18.5 88.5v40q-7 0 -13 0.5t-11 0.5q-53 0 -76.5 -19.5t-23.5 -63.5q0 -31 16.5 -53t44.5 -22z" />
    <glyph glyph-name="mal_chillu_nn" unicode="&#xd7a;" horiz-adv-x="1072" 
d="M1034 183q0 -40 -11.5 -75t-30.5 -61t-44.5 -41t-52.5 -15q-24 0 -45 11t-37.5 29.5t-26 43t-9.5 52.5q0 122 108 223q-3 5 -12 9.5t-21.5 8t-26.5 5.5t-27 2q-39 0 -63.5 -21t-24.5 -52v-302h-78v260q0 25 -8.5 45.5t-23.5 35t-34.5 22t-40.5 7.5q-38 0 -62.5 -20
t-24.5 -48v-302h-78v282q0 18 -8.5 33.5t-24 27.5t-37 19t-46.5 7q-76 0 -121.5 -51.5t-54.5 -136.5l3 -3q12 20 22.5 33.5t22 21t24.5 10.5t30 3q24 0 44 -12t35 -31.5t23.5 -43t8.5 -47.5q0 -57 -30.5 -89t-78.5 -32q-30 0 -55 12.5t-42.5 35.5t-27 55t-9.5 70
q0 56 18 103t49.5 81.5t75.5 53.5t96 19q101 0 144 -73q45 73 127 73q114 0 144 -70q46 70 126 70q63 0 103 -22q13 19 13 48q0 14 -5.5 27t-16 23.5t-25 17t-32.5 6.5q-43 0 -79 -40l-23 14q18 35 53 59.5t77 24.5q48 0 73.5 -28t25.5 -76q0 -44 -36 -93q19 -14 35 -36.5
t28 -49.5t18.5 -56t6.5 -57zM962 178q0 98 -52 153q-19 -15 -36.5 -37.5t-31 -48t-21.5 -51.5t-8 -48q0 -42 20 -69.5t49 -27.5q34 0 57 36t23 93zM219 118q0 33 -18 57.5t-47 24.5q-31 0 -50.5 -21.5t-19.5 -54.5q0 -15 5.5 -29.5t15 -26t21.5 -18.5t26 -7q15 0 27 6.5
t21 17t14 24t5 27.5z" />
    <glyph glyph-name="mal_chillu_n" unicode="&#xd7b;" horiz-adv-x="733" 
d="M695 183q0 -40 -11.5 -75t-30.5 -61t-44.5 -41t-52.5 -15q-24 0 -45 11t-37.5 29.5t-26 43t-9.5 52.5q0 122 108 223q-3 5 -12 9.5t-21.5 8t-26.5 5.5t-27 2q-39 0 -63.5 -21t-24.5 -52v-302h-78v259q0 48 -21 76t-53 28q-28 0 -53 -13t-44 -35.5t-30.5 -52.5t-11.5 -64
q0 -103 110 -183l-26 -24q-29 22 -52 49t-39.5 55.5t-25.5 57t-9 54.5q0 45 15 84t40 68t58 45.5t69 16.5q96 0 133 -70q46 70 126 70q63 0 103 -22q13 19 13 48q0 14 -5.5 27t-16 23.5t-25 17t-32.5 6.5q-43 0 -79 -40l-23 14q18 35 53 59.5t77 24.5q48 0 73.5 -28
t25.5 -76q0 -44 -36 -93q19 -14 35 -36.5t28 -49.5t18.5 -56t6.5 -57zM623 178q0 98 -52 153q-19 -15 -36.5 -37.5t-31 -48t-21.5 -51.5t-8 -48q0 -42 20 -69.5t49 -27.5q34 0 57 36t23 93z" />
    <glyph glyph-name="mal_chillu_rr" unicode="&#xd7c;" horiz-adv-x="502" 
d="M464 189q0 -41 -10.5 -77t-28.5 -63t-43.5 -42.5t-55.5 -15.5q-24 0 -46.5 11.5t-39 32t-26.5 47.5t-10 58q0 122 105 208q-18 15 -59 15q-35 0 -66 -15.5t-54 -41t-36.5 -58t-13.5 -66.5q0 -106 91 -176l-21 -21q-24 18 -44.5 43t-35.5 52.5t-23.5 57t-8.5 56.5
q0 47 16 88.5t44.5 72t68 48.5t86.5 18q54 0 95 -27q21 22 21 53q0 14 -5.5 27t-16 23.5t-25 17t-32.5 6.5q-43 0 -79 -40l-23 14q18 35 53 59.5t77 24.5q48 0 73.5 -28t25.5 -76q0 -44 -41 -97q88 -79 88 -189zM392 176q0 22 -4.5 45t-12.5 44t-18 37.5t-21 25.5
q-96 -78 -96 -172q0 -21 6.5 -40t17 -34t23.5 -24t27 -9q32 0 55 35.5t23 91.5z" />
    <glyph glyph-name="mal_chillu_l" unicode="&#xd7d;" horiz-adv-x="814" 
d="M776 161q0 -32 -10.5 -62.5t-28 -54.5t-41 -38.5t-48.5 -14.5q-29 0 -52 10.5t-39.5 28.5t-25.5 42.5t-9 51.5q0 112 99 210q-52 55 -140 55q-66 0 -103 -17q105 -87 105 -203q0 -36 -10.5 -68t-29.5 -56.5t-45.5 -39t-57.5 -14.5q-27 0 -51 14t-42 37.5t-28.5 55
t-10.5 66.5q0 26 7.5 53.5t21 53.5t31 48.5t38.5 38.5q-24 11 -65 11q-30 0 -59 -14.5t-51.5 -38.5t-36.5 -55t-14 -63q0 -123 89 -191l-31 -16q-100 81 -100 220q0 43 15.5 81t42.5 66.5t64 45.5t81 17q59 0 109 -29q53 29 147 29q102 0 161 -47q28 34 28 73q0 14 -5.5 27
t-16 23.5t-25 17t-32.5 6.5q-43 0 -79 -40l-23 14q18 35 53 59.5t77 24.5q48 0 73.5 -28t25.5 -76q0 -46 -53 -120q19 -16 36.5 -39.5t30.5 -50t20.5 -53.5t7.5 -51zM704 157q0 19 -5.5 42.5t-14.5 45.5t-20.5 40t-23.5 27q-16 -14 -30.5 -34.5t-26 -43.5t-18.5 -46.5
t-7 -43.5q0 -42 19 -68.5t45 -26.5q16 0 31 7.5t26 22t18 34.5t7 44zM415 170q0 103 -82 173q-95 -77 -95 -180q0 -22 7 -42.5t19 -36.5t28.5 -25.5t34.5 -9.5q19 0 35 9.5t28 26t18.5 38.5t6.5 47z" />
    <glyph glyph-name="mal_chillu_ll" unicode="&#xd7e;" horiz-adv-x="738" 
d="M700 189q0 -41 -10.5 -77t-28.5 -63t-43.5 -42.5t-55.5 -15.5q-24 0 -46.5 11.5t-39 32t-26.5 47.5t-10 58q0 124 113 214q-32 27 -82 27q-52 0 -81.5 -42.5t-29.5 -117.5v-60q0 -36 -12 -67t-32 -54t-46.5 -36t-55.5 -13q-36 0 -68 16.5t-56 44.5t-38 64.5t-14 77.5
q0 32 10.5 65.5t28.5 63.5t42.5 55.5t53.5 42.5l20 -24q-113 -81 -113 -197q0 -30 10 -57.5t27 -48t40 -33t49 -12.5q40 0 63 37.5t23 103.5v67q0 37 12.5 67t35 51.5t53 33.5t66.5 12q73 0 126 -32q18 25 18 58q0 14 -5.5 27t-16 23.5t-25 17t-32.5 6.5q-43 0 -79 -40
l-23 14q18 35 53 59.5t77 24.5q48 0 73.5 -28t25.5 -76q0 -43 -39 -101q19 -11 35 -31.5t28 -46t18.5 -53.5t6.5 -54zM628 176q0 106 -51 156q-101 -83 -101 -176q0 -21 6.5 -40t17 -34t23.5 -24t27 -9q32 0 55 35.5t23 91.5z" />
    <glyph glyph-name="mal_chillu_k" unicode="&#xd7f;" horiz-adv-x="854" 
d="M694 237q49 -5 78.5 -38t29.5 -88q0 -24 -9 -45.5t-24 -38t-35 -26.5t-42 -10q-57 0 -84.5 27.5t-27.5 66.5q0 59 55 122h-125q0 -49 -10.5 -88.5t-29.5 -68t-45.5 -44t-58.5 -15.5q-77 0 -114 75q-29 -75 -92 -75q-25 0 -47 10t-39 27.5t-27 42.5t-10 55q0 54 32.5 83.5
t95.5 29.5h64q0 37 9.5 70.5t26.5 58t41.5 39t54.5 14.5q60 0 99 -48.5t47 -133.5h155q26 35 43.5 81t17.5 87q0 36 -18.5 60t-63.5 24q-25 0 -50.5 -12.5t-47.5 -37.5l-23 14q9 18 22 35.5t30 32t37.5 23.5t44.5 9q63 0 90.5 -33.5t27.5 -84.5q0 -48 -21 -101.5t-57 -98.5z
M442 207h-183q-1 -4 -1 -7.5v-6.5v-13q0 -66 24.5 -104.5t63.5 -38.5q45 0 70.5 42t25.5 111v17zM442 239q-4 54 -28.5 92t-65.5 38q-38 0 -63.5 -35t-25.5 -95h183zM229 207h-32q-92 0 -92 -76q0 -18 5 -35t13.5 -30t20.5 -21t26 -8q28 0 43.5 25t15.5 65v80zM734 122
q0 78 -68 84q-22 -29 -35.5 -60.5t-13.5 -57.5q0 -20 10.5 -35t36.5 -15t48 20t22 64z" />
    <glyph glyph-name="glyph174" 
d="M188 166q0 -27 -19.5 -47t-47.5 -20q-29 0 -48 20t-19 47q0 28 19 48t48 20q27 0 47 -20t20 -48z" />
    <glyph glyph-name="glyph175" 
d="M188 166q0 -27 -19.5 -47t-47.5 -20q-29 0 -48 20t-19 47q0 28 19 48t48 20q27 0 47 -20t20 -48z" />
    <glyph glyph-name="glyph130" 
d="M188 166q0 -27 -19.5 -47t-47.5 -20q-29 0 -48 20t-19 47q0 28 19 48t48 20q27 0 47 -20t20 -48z" />
    <glyph glyph-name="non_joiner" unicode="&#x200c;" horiz-adv-x="0" 
 />
    <glyph glyph-name="joiner" unicode="&#x200d;" horiz-adv-x="0" 
 />
    <glyph glyph-name="glyph179" horiz-adv-x="492" 
d="M544 186h-432l-44 46h432z" />
    <glyph glyph-name="glyph212" horiz-adv-x="351" 
d="M326 266h-121v-398h-59v398h-122v49h122v136h59v-136h121v-49z" />
    <glyph glyph-name="glyph213" horiz-adv-x="431" 
d="M398 231h-37v180l-42 -180h-38l-41 180v-180h-38v220h60l38 -170l38 170h60v-220zM176 414h-59v-183h-42v183h-59v37h160v-37z" />
    <glyph glyph-name="dotted_circle" unicode="&#x25cc;" horiz-adv-x="0" 
 />
    <glyph glyph-name="mal_vattu" horiz-adv-x="220" 
d="M247 -109q-32 -13 -67 -13q-75 0 -108.5 44.5t-33.5 144.5q0 29 5.5 77.5t13.5 100t17 98t16 71.5h31q-53 -195 -53 -331q0 -127 114 -127q40 0 76 16z" />
    <glyph glyph-name="mal_lavattu" horiz-adv-x="711" 
d="M712 623q0 -75 -35 -114.5t-92 -39.5q-26 0 -49 9t-40 25t-27 37.5t-10 46.5t3 36h73q-4 -9 -4 -38q0 -26 20 -45t48 -19q35 0 59 27t24 75h30zM626 0h-588v183q0 64 12.5 109.5t36.5 74t58.5 41.5t77.5 13q85 0 136.5 -38.5t64.5 -123.5q4 -33 6 -108h-314v-119h432v382
h78v-414zM394 183q0 57 -10.5 95t-29 61t-44.5 32.5t-57 9.5q-66 0 -101.5 -41.5t-35.5 -105.5v-51h278z" />
    <glyph glyph-name="mal_half_r" horiz-adv-x="502" 
d="M464 189q0 -41 -10.5 -77t-28.5 -63t-43.5 -42.5t-55.5 -15.5q-24 0 -46.5 11.5t-39 32t-26.5 47.5t-10 58q0 122 105 208q-18 15 -59 15q-35 0 -66 -15.5t-54 -41t-36.5 -58t-13.5 -66.5q0 -106 91 -176l-21 -21q-24 18 -44.5 43t-35.5 52.5t-23.5 57t-8.5 56.5
q0 47 16 88.5t44.5 72t68 48.5t86.5 18q54 0 95 -27q21 22 21 53q0 14 -5.5 27t-16 23.5t-25 17t-32.5 6.5q-43 0 -79 -40l-23 14q18 35 53 59.5t77 24.5q48 0 73.5 -28t25.5 -76q0 -44 -41 -97q88 -79 88 -189zM392 176q0 22 -4.5 45t-12.5 44t-18 37.5t-21 25.5
q-96 -78 -96 -172q0 -21 6.5 -40t17 -34t23.5 -24t27 -9q32 0 55 35.5t23 91.5z" />
    <glyph glyph-name="mal_half_t" horiz-adv-x="814" 
d="M776 161q0 -32 -10.5 -62.5t-28 -54.5t-41 -38.5t-48.5 -14.5q-29 0 -52 10.5t-39.5 28.5t-25.5 42.5t-9 51.5q0 112 99 210q-52 55 -140 55q-66 0 -103 -17q105 -87 105 -203q0 -36 -10.5 -68t-29.5 -56.5t-45.5 -39t-57.5 -14.5q-27 0 -51 14t-42 37.5t-28.5 55
t-10.5 66.5q0 26 7.5 53.5t21 53.5t31 48.5t38.5 38.5q-24 11 -65 11q-30 0 -59 -14.5t-51.5 -38.5t-36.5 -55t-14 -63q0 -123 89 -191l-31 -16q-100 81 -100 220q0 43 15.5 81t42.5 66.5t64 45.5t81 17q59 0 109 -29q53 29 147 29q102 0 161 -47q28 34 28 73q0 14 -5.5 27
t-16 23.5t-25 17t-32.5 6.5q-43 0 -79 -40l-23 14q18 35 53 59.5t77 24.5q48 0 73.5 -28t25.5 -76q0 -46 -53 -120q19 -16 36.5 -39.5t30.5 -50t20.5 -53.5t7.5 -51zM704 157q0 19 -5.5 42.5t-14.5 45.5t-20.5 40t-23.5 27q-16 -14 -30.5 -34.5t-26 -43.5t-18.5 -46.5
t-7 -43.5q0 -42 19 -68.5t45 -26.5q16 0 31 7.5t26 22t18 34.5t7 44zM415 170q0 103 -82 173q-95 -77 -95 -180q0 -22 7 -42.5t19 -36.5t28.5 -25.5t34.5 -9.5q19 0 35 9.5t28 26t18.5 38.5t6.5 47z" />
    <glyph glyph-name="mal_half_n" horiz-adv-x="733" 
d="M695 183q0 -40 -11.5 -75t-30.5 -61t-44.5 -41t-52.5 -15q-24 0 -45 11t-37.5 29.5t-26 43t-9.5 52.5q0 122 108 223q-3 5 -12 9.5t-21.5 8t-26.5 5.5t-27 2q-39 0 -63.5 -21t-24.5 -52v-302h-78v259q0 48 -21 76t-53 28q-28 0 -53 -13t-44 -35.5t-30.5 -52.5t-11.5 -64
q0 -103 110 -183l-26 -24q-29 22 -52 49t-39.5 55.5t-25.5 57t-9 54.5q0 45 15 84t40 68t58 45.5t69 16.5q96 0 133 -70q46 70 126 70q63 0 103 -22q13 19 13 48q0 14 -5.5 27t-16 23.5t-25 17t-32.5 6.5q-43 0 -79 -40l-23 14q18 35 53 59.5t77 24.5q48 0 73.5 -28
t25.5 -76q0 -44 -36 -93q19 -14 35 -36.5t28 -49.5t18.5 -56t6.5 -57zM623 178q0 98 -52 153q-19 -15 -36.5 -37.5t-31 -48t-21.5 -51.5t-8 -48q0 -42 20 -69.5t49 -27.5q34 0 57 36t23 93z" />
    <glyph glyph-name="mal_half_nn" horiz-adv-x="1072" 
d="M1034 183q0 -40 -11.5 -75t-30.5 -61t-44.5 -41t-52.5 -15q-24 0 -45 11t-37.5 29.5t-26 43t-9.5 52.5q0 122 108 223q-3 5 -12 9.5t-21.5 8t-26.5 5.5t-27 2q-39 0 -63.5 -21t-24.5 -52v-302h-78v260q0 25 -8.5 45.5t-23.5 35t-34.5 22t-40.5 7.5q-38 0 -62.5 -20
t-24.5 -48v-302h-78v282q0 18 -8.5 33.5t-24 27.5t-37 19t-46.5 7q-76 0 -121.5 -51.5t-54.5 -136.5l3 -3q12 20 22.5 33.5t22 21t24.5 10.5t30 3q24 0 44 -12t35 -31.5t23.5 -43t8.5 -47.5q0 -57 -30.5 -89t-78.5 -32q-30 0 -55 12.5t-42.5 35.5t-27 55t-9.5 70
q0 56 18 103t49.5 81.5t75.5 53.5t96 19q101 0 144 -73q45 73 127 73q114 0 144 -70q46 70 126 70q63 0 103 -22q13 19 13 48q0 14 -5.5 27t-16 23.5t-25 17t-32.5 6.5q-43 0 -79 -40l-23 14q18 35 53 59.5t77 24.5q48 0 73.5 -28t25.5 -76q0 -44 -36 -93q19 -14 35 -36.5
t28 -49.5t18.5 -56t6.5 -57zM962 178q0 98 -52 153q-19 -15 -36.5 -37.5t-31 -48t-21.5 -51.5t-8 -48q0 -42 20 -69.5t49 -27.5q34 0 57 36t23 93zM219 118q0 33 -18 57.5t-47 24.5q-31 0 -50.5 -21.5t-19.5 -54.5q0 -15 5.5 -29.5t15 -26t21.5 -18.5t26 -7q15 0 27 6.5
t21 17t14 24t5 27.5z" />
    <glyph glyph-name="mal_half_ll" horiz-adv-x="738" 
d="M700 189q0 -41 -10.5 -77t-28.5 -63t-43.5 -42.5t-55.5 -15.5q-24 0 -46.5 11.5t-39 32t-26.5 47.5t-10 58q0 124 113 214q-32 27 -82 27q-52 0 -81.5 -42.5t-29.5 -117.5v-60q0 -36 -12 -67t-32 -54t-46.5 -36t-55.5 -13q-36 0 -68 16.5t-56 44.5t-38 64.5t-14 77.5
q0 32 10.5 65.5t28.5 63.5t42.5 55.5t53.5 42.5l20 -24q-113 -81 -113 -197q0 -30 10 -57.5t27 -48t40 -33t49 -12.5q40 0 63 37.5t23 103.5v67q0 37 12.5 67t35 51.5t53 33.5t66.5 12q73 0 126 -32q18 25 18 58q0 14 -5.5 27t-16 23.5t-25 17t-32.5 6.5q-43 0 -79 -40
l-23 14q18 35 53 59.5t77 24.5q48 0 73.5 -28t25.5 -76q0 -43 -39 -101q19 -11 35 -31.5t28 -46t18.5 -53.5t6.5 -54zM628 176q0 106 -51 156q-101 -83 -101 -176q0 -21 6.5 -40t17 -34t23.5 -24t27 -9q32 0 55 35.5t23 91.5z" />
    <glyph glyph-name="mal_half_ll1" horiz-adv-x="838" 
d="M800 175q0 -38 -11.5 -68.5t-31.5 -52.5t-48 -34t-61 -12q-98 0 -145 119q-14 -27 -35.5 -50.5t-47 -40.5t-54 -26.5t-56.5 -9.5q-38 0 -70.5 16t-56 45t-37 70t-14.5 91h34q3 -33 16.5 -62.5t34 -52t46 -35.5t52.5 -13q25 0 46 8t40.5 23.5t39.5 38.5t44 52
q-54 190 -200 190q-98 0 -167 -57l-60 -58q-5 2 -20 26q31 42 57.5 69.5t53 43.5t56 22t66.5 6q48 0 89 -14.5t73.5 -40t54.5 -60.5t31 -77q12 17 28.5 33.5t35 29t37 20.5t34.5 8q72 0 109 -39t37 -108zM735 170q0 48 -25.5 73t-65.5 25q-51 0 -106 -87q1 -22 10 -41
t22.5 -33.5t30 -23t33.5 -8.5q21 0 39.5 8t32 21t21.5 30.5t8 35.5z" />
    <glyph glyph-name="glyph176" 
d="M188 166q0 -27 -19.5 -47t-47.5 -20q-29 0 -48 20t-19 47q0 28 19 48t48 20q27 0 47 -20t20 -48z" />
    <glyph glyph-name="glyph177" 
d="M188 166q0 -27 -19.5 -47t-47.5 -20q-29 0 -48 20t-19 47q0 28 19 48t48 20q27 0 47 -20t20 -48z" />
    <glyph glyph-name="glyph178" horiz-adv-x="10" 
d="M-107 0h54v-113q0 -19 -10.5 -34.5t-26.5 -26.5t-34 -17t-33 -6q-23 0 -45 5t-39 15.5t-28 26t-11 37.5q0 20 11 33.5t26.5 21t33 10.5t31.5 3q27 0 40.5 -4.5t30.5 -15.5v65zM-253 -113q0 -11 7 -19.5t17 -14.5t21.5 -9t20.5 -3q46 0 62.5 14t16.5 31q0 19 -19.5 30
t-43.5 11q-37 0 -59.5 -10t-22.5 -30z" />
    <glyph glyph-name="glyph180" horiz-adv-x="10" 
d="M-3 -226h-533v5l454 221h78zM-79 -38l-311 -152v-4h311v156z" />
    <glyph glyph-name="mal_blwf_la" horiz-adv-x="10" 
d="M-88 10q38 -27 62.5 -68t24.5 -80q0 -27 -9.5 -52t-27 -44.5t-42 -31t-54.5 -11.5q-51 0 -77.5 37t-26.5 102q0 60 -23.5 88t-69.5 28q-32 0 -56 -9.5t-50 -38.5l2 -2q5 2 14.5 5t20.5 3q41 0 70.5 -30.5t29.5 -84.5q0 -29 -9 -49t-22 -32t-27.5 -17t-25.5 -5
q-20 0 -40 8.5t-36 24.5t-25.5 39.5t-9.5 53.5q0 33 13 63t36.5 53t56 36.5t70.5 13.5q65 0 100.5 -37.5t35.5 -105.5q0 -52 18.5 -75t46.5 -23q16 0 30.5 7.5t26 19.5t18 28t6.5 34q0 39 -18.5 75t-53.5 60zM-417 -116q-8 0 -16.5 -0.5t-15.5 -4t-11.5 -11.5t-4.5 -23
q0 -38 19 -62.5t57 -24.5q20 0 33.5 15.5t13.5 38.5q0 35 -21.5 53.5t-53.5 18.5z" />
    <glyph glyph-name="glyph181" horiz-adv-x="10" 
d="M-88 10q38 -27 62.5 -68t24.5 -80q0 -27 -9.5 -52t-27 -44.5t-42 -31t-54.5 -11.5q-51 0 -77.5 37t-26.5 102q0 60 -23.5 88t-69.5 28q-32 0 -56 -9.5t-50 -38.5l2 -2q5 2 14.5 5t20.5 3q41 0 70.5 -30.5t29.5 -84.5q0 -29 -9 -49t-22 -32t-27.5 -17t-25.5 -5
q-20 0 -40 8.5t-36 24.5t-25.5 39.5t-9.5 53.5q0 33 13 63t36.5 53t56 36.5t70.5 13.5q65 0 100.5 -37.5t35.5 -105.5q0 -52 18.5 -75t46.5 -23q16 0 30.5 7.5t26 19.5t18 28t6.5 34q0 39 -18.5 75t-53.5 60zM-417 -116q-8 0 -16.5 -0.5t-15.5 -4t-11.5 -11.5t-4.5 -23
q0 -38 19 -62.5t57 -24.5q20 0 33.5 15.5t13.5 38.5q0 35 -21.5 53.5t-53.5 18.5z" />
    <glyph glyph-name="glyph182" horiz-adv-x="10" 
d="M-113 -197q18 17 30 39.5t12 48.5q0 21 -7.5 40t-20.5 33t-30 22t-36 8q-12 0 -18 -1.5t-11 -3.5q29 -25 41 -53t12 -51q0 -16 -5 -32.5t-14.5 -29.5t-23 -21t-31.5 -8q-13 0 -25 6.5t-21.5 18.5t-15 28.5t-5.5 35.5q0 29 14.5 56t34.5 44q-7 3 -16.5 3.5t-15.5 0.5
q-15 0 -30 -7t-26.5 -19t-19 -27.5t-7.5 -33.5q0 -64 45 -97l-15 -9q-23 19 -37 48t-14 65q0 21 7.5 40.5t21 34.5t32.5 24t43 9q14 0 27.5 -3.5t27.5 -11.5q17 8 30 11.5t29 3.5q26 0 48 -9t38 -25t25 -37.5t9 -45.5q0 -26 -15.5 -53.5t-43.5 -50.5zM-221 -177
q20 0 32 18.5t12 44.5t-9.5 47.5t-31.5 41.5q-26 -21 -37.5 -45t-11.5 -47q0 -29 15.5 -44.5t30.5 -15.5z" />
    <glyph glyph-name="glyph183" horiz-adv-x="259" 
d="M253 -119q0 -21 -7.5 -41t-21.5 -36t-33.5 -25.5t-43.5 -9.5t-43.5 10t-33.5 26.5t-21.5 38t-7.5 44.5t8 44t21.5 36.5t32.5 25t41 9.5q27 0 47.5 -10.5t34 -28t20.5 -39.5t7 -44zM76 -83q14 -17 28.5 -24.5t30.5 -7.5q20 0 35.5 9t28.5 25q-22 43 -61 43
q-23 0 -39 -13.5t-23 -31.5zM136 -141q-14 0 -29.5 7.5t-35.5 24.5q0 -31 19 -53.5t48 -22.5t48 20t19 55q-18 -14 -34.5 -22.5t-34.5 -8.5z" />
    <glyph glyph-name="glyph184" horiz-adv-x="259" 
d="M253 -119q0 -21 -7.5 -41t-21.5 -36t-33.5 -25.5t-43.5 -9.5t-43.5 10t-33.5 26.5t-21.5 38t-7.5 44.5t7.5 44t21 36.5t33 25t42.5 9.5q27 0 47 -10.5t33.5 -28t20.5 -39.5t7 -44zM71 -112q0 -29 18.5 -51t48.5 -22q29 0 48 22t19 51q0 30 -19 52t-48 22q-30 0 -48.5 -22
t-18.5 -52z" />
    <glyph glyph-name="glyph185" horiz-adv-x="233" 
d="M115 602q24 0 45 -9t37 -25t25 -37t9 -45t-9 -45t-24.5 -37t-36.5 -25t-45 -9t-45.5 9t-37 25t-25 37t-9.5 45t9 45t25 37t37 25t45 9zM31 486q0 -35 25 -59.5t60 -24.5t59 24.5t24 59.5t-24.5 59.5t-59.5 24.5t-59.5 -24.5t-24.5 -59.5z" />
    <glyph glyph-name="mal_dummy" horiz-adv-x="355" 
d="M46 0v512h266v-512h-266zM92 46h174v418h-174v-418z" />
    <glyph glyph-name="glyph187" 
d="M188 166q0 -27 -19.5 -47t-47.5 -20q-29 0 -48 20t-19 47q0 28 19 48t48 20q27 0 47 -20t20 -48z" />
    <glyph glyph-name="glyph188" 
d="M188 166q0 -27 -19.5 -47t-47.5 -20q-29 0 -48 20t-19 47q0 28 19 48t48 20q27 0 47 -20t20 -48z" />
    <glyph glyph-name="glyph189" 
d="M188 166q0 -27 -19.5 -47t-47.5 -20q-29 0 -48 20t-19 47q0 28 19 48t48 20q27 0 47 -20t20 -48z" />
    <glyph glyph-name="glyph190" 
d="M188 166q0 -27 -19.5 -47t-47.5 -20q-29 0 -48 20t-19 47q0 28 19 48t48 20q27 0 47 -20t20 -48z" />
    <glyph glyph-name="glyph191" 
d="M188 166q0 -27 -19.5 -47t-47.5 -20q-29 0 -48 20t-19 47q0 28 19 48t48 20q27 0 47 -20t20 -48z" />
    <glyph glyph-name="glyph193" 
d="M188 166q0 -27 -19.5 -47t-47.5 -20q-29 0 -48 20t-19 47q0 28 19 48t48 20q27 0 47 -20t20 -48z" />
    <glyph glyph-name="glyph194" 
d="M188 166q0 -27 -19.5 -47t-47.5 -20q-29 0 -48 20t-19 47q0 28 19 48t48 20q27 0 47 -20t20 -48z" />
    <glyph glyph-name="glyph195" 
d="M188 166q0 -27 -19.5 -47t-47.5 -20q-29 0 -48 20t-19 47q0 28 19 48t48 20q27 0 47 -20t20 -48z" />
    <glyph glyph-name="glyph196" 
d="M188 166q0 -27 -19.5 -47t-47.5 -20q-29 0 -48 20t-19 47q0 28 19 48t48 20q27 0 47 -20t20 -48z" />
    <glyph glyph-name="glyph197" 
d="M188 166q0 -27 -19.5 -47t-47.5 -20q-29 0 -48 20t-19 47q0 28 19 48t48 20q27 0 47 -20t20 -48z" />
    <glyph glyph-name="glyph198" 
d="M188 166q0 -27 -19.5 -47t-47.5 -20q-29 0 -48 20t-19 47q0 28 19 48t48 20q27 0 47 -20t20 -48z" />
    <glyph glyph-name="glyph199" unicode="&#x200a;" horiz-adv-x="0" 
 />
    <glyph glyph-name="rupees" unicode="&#x20a8;" horiz-adv-x="321" 
d="M301 448l-27 -43h-68q16 -21 19 -47h76l-27 -42h-46q-2 -27 -12.5 -49t-28 -38t-40.5 -24.5t-50 -8.5l151 -196h-65q-75 100 -113 147.5t-38 48.5v42q8 -1 17 -2t17 -1q43 0 74 20t32 61h-154l25 42l122 2q-6 21 -29 33t-49 12h-69l25 43h258z" />
    <glyph glyph-name="mal_yavattu" horiz-adv-x="335" 
d="M335 -79q0 -32 -13.5 -58.5t-38 -46.5t-59 -31t-76.5 -11q-69 0 -108.5 27.5t-39.5 72.5q0 26 16.5 45.5t43.5 19.5q8 0 22.5 -2.5t19.5 -2.5q20 0 27.5 9t7.5 38h53l2 -20q0 -59 -74 -59q-32 0 -44 -10.5t-12 -37.5q0 -20 22 -34t53 -14q60 0 95 32t35 92q0 16 -2 28.5
t-9.5 26.5t-21 33t-36.5 47q-71 88 -71 257v92h78v-145q0 -103 60 -188q70 -98 70 -160z" />
    <glyph glyph-name="mal_zerowidth" unicode="&#x200b;" horiz-adv-x="0" 
d="M11 -85h-22v572h22v-572z" />
    <glyph glyph-name="mal_vavattu" horiz-adv-x="214" 
d="M206 0h-168v32h90v382h78v-414z" />
    <glyph glyph-name="mal_ka_halant" horiz-adv-x="749" 
d="M697 111q0 -24 -8.5 -45.5t-23.5 -38t-35 -26.5t-42 -10q-33 0 -59 17l-5 45q21 -15 37 -15q26 0 47 21t21 63q0 85 -81 85h-37q0 -49 -10.5 -88.5t-29.5 -68t-45.5 -44t-58.5 -15.5q-77 0 -114 75q-29 -75 -92 -75q-25 0 -47 10t-39 27.5t-27 42.5t-10 55
q0 54 32.5 83.5t95.5 29.5h64q0 37 9.5 70.5t26.5 58t41.5 39t54.5 14.5q60 0 99 -48.5t47 -133.5h62q57 0 92 -34t35 -94zM443 207h-183q-1 -4 -1 -7.5v-6.5v-13q0 -66 24.5 -104.5t63.5 -38.5q45 0 70.5 42t25.5 111v17zM711 623q0 -75 -34.5 -114.5t-92.5 -39.5
q-26 0 -49 9.5t-40 25.5t-27 37.5t-10 45.5q0 25 3 36h73q-4 -9 -4 -38q0 -26 20.5 -45t47.5 -19q35 0 59 27t24 75h30zM443 239q-4 54 -28.5 92t-65.5 38q-38 0 -63.5 -35t-25.5 -95h183zM230 207h-32q-92 0 -92 -76q0 -18 5 -35t13.5 -30t20.5 -21t26 -8q28 0 43.5 25
t15.5 65v80z" />
    <glyph glyph-name="mal_kha_halant" horiz-adv-x="840" 
d="M840 623q0 -75 -35 -114.5t-92 -39.5q-26 0 -49 9t-40 25t-27 37.5t-10 46.5t3 36h73q-4 -9 -4 -38q0 -26 20 -45t48 -19q35 0 59 27t24 75h30zM753 0h-450v21q91 67 91 167q0 37 -12.5 70t-34 58t-50.5 39t-61 14q-35 0 -64 -14.5t-51 -40t-35.5 -60t-17.5 -73.5l3 -3
q12 20 22.5 33.5t22 21t24.5 10.5t30 3q24 0 44 -12t35 -31.5t23.5 -43t8.5 -47.5q0 -57 -30.5 -89t-78.5 -32q-30 0 -55 12.5t-42.5 35.5t-27 55t-9.5 70q0 52 16.5 99t45 82t67 55.5t83.5 20.5t85.5 -17.5t70.5 -47.5t48 -69.5t18 -82.5q0 -93 -78 -172h281v382h78v-414z
M219 118q0 33 -18 57.5t-47 24.5q-31 0 -50.5 -21.5t-19.5 -54.5q0 -15 5.5 -29.5t15 -26t21.5 -18.5t26 -7q15 0 27 6.5t21 17t14 24t5 27.5z" />
    <glyph glyph-name="mal_ga_halant" horiz-adv-x="663" 
d="M625 623q0 -75 -34.5 -114.5t-92.5 -39.5q-26 0 -49 9.5t-40 25.5t-27 37.5t-10 45.5q0 25 3 36h73q-4 -9 -4 -38q0 -26 20.5 -45t47.5 -19q35 0 59 27t24 75h30zM613 221q0 -34 -10 -68t-27.5 -64.5t-41.5 -56t-51 -41.5l-24 23q112 70 112 194q0 31 -10.5 59.5
t-28 49.5t-39.5 33.5t-46 12.5q-87 0 -87 -145v-57q0 -36 -12 -67t-32 -54t-46.5 -36t-55.5 -13q-36 0 -68 16.5t-56 44.5t-38 64.5t-14 77.5q0 32 10.5 65.5t28.5 63.5t42.5 55.5t53.5 42.5l20 -24q-113 -81 -113 -197q0 -30 10 -57.5t27 -48t40 -33t49 -12.5q40 0 63 37.5
t23 103.5v67q0 36 12 66t33 52t48.5 34t59.5 12q36 0 66.5 -15.5t53 -42.5t35.5 -63.5t13 -78.5z" />
    <glyph glyph-name="mal_gha_halant" horiz-adv-x="1117" 
d="M1117 623q0 -75 -35 -114.5t-92 -39.5q-26 0 -49 9t-40 25t-27 37.5t-10 46.5t3 36h73q-4 -9 -4 -38q0 -26 20.5 -45t47.5 -19q35 0 59 27t24 75h30zM1034 0h-588v151h-233v7q29 17 49 47.5t20 61.5q0 19 -8 36t-21.5 30.5t-31 21.5t-36.5 8q-21 0 -41 -8.5t-35.5 -22.5
t-25 -32t-9.5 -37q0 -52 53 -97l-28 -25q-32 34 -46.5 68.5t-14.5 70.5q0 66 46 103.5t121 37.5q32 0 60.5 -13t49.5 -34t33 -48.5t12 -56.5q0 -49 -33 -86h119q0 64 12.5 109.5t36.5 74t58.5 41.5t77.5 13q85 0 136.5 -38.5t64.5 -123.5q4 -33 6 -108h-314v-119h432v382h78
v-414zM802 183q0 57 -10.5 95t-29 61t-44.5 32.5t-57 9.5q-66 0 -101.5 -41.5t-35.5 -105.5v-51h278z" />
    <glyph glyph-name="mal_nga_halant" horiz-adv-x="794" 
d="M756 623q0 -75 -34.5 -114.5t-92.5 -39.5q-26 0 -49 9t-40 25t-27 37.5t-10 46.5t3 36h73q-4 -9 -4 -38q0 -26 20.5 -45t47.5 -19q35 0 59 27t24 75h30zM744 120q0 -26 -12.5 -49.5t-34.5 -41t-51.5 -28t-63.5 -10.5q-58 0 -77 9l-12 54q41 -23 70 -23q20 0 38.5 6.5
t33 17.5t23 26t8.5 32q0 80 -100 80h-58v32q60 0 96.5 19t36.5 55q0 30 -26 53t-66 23q-23 0 -43.5 -5.5t-35.5 -15.5t-23.5 -23.5t-8.5 -29.5v-301h-78v282q0 18 -8.5 33.5t-24 27.5t-37 19t-46.5 7q-76 0 -121.5 -51.5t-54.5 -136.5l3 -3q12 20 22.5 33.5t22 21t24.5 10.5
t30 3q24 0 44 -12t35 -31.5t23.5 -43t8.5 -47.5q0 -57 -30.5 -89t-78.5 -32q-30 0 -55 12.5t-42.5 35.5t-27 55t-9.5 70q0 56 18 103t49.5 81.5t75.5 53.5t96 19q100 0 143 -73q45 73 146 73q29 0 56.5 -9t49 -24t34.5 -34.5t13 -40.5q0 -69 -61 -100q38 -9 62 -35t24 -58z
M219 118q0 33 -18 57.5t-47 24.5q-31 0 -50.5 -21.5t-19.5 -54.5q0 -15 5.5 -29.5t15 -26t21.5 -18.5t26 -7q15 0 27 6.5t21 17t14 24t5 27.5z" />
    <glyph glyph-name="mal_cha_halant" horiz-adv-x="753" 
d="M754 623q0 -75 -35 -114.5t-92 -39.5q-26 0 -49 9t-40 25t-27 37.5t-10 46.5t3 36h73q-4 -9 -4 -38q0 -26 20 -45t48 -19q35 0 59 27t24 75h30zM671 0h-633v32h190q13 4 26.5 15.5t24 27t17.5 33t7 34.5q0 15 -5.5 29t-15 25.5t-22 18t-27.5 6.5q-32 0 -52.5 -23.5
t-20.5 -57.5q0 -18 8 -32h-40q-10 19 -10 52q0 52 33 85.5t90 33.5q29 0 54.5 -10.5t44.5 -29t30 -42.5t11 -51q0 -61 -47 -114h259v382h78v-414z" />
    <glyph glyph-name="mal_chha_halant" horiz-adv-x="968" 
d="M930 623q0 -75 -35 -114.5t-92 -39.5q-26 0 -49 9t-40 25t-27 37.5t-10 46.5t3 36h73q-4 -9 -4 -38q0 -26 20.5 -45t47.5 -19q35 0 59 27t24 75h30zM916 189q0 -41 -10.5 -77t-28.5 -63t-43.5 -42.5t-55.5 -15.5q-24 0 -46.5 11.5t-39 32t-26.5 47.5t-10 58
q0 122 105 208q-18 15 -59 15q-35 0 -66 -15t-54 -40t-36.5 -57.5t-13.5 -68.5q0 -25 7.5 -51t20 -50t29.5 -43.5t36 -30.5l-1 -7h-586v32h190q13 4 26.5 15.5t24 27t17.5 33t7 34.5q0 15 -5.5 29t-15 25.5t-22 18t-27.5 6.5q-32 0 -52.5 -23.5t-20.5 -57.5q0 -18 8 -32h-40
q-10 19 -10 52q0 52 33 85.5t90 33.5q29 0 54.5 -10.5t44.5 -29t30 -42.5t11 -51q0 -61 -47 -114h214q-58 82 -58 166q0 46 16 86.5t44.5 71t68 48t86.5 17.5q43 0 81 -19t67 -51t46 -74t17 -88zM844 176q0 22 -4.5 45t-12.5 44t-18 37.5t-21 25.5q-96 -78 -96 -172
q0 -21 6.5 -40t17 -34t23.5 -24t27 -9q32 0 55 35.5t23 91.5z" />
    <glyph glyph-name="mal_ja_halant" horiz-adv-x="683" 
d="M645 623q0 -75 -35 -114.5t-92 -39.5q-26 0 -49 9t-40 25t-27 37.5t-10 46.5t3 36h73q-4 -9 -4 -38q0 -26 20 -45t48 -19q35 0 59 27t24 75h30zM632 303q0 -66 -52.5 -103.5t-146.5 -37.5h-164q-137 0 -137 -67q0 -46 63 -46q56 0 134 37q150 70 204 70q39 0 66.5 -24
t27.5 -58q0 -38 -27.5 -60.5t-64.5 -22.5q-38 0 -64 21.5t-26 52.5q0 23 12 40l-2 2q-71 -26 -139 -65q-90 -51 -151 -51q-21 0 -41 6.5t-35.5 18t-25 27t-9.5 33.5q0 122 195 122h170q26 0 50.5 8t43 21.5t30 31t11.5 37.5q0 92 -95 92q-39 0 -61.5 -22.5t-22.5 -59.5v-70
h-78v60q0 45 -29.5 70.5t-77.5 25.5q-57 0 -89 -35l2 -3q14 8 32 8q29 0 51 -21.5t22 -53.5q0 -20 -7 -36t-17.5 -28t-24.5 -18.5t-27 -6.5q-40 0 -67 27t-27 67q0 28 14.5 52.5t38.5 43t54.5 29.5t63.5 11q105 0 150 -51q6 9 19.5 18t31.5 16.5t38 12t39 4.5q27 0 53 -10
t46.5 -27t33 -40t12.5 -48zM572 80q0 20 -10 31t-34 13q-47 -3 -47 -46q0 -18 13.5 -29.5t33.5 -11.5q43 0 44 43zM153 282q0 20 -11 34t-29 14q-17 0 -28 -14t-11 -34q0 -21 11 -34.5t28 -13.5t28.5 13.5t11.5 34.5z" />
    <glyph glyph-name="mal_jha_halant" horiz-adv-x="1189" 
d="M1151 623q0 -75 -35 -114.5t-92 -39.5q-26 0 -49 9t-40 25t-27 37.5t-10 46.5t3 36h73q-4 -9 -4 -38q0 -26 20 -45t48 -19q35 0 59 27t24 75h30zM1136 207q0 -47 -15 -86.5t-40.5 -68t-58 -45t-68.5 -16.5q-94 0 -133 70q-46 -70 -126 -70q-31 0 -57 13t-45 36.5t-30 55
t-12 67.5l-2 86q-2 57 -32 91.5t-81 34.5q-41 0 -54 -7q101 -83 101 -199q0 -36 -10.5 -68t-29.5 -56.5t-45.5 -39t-57.5 -14.5q-27 0 -51 14t-42 37.5t-28.5 55t-10.5 66.5q0 26 7.5 53.5t21 53.5t31 48.5t38.5 38.5q-24 11 -65 11q-30 0 -59 -14.5t-51.5 -38.5t-36.5 -55
t-14 -63q0 -123 89 -191l-31 -16q-100 81 -100 220q0 43 15.5 81t42.5 66.5t64 45.5t81 17q59 0 108 -28q55 28 116 28q66 0 108 -44t44 -119l2 -80q3 -141 96 -141q36 0 62 19.5t26 53.5v304h78v-259q0 -106 74 -106q27 0 52 13.5t44.5 36t31 53t11.5 64.5q0 104 -110 181
l26 24q28 -21 51.5 -47.5t40 -54.5t25.5 -57t9 -55zM415 170q0 103 -82 173q-95 -77 -95 -180q0 -22 7 -42.5t19 -36.5t28.5 -25.5t34.5 -9.5q19 0 35 9.5t28 26t18.5 38.5t6.5 47z" />
    <glyph glyph-name="mal_nya_halant" horiz-adv-x="1056" 
d="M1018 623q0 -75 -35 -114.5t-92 -39.5q-26 0 -49 9t-40 25t-27 37.5t-10 46.5t3 36h73q-4 -9 -4 -38q0 -26 20 -45t48 -19q35 0 59 27t24 75h30zM1004 193q0 -51 -30.5 -104t-84.5 -98l-46 16q83 83 83 174q0 41 -15 77.5t-40.5 63.5t-59 43t-70.5 16q-36 0 -56 -10
q103 -87 103 -202q0 -36 -10.5 -68t-29.5 -56.5t-45.5 -39t-57.5 -14.5q-27 0 -51 14t-42 37.5t-28.5 55t-10.5 66.5q0 26 7.5 53.5t21 53.5t31 48.5t38.5 38.5q-27 11 -65 11q-22 0 -41.5 -7t-34.5 -18.5t-23.5 -27.5t-8.5 -34v-282h-78v282q0 18 -8.5 33.5t-24 27.5
t-37 19t-46.5 7q-76 0 -121.5 -51.5t-54.5 -136.5l3 -3q12 20 22.5 33.5t22 21t24.5 10.5t30 3q24 0 44 -12t35 -31.5t23.5 -43t8.5 -47.5q0 -57 -30.5 -89t-78.5 -32q-30 0 -55 12.5t-42.5 35.5t-27 55t-9.5 70q0 56 18 103t49.5 81.5t75.5 53.5t96 19q100 0 143 -73
q8 15 21.5 28.5t30.5 23.5t36 15.5t38 5.5q59 0 108 -28q55 28 116 28q49 0 92 -18t74.5 -48.5t49.5 -72t18 -89.5zM720 170q0 103 -82 173q-95 -77 -95 -180q0 -22 7 -42.5t19 -36.5t28.5 -25.5t34.5 -9.5q19 0 35 9.5t28 26t18.5 38.5t6.5 47zM219 118q0 33 -18 57.5
t-47 24.5q-31 0 -50.5 -21.5t-19.5 -54.5q0 -15 5.5 -29.5t15 -26t21.5 -18.5t26 -7q15 0 27 6.5t21 17t14 24t5 27.5z" />
    <glyph glyph-name="mal_tta_halant" horiz-adv-x="470" 
d="M432 623q0 -75 -35 -114.5t-92 -39.5q-26 0 -49 9t-40 25t-27 37.5t-10 46.5t3 36h73q-4 -9 -4 -38q0 -26 20.5 -45t47.5 -19q35 0 59 27t24 75h30zM418 137q0 -30 -15.5 -57t-41.5 -46.5t-60.5 -31t-72.5 -11.5q-90 0 -181 58l2 46q94 -58 169 -58q27 0 51 7.5t42 20
t28.5 28t10.5 32.5q0 28 -19 38.5t-76 10.5q-8 0 -20.5 -1t-26.5 -1.5t-27 -1.5t-21 -1q-54 0 -88 29t-34 75q0 31 14 58t38.5 47t59.5 31.5t77 11.5q23 0 49 -5t51 -14t47.5 -21.5t37.5 -26.5l-25 -25q-58 52 -151 52q-29 0 -54 -8t-43 -21.5t-28.5 -31t-10.5 -35.5
q0 -20 19.5 -32t47.5 -12q7 0 21 0.5t29 1.5t27.5 1.5t17.5 0.5q156 0 156 -108z" />
    <glyph glyph-name="mal_ttha_halant" horiz-adv-x="515" 
d="M477 623q0 -75 -35 -114.5t-92 -39.5q-26 0 -49 9t-40 25t-27 37.5t-10 46.5t3 36h73q-4 -9 -4 -38q0 -26 20 -45t48 -19q35 0 59 27t24 75h30zM464 204q0 -43 -16.5 -81.5t-45.5 -68t-68.5 -46.5t-85.5 -17q-44 0 -82 15.5t-66.5 43t-45 65t-16.5 82.5q0 48 15.5 89
t43.5 71t65 47t81 17q48 0 89 -17t70 -46.5t45.5 -69t16.5 -84.5zM386 201q0 32 -12.5 61.5t-34.5 52t-50.5 35.5t-61.5 13t-62 -12.5t-50.5 -33.5t-34 -49.5t-12.5 -60.5q0 -33 13 -63t35 -52.5t51 -35.5t61 -13t60.5 12.5t50.5 34.5t34.5 50.5t12.5 60.5z" />
    <glyph glyph-name="mal_dda_halant" horiz-adv-x="941" 
d="M903 623q0 -75 -35 -114.5t-92 -39.5q-26 0 -49 9t-40 25t-27 37.5t-10 46.5t3 36h73q-4 -9 -4 -38q0 -26 20 -45t48 -19q35 0 59 27t24 75h30zM890 207q0 -47 -15 -86.5t-40.5 -68t-58 -45t-68.5 -16.5q-94 0 -133 70q-46 -70 -126 -70q-35 0 -65 12t-52 34.5t-34 54.5
t-12 71v86q0 52 -21.5 83t-56.5 31q-26 0 -49 -13t-40.5 -35t-28 -52.5t-10.5 -64.5q0 -114 105 -185l-21 -22q-29 16 -52 40t-39.5 52.5t-25.5 60t-9 63.5q0 46 13 85.5t36 68t55.5 44.5t70.5 16q63 0 102 -44t39 -119v-86q0 -135 115 -135q36 0 62 19.5t26 53.5v304h78
v-259q0 -106 74 -106q27 0 52 13.5t44.5 36t31 53t11.5 64.5q0 104 -110 181l26 24q28 -21 51.5 -47.5t40 -54.5t25.5 -57t9 -55z" />
    <glyph glyph-name="mal_ddha_halant" horiz-adv-x="982" 
d="M931 231q0 -54 -14 -98.5t-41 -76t-65.5 -48.5t-87.5 -17q-48 0 -88.5 20t-58.5 52q-45 -72 -132 -72q-34 0 -63 12.5t-50 35t-33 54t-12 70.5v86q0 52 -21.5 83t-56.5 31q-26 0 -49 -13t-40.5 -35t-28 -52.5t-10.5 -64.5q0 -114 105 -185l-21 -22q-29 16 -52 40
t-39.5 52.5t-25.5 60t-9 63.5q0 46 13.5 85.5t37.5 68t56 44.5t68 16q63 0 102 -44t39 -119v-86q0 -135 110 -135q35 0 61.5 21t26.5 55v301h78v-263q0 -24 10 -45t27.5 -36.5t40 -24t47.5 -8.5q70 0 108 52.5t38 145.5l-1 1q-23 -40 -43.5 -54t-53.5 -14q-23 0 -43.5 12
t-35.5 31t-23.5 43t-8.5 48q0 57 30.5 88t78.5 31q63 0 96.5 -50t33.5 -140zM944 623q0 -75 -35 -114.5t-92 -39.5q-26 0 -49 9t-40 25t-27 37.5t-10 46.5t3 36h73q-4 -9 -4 -38q0 -26 20 -45t48 -19q35 0 59 27t24 75h30zM889 289q0 14 -5.5 29t-14.5 28t-21.5 21t-26.5 8
q-31 0 -49 -21.5t-18 -47.5q0 -39 18 -65.5t47 -26.5q30 0 50 22t20 53z" />
    <glyph glyph-name="mal_nna_halant" horiz-adv-x="1050" 
d="M1012 623q0 -75 -35 -114.5t-92 -39.5q-26 0 -49 9t-40 25t-27 37.5t-10 46.5t3 36h73q-4 -9 -4 -38q0 -26 20.5 -45t47.5 -19q35 0 59 27t24 75h30zM998 207q0 -113 -135 -216l-41 19q98 101 98 195q0 37 -10.5 68.5t-28 54t-39.5 35t-44 12.5q-37 0 -62.5 -22
t-25.5 -54v-299h-78v259q0 25 -8.5 45.5t-23.5 35t-34.5 22t-40.5 7.5q-37 0 -62 -19.5t-25 -47.5v-302h-78v282q0 18 -8.5 33.5t-24 27.5t-37 19t-46.5 7q-76 0 -121.5 -51.5t-54.5 -136.5l3 -3q12 20 22.5 33.5t22 21t24.5 10.5t30 3q24 0 44 -12t35 -31.5t23.5 -43
t8.5 -47.5q0 -57 -30.5 -89t-78.5 -32q-30 0 -55 12.5t-42.5 35.5t-27 55t-9.5 70q0 56 18 103t49.5 81.5t75.5 53.5t96 19q101 0 144 -73q45 73 127 73q100 0 144 -68q17 31 51.5 49.5t74.5 18.5q37 0 69.5 -16.5t57 -45.5t39 -68t14.5 -84zM219 118q0 33 -18 57.5
t-47 24.5q-31 0 -50.5 -21.5t-19.5 -54.5q0 -15 5.5 -29.5t15 -26t21.5 -18.5t26 -7q15 0 27 6.5t21 17t14 24t5 27.5z" />
    <glyph glyph-name="mal_ta_halant" horiz-adv-x="751" 
d="M713 623q0 -75 -34.5 -114.5t-92.5 -39.5q-26 0 -49 9.5t-40 25.5t-27 37.5t-10 45.5q0 25 3 36h73q-4 -9 -4 -38q0 -26 20.5 -45t47.5 -19q35 0 59 27t24 75h30zM699 193q0 -51 -30.5 -104t-84.5 -98l-46 16q83 83 83 174q0 41 -15 77.5t-40.5 63.5t-59 43t-70.5 16
t-56 -10q103 -87 103 -202q0 -36 -10.5 -68t-29.5 -56.5t-45.5 -39t-57.5 -14.5q-27 0 -51 14t-42 37.5t-28.5 55t-10.5 66.5q0 26 7.5 53.5t21 53.5t31 48.5t38.5 38.5q-24 11 -65 11q-30 0 -59 -14.5t-51.5 -38.5t-36.5 -55t-14 -63q0 -123 89 -191l-31 -16
q-100 81 -100 220q0 43 15.5 81t42.5 66.5t64 45.5t81 17q59 0 108 -28q55 28 116 28q49 0 92 -18t74.5 -48.5t49.5 -72t18 -89.5zM415 170q0 103 -82 173q-95 -77 -95 -180q0 -22 7 -42.5t19 -36.5t28.5 -25.5t34.5 -9.5q19 0 35 9.5t28 26t18.5 38.5t6.5 47z" />
    <glyph glyph-name="mal_tha_halant" horiz-adv-x="708" 
d="M670 623q0 -75 -35 -114.5t-92 -39.5q-26 0 -49 9t-40 25t-27 37.5t-10 46.5t3 36h73q-4 -9 -4 -38q0 -26 20.5 -45t47.5 -19q35 0 59 27t24 75h30zM652 0h-614v414h78v-382h155v212q0 81 51.5 129t139.5 48q42 0 77 -14t60 -40t39 -63t14 -83v-221zM622 32v150
q0 187 -142 187q-131 0 -131 -144v-193h273z" />
    <glyph glyph-name="mal_da_halant" horiz-adv-x="480" 
d="M442 623q0 -75 -35 -114.5t-92 -39.5q-26 0 -49 9t-40 25t-27 37.5t-10 46.5t3 36h73q-4 -9 -4 -38q0 -26 20 -45t48 -19q35 0 59 27t24 75h30zM428 120q0 -26 -12.5 -49.5t-34.5 -41t-51.5 -28t-63.5 -10.5q-64 0 -77 7l-12 56q41 -23 70 -23q20 0 38.5 6.5t33 17.5
t23 26t8.5 32q0 80 -100 80h-58v32q60 0 96.5 19.5t36.5 56.5q0 30 -26.5 52t-68.5 22q-36 0 -64.5 -15t-49 -42.5t-31.5 -66.5t-11 -87q0 -71 27 -164l-37 -9q-13 54 -19.5 98t-6.5 80q0 58 15.5 104.5t44 79.5t68.5 50.5t88 17.5q30 0 57 -9.5t47.5 -25t32.5 -35t12 -38.5
q0 -69 -61 -100q38 -9 62 -35t24 -58z" />
    <glyph glyph-name="mal_dha_halant" horiz-adv-x="710" 
d="M672 623q0 -75 -34.5 -114.5t-92.5 -39.5q-26 0 -49 9t-40 25t-27 37.5t-10 46.5t3 36h73q-4 -9 -4 -38q0 -26 20.5 -45t47.5 -19q35 0 59 27t24 75h30zM659 207q0 -47 -15 -86.5t-40.5 -68t-58 -45t-68.5 -16.5q-94 0 -133 70q-46 -70 -126 -70q-38 0 -70.5 16.5t-57 45
t-38.5 67.5t-14 83q0 33 7.5 60.5t23.5 53t42 51t62 53.5l41 -19q-98 -104 -98 -197q0 -35 10 -65.5t27 -53t39 -36t46 -13.5q36 0 62 19.5t26 53.5v304h78v-259q0 -106 74 -106q27 0 52 13.5t44.5 36t31 53t11.5 64.5q0 104 -110 181l26 24q28 -21 51.5 -47.5t40 -54.5
t25.5 -57t9 -55z" />
    <glyph glyph-name="mal_na_halant" horiz-adv-x="710" 
d="M672 623q0 -75 -34.5 -114.5t-92.5 -39.5q-26 0 -49 9t-40 25t-27 37.5t-10 46.5t3 36h73q-4 -9 -4 -38q0 -26 20.5 -45t47.5 -19q35 0 59 27t24 75h30zM659 207q0 -113 -135 -216l-41 19q98 101 98 195q0 37 -10.5 68.5t-28 54t-39.5 35t-44 12.5q-37 0 -62.5 -22
t-25.5 -54v-299h-78v259q0 48 -21 76t-53 28q-28 0 -53 -13t-44 -35.5t-30.5 -52.5t-11.5 -64q0 -103 110 -183l-26 -24q-29 22 -52 49t-39.5 55.5t-25.5 57t-9 54.5q0 45 15 84t40 68t58 45.5t69 16.5q95 0 133 -68q17 31 51.5 49.5t74.5 18.5q37 0 69.5 -16.5t57 -45.5
t39 -68t14.5 -84z" />
    <glyph glyph-name="mal_pa_halant" horiz-adv-x="728" 
d="M729 623q0 -75 -35 -114.5t-92 -39.5q-26 0 -49 9t-40 25t-27 37.5t-10 46.5t3 36h73q-4 -9 -4 -38q0 -26 20 -45t48 -19q35 0 59 27t24 75h30zM644 0h-429v7q67 42 67 116q0 42 -26 70t-68 28q-24 0 -43.5 -8.5t-34 -22.5t-22.5 -33.5t-8 -40.5q0 -54 48 -102l-28 -23
q-62 68 -62 143q0 31 12.5 58t34 46t52 30t66.5 11q33 0 62 -12t50 -32.5t33 -48.5t12 -60q0 -55 -33 -94h239v382h78v-414z" />
    <glyph glyph-name="mal_pha_halant" horiz-adv-x="923" 
d="M885 623q0 -75 -35 -114.5t-92 -39.5q-26 0 -49 9t-40 25t-27 37.5t-10 46.5t3 36h73q-4 -9 -4 -38q0 -26 20.5 -45t47.5 -19q35 0 59 27t24 75h30zM869 0h-654v7q67 42 67 116q0 42 -26 70t-68 28q-24 0 -43.5 -8.5t-34 -22.5t-22.5 -33.5t-8 -40.5q0 -54 48 -102
l-28 -23q-62 68 -62 143q0 31 12.5 58t34 46t52 30t66.5 11q33 0 62 -12t50 -32.5t33 -48.5t12 -60q0 -55 -33 -94h161v212q0 81 51.5 129t139.5 48q42 0 77 -14t60 -40t39 -63t14 -83v-221zM839 32v150q0 187 -142 187q-131 0 -131 -144v-193h273z" />
    <glyph glyph-name="mal_ba_halant" horiz-adv-x="1024" 
d="M1023 623q0 -75 -34.5 -114.5t-92.5 -39.5q-26 0 -49 9.5t-40 25.5t-27 37.5t-10 45.5q0 25 3 36h73q-4 -9 -4 -38q0 -26 20.5 -45t47.5 -19q35 0 59 27t24 75h30zM939 0h-389v23q100 82 100 183q0 36 -9.5 66.5t-26.5 53.5t-40.5 36t-50.5 13q-36 0 -60.5 -19.5
t-24.5 -54.5v-301h-78v282q0 18 -8.5 33.5t-24 27.5t-37 19t-46.5 7q-76 0 -121.5 -51.5t-54.5 -136.5l3 -3q12 20 22.5 33.5t22 21t24.5 10.5t30 3q24 0 44 -12t35 -31.5t23.5 -43t8.5 -47.5q0 -57 -30.5 -89t-78.5 -32q-30 0 -55 12.5t-42.5 35.5t-27 55t-9.5 70
q0 56 18 103t49.5 81.5t75.5 53.5t96 19q99 0 144 -74q7 13 19.5 26.5t29 24t35.5 17t40 6.5q37 0 70 -17t58 -45.5t40 -66t15 -78.5q0 -95 -92 -178l2 -4h223v382h78v-414zM219 118q0 33 -18 57.5t-47 24.5q-31 0 -50.5 -21.5t-19.5 -54.5q0 -15 5.5 -29.5t15 -26
t21.5 -18.5t26 -7q15 0 27 6.5t21 17t14 24t5 27.5z" />
    <glyph glyph-name="mal_bha_halant" horiz-adv-x="488" 
d="M450 623q0 -75 -35 -114.5t-92 -39.5q-26 0 -49 9t-40 25t-27 37.5t-10 46.5t3 36h73q-4 -9 -4 -38q0 -26 20 -45t48 -19q35 0 59 27t24 75h30zM436 82q0 -42 -35.5 -69.5t-101.5 -27.5q-43 0 -82.5 4t-74.5 12l-9 49q61 -19 133 -19q92 0 92 48q0 38 -80 38
q-141 0 -141 71q0 36 23.5 59t62.5 23q8 0 22 -1.5t28.5 -3t26.5 -2.5t16 -1q15 0 26 12.5t11 26.5q0 15 -8.5 28.5t-23 23.5t-34.5 16t-44 6q-169 0 -169 -212q0 -67 28 -163l-39 -9q-25 112 -25 179q0 118 55 184.5t161 66.5q36 0 68 -10t56.5 -27.5t38.5 -41t14 -50.5
q0 -28 -21 -49.5t-53 -21.5q-22 0 -46.5 6.5t-36.5 6.5q-23 0 -41 -13t-18 -31q0 -36 71 -36l60 3q40 0 65 -20t25 -55z" />
    <glyph glyph-name="mal_ma_halant" horiz-adv-x="493" 
d="M455 623q0 -75 -34.5 -114.5t-92.5 -39.5q-26 0 -49 9t-40 25t-27 37.5t-10 46.5t3 36h73q-4 -9 -4 -38q0 -26 20.5 -45t47.5 -19q35 0 59 27t24 75h30zM440 0h-402v132q0 66 4.5 119t24 91t58.5 58.5t109 20.5q206 0 206 -250v-171zM392 32v141q0 216 -152 216v-2
q66 -44 66 -117q0 -32 -7.5 -58.5t-25 -53.5t-46 -57t-70.5 -69h235zM238 285q0 37 -21 60.5t-50 23.5q-99 0 -99 -171v-166q170 123 170 253z" />
    <glyph glyph-name="mal_ya_halant" horiz-adv-x="779" 
d="M741 623q0 -75 -35 -114.5t-92 -39.5q-26 0 -49 9t-40 25t-27 37.5t-10 46.5t3 36h73q-4 -9 -4 -38q0 -26 20.5 -45t47.5 -19q35 0 58.5 27t24.5 75h30zM707 228q0 -50 -17 -93t-48 -75t-73.5 -50.5t-93.5 -18.5q-55 0 -77 12q-36 -12 -91 -12q-54 0 -103 19t-86 51
t-58.5 75.5t-21.5 92.5q0 40 11 75.5t30.5 61t47 40.5t59.5 15q67 0 111 -81q60 81 139 81q28 0 54 -14t45 -36.5t30.5 -52.5t11.5 -61q0 -154 -131 -229q20 -5 32 -5q37 0 72 16.5t62 45t43 66t16 79.5q0 96 -71 167l25 24q23 -29 39 -53.5t25.5 -47t13.5 -45t4 -47.5z
M505 229q0 28 -7.5 53.5t-20.5 44.5t-31.5 30.5t-39.5 11.5h-1q-21 0 -39.5 -11.5t-32 -30t-21 -43t-7.5 -50.5q0 -27 7.5 -56t20.5 -55t31 -46.5t40 -31.5q22 11 41 30.5t32 44t20.5 52.5t7.5 57zM353 28q-20 10 -39.5 33t-35.5 52.5t-25.5 62t-9.5 62.5q0 55 -23 90
t-56 35q-20 0 -37.5 -11t-30.5 -29.5t-20.5 -43t-7.5 -51.5q0 -40 18.5 -77t50 -65.5t73 -45.5t88.5 -17q18 0 31.5 1.5t23.5 3.5z" />
    <glyph glyph-name="mal_ra_halant" horiz-adv-x="523" 
d="M485 623q0 -75 -35 -114.5t-92 -39.5q-26 0 -49 9t-40 25t-27 37.5t-10 46.5t3 36h73q-4 -9 -4 -38q0 -26 20 -45t48 -19q35 0 59 27t24 75h30zM464 189q0 -41 -10.5 -77t-28.5 -63t-43.5 -42.5t-55.5 -15.5q-24 0 -46.5 11.5t-39 32t-26.5 47.5t-10 58q0 122 105 208
q-18 15 -59 15q-35 0 -66 -15.5t-54 -41t-36.5 -58t-13.5 -66.5q0 -106 91 -176l-21 -21q-24 18 -44.5 43t-35.5 52.5t-23.5 57t-8.5 56.5q0 47 16 88.5t44.5 72t68 48.5t86.5 18q43 0 81 -19t67 -51t46 -74t17 -88zM392 176q0 22 -4.5 45t-12.5 44t-18 37.5t-21 25.5
q-96 -78 -96 -172q0 -21 6.5 -40t17 -34t23.5 -24t27 -9q32 0 55 35.5t23 91.5z" />
    <glyph glyph-name="mal_rra_halant" horiz-adv-x="497" 
d="M459 623q0 -75 -34.5 -114.5t-92.5 -39.5q-26 0 -49 9.5t-40 25.5t-27 37.5t-10 45.5q0 25 3 36h73q-4 -9 -4 -38q0 -26 20.5 -45t47.5 -19q35 0 59 27t24 75h30zM447 213q0 -63 -37 -121.5t-106 -100.5l-26 38q91 61 91 156q0 33 -10 62t-28.5 50t-44.5 33.5t-57 12.5
q-32 0 -59 -11t-47 -31t-31.5 -48.5t-11.5 -62.5q0 -113 102 -174l-16 -25q-60 38 -94 93t-34 113q0 48 16 89t44.5 71t68.5 47t88 17q39 0 74 -17t61.5 -45.5t41.5 -66.5t15 -79z" />
    <glyph glyph-name="mal_la_halant" horiz-adv-x="711" 
d="M712 623q0 -75 -35 -114.5t-92 -39.5q-26 0 -49 9t-40 25t-27 37.5t-10 46.5t3 36h73q-4 -9 -4 -38q0 -26 20 -45t48 -19q35 0 59 27t24 75h30zM626 0h-588v183q0 64 12.5 109.5t36.5 74t58.5 41.5t77.5 13q85 0 136.5 -38.5t64.5 -123.5q4 -33 6 -108h-314v-119h432v382
h78v-414zM394 183q0 57 -10.5 95t-29 61t-44.5 32.5t-57 9.5q-66 0 -101.5 -41.5t-35.5 -105.5v-51h278z" />
    <glyph glyph-name="mal_lla_halant" horiz-adv-x="554" 
d="M516 623q0 -75 -35 -114.5t-92 -39.5q-26 0 -49 9t-40 25t-27 37.5t-10 46.5t3 36h73q-4 -9 -4 -38q0 -26 20.5 -45t47.5 -19q35 0 59 27t24 75h30zM502 106q0 -106 -154 -106h-188q-64 0 -64 -48q0 -34 44 -34h354v-78h-345q-101 0 -101 100q0 92 102 92h148
q126 0 126 81q0 80 -107 80v32q14 0 28.5 6t26.5 16.5t19.5 23.5t7.5 28q0 76 -140 76q-156 0 -181 -106l4 -3q34 52 89 52q23 0 42 -10t33 -27t21.5 -38.5t7.5 -43.5q0 -24 -9 -46.5t-24.5 -39.5t-35.5 -27.5t-42 -10.5q-27 0 -50.5 11t-40 31.5t-26 48t-9.5 60.5
q0 45 16 81t46 61.5t71.5 39t92.5 13.5q47 0 86.5 -8.5t67.5 -23t43.5 -34.5t15.5 -42q0 -69 -61 -100q86 -20 86 -107zM213 202q0 32 -17 54t-41 22q-23 0 -39 -21t-16 -54q0 -37 16 -59.5t42 -22.5q22 0 38.5 23t16.5 58z" />
    <glyph glyph-name="mal_llla_halant" horiz-adv-x="492" 
d="M454 623q0 -75 -35 -114.5t-92 -39.5q-26 0 -49 9t-40 25t-27 37.5t-10 46.5t3 36h73q-4 -9 -4 -38q0 -26 20 -45t48 -19q35 0 59 27t24 75h30zM449 281q0 -55 -40 -96.5t-106 -59.5q8 -24 8 -44q0 -42 -29 -69t-80 -27q-34 0 -69 18t-56 46l24 24q45 -48 82 -48
q56 0 56 63q0 9 -5 31q-43 0 -79 12t-62 33t-40.5 49.5t-14.5 61.5q0 82 66 153l35 -33q-33 -48 -33 -104q0 -27 10 -52t27 -44t38.5 -31t44.5 -13q-41 65 -41 135q0 28 8.5 53t24.5 43t39 28.5t52 10.5q27 0 52.5 -11.5t45 -31t31 -45t11.5 -52.5zM407 282q0 16 -6.5 32
t-17 28t-24 19.5t-28.5 7.5q-33 0 -55.5 -27.5t-22.5 -67.5q0 -63 39 -121q51 11 83 45.5t32 83.5z" />
    <glyph glyph-name="mal_va_halant" horiz-adv-x="732" 
d="M733 623q0 -75 -34.5 -114.5t-92.5 -39.5q-26 0 -49 9t-40 25t-27 37.5t-10 46.5t3 36h73q-4 -9 -4 -38q0 -26 20.5 -45t47.5 -19q35 0 59 27t24 75h30zM649 0h-381v19q101 74 101 166q0 33 -10 62t-28.5 50t-44.5 33.5t-57 12.5q-32 0 -59 -11t-47 -31t-31.5 -48.5
t-11.5 -62.5q0 -113 102 -174l-16 -25q-60 38 -94 93t-34 113q0 48 16 89t44.5 71t68.5 47t88 17q39 0 74 -17t61.5 -45.5t41.5 -66.5t15 -79q0 -97 -78 -181h202v382h78v-414z" />
    <glyph glyph-name="mal_sha_halant" horiz-adv-x="751" 
d="M713 623q0 -75 -34.5 -114.5t-92.5 -39.5q-26 0 -49 9.5t-40 25.5t-27 37.5t-10 45.5q0 25 3 36h73q-4 -9 -4 -38q0 -26 20.5 -45t47.5 -19q35 0 59 27t24 75h30zM700 189q0 -41 -10.5 -77t-28.5 -63t-43.5 -42.5t-55.5 -15.5q-24 0 -46.5 11.5t-39 32t-26.5 47.5t-10 58
q0 124 113 214q-32 27 -82 27q-52 0 -81.5 -42.5t-29.5 -117.5v-60q0 -36 -12 -67t-32 -54t-46.5 -36t-55.5 -13q-36 0 -68 16.5t-56 44.5t-38 64.5t-14 77.5q0 32 10.5 65.5t28.5 63.5t42.5 55.5t53.5 42.5l20 -24q-113 -81 -113 -197q0 -30 10 -57.5t27 -48t40 -33
t49 -12.5q40 0 63 37.5t23 103.5v67q0 37 12.5 67t35 51.5t53 33.5t66.5 12q54 0 98 -17.5t76 -48.5t49.5 -73.5t17.5 -92.5zM628 176q0 106 -51 156q-101 -83 -101 -176q0 -21 6.5 -40t17 -34t23.5 -24t27 -9q32 0 55 35.5t23 91.5z" />
    <glyph glyph-name="mal_ssa_halant" horiz-adv-x="926" 
d="M926 623q0 -75 -35 -114.5t-92 -39.5q-26 0 -49 9t-40 25t-27 37.5t-10 46.5t3 36h73q-4 -9 -4 -38q0 -26 20 -45t48 -19q35 0 59 27t24 75h30zM842 0h-627v7q67 42 67 116q0 42 -26 70t-68 28q-24 0 -43.5 -8.5t-34 -22.5t-22.5 -33.5t-8 -40.5q0 -54 48 -102l-28 -23
q-62 68 -62 143q0 31 12.5 58t34 46t52 30t66.5 11q33 0 62 -12t50 -32.5t33 -48.5t12 -60q0 -55 -33 -94h180v135q-29 0 -56 11.5t-47.5 30.5t-33 44.5t-12.5 54.5q0 22 9.5 42.5t25.5 36t37.5 25t46.5 9.5q108 0 108 -134v-85q30 8 66 31.5t69.5 54.5t59 64.5t34.5 61.5
h28v-414zM765 32v261q-15 -18 -38 -37.5t-49 -37t-50.5 -30t-42.5 -15.5v-141h180zM507 311q0 58 -52 58q-20 0 -34.5 -19.5t-14.5 -48.5q0 -20 8 -37.5t21.5 -31t32 -22.5t39.5 -11v112z" />
    <glyph glyph-name="mal_sa_halant" horiz-adv-x="941" 
d="M903 623q0 -75 -35 -114.5t-92 -39.5q-26 0 -49 9t-40 25t-27 37.5t-10 46.5t3 36h73q-4 -9 -4 -38q0 -26 20 -45t48 -19q35 0 59 27t24 75h30zM890 186q0 -38 -15 -73t-40.5 -62t-60.5 -43.5t-75 -16.5q-29 0 -53 12t-41 33.5t-26.5 51.5t-9.5 66v86q0 135 -110 135
q-37 0 -62.5 -22t-25.5 -54v-299h-78v259q0 48 -21 76t-53 28q-28 0 -53 -13t-44 -35.5t-30.5 -52.5t-11.5 -64q0 -103 110 -183l-26 -24q-29 22 -52 49t-39.5 55.5t-25.5 57t-9 54.5q0 45 15 84t40 68t58 45.5t69 16.5q95 0 133 -68q17 31 51.5 49.5t74.5 18.5
q34 0 63 -12.5t50 -35t33 -54.5t12 -70v-86q0 -51 20.5 -82.5t51.5 -31.5q27 0 52 13.5t44.5 36t31 51.5t11.5 61q0 24 -9 50.5t-24.5 52t-36.5 48t-44 37.5l25 22q63 -48 97 -111t34 -124z" />
    <glyph glyph-name="mal_ha_halant" horiz-adv-x="941" 
d="M903 623q0 -75 -35 -114.5t-92 -39.5q-26 0 -49 9t-40 25t-27 37.5t-10 46.5t3 36h73q-4 -9 -4 -38q0 -26 20 -45t48 -19q35 0 59 27t24 75h30zM889 213q0 -63 -37 -121.5t-106 -100.5l-26 38q91 61 91 156q0 33 -10 62t-28.5 50t-44.5 33.5t-57 12.5q-64 0 -105 -41.5
t-41 -111.5q0 -30 9.5 -59.5t26.5 -54t39.5 -43t48.5 -26.5v-7h-434v7q67 42 67 116q0 42 -26 70t-68 28q-24 0 -43.5 -8.5t-34 -22.5t-22.5 -33.5t-8 -40.5q0 -54 48 -102l-28 -23q-62 68 -62 143q0 31 12.5 58t34 46t52 30t66.5 11q33 0 62 -12t50 -32.5t33 -48.5t12 -60
q0 -55 -33 -94h229q-30 30 -51.5 76t-21.5 92q0 44 16 84t43.5 70.5t65 48.5t80.5 18q42 0 79 -16.5t64 -45t42.5 -66.5t15.5 -80z" />
    <glyph glyph-name="glyph200" 
d="M188 166q0 -27 -19.5 -47t-47.5 -20q-29 0 -48 20t-19 47q0 28 19 48t48 20q27 0 47 -20t20 -48z" />
    <glyph glyph-name="mal_ka_la" horiz-adv-x="733" 
d="M664 -132q0 -28 -10 -53t-28 -44t-42.5 -30.5t-52.5 -11.5q-51 0 -77.5 36.5t-26.5 102.5q0 116 -93 116q-63 0 -106 -48l2 -2q21 8 35 8q21 0 39 -8.5t31.5 -23.5t21.5 -36.5t8 -46.5q0 -45 -25.5 -74t-58.5 -29q-23 0 -43.5 9.5t-35.5 26.5t-23.5 40t-8.5 50
q0 58 35.5 100.5t92.5 59.5q-28 19 -46 56q-29 -75 -92 -75q-25 0 -47 10t-39 27.5t-27 42.5t-10 55q0 54 32.5 83.5t95.5 29.5h64q0 37 9.5 70.5t26.5 58t41.5 39t54.5 14.5q60 0 99 -48.5t47 -133.5h62q57 0 92 -34t35 -94q0 -20 -7 -40.5t-19 -37t-29 -27.5t-36 -13
q26 -26 42.5 -60.5t16.5 -64.5zM414 1q33 -14 50.5 -48.5t17.5 -79.5q0 -98 65 -98q16 0 30.5 7t26 19.5t18 28.5t6.5 34q0 80 -64 129q-20 4 -36 15l-5 45q21 -15 37 -15q26 0 47 21t21 63q0 85 -81 85h-37q0 -74 -23 -125.5t-63 -75.5zM442 207h-183q-1 -4 -1 -7.5v-6.5
v-13q0 -66 24.5 -104.5t63.5 -38.5q45 0 70.5 42t25.5 111v17zM442 239q-4 54 -28.5 92t-65.5 38q-38 0 -63.5 -35t-25.5 -95h183zM229 207h-32q-92 0 -92 -76q0 -18 5 -35t13.5 -30t20.5 -21t26 -8q28 0 43.5 25t15.5 65v80zM323 -182q0 33 -21 52.5t-54 19.5
q-25 0 -36.5 -6.5t-11.5 -32.5q0 -87 76 -87q19 0 33 15.5t14 38.5z" />
    <glyph glyph-name="mal_kha_la" horiz-adv-x="799" 
d="M754 -129q0 -28 -10 -53t-28 -44t-42.5 -30.5t-52.5 -11.5q-51 0 -77.5 36.5t-26.5 102.5q0 116 -93 116q-63 0 -106 -48l2 -2q21 8 35 8q21 0 39 -8.5t31.5 -23.5t21.5 -36.5t8 -46.5q0 -45 -25.5 -74t-58.5 -29q-23 0 -43.5 9.5t-35.5 26.5t-23.5 40t-8.5 50
q0 48 24.5 86t68.5 61h-50v21q91 67 91 167q0 37 -12.5 70t-34 58t-50.5 39t-61 14q-35 0 -64 -14.5t-51 -40t-35.5 -60t-17.5 -73.5l3 -3q12 20 22.5 33.5t22 21t24.5 10.5t30 3q24 0 44 -12t35 -31.5t23.5 -43t8.5 -47.5q0 -57 -30.5 -89t-78.5 -32q-30 0 -55 12.5
t-42.5 35.5t-27 55t-9.5 70q0 52 16.5 99t45 82t67 55.5t83.5 20.5t85.5 -17.5t70.5 -47.5t48 -69.5t18 -82.5q0 -93 -78 -172h281v382h78v-414h-63q28 -26 46 -61.5t18 -67.5zM718 -133q0 83 -69 133h-137q29 -17 44.5 -49t15.5 -75q0 -98 65 -98q16 0 30.5 7t26 19.5
t18 28.5t6.5 34zM219 118q0 33 -18 57.5t-47 24.5q-31 0 -50.5 -21.5t-19.5 -54.5q0 -15 5.5 -29.5t15 -26t21.5 -18.5t26 -7q15 0 27 6.5t21 17t14 24t5 27.5zM413 -179q0 33 -21 52.5t-54 19.5q-25 0 -36.5 -6.5t-11.5 -32.5q0 -87 76 -87q19 0 33 15.5t14 38.5z" />
    <glyph glyph-name="mal_ga_la" horiz-adv-x="651" 
d="M581 -132q0 -28 -10 -53t-28 -44t-42.5 -30.5t-52.5 -11.5q-51 0 -77.5 36.5t-26.5 102.5q0 116 -93 116q-63 0 -106 -48l2 -2q21 8 35 8q21 0 39 -8.5t31.5 -23.5t21.5 -36.5t8 -46.5q0 -45 -25.5 -74t-58.5 -29q-23 0 -43.5 9.5t-35.5 26.5t-23.5 40t-8.5 50
q0 46 24 84.5t66 61.5q-30 8 -55.5 27t-44 45t-29 58.5t-10.5 67.5q0 32 10.5 65.5t28.5 63.5t42.5 55.5t53.5 42.5l20 -24q-113 -81 -113 -197q0 -30 10 -57.5t27 -48t40 -33t49 -12.5q40 0 63 37.5t23 103.5v67q0 36 12 66t33 52t48.5 34t59.5 12q36 0 66.5 -15.5
t53 -42.5t35.5 -63.5t13 -78.5q0 -51 -22 -101t-57 -88l-28 -26q16 -12 30 -28.5t24 -35t15.5 -38t5.5 -36.5zM316 40q-7 -8 -14 -14.5t-15 -11.5q54 -7 83 -44t29 -97q0 -98 65 -98q16 0 30.5 7t26 19.5t18 28.5t6.5 34q0 78 -62 128v-1l-10 8l1 1l-15 14q112 70 112 194
q0 31 -10.5 59.5t-28 49.5t-39.5 33.5t-46 12.5q-87 0 -87 -145v-57q0 -36 -12 -67t-32 -54zM240 -182q0 33 -21 52.5t-54 19.5q-25 0 -36.5 -6.5t-11.5 -32.5q0 -87 76 -87q19 0 33 15.5t14 38.5z" />
    <glyph glyph-name="mal_gha_la" horiz-adv-x="1080" 
d="M1041 -129q0 -28 -10 -53t-28 -44t-42.5 -30.5t-52.5 -11.5q-51 0 -77.5 36.5t-26.5 102.5q0 116 -93 116q-63 0 -106 -48l2 -2q21 8 35 8q21 0 39 -8.5t31.5 -23.5t21.5 -36.5t8 -46.5q0 -45 -25.5 -74t-58.5 -29q-23 0 -43.5 9.5t-35.5 26.5t-23.5 40t-8.5 50
q0 48 24.5 86t68.5 61h-194v151h-233v7q29 17 49 47.5t20 61.5q0 19 -8 36t-21.5 30.5t-31 21.5t-36.5 8q-21 0 -41 -8.5t-35.5 -22.5t-25 -32t-9.5 -37q0 -52 53 -97l-28 -25q-32 34 -46.5 68.5t-14.5 70.5q0 66 46 103.5t121 37.5q32 0 60.5 -13t49.5 -34t33 -48.5
t12 -56.5q0 -49 -33 -86h119q0 64 12.5 109.5t36.5 74t58.5 41.5t77.5 13q85 0 136.5 -38.5t64.5 -123.5q4 -33 6 -108h-314v-119h432v382h78v-414h-57q28 -26 46 -61.5t18 -67.5zM802 183q0 57 -10.5 95t-29 61t-44.5 32.5t-57 9.5q-66 0 -101.5 -41.5t-35.5 -105.5v-51
h278zM1005 -133q0 83 -69 133h-137q29 -17 44.5 -49t15.5 -75q0 -98 65 -98q16 0 30.5 7t26 19.5t18 28.5t6.5 34zM700 -179q0 33 -21 52.5t-54 19.5q-25 0 -36.5 -6.5t-11.5 -32.5q0 -87 76 -87q19 0 33 15.5t14 38.5z" />
    <glyph glyph-name="mal_nga_la" horiz-adv-x="782" 
d="M705 -136q0 -28 -10 -53t-28 -44t-42.5 -30.5t-52.5 -11.5q-51 0 -77.5 36.5t-26.5 102.5q0 116 -93 116q-63 0 -106 -48l2 -2q21 8 35 8q21 0 39 -8.5t31.5 -23.5t21.5 -36.5t8 -46.5q0 -45 -25.5 -74t-58.5 -29q-23 0 -43.5 9.5t-35.5 26.5t-23.5 40t-8.5 50
q0 31 11 58.5t31 49.5t47.5 36.5t59.5 19.5v272q0 18 -8.5 33.5t-24 27.5t-37 19t-46.5 7q-76 0 -121.5 -51.5t-54.5 -136.5l3 -3q12 20 22.5 33.5t22 21t24.5 10.5t30 3q24 0 44 -12t35 -31.5t23.5 -43t8.5 -47.5q0 -57 -30.5 -89t-78.5 -32q-30 0 -55 12.5t-42.5 35.5
t-27 55t-9.5 70q0 56 18 103t49.5 81.5t75.5 53.5t96 19q100 0 143 -73q45 73 146 73q29 0 56.5 -9t49 -24t34.5 -34.5t13 -40.5q0 -69 -61 -100q38 -9 62 -35t24 -58q0 -40 -27 -71t-72 -48l-10 -3q31 -26 50.5 -63.5t19.5 -70.5zM438 5q41 -13 63 -48.5t22 -87.5
q0 -98 65 -98q16 0 30.5 7t26 19.5t18 28.5t6.5 34q0 82 -68 132q-5 -1 -9.5 -1h-9.5q-58 0 -77 9l-12 54q41 -23 70 -23q20 0 38.5 6.5t33 17.5t23 26t8.5 32q0 80 -100 80h-58v32q60 0 96.5 19t36.5 55q0 30 -26 53t-66 23q-23 0 -43.5 -5.5t-35.5 -15.5t-23.5 -23.5
t-8.5 -29.5v-296zM219 118q0 33 -18 57.5t-47 24.5q-31 0 -50.5 -21.5t-19.5 -54.5q0 -15 5.5 -29.5t15 -26t21.5 -18.5t26 -7q15 0 27 6.5t21 17t14 24t5 27.5zM364 -186q0 33 -21 52.5t-54 19.5q-25 0 -36.5 -6.5t-11.5 -32.5q0 -87 76 -87q19 0 33 15.5t14 38.5z" />
    <glyph glyph-name="mal_cha_la" horiz-adv-x="731" 
d="M693 -130q0 -28 -10 -53t-28 -44t-42.5 -30.5t-52.5 -11.5q-51 0 -77.5 36.5t-26.5 102.5q0 116 -93 116q-63 0 -106 -48l2 -2q21 8 35 8q21 0 39 -8.5t31.5 -23.5t21.5 -36.5t8 -46.5q0 -45 -25.5 -74t-58.5 -29q-23 0 -43.5 9.5t-35.5 26.5t-23.5 40t-8.5 50
q0 47 25.5 87.5t69.5 60.5h-256v32h190q13 4 26.5 15.5t24 27t17.5 33t7 34.5q0 15 -5.5 29t-15 25.5t-22 18t-27.5 6.5q-32 0 -52.5 -23.5t-20.5 -57.5q0 -18 8 -32h-40q-10 19 -10 52q0 52 33 85.5t90 33.5q29 0 54.5 -10.5t44.5 -29t30 -42.5t11 -51q0 -61 -47 -114h259
v382h78v-414h-43q29 -27 47 -62.5t18 -67.5zM657 -134q0 84 -71 134h-137q31 -17 46.5 -49t15.5 -76q0 -98 65 -98q16 0 30.5 7t26 19.5t18 28.5t6.5 34zM352 -180q0 33 -21 52.5t-54 19.5q-25 0 -36.5 -6.5t-11.5 -32.5q0 -87 76 -87q19 0 33 15.5t14 38.5z" />
    <glyph glyph-name="mal_chha_la" horiz-adv-x="954" 
d="M683 -130q0 -28 -10 -53t-28 -44t-42.5 -30.5t-52.5 -11.5q-51 0 -77.5 36.5t-26.5 102.5q0 116 -93 116q-63 0 -106 -48l2 -2q21 8 35 8q21 0 39 -8.5t31.5 -23.5t21.5 -36.5t8 -46.5q0 -45 -25.5 -74t-58.5 -29q-23 0 -43.5 9.5t-35.5 26.5t-23.5 40t-8.5 50
q0 47 25.5 87.5t69.5 60.5h-246v32h190q13 4 26.5 15.5t24 27t17.5 33t7 34.5q0 15 -5.5 29t-15 25.5t-22 18t-27.5 6.5q-32 0 -52.5 -23.5t-20.5 -57.5q0 -18 8 -32h-40q-10 19 -10 52q0 52 33 85.5t90 33.5q29 0 54.5 -10.5t44.5 -29t30 -42.5t11 -51q0 -61 -47 -114h214
q-58 82 -58 166q0 46 16 86.5t44.5 71t68 48t86.5 17.5q43 0 81 -19t67 -51t46 -74t17 -88q0 -41 -10.5 -77t-28.5 -63t-43.5 -42.5t-55.5 -15.5q-24 0 -46.5 11.5t-39 32t-26.5 47.5t-10 58q0 122 105 208q-18 15 -59 15q-35 0 -66 -15t-54 -40t-36.5 -57.5t-13.5 -68.5
q0 -25 7.5 -51t20 -50t29.5 -43.5t36 -30.5l-1 -7h-6q29 -27 47 -62.5t18 -67.5zM844 176q0 22 -4.5 45t-12.5 44t-18 37.5t-21 25.5q-96 -78 -96 -172q0 -21 6.5 -40t17 -34t23.5 -24t27 -9q32 0 55 35.5t23 91.5zM647 -134q0 84 -71 134h-137q31 -17 46.5 -49t15.5 -76
q0 -98 65 -98q16 0 30.5 7t26 19.5t18 28.5t6.5 34zM342 -180q0 33 -21 52.5t-54 19.5q-25 0 -36.5 -6.5t-11.5 -32.5q0 -87 76 -87q19 0 33 15.5t14 38.5z" />
    <glyph glyph-name="mal_ja_la" horiz-adv-x="670" 
d="M603 -130q0 -28 -10 -53t-28 -44t-42.5 -30.5t-52.5 -11.5q-51 0 -77.5 36.5t-26.5 102.5q0 116 -93 116q-63 0 -106 -48l2 -2q21 8 35 8q21 0 39 -8.5t31.5 -23.5t21.5 -36.5t8 -46.5q0 -45 -25.5 -74t-58.5 -29q-23 0 -43.5 9.5t-35.5 26.5t-23.5 40t-8.5 50
q0 45 21.5 80.5t60.5 60.5q-7 -1 -13.5 -1.5t-12.5 -0.5q-21 0 -41 6.5t-35.5 18t-25 27t-9.5 33.5q0 122 195 122h170q26 0 50.5 8t43 21.5t30 31t11.5 37.5q0 92 -95 92q-39 0 -61.5 -22.5t-22.5 -59.5v-70h-78v60q0 45 -29.5 70.5t-77.5 25.5q-57 0 -89 -35l2 -3
q14 8 32 8q29 0 51 -21.5t22 -53.5q0 -20 -7 -36t-17.5 -28t-24.5 -18.5t-27 -6.5q-40 0 -67 27t-27 67q0 28 14.5 52.5t38.5 43t54.5 29.5t63.5 11q105 0 150 -51q6 9 19.5 18t31.5 16.5t38 12t39 4.5q27 0 53 -10t46.5 -27t33 -40t12.5 -48q0 -66 -52.5 -103.5
t-146.5 -37.5h-164q-137 0 -137 -67q0 -46 63 -46q56 0 134 37q150 70 204 70q39 0 66.5 -24t27.5 -58q0 -35 -23 -56.5t-57 -25.5q26 -29 41 -61t15 -61zM316 42q-13 -7 -25 -13.5t-23 -11.5q4 1 8 1h9q64 0 100 -38t36 -105q0 -98 65 -98q16 0 30.5 7t26 19.5t18 28.5
t6.5 34q0 80 -65 130q-26 7 -41.5 26.5t-15.5 42.5t12 40l-2 2q-71 -26 -139 -65zM262 -180q0 33 -21 52.5t-54 19.5q-25 0 -36.5 -6.5t-11.5 -32.5q0 -87 76 -87q19 0 33 15.5t14 38.5zM572 80q0 20 -10 31t-34 13q-47 -3 -47 -46q0 -18 13.5 -29.5t33.5 -11.5q43 0 44 43z
M153 282q0 20 -11 34t-29 14q-17 0 -28 -14t-11 -34q0 -21 11 -34.5t28 -13.5t28.5 13.5t11.5 34.5z" />
    <glyph glyph-name="mal_jha_la" horiz-adv-x="1174" 
d="M1063 -139q0 -28 -10 -53t-28 -44t-42.5 -30.5t-52.5 -11.5q-51 0 -77.5 36.5t-26.5 102.5q0 116 -93 116q-63 0 -106 -48l2 -2q21 8 35 8q21 0 39 -8.5t31.5 -23.5t21.5 -36.5t8 -46.5q0 -45 -25.5 -74t-58.5 -29q-23 0 -43.5 9.5t-35.5 26.5t-23.5 40t-8.5 50
q0 49 26.5 89t73.5 62q-26 4 -47 19.5t-36.5 38t-24.5 51t-10 60.5l-2 86q-2 57 -32 91.5t-81 34.5q-41 0 -54 -7q101 -83 101 -199q0 -36 -10.5 -68t-29.5 -56.5t-45.5 -39t-57.5 -14.5q-27 0 -51 14t-42 37.5t-28.5 55t-10.5 66.5q0 26 7.5 53.5t21 53.5t31 48.5
t38.5 38.5q-24 11 -65 11q-30 0 -59 -14.5t-51.5 -38.5t-36.5 -55t-14 -63q0 -123 89 -191l-31 -16q-100 81 -100 220q0 43 15.5 81t42.5 66.5t64 45.5t81 17q59 0 108 -28q55 28 116 28q66 0 108 -44t44 -119l2 -80q3 -141 96 -141q36 0 62 19.5t26 53.5v304h78v-259
q0 -106 74 -106q27 0 52 13.5t44.5 36t31 53t11.5 64.5q0 104 -110 181l26 24q28 -21 51.5 -47.5t40 -54.5t25.5 -57t9 -55q0 -40 -11.5 -75t-31 -62.5t-45.5 -46.5t-56 -27q31 -26 51 -63.5t20 -71.5zM415 170q0 103 -82 173q-95 -77 -95 -180q0 -22 7 -42.5t19 -36.5
t28.5 -25.5t34.5 -9.5q19 0 35 9.5t28 26t18.5 38.5t6.5 47zM821 61q-22 -34 -55 -53q55 -7 85 -43.5t30 -98.5q0 -98 65 -98q16 0 30.5 7t26 19.5t18 28.5t6.5 34q0 84 -71 134h-2q-94 0 -133 70zM722 -189q0 33 -21 52.5t-54 19.5q-25 0 -36.5 -6.5t-11.5 -32.5
q0 -87 76 -87q19 0 33 15.5t14 38.5z" />
    <glyph glyph-name="mal_nya_la" horiz-adv-x="1042" 
d="M975 -130q0 -28 -10 -53t-28 -44t-42.5 -30.5t-52.5 -11.5q-51 0 -77.5 36.5t-26.5 102.5q0 116 -93 116q-63 0 -106 -48l2 -2q21 8 35 8q21 0 39 -8.5t31.5 -23.5t21.5 -36.5t8 -46.5q0 -45 -25.5 -74t-58.5 -29q-23 0 -43.5 9.5t-35.5 26.5t-23.5 40t-8.5 50
q0 52 29.5 92.5t77.5 60.5q2 0 3 1q-35 21 -56.5 64t-21.5 94q0 26 7.5 53.5t21 53.5t31 48.5t38.5 38.5q-27 11 -65 11q-22 0 -41.5 -7t-34.5 -18.5t-23.5 -27.5t-8.5 -34v-282h-78v282q0 18 -8.5 33.5t-24 27.5t-37 19t-46.5 7q-76 0 -121.5 -51.5t-54.5 -136.5l3 -3
q12 20 22.5 33.5t22 21t24.5 10.5t30 3q24 0 44 -12t35 -31.5t23.5 -43t8.5 -47.5q0 -57 -30.5 -89t-78.5 -32q-30 0 -55 12.5t-42.5 35.5t-27 55t-9.5 70q0 56 18 103t49.5 81.5t75.5 53.5t96 19q100 0 143 -73q8 15 21.5 28.5t30.5 23.5t36 15.5t38 5.5q59 0 108 -28
q55 28 116 28q49 0 92 -18t74.5 -48.5t49.5 -72t18 -89.5t-26.5 -96.5t-72.5 -91.5q15 -13 27.5 -29.5t22 -34.5t15 -36t5.5 -35zM748 44q-8 -10 -17.5 -18.5t-20.5 -15.5q83 -33 83 -135q0 -98 65 -98q16 0 30.5 7t26 19.5t18 28.5t6.5 34q0 81 -66 131l-30 10
q83 83 83 174q0 41 -15 77.5t-40.5 63.5t-59 43t-70.5 16q-36 0 -56 -10q103 -87 103 -202q0 -36 -10.5 -68t-29.5 -57zM720 170q0 103 -82 173q-95 -77 -95 -180q0 -22 7 -42.5t19 -36.5t28.5 -25.5t34.5 -9.5q19 0 35 9.5t28 26t18.5 38.5t6.5 47zM219 118q0 33 -18 57.5
t-47 24.5q-31 0 -50.5 -21.5t-19.5 -54.5q0 -15 5.5 -29.5t15 -26t21.5 -18.5t26 -7q15 0 27 6.5t21 17t14 24t5 27.5zM634 -180q0 33 -21 52.5t-54 19.5q-25 0 -36.5 -6.5t-11.5 -32.5q0 -87 76 -87q19 0 33 15.5t14 38.5z" />
    <glyph glyph-name="mal_tta_la" horiz-adv-x="570" 
d="M532 -149q0 -28 -10 -53t-28 -44t-42.5 -30.5t-52.5 -11.5q-51 0 -77.5 36.5t-26.5 102.5q0 116 -93 116q-63 0 -106 -48l2 -2q22 8 35 8q42 0 71 -32t29 -83q0 -46 -24.5 -74.5t-59.5 -28.5q-23 0 -43.5 9.5t-35.5 26.5t-23.5 40t-8.5 50q0 34 13.5 64.5t37.5 53
t56 35.5t69 13h4q-28 7 -56 19t-57 31l2 46q94 -58 169 -58q27 0 51 7.5t42 19.5t28.5 28t10.5 33q0 28 -19 38.5t-76 10.5q-8 0 -20.5 -1t-26 -1.5t-26.5 -1.5t-22 -1q-54 0 -88 29t-34 75q0 31 14 58t38.5 47t59.5 31.5t77 11.5q25 0 51.5 -5.5t51.5 -15t46.5 -21.5
t35.5 -25l-25 -25q-58 52 -151 52q-29 0 -53.5 -8t-43 -21t-29 -30.5t-10.5 -36.5q0 -20 19.5 -32t47.5 -12q7 0 21 0.5t29 1.5t27.5 1.5t17.5 0.5q156 0 156 -108q0 -30 -15.5 -57t-41.5 -46.5t-60.5 -31t-72.5 -11.5h-11t-11 1q41 -13 63.5 -48t22.5 -88q0 -98 65 -98
q16 0 30.5 7t26 19.5t18 28.5t6.5 34q0 85 -72 135l21 17q38 -27 62.5 -68t24.5 -80zM191 -199q0 33 -21 52.5t-54 19.5q-23 0 -35.5 -6.5t-12.5 -32.5q0 -87 76 -87q20 0 33.5 15.5t13.5 38.5z" />
    <glyph glyph-name="mal_ttha_la" horiz-adv-x="570" 
d="M532 -150q0 -28 -10 -53t-28 -44t-42.5 -30.5t-52.5 -11.5q-51 0 -77.5 36.5t-26.5 102.5q0 116 -93 116q-63 0 -106 -48l2 -2q22 8 35 8q42 0 71 -32t29 -83q0 -46 -24.5 -74.5t-59.5 -28.5q-23 0 -43.5 9.5t-35.5 26.5t-23.5 40t-8.5 50q0 34 13.5 64.5t37.5 53
t56 35.5t69 13h17q-34 7 -62.5 25.5t-49 45t-32 59.5t-11.5 69q0 48 15.5 89t43.5 71t65 47t81 17q48 0 89 -17t70 -46.5t45.5 -69t16.5 -84.5q0 -43 -16.5 -81.5t-45.5 -68t-68.5 -46.5t-85.5 -17q-7 0 -13.5 0.5t-13.5 1.5q91 -29 91 -138q0 -98 65 -98q16 0 30.5 7
t26 19.5t18 28.5t6.5 34q0 85 -72 135l21 17q38 -27 62.5 -68t24.5 -80zM424 201q0 32 -12.5 61.5t-34.5 52t-50.5 35.5t-61.5 13t-62 -12.5t-50.5 -33.5t-34 -49.5t-12.5 -60.5q0 -33 13 -63t35 -52.5t51 -35.5t61 -13t60.5 12.5t50.5 34.5t34.5 50.5t12.5 60.5zM191 -200
q0 33 -21 52.5t-54 19.5q-23 0 -35.5 -6.5t-12.5 -32.5q0 -87 76 -87q20 0 33.5 15.5t13.5 38.5z" />
    <glyph glyph-name="mal_dda_la" horiz-adv-x="928" 
d="M819 -140q0 -28 -10 -53t-28 -44t-42.5 -30.5t-52.5 -11.5q-51 0 -77.5 36.5t-26.5 102.5q0 116 -93 116q-63 0 -106 -48l2 -2q21 8 35 8q21 0 39 -8.5t31.5 -23.5t21.5 -36.5t8 -46.5q0 -45 -25.5 -74t-58.5 -29q-23 0 -43.5 9.5t-35.5 26.5t-23.5 40t-8.5 50
q0 49 26.5 89t73.5 62q-31 2 -56.5 15.5t-44 36.5t-28.5 53t-10 65v86q0 52 -21.5 83t-56.5 31q-26 0 -49 -13t-40.5 -35t-28 -52.5t-10.5 -64.5q0 -114 105 -185l-21 -22q-29 16 -52 40t-39.5 52.5t-25.5 60t-9 63.5q0 46 13 85.5t36 68t55.5 44.5t70.5 16q63 0 102 -44
t39 -119v-86q0 -135 115 -135q36 0 62 19.5t26 53.5v304h78v-259q0 -106 74 -106q27 0 52 13.5t44.5 36t31 53t11.5 64.5q0 104 -110 181l26 24q28 -21 51.5 -47.5t40 -54.5t25.5 -57t9 -55q0 -41 -11 -75.5t-30.5 -61.5t-45.5 -46t-56 -28q31 -25 51.5 -63.5t20.5 -72.5z
M575 61q-24 -36 -57 -54q57 -5 88 -42.5t31 -99.5q0 -98 65 -98q16 0 30.5 7t26 19.5t18 28.5t6.5 34q0 85 -72 135h-3q-94 0 -133 70zM478 -190q0 33 -21 52.5t-54 19.5q-25 0 -36.5 -6.5t-11.5 -32.5q0 -87 76 -87q19 0 33 15.5t14 38.5z" />
    <glyph glyph-name="mal_ddha_la" horiz-adv-x="969" 
d="M844 -137q0 -28 -10 -53t-28 -44t-42.5 -30.5t-52.5 -11.5q-51 0 -77.5 36.5t-26.5 102.5q0 116 -93 116q-63 0 -106 -48l2 -2q21 8 35 8q21 0 39 -8.5t31.5 -23.5t21.5 -36.5t8 -46.5q0 -45 -25.5 -74t-58.5 -29q-23 0 -43.5 9.5t-35.5 26.5t-23.5 40t-8.5 50
q0 45 24.5 85.5t66.5 60.5q-69 3 -112 48.5t-43 123.5v86q0 52 -21.5 83t-56.5 31q-26 0 -49 -13t-40.5 -35t-28 -52.5t-10.5 -64.5q0 -114 105 -185l-21 -22q-29 16 -52 40t-39.5 52.5t-25.5 60t-9 63.5q0 46 13.5 85.5t37.5 68t56 44.5t68 16q63 0 102 -44t39 -119v-86
q0 -135 110 -135q35 0 61.5 21t26.5 55v301h78v-263q0 -24 10 -45t27.5 -36.5t40 -24t47.5 -8.5q70 0 108 52.5t38 145.5l-1 1q-23 -40 -43.5 -54t-53.5 -14q-23 0 -43.5 12t-35.5 31t-23.5 43t-8.5 48q0 57 30.5 88t78.5 31q63 0 96.5 -50t33.5 -140q0 -45 -10.5 -85
t-30.5 -71t-49 -51.5t-66 -26.5q29 -26 49 -63t20 -71zM576 63q-22 -34 -52 -52h2q64 0 100 -38t36 -105q0 -98 65 -98q16 0 30.5 7t26 19.5t18 28.5t6.5 34q0 83 -69 133q-4 -1 -8 -1h-8q-48 0 -88.5 20t-58.5 52zM889 289q0 14 -5.5 29t-14.5 28t-21.5 21t-26.5 8
q-31 0 -49 -21.5t-18 -47.5q0 -39 18 -65.5t47 -26.5q30 0 50 22t20 53zM503 -187q0 33 -21 52.5t-54 19.5q-25 0 -36.5 -6.5t-11.5 -32.5q0 -87 76 -87q19 0 33 15.5t14 38.5z" />
    <glyph glyph-name="mal_nna_la" horiz-adv-x="1036" 
d="M945 -130q0 -28 -10 -53t-28 -44t-42.5 -30.5t-52.5 -11.5q-51 0 -77.5 36.5t-26.5 102.5q0 116 -93 116q-63 0 -106 -48l2 -2q21 8 35 8q21 0 39 -8.5t31.5 -23.5t21.5 -36.5t8 -46.5q0 -45 -25.5 -74t-58.5 -29q-23 0 -43.5 9.5t-35.5 26.5t-23.5 40t-8.5 50
q0 34 13.5 64.5t37.5 53t56 35.5t69 13h5v241q0 25 -8.5 45.5t-23.5 35t-34.5 22t-40.5 7.5q-37 0 -62 -19.5t-25 -47.5v-302h-78v282q0 18 -8.5 33.5t-24 27.5t-37 19t-46.5 7q-76 0 -121.5 -51.5t-54.5 -136.5l3 -3q12 20 22.5 33.5t22 21t24.5 10.5t30 3q24 0 44 -12
t35 -31.5t23.5 -43t8.5 -47.5q0 -57 -30.5 -89t-78.5 -32q-30 0 -55 12.5t-42.5 35.5t-27 55t-9.5 70q0 56 18 103t49.5 81.5t75.5 53.5t96 19q101 0 144 -73q45 73 127 73q100 0 144 -68q17 31 51.5 49.5t74.5 18.5q37 0 69.5 -16.5t57 -45.5t39 -68t14.5 -84
q0 -108 -121 -205q30 -27 49 -63t19 -69zM701 0q31 -17 46.5 -49t15.5 -76q0 -98 65 -98q16 0 30.5 7t26 19.5t18 28.5t6.5 34q0 85 -72 135l1 1l-16 8q98 101 98 195q0 37 -10.5 68.5t-28 54t-39.5 35t-44 12.5q-37 0 -62.5 -22t-25.5 -54v-299h-9zM219 118q0 33 -18 57.5
t-47 24.5q-31 0 -50.5 -21.5t-19.5 -54.5q0 -15 5.5 -29.5t15 -26t21.5 -18.5t26 -7q15 0 27 6.5t21 17t14 24t5 27.5zM604 -180q0 33 -21 52.5t-54 19.5q-25 0 -36.5 -6.5t-11.5 -32.5q0 -87 76 -87q19 0 33 15.5t14 38.5z" />
    <glyph glyph-name="mal_ta_la" horiz-adv-x="737" 
d="M670 -131q0 -28 -10 -53t-28 -44t-42.5 -30.5t-52.5 -11.5q-51 0 -77.5 36.5t-26.5 102.5q0 116 -93 116q-63 0 -106 -48l2 -2q21 8 35 8q21 0 39 -8.5t31.5 -23.5t21.5 -36.5t8 -46.5q0 -45 -25.5 -74t-58.5 -29q-23 0 -43.5 9.5t-35.5 26.5t-23.5 40t-8.5 50
q0 52 29.5 92.5t77.5 60.5l4 2q-36 22 -57.5 64t-21.5 94q0 26 7.5 53.5t21 53.5t31 48.5t38.5 38.5q-24 11 -65 11q-30 0 -59 -14.5t-51.5 -38.5t-36.5 -55t-14 -63q0 -123 89 -191l-31 -16q-100 81 -100 220q0 43 15.5 81t42.5 66.5t64 45.5t81 17q59 0 108 -28
q55 28 116 28q49 0 92 -18t74.5 -48.5t49.5 -72t18 -89.5t-27 -97.5t-73 -91.5q31 -26 51 -63.5t20 -71.5zM443 44q-17 -22 -39 -35q41 -13 62.5 -48.5t21.5 -86.5q0 -98 65 -98q16 0 30.5 7t26 19.5t18 28.5t6.5 34q0 83 -69 133l-27 9q83 83 83 174q0 41 -15 77.5
t-40.5 63.5t-59 43t-70.5 16t-56 -10q103 -87 103 -202q0 -36 -10.5 -68t-29.5 -57zM415 170q0 103 -82 173q-95 -77 -95 -180q0 -22 7 -42.5t19 -36.5t28.5 -25.5t34.5 -9.5q19 0 35 9.5t28 26t18.5 38.5t6.5 47zM329 -181q0 33 -21 52.5t-54 19.5q-25 0 -36.5 -6.5
t-11.5 -32.5q0 -87 76 -87q19 0 33 15.5t14 38.5z" />
    <glyph glyph-name="mal_tha_la" horiz-adv-x="699" 
d="M661 -131q0 -28 -10 -53t-28 -44t-42.5 -30.5t-52.5 -11.5q-51 0 -77.5 36.5t-26.5 102.5q0 116 -93 116q-63 0 -106 -48l2 -2q21 8 35 8q21 0 39 -8.5t31.5 -23.5t21.5 -36.5t8 -46.5q0 -45 -25.5 -74t-58.5 -29q-23 0 -43.5 9.5t-35.5 26.5t-23.5 40t-8.5 50
q0 48 26 88t71 61h-226v414h78v-382h155v212q0 81 51.5 129t139.5 48q42 0 77 -14t60 -40t39 -63t14 -83v-221h-57q30 -28 48 -63.5t18 -67.5zM622 32v150q0 187 -142 187q-131 0 -131 -144v-193h273zM625 -135q0 85 -72 135h-137q30 -15 46.5 -48.5t16.5 -77.5
q0 -98 65 -98q16 0 30.5 7t26 19.5t18 28.5t6.5 34zM320 -181q0 33 -21 52.5t-54 19.5q-25 0 -36.5 -6.5t-11.5 -32.5q0 -87 76 -87q19 0 33 15.5t14 38.5z" />
    <glyph glyph-name="mal_da_la" horiz-adv-x="570" 
d="M532 -147q0 -28 -10 -53t-28 -44t-42.5 -30.5t-52.5 -11.5q-51 0 -77.5 36.5t-26.5 102.5q0 116 -93 116q-63 0 -106 -48l2 -2q22 8 35 8q42 0 71 -32t29 -83q0 -46 -24.5 -74.5t-59.5 -28.5q-23 0 -43.5 9.5t-35.5 26.5t-23.5 40t-8.5 50q0 34 13.5 64.5t37.5 53
t56 35.5t69 13q8 0 15.5 -0.5t15.5 -1.5l-12 55q41 -23 70 -23q19 0 38 6t33 17t23 26t9 33q0 80 -100 80h-58v32q61 0 97 19.5t36 56.5q0 30 -26 52t-69 22q-35 0 -63.5 -15t-49 -42.5t-32 -66.5t-11.5 -87q0 -71 27 -164l-37 -9q-13 54 -19.5 98t-6.5 80q0 57 15.5 103.5
t44 79.5t68.5 51t88 18q28 0 55 -9t48 -24t33.5 -34.5t12.5 -40.5q0 -69 -61 -100q38 -9 62 -35t24 -58q0 -27 -13 -50.5t-35 -41t-51.5 -27.5t-62.5 -10q-17 0 -31 0.5t-24 1.5q40 -14 61.5 -49t21.5 -86q0 -98 65 -98q16 0 30.5 7t26 19.5t18 28.5t6.5 34q0 85 -72 135
l21 17q38 -27 62.5 -68t24.5 -80zM191 -197q0 33 -21 52.5t-54 19.5q-23 0 -35.5 -6.5t-12.5 -32.5q0 -87 76 -87q20 0 33.5 15.5t13.5 38.5z" />
    <glyph glyph-name="mal_dha_la" horiz-adv-x="697" 
d="M587 -140q0 -28 -10 -53t-28 -44t-42.5 -30.5t-52.5 -11.5q-51 0 -77.5 36.5t-26.5 102.5q0 116 -93 116q-63 0 -106 -48l2 -2q21 8 35 8q21 0 39 -8.5t31.5 -23.5t21.5 -36.5t8 -46.5q0 -45 -25.5 -74t-58.5 -29q-23 0 -43.5 9.5t-35.5 26.5t-23.5 40t-8.5 50
q0 49 26.5 89t73.5 62q-34 7 -62.5 25t-49 45.5t-32 63t-11.5 76.5q0 33 7.5 60.5t23.5 53t42 51t62 53.5l41 -19q-98 -104 -98 -197q0 -35 10 -65.5t27 -53t39 -36t46 -13.5q36 0 62 19.5t26 53.5v304h78v-259q0 -106 74 -106q27 0 52 13.5t44.5 36t31 53t11.5 64.5
q0 104 -110 181l26 24q28 -21 51.5 -47.5t40 -54.5t25.5 -57t9 -55q0 -40 -11.5 -75t-31 -62.5t-45.5 -46.5t-56 -27q31 -25 51.5 -63.5t20.5 -72.5zM344 61q-24 -36 -57 -54q56 -5 87 -42t31 -100q0 -98 65 -98q16 0 30.5 7t26 19.5t18 28.5t6.5 34q0 85 -72 135h-2
q-94 0 -133 70zM246 -190q0 33 -21 52.5t-54 19.5q-25 0 -36.5 -6.5t-11.5 -32.5q0 -87 76 -87q19 0 33 15.5t14 38.5z" />
    <glyph glyph-name="mal_na_la" horiz-adv-x="697" 
d="M620 -133q0 -28 -10 -53t-28 -44t-42.5 -30.5t-52.5 -11.5q-51 0 -77.5 36.5t-26.5 102.5q0 116 -93 116q-63 0 -106 -48l2 -2q21 8 35 8q21 0 39 -8.5t31.5 -23.5t21.5 -36.5t8 -46.5q0 -45 -25.5 -74t-58.5 -29q-23 0 -43.5 9.5t-35.5 26.5t-23.5 40t-8.5 50
q0 33 12.5 62.5t35 52t53 36t66.5 15.5v244q0 48 -21 76t-53 28q-28 0 -53 -13t-44 -35.5t-30.5 -52.5t-11.5 -64q0 -103 110 -183l-26 -24q-29 22 -52 49t-39.5 55.5t-25.5 57t-9 54.5q0 45 15 84t40 68t58 45.5t69 16.5q95 0 133 -68q17 31 51.5 49.5t74.5 18.5
q37 0 69.5 -16.5t57 -45.5t39 -68t14.5 -84q0 -106 -115 -200q32 -28 54 -66t22 -74zM371 0q32 -15 49.5 -49t17.5 -79q0 -98 65 -98q16 0 30.5 7t26 19.5t18 28.5t6.5 34q0 82 -67 131l-34 16q98 101 98 195q0 37 -10.5 68.5t-28 54t-39.5 35t-44 12.5q-37 0 -62.5 -22
t-25.5 -54v-299zM279 -183q0 33 -21 52.5t-54 19.5q-25 0 -36.5 -6.5t-11.5 -32.5q0 -87 76 -87q19 0 33 15.5t14 38.5z" />
    <glyph glyph-name="mal_nnna_la" horiz-adv-x="764" 
d="M401 343q9 22 23.5 37t32 24t36.5 13t38 4q39 0 74.5 -15.5t62 -44t42.5 -67.5t16 -87q0 -106 -117 -202q35 -27 57.5 -66t22.5 -77q0 -27 -9.5 -52t-27 -44.5t-42 -31t-54.5 -11.5q-51 0 -77.5 37t-26.5 102q0 60 -23.5 88t-69.5 28q-32 0 -56 -9.5t-50 -38.5l2 -2
q5 2 14.5 5t20.5 3q41 0 70.5 -30.5t29.5 -84.5q0 -29 -9 -49t-22 -32t-27.5 -17t-25.5 -5q-20 0 -40 8.5t-36 24.5t-25.5 39.5t-9.5 53.5q0 32 12.5 61t34 51.5t52 37t66.5 16.5v272q0 18 -8.5 33.5t-24 27.5t-37 19t-46.5 7q-76 0 -121.5 -51.5t-54.5 -136.5l3 -3
q12 20 22.5 33.5t22 21t24.5 10.5t30 3q24 0 44 -12t35 -31.5t23.5 -43t8.5 -47.5q0 -57 -30.5 -89t-78.5 -32q-30 0 -55 12.5t-42.5 35.5t-27 55t-9.5 70q0 56 18 103t49.5 81.5t75.5 53.5t96 19q25 0 45 -7t35 -18.5t26 -25.5t18 -27zM429 0q38 -14 58 -48t20 -85
q0 -52 18.5 -75t46.5 -23q16 0 30.5 7.5t26 19.5t18 28t6.5 34q0 39 -18.5 75t-53.5 60l2 2l-33 15q98 101 98 195q0 37 -10.5 68.5t-28 54t-39.5 35t-44 12.5q-37 0 -62.5 -22t-25.5 -54v-299h-9zM219 118q0 33 -18 57.5t-47 24.5q-31 0 -50.5 -21.5t-19.5 -54.5
q0 -15 5.5 -29.5t15 -26t21.5 -18.5t26 -7q15 0 27 6.5t21 17t14 24t5 27.5zM273 -116q-8 0 -16.5 -0.5t-15.5 -4t-11.5 -11.5t-4.5 -23q0 -38 19 -62.5t57 -24.5q20 0 33.5 15.5t13.5 38.5q0 35 -21.5 53.5t-53.5 18.5z" />
    <glyph glyph-name="mal_pa_la" horiz-adv-x="702" 
d="M664 -130q0 -28 -10 -53t-28 -44t-42.5 -30.5t-52.5 -11.5q-51 0 -77.5 36.5t-26.5 102.5q0 116 -93 116q-63 0 -106 -48l2 -2q21 8 35 8q21 0 39 -8.5t31.5 -23.5t21.5 -36.5t8 -46.5q0 -45 -25.5 -74t-58.5 -29q-23 0 -43.5 9.5t-35.5 26.5t-23.5 40t-8.5 50
q0 47 25.5 87.5t69.5 60.5h-50v7q67 42 67 116q0 42 -26 70t-68 28q-24 0 -43.5 -8.5t-34 -22.5t-22.5 -33.5t-8 -40.5q0 -54 48 -102l-28 -23q-62 68 -62 143q0 31 12.5 58t34 46t52 30t66.5 11q33 0 62 -12t50 -32.5t33 -48.5t12 -60q0 -55 -33 -94h239v382h78v-414h-45
q29 -27 47 -62.5t18 -67.5zM628 -134q0 84 -71 134h-137q31 -17 46.5 -49t15.5 -76q0 -98 65 -98q16 0 30.5 7t26 19.5t18 28.5t6.5 34zM323 -180q0 33 -21 52.5t-54 19.5q-25 0 -36.5 -6.5t-11.5 -32.5q0 -87 76 -87q19 0 33 15.5t14 38.5z" />
    <glyph glyph-name="mal_pha_la" horiz-adv-x="916" 
d="M878 -132q0 -28 -10 -53t-28 -44t-42.5 -30.5t-52.5 -11.5q-51 0 -77.5 36.5t-26.5 102.5q0 116 -93 116q-63 0 -106 -48l2 -2q21 8 35 8q21 0 39 -8.5t31.5 -23.5t21.5 -36.5t8 -46.5q0 -45 -25.5 -74t-58.5 -29q-23 0 -43.5 9.5t-35.5 26.5t-23.5 40t-8.5 50
q0 48 27 89t72 61h-267v7q67 42 67 116q0 42 -26 70t-68 28q-24 0 -43.5 -8.5t-34 -22.5t-22.5 -33.5t-8 -40.5q0 -54 48 -102l-28 -23q-62 68 -62 143q0 31 12.5 58t34 46t52 30t66.5 11q33 0 62 -12t50 -32.5t33 -48.5t12 -60q0 -55 -33 -94h161v212q0 81 51.5 129
t139.5 48q42 0 77 -14t60 -40t39 -63t14 -83v-221h-59q30 -26 48.5 -63t18.5 -69zM840 32v150q0 187 -142 187q-131 0 -131 -144v-193h273zM842 -136q0 85 -72 135l1 1h-140q31 -14 48 -48t17 -79q0 -98 65 -98q16 0 30.5 7t26 19.5t18 28.5t6.5 34zM537 -182q0 33 -21 52.5
t-54 19.5q-25 0 -36.5 -6.5t-11.5 -32.5q0 -87 76 -87q19 0 33 15.5t14 38.5z" />
    <glyph glyph-name="mal_ba_la" horiz-adv-x="987" 
d="M944 -133q0 -28 -10 -53t-28 -44t-42.5 -30.5t-52.5 -11.5q-51 0 -77.5 36.5t-26.5 102.5q0 116 -93 116q-63 0 -106 -48l2 -2q21 8 35 8q21 0 39 -8.5t31.5 -23.5t21.5 -36.5t8 -46.5q0 -45 -25.5 -74t-58.5 -29q-23 0 -43.5 9.5t-35.5 26.5t-23.5 40t-8.5 50
q0 49 26.5 88.5t74.5 62.5v23q100 82 100 183q0 36 -9.5 66.5t-26.5 53.5t-40.5 36t-50.5 13q-36 0 -60.5 -19.5t-24.5 -54.5v-301h-78v282q0 18 -8.5 33.5t-24 27.5t-37 19t-46.5 7q-76 0 -121.5 -51.5t-54.5 -136.5l3 -3q12 20 22.5 33.5t22 21t24.5 10.5t30 3
q24 0 44 -12t35 -31.5t23.5 -43t8.5 -47.5q0 -57 -30.5 -89t-78.5 -32q-30 0 -55 12.5t-42.5 35.5t-27 55t-9.5 70q0 56 18 103t49.5 81.5t75.5 53.5t96 19q99 0 144 -74q7 13 19.5 26.5t29 24t35.5 17t40 6.5q37 0 70 -17t58 -45.5t40 -66t15 -78.5q0 -95 -92 -178l2 -4
h223v382h78v-414h-65q30 -26 49.5 -62.5t19.5 -70.5zM908 -137q0 85 -72 135l2 2h-143q67 -37 67 -128q0 -98 65 -98q16 0 30.5 7t26 19.5t18 28.5t6.5 34zM220 118q0 33 -18 57.5t-47 24.5q-31 0 -50.5 -21.5t-19.5 -54.5q0 -15 5.5 -29.5t15 -26t21.5 -18.5t26 -7
q15 0 27 6.5t21 17t14 24t5 27.5zM603 -183q0 33 -21 52.5t-54 19.5q-25 0 -36.5 -6.5t-11.5 -32.5q0 -87 76 -87q19 0 33 15.5t14 38.5z" />
    <glyph glyph-name="mal_bha_la" horiz-adv-x="570" 
d="M532 -152q0 -28 -10 -53t-28 -44t-42.5 -30.5t-52.5 -11.5q-51 0 -77.5 36.5t-26.5 102.5q0 116 -93 116q-63 0 -106 -48l2 -2q22 8 35 8q42 0 71 -32t29 -83q0 -46 -24.5 -74.5t-59.5 -28.5q-23 0 -43.5 9.5t-35.5 26.5t-23.5 40t-8.5 50q0 33 12.5 62t35 51.5t53 36.5
t65.5 16q-6 2 -12 3l-12 2l-9 49q61 -19 133 -19q92 0 92 48q0 38 -80 38q-141 0 -141 71q0 36 23.5 59t62.5 23q8 0 22 -1.5t28.5 -3t26.5 -2.5t16 -1q15 0 26 12.5t11 26.5q0 15 -8.5 28.5t-23 23.5t-34.5 16t-44 6q-169 0 -169 -212q0 -67 28 -163l-39 -9
q-25 112 -25 179q0 120 56.5 185.5t159.5 65.5q37 0 69 -10.5t56 -28t38 -41t14 -49.5q0 -28 -21 -49.5t-53 -21.5q-21 0 -46 6.5t-37 6.5q-23 0 -41 -13t-18 -31q0 -36 71 -36l60 3q40 0 65 -20t25 -55q0 -42 -35.5 -69.5t-101.5 -27.5q-36 0 -69 3q82 -32 82 -135
q0 -98 65 -98q16 0 30.5 7t26 19.5t18 28.5t6.5 34q0 85 -72 135l21 17q38 -27 62.5 -68t24.5 -80zM191 -202q0 33 -21 52.5t-54 19.5q-23 0 -35.5 -6.5t-12.5 -32.5q0 -87 76 -87q20 0 33.5 15.5t13.5 38.5z" />
    <glyph glyph-name="mal_ma_la" horiz-adv-x="570" 
d="M532 -132q0 -28 -10 -53t-28 -44t-42.5 -30.5t-52.5 -11.5q-51 0 -77.5 36.5t-26.5 102.5q0 116 -93 116q-63 0 -106 -48l2 -2q22 8 35 8q42 0 71 -32t29 -83q0 -46 -24.5 -74.5t-59.5 -28.5q-23 0 -43.5 9.5t-35.5 26.5t-23.5 40t-8.5 50q0 48 27 89t72 61h-57v132
q0 66 5 119t24.5 91t59 58.5t107.5 20.5q206 0 206 -250v-171h-17q30 -26 48.5 -63t18.5 -69zM434 32v141q0 216 -152 216v-2q66 -44 66 -117q0 -31 -7.5 -57.5t-24.5 -54t-45.5 -57.5t-71.5 -69h235zM280 285q0 37 -21 60.5t-50 23.5q-99 0 -99 -171v-166q170 123 170 253z
M496 -136q0 85 -72 135l1 1h-140q31 -14 48 -48t17 -79q0 -98 65 -98q16 0 30.5 7t26 19.5t18 28.5t6.5 34zM191 -182q0 33 -21 52.5t-54 19.5q-23 0 -35.5 -6.5t-12.5 -32.5q0 -87 76 -87q20 0 33.5 15.5t13.5 38.5z" />
    <glyph glyph-name="mal_ya_la" horiz-adv-x="745" 
d="M644 -132q0 -28 -10 -53t-28 -44t-42.5 -30.5t-52.5 -11.5q-51 0 -77.5 36.5t-26.5 102.5q0 116 -93 116q-63 0 -106 -48l2 -2q21 8 35 8q21 0 39 -8.5t31.5 -23.5t21.5 -36.5t8 -46.5q0 -45 -25.5 -74t-58.5 -29q-23 0 -43.5 9.5t-35.5 26.5t-23.5 40t-8.5 50
q0 47 25.5 87.5t69.5 60.5q-44 9 -82 30.5t-66 52t-43.5 68.5t-15.5 80q0 40 11 75.5t30.5 61t47 40.5t59.5 15q67 0 111 -81q60 81 139 81q28 0 54 -14t45 -36.5t30.5 -52.5t11.5 -61q0 -154 -131 -229q20 -5 32 -5q37 0 72 16.5t62 45t43 66t16 79.5q0 96 -71 167l25 24
q23 -29 39 -53.5t25.5 -47t13.5 -45t4 -47.5q0 -76 -37.5 -133t-101.5 -86l-1 -1q16 -13 30.5 -29.5t24.5 -35.5t16 -38t6 -37zM353 28q-20 10 -39.5 33t-35.5 52.5t-25.5 62t-9.5 62.5q0 55 -23 90t-56 35q-20 0 -37.5 -11t-30.5 -29.5t-20.5 -43t-7.5 -51.5
q0 -40 18.5 -77t50 -65.5t73 -45.5t88.5 -17q18 0 31.5 1.5t23.5 3.5zM505 229q0 28 -7.5 53.5t-20.5 44.5t-31.5 30.5t-39.5 11.5h-1q-21 0 -39.5 -11.5t-32 -30t-21 -43t-7.5 -50.5q0 -27 7.5 -56t20.5 -55t31 -46.5t40 -31.5q22 11 41 30.5t32 44t20.5 52.5t7.5 57z
M394 1q33 -14 50.5 -48.5t17.5 -79.5q0 -98 65 -98q16 0 30.5 7t26 19.5t18 28.5t6.5 34q0 85 -72 135q-30 -8 -61 -8q-55 0 -77 12zM303 -182q0 33 -21 52.5t-54 19.5q-25 0 -36.5 -6.5t-11.5 -32.5q0 -87 76 -87q19 0 33 15.5t14 38.5z" />
    <glyph glyph-name="mal_ra_la" horiz-adv-x="570" 
d="M532 -140q0 -28 -10 -53t-28 -44t-42.5 -30.5t-52.5 -11.5q-51 0 -77.5 36.5t-26.5 102.5q0 116 -93 116q-63 0 -106 -48l2 -2q22 8 35 8q42 0 71 -32t29 -83q0 -46 -24.5 -74.5t-59.5 -28.5q-23 0 -43.5 9.5t-35.5 26.5t-23.5 40t-8.5 50q0 25 9 51.5t25.5 49t39.5 38
t51 20.5q-20 17 -36.5 40.5t-29 50t-19.5 53t-7 49.5q0 47 16 88.5t44.5 72t68 48.5t86.5 18q44 0 82.5 -19.5t67 -52t45 -74t16.5 -86.5q0 -41 -10.5 -77t-28.5 -63t-43.5 -42.5t-55.5 -15.5q-24 0 -46.5 11.5t-39 32t-26.5 47.5t-10 58q0 122 105 208q-18 15 -59 15
q-35 0 -65.5 -15.5t-54 -41t-37 -58t-13.5 -66.5q0 -105 88 -174h13q64 0 100 -38t36 -105q0 -98 65 -98q16 0 30.5 7t26 19.5t18 28.5t6.5 34q0 85 -72 135l21 17q38 -27 62.5 -68t24.5 -80zM425 176q0 22 -4.5 45t-12 44t-17.5 37.5t-22 25.5q-96 -78 -96 -172
q0 -20 6.5 -39.5t17 -34.5t23.5 -24t27 -9q33 0 55.5 35t22.5 92zM191 -190q0 33 -21 52.5t-54 19.5q-23 0 -35.5 -6.5t-12.5 -32.5q0 -87 76 -87q20 0 33.5 15.5t13.5 38.5z" />
    <glyph glyph-name="mal_rra_la" horiz-adv-x="570" 
d="M532 -130q0 -28 -10 -53t-28 -44t-42.5 -30.5t-52.5 -11.5q-51 0 -77.5 36.5t-26.5 102.5q0 116 -93 116q-63 0 -106 -48l2 -2q22 8 35 8q42 0 71 -32t29 -83q0 -46 -24.5 -74.5t-59.5 -28.5q-23 0 -43.5 9.5t-35.5 26.5t-23.5 40t-8.5 50q0 30 10.5 57t29 48.5
t44.5 36.5t57 21q-45 37 -69.5 85t-24.5 97q0 47 16 88t44.5 71t68.5 47.5t88 17.5q40 0 75 -17t61 -45.5t41 -66t15 -79.5q0 -66 -37 -123t-106 -99l-26 38q91 61 91 156q0 34 -10.5 63t-29 50t-44 33t-56.5 12q-33 0 -60 -11.5t-47 -31.5t-31 -48.5t-11 -61.5
q0 -112 99 -172q59 -5 91.5 -41.5t32.5 -101.5q0 -98 65 -98q16 0 30.5 7t26 19.5t18 28.5t6.5 34q0 85 -72 135l21 17q38 -27 62.5 -68t24.5 -80zM191 -180q0 33 -21 52.5t-54 19.5q-23 0 -35.5 -6.5t-12.5 -32.5q0 -87 76 -87q20 0 33.5 15.5t13.5 38.5z" />
    <glyph glyph-name="mal_la_la" horiz-adv-x="673" 
d="M613 -132q0 -28 -10 -53t-28 -44t-42.5 -30.5t-52.5 -11.5q-51 0 -77.5 36.5t-26.5 102.5q0 116 -93 116q-63 0 -106 -48l2 -2q21 8 35 8q21 0 39 -8.5t31.5 -23.5t21.5 -36.5t8 -46.5q0 -45 -25.5 -74t-58.5 -29q-23 0 -43.5 9.5t-35.5 26.5t-23.5 40t-8.5 50
q0 48 27 89t72 61h-180v183q0 64 12.5 109.5t36.5 74t58.5 41.5t77.5 13q85 0 136.5 -38.5t64.5 -123.5q4 -33 6 -108h-314v-119h432v382h78v-414h-80q30 -26 48.5 -63t18.5 -69zM394 183q0 57 -10.5 95t-29 61t-44.5 32.5t-57 9.5q-66 0 -101.5 -41.5t-35.5 -105.5v-51h278
zM577 -136q0 85 -72 135l1 1h-140q31 -14 48 -48t17 -79q0 -98 65 -98q16 0 30.5 7t26 19.5t18 28.5t6.5 34zM272 -182q0 33 -21 52.5t-54 19.5q-25 0 -36.5 -6.5t-11.5 -32.5q0 -87 76 -87q19 0 33 15.5t14 38.5z" />
    <glyph glyph-name="mal_SA_RRA_RRA" horiz-adv-x="928" 
d="M850 -146q0 -87 -91 -148l-22 29q58 52 58 100q0 22 -8 41t-22 33t-32 22.5t-39 8.5q-48 0 -78 -27.5t-30 -67.5q0 -70 66 -119l-14 -22q-88 58 -88 139q0 59 36.5 100.5t96.5 48.5q-52 8 -83 51.5t-31 110.5v86q0 135 -110 135q-37 0 -62.5 -22t-25.5 -54v-299h-78v259
q0 48 -21 76t-53 28q-28 0 -53 -13t-44 -35.5t-30.5 -52.5t-11.5 -64q0 -103 110 -183l-26 -24q-29 22 -52 49t-39.5 55.5t-25.5 57t-9 54.5q0 45 15 84t40 68t58 45.5t69 16.5q95 0 133 -68q17 31 51.5 49.5t74.5 18.5q34 0 63 -12.5t50 -35t33 -54.5t12 -70v-86
q0 -51 20.5 -82.5t51.5 -31.5q27 0 52 13.5t44.5 36t31 51.5t11.5 61q0 24 -9 50.5t-24.5 52t-36.5 48t-44 37.5l25 22q63 -48 97 -111t34 -124q0 -36 -13 -69t-36 -59t-54 -43t-67 -23q28 -2 51.5 -13t41 -29.5t27.5 -43t10 -52.5zM470 -146q0 -87 -91 -148l-22 29
q58 52 58 100q0 22 -8 41t-22 33t-32 22.5t-39 8.5q-48 0 -78 -27.5t-30 -67.5q0 -70 66 -119l-14 -22q-88 58 -88 139q0 31 11 58.5t31 47.5t48.5 31.5t64.5 11.5q31 0 57.5 -10t46 -28t30.5 -43.5t11 -56.5z" />
    <glyph glyph-name="mal_llla_la" horiz-adv-x="570" 
d="M532 -132q0 -28 -10 -53t-28 -44t-42.5 -30.5t-52.5 -11.5q-51 0 -77.5 36.5t-26.5 102.5q0 116 -93 116q-63 0 -106 -48l2 -2q22 8 35 8q42 0 71 -32t29 -83q0 -46 -24.5 -74.5t-59.5 -28.5q-23 0 -43.5 9.5t-35.5 26.5t-23.5 40t-8.5 50q0 26 9 51.5t25 47.5t39 37.5
t50 21.5q-27 16 -46 41l24 24q46 -48 82 -48q56 0 56 63q0 9 -5 31q-43 0 -79 12t-62 33t-40.5 49.5t-14.5 61.5q0 82 66 153l35 -33q-33 -48 -33 -104q0 -26 10.5 -51t27 -44.5t38 -31.5t44.5 -13q-41 65 -41 135q0 28 8.5 53t25 43t39 28.5t51.5 10.5q27 0 52.5 -11.5
t45 -31t31 -45t11.5 -52.5q0 -55 -40 -96.5t-106 -59.5q8 -24 8 -44q0 -29 -14.5 -52t-41.5 -34q29 -21 43 -49.5t14 -72.5q0 -98 65 -98q16 0 30.5 7t26 19.5t18 28.5t6.5 34q0 85 -72 135l21 17q38 -27 62.5 -68t24.5 -80zM445 282q0 16 -6.5 32t-17 28t-24 19.5
t-28.5 7.5q-31 0 -54.5 -27.5t-23.5 -67.5q0 -63 39 -121q51 11 83 45.5t32 83.5zM191 -182q0 33 -21 52.5t-54 19.5q-23 0 -35.5 -6.5t-12.5 -32.5q0 -87 76 -87q20 0 33.5 15.5t13.5 38.5z" />
    <glyph glyph-name="mal_va_la" horiz-adv-x="699" 
d="M661 -132q0 -28 -10 -53t-28 -44t-42.5 -30.5t-52.5 -11.5q-51 0 -77.5 36.5t-26.5 102.5q0 116 -93 116q-63 0 -106 -48l2 -2q21 8 35 8q21 0 39 -8.5t31.5 -23.5t21.5 -36.5t8 -46.5q0 -45 -25.5 -74t-58.5 -29q-23 0 -43.5 9.5t-35.5 26.5t-23.5 40t-8.5 50
q0 49 27 89.5t74 60.5v19q101 74 101 166q0 33 -10 62t-28.5 50t-44.5 33.5t-57 12.5q-32 0 -59 -11t-47 -31t-31.5 -48.5t-11.5 -62.5q0 -113 102 -174l-16 -25q-60 38 -94 93t-34 113q0 48 16 89t44.5 71t68.5 47t88 17q39 0 74 -17t61.5 -45.5t41.5 -66.5t15 -79
q0 -97 -78 -181h202v382h78v-414h-55q30 -26 48.5 -63t18.5 -69zM625 -136q0 85 -72 135l1 1h-140q31 -14 48 -48t17 -79q0 -98 65 -98q16 0 30.5 7t26 19.5t18 28.5t6.5 34zM320 -182q0 33 -21 52.5t-54 19.5q-25 0 -36.5 -6.5t-11.5 -32.5q0 -87 76 -87q19 0 33 15.5
t14 38.5z" />
    <glyph glyph-name="mal_sha_la" horiz-adv-x="738" 
d="M634 -133q0 -28 -10 -53t-28 -44t-42.5 -30.5t-52.5 -11.5q-51 0 -77.5 36.5t-26.5 102.5q0 116 -93 116q-63 0 -106 -48l2 -2q21 8 35 8q21 0 39 -8.5t31.5 -23.5t21.5 -36.5t8 -46.5q0 -45 -25.5 -74t-58.5 -29q-23 0 -43.5 9.5t-35.5 26.5t-23.5 40t-8.5 50
q0 43 21.5 82t59.5 61q-3 -1 -7 -1q-36 0 -68 16.5t-56 44.5t-38 64.5t-14 77.5q0 32 10.5 65.5t28.5 63.5t42.5 55.5t53.5 42.5l20 -24q-113 -81 -113 -197q0 -30 10 -57.5t27 -48t40 -33t49 -12.5q40 0 63 37.5t23 103.5v67q0 37 12.5 67t35 51.5t53 33.5t66.5 12
q54 0 98 -17.5t76 -48.5t49.5 -73.5t17.5 -92.5q0 -39 -9 -73t-25.5 -60.5t-39.5 -43t-51 -20.5q26 -26 42.5 -60.5t16.5 -64.5zM316 40q-7 -8 -15 -15t-16 -13q15 3 31 3q64 0 100 -38t36 -105q0 -98 65 -98q16 0 30.5 7t26 19.5t18 28.5t6.5 34q0 85 -72 135l-11 4
q-32 17 -53.5 54t-21.5 84q0 124 113 214q-32 27 -82 27q-52 0 -81.5 -42.5t-29.5 -117.5v-60q0 -36 -12 -67t-32 -54zM628 176q0 106 -51 156q-101 -83 -101 -176q0 -21 6.5 -40t17 -34t23.5 -24t27 -9q32 0 55 35.5t23 91.5zM293 -183q0 33 -21 52.5t-54 19.5
q-25 0 -36.5 -6.5t-11.5 -32.5q0 -87 76 -87q19 0 33 15.5t14 38.5z" />
    <glyph glyph-name="mal_ssa_la" horiz-adv-x="902" 
d="M864 -132q0 -28 -10 -53t-28 -44t-42.5 -30.5t-52.5 -11.5q-51 0 -77.5 36.5t-26.5 102.5q0 116 -93 116q-63 0 -106 -48l2 -2q21 8 35 8q21 0 39 -8.5t31.5 -23.5t21.5 -36.5t8 -46.5q0 -45 -25.5 -74t-58.5 -29q-23 0 -43.5 9.5t-35.5 26.5t-23.5 40t-8.5 50
q0 48 27 89t72 61h-253v7q67 42 67 116q0 42 -26 70t-68 28q-24 0 -43.5 -8.5t-34 -22.5t-22.5 -33.5t-8 -40.5q0 -54 48 -102l-28 -23q-62 68 -62 143q0 31 12.5 58t34 46t52 30t66.5 11q33 0 62 -12t50 -32.5t33 -48.5t12 -60q0 -55 -33 -94h180v135q-29 0 -56 11.5
t-47.5 30.5t-33 44.5t-12.5 54.5q0 22 9.5 42.5t25.5 36t37.5 25t46.5 9.5q108 0 108 -134v-85q30 8 66 31.5t69.5 54.5t59 64.5t34.5 61.5h28v-414h-46q30 -26 48.5 -63t18.5 -69zM766 32v261q-15 -18 -38 -37.5t-49 -37t-50.5 -30t-42.5 -15.5v-141h180zM828 -136
q0 85 -72 135l1 1h-140q31 -14 48 -48t17 -79q0 -98 65 -98q16 0 30.5 7t26 19.5t18 28.5t6.5 34zM508 311q0 58 -52 58q-20 0 -34.5 -19.5t-14.5 -48.5q0 -20 8 -37.5t21.5 -31t32 -22.5t39.5 -11v112zM523 -182q0 33 -21 52.5t-54 19.5q-25 0 -36.5 -6.5t-11.5 -32.5
q0 -87 76 -87q19 0 33 15.5t14 38.5z" />
    <glyph glyph-name="mal_sa_la" horiz-adv-x="928" 
d="M774 -132q0 -28 -10 -53t-28 -44t-42.5 -30.5t-52.5 -11.5q-51 0 -77.5 36.5t-26.5 102.5q0 116 -93 116q-63 0 -106 -48l2 -2q21 8 35 8q21 0 39 -8.5t31.5 -23.5t21.5 -36.5t8 -46.5q0 -45 -25.5 -74t-58.5 -29q-23 0 -43.5 9.5t-35.5 26.5t-23.5 40t-8.5 50
q0 34 13.5 64.5t37.5 53t56 35.5t69 13q64 0 100 -38t36 -105q0 -98 65 -98q16 0 30.5 7t26 19.5t18 28.5t6.5 34q0 80 -64 129q-48 14 -76.5 54.5t-28.5 106.5v86q0 135 -110 135q-37 0 -62.5 -22t-25.5 -54v-299h-78v259q0 48 -21 76t-53 28q-28 0 -53 -13t-44 -35.5
t-30.5 -52.5t-11.5 -64q0 -103 110 -183l-26 -24q-29 22 -52 49t-39.5 55.5t-25.5 57t-9 54.5q0 45 15 84t40 68t58 45.5t69 16.5q95 0 133 -68q17 31 51.5 49.5t74.5 18.5q34 0 63 -12.5t50 -35t33 -54.5t12 -70v-86q0 -51 20.5 -82.5t51.5 -31.5q27 0 52 13.5t44.5 36
t31 51.5t11.5 61q0 24 -9 50.5t-24.5 52t-36.5 48t-44 37.5l25 22q63 -48 97 -111t34 -124q0 -36 -13.5 -69.5t-37 -60t-55 -43.5t-68.5 -21q26 -26 42 -60t16 -64zM433 -182q0 33 -21 52.5t-54 19.5q-25 0 -36.5 -6.5t-11.5 -32.5q0 -87 76 -87q19 0 33 15.5t14 38.5z" />
    <glyph glyph-name="mal_ha_la" horiz-adv-x="927" 
d="M847 -132q0 -28 -10 -53t-28 -44t-42.5 -30.5t-52.5 -11.5q-51 0 -77.5 36.5t-26.5 102.5q0 116 -93 116q-63 0 -106 -48l2 -2q21 8 35 8q21 0 39 -8.5t31.5 -23.5t21.5 -36.5t8 -46.5q0 -45 -25.5 -74t-58.5 -29q-23 0 -43.5 9.5t-35.5 26.5t-23.5 40t-8.5 50
q0 48 27 89t72 61h-237v7q67 42 67 116q0 42 -26 70t-68 28q-24 0 -43.5 -8.5t-34 -22.5t-22.5 -33.5t-8 -40.5q0 -54 48 -102l-28 -23q-62 68 -62 143q0 31 12.5 58t34 46t52 30t66.5 11q33 0 62 -12t50 -32.5t33 -48.5t12 -60q0 -55 -33 -94h229q-30 30 -51.5 76t-21.5 92
q0 44 16 84t43.5 70.5t65 48.5t80.5 18q42 0 79 -16.5t64 -45t42.5 -66.5t15.5 -80q0 -57 -30 -110t-88 -96q16 -13 30 -30t24 -35t16 -37t6 -37zM600 0q31 -14 48 -48t17 -79q0 -98 65 -98q16 0 30.5 7t26 19.5t18 28.5t6.5 34q0 79 -63 129l-2 -2l-7 8l1 1l-20 29
q91 61 91 156q0 33 -10 62t-28.5 50t-44.5 33.5t-57 12.5q-64 0 -105 -41.5t-41 -111.5q0 -30 9.5 -59.5t26.5 -54t39.5 -43t48.5 -26.5v-7h-49zM506 -182q0 33 -21 52.5t-54 19.5q-25 0 -36.5 -6.5t-11.5 -32.5q0 -87 76 -87q19 0 33 15.5t14 38.5z" />
    <glyph glyph-name="glyph201" 
d="M188 166q0 -27 -19.5 -47t-47.5 -20q-29 0 -48 20t-19 47q0 28 19 48t48 20q27 0 47 -20t20 -48z" />
    <glyph glyph-name="mal_ka_ka" horiz-adv-x="1006" 
d="M968 204q0 -122 -117 -219l-46 21q85 73 85 182q0 37 -12.5 70t-34 58t-50.5 39t-61 14q-23 0 -45.5 -10t-41.5 -28t-33 -41.5t-20 -50.5h51q136 0 136 -127q0 -57 -30.5 -89t-78.5 -32q-23 0 -44 13t-37.5 36.5t-26 56t-9.5 70.5q0 2 0.5 12t1.5 28h-44
q0 -49 -10.5 -88.5t-29.5 -68t-45.5 -44t-58.5 -15.5q-77 0 -114 75q-29 -75 -92 -75q-25 0 -47 10t-39 27.5t-27 42.5t-10 55q0 54 32.5 83.5t95.5 29.5h64q0 37 9.5 70.5t26.5 58t41.5 39t54.5 14.5q60 0 99 -48.5t47 -133.5h53q17 85 66 133.5t121 48.5q45 0 85 -18
t70 -48t47.5 -69t17.5 -82zM443 207h-183q-1 -2 -1 -8v-19q0 -66 24.5 -104.5t63.5 -38.5q45 0 70.5 42t25.5 111v17zM443 239q-4 54 -28 92t-66 38q-38 0 -63.5 -35t-25.5 -95h183zM717 118q0 39 -20 64t-52 25h-58q-4 -12 -4 -47q0 -22 5 -43t14 -37.5t21 -26.5t27 -10
t27 6.5t21 17t14 24t5 27.5zM230 207h-32q-92 0 -92 -76q0 -18 5 -35t13.5 -30t20.5 -21t26 -8q28 0 43.5 25t15.5 65v80z" />
    <glyph glyph-name="mal_ka_ssa" horiz-adv-x="1227" 
d="M1180 0h-627v7q15 6 29 18t24.5 28t17 34t6.5 35q0 85 -81 85h-37q0 -49 -10.5 -88.5t-29.5 -68t-45.5 -44t-58.5 -15.5q-77 0 -114 75q-29 -75 -92 -75q-25 0 -47 10t-39 27.5t-27 42.5t-10 55q0 54 32.5 83.5t95.5 29.5h64q0 37 9.5 70.5t26.5 58t41.5 39t54.5 14.5
q60 0 99 -48.5t47 -133.5h62q57 0 92 -34t35 -94q0 -49 -33 -79h180v135q-29 0 -56 11.5t-47.5 30.5t-33 44.5t-12.5 54.5q0 22 9.5 42.5t25.5 36t37.5 25t46.5 9.5q108 0 108 -134v-85q30 8 66 31.5t69.5 54.5t59 64.5t34.5 61.5h28v-414zM1103 32v261q-15 -18 -38 -37.5
t-49 -37t-50.5 -30t-42.5 -15.5v-141h180zM444 207h-183q-1 -2 -1 -8v-19q0 -66 24.5 -104.5t63.5 -38.5q45 0 70.5 42t25.5 111v17zM444 239q-4 54 -28 92t-66 38q-38 0 -63.5 -35t-25.5 -95h183zM231 207h-32q-92 0 -92 -76q0 -18 5 -35t13.5 -30t20.5 -21t26 -8
q28 0 43.5 25t15.5 65v80zM845 311q0 58 -52 58q-20 0 -34.5 -19.5t-14.5 -48.5q0 -20 8 -37.5t21.5 -31t32 -22.5t39.5 -11v112z" />
    <glyph glyph-name="mal_ga_ga" horiz-adv-x="651" 
d="M613 221q0 -34 -10 -68t-27.5 -64.5t-41.5 -56t-51 -41.5l-24 23q112 70 112 194q0 31 -10.5 59.5t-28 49.5t-39.5 33.5t-46 12.5q-87 0 -87 -145v-57q0 -36 -12 -67t-32 -54t-46.5 -36t-55.5 -13q-36 0 -68 16.5t-56 44.5t-38 64.5t-14 77.5q0 32 10.5 65.5t28.5 63.5
t42.5 55.5t53.5 42.5l20 -24q-113 -81 -113 -197q0 -30 10 -57.5t27 -48t40 -33t49 -12.5q40 0 63 37.5t23 103.5v67q0 36 12 66t33 52t48.5 34t59.5 12q36 0 66.5 -15.5t53 -42.5t35.5 -63.5t13 -78.5zM603 -161q0 -72 -78 -147l-22 19q64 61 64 128q0 22 -6.5 41.5
t-18.5 34t-27.5 23t-33.5 8.5q-68 0 -68 -134q0 -26 -9 -47.5t-24 -36.5t-34 -23.5t-39 -8.5q-27 0 -51 12t-43 31.5t-30 44.5t-11 51q0 42 23.5 83.5t63.5 67.5l22 -23q-73 -45 -73 -122q0 -20 7.5 -38t20.5 -31.5t29 -21.5t34 -8q59 0 59 99q0 76 24.5 110.5t84.5 34.5
q28 0 52.5 -11t43 -31t29.5 -47t11 -58z" />
    <glyph glyph-name="mal_ga_ma" horiz-adv-x="1018" 
d="M980 0h-437v249q0 126 -90 126q-52 0 -73 -31.5t-21 -103.5v-86q0 -36 -9.5 -66t-26.5 -51.5t-41 -33.5t-53 -12q-40 0 -75 16.5t-60.5 43.5t-40.5 62t-15 73q0 61 34 124t97 111l25 -22q-24 -15 -44.5 -37t-36 -48t-24.5 -52.5t-9 -50.5q0 -32 11.5 -61t31 -51.5
t44.5 -36t52 -13.5q31 0 51.5 31.5t20.5 82.5v86q0 81 45 126.5t123 45.5q96 0 141 -88l21 29q42 59 153 59q206 0 206 -250v-171zM932 32v141q0 216 -152 216v-2q66 -44 66 -117q0 -32 -7.5 -58.5t-25 -53.5t-46 -57t-70.5 -69h235zM778 285q0 37 -21 60.5t-50 23.5
q-21 0 -39 -10t-30.5 -26.5t-19.5 -38.5t-7 -46v-221q28 18 57.5 50t54 69t40 74t15.5 65zM602 330l1 3l-2 -1z" />
    <glyph glyph-name="mal_ga_na" horiz-adv-x="961" 
d="M923 205q0 -54 -35.5 -110.5t-98.5 -102.5l-43 19q20 19 38 44t31.5 51t21.5 51t8 45q0 36 -9.5 68t-26 56t-39 38t-48.5 14q-39 0 -63 -24.5t-24 -56.5v-297h-78v299q0 34 -26.5 55t-61.5 21q-110 0 -110 -135v-86q0 -36 -9.5 -66t-26.5 -51.5t-41 -33.5t-53 -12
q-40 0 -75 16.5t-60.5 43.5t-40.5 62t-15 73q0 61 34 124t97 111l25 -22q-24 -15 -44.5 -37t-36 -48t-24.5 -52.5t-9 -50.5q0 -32 11.5 -61t31 -51.5t44.5 -36t52 -13.5q31 0 51.5 31.5t20.5 82.5v86q0 38 11.5 70t32.5 54.5t50 35t64 12.5q40 0 74.5 -18.5t51.5 -49.5
q38 68 133 68q103 0 159 -55t56 -161z" />
    <glyph glyph-name="mal_nga_ka" horiz-adv-x="737" 
d="M699 111q0 -24 -8.5 -45.5t-23.5 -38t-35 -26.5t-42 -10q-33 0 -59 17l-5 45q21 -15 37 -15q26 0 47 21t21 63q0 85 -81 85h-37q0 -49 -10.5 -88.5t-29.5 -68t-45.5 -44t-58.5 -15.5q-77 0 -114 75q-29 -75 -92 -75q-25 0 -47 10t-39 27.5t-27 42.5t-10 55q0 75 62 102
q-64 22 -64 83q0 20 10 39.5t27.5 35.5t40 25.5t46.5 9.5q66 0 93 -75q36 75 109 75q60 0 99 -48.5t47 -133.5h62q57 0 92 -34t35 -94zM445 207h-183q-1 -2 -1 -8v-19q0 -66 24.5 -104.5t63.5 -38.5q45 0 70.5 42t25.5 111v17zM445 239q-4 54 -28 92t-66 38q-38 0 -63.5 -35
t-25.5 -95h183zM232 207h-32q-92 0 -92 -76q0 -18 5 -35t13.5 -30t20.5 -21t26 -8q28 0 43.5 25t15.5 65v80zM232 239v37q0 93 -59 93q-25 0 -46 -18.5t-21 -42.5q0 -27 26.5 -48t65.5 -21h34z" />
    <glyph glyph-name="mal_nga_nga" horiz-adv-x="1092" 
d="M1054 120q0 -26 -12.5 -49.5t-34.5 -41t-51.5 -28t-63.5 -10.5q-58 0 -77 9l-12 54q41 -23 70 -23q20 0 38.5 6.5t33 17.5t23 26t8.5 32q0 80 -100 80h-58v32q60 0 96.5 19t36.5 55q0 30 -26 53t-66 23q-23 0 -43.5 -5.5t-35.5 -15.5t-23.5 -23.5t-8.5 -29.5v-301h-78
v256q0 23 -10 44.5t-26.5 38t-38 26.5t-43.5 10h-17q-1 -1 -8 -1h-5v-2q62 -29 62 -91q0 -54 -57 -87q72 -23 72 -85q0 -23 -9.5 -44.5t-26.5 -38t-39.5 -26t-47.5 -9.5q-33 0 -60 14.5t-46.5 40t-30.5 59t-11 71.5q0 118 88 188q-63 17 -107 17q-51 0 -93.5 -14.5t-74 -41
t-50.5 -63t-23 -81.5l3 -3q12 20 22.5 33.5t22 21t24.5 10.5t30 3q24 0 44 -12t35 -31.5t23.5 -43t8.5 -47.5q0 -57 -30.5 -89t-78.5 -32q-30 0 -55 12.5t-42.5 35.5t-27 55t-9.5 70q0 121 72 189t210 68q88 0 139 -25q46 25 128 25q17 0 38.5 -6t42 -16t37.5 -23.5
t25 -27.5q45 73 146 73q29 0 56.5 -9t49 -24t34.5 -34.5t13 -40.5q0 -69 -61 -100q38 -9 62 -35t24 -58zM521 106q0 26 -22.5 44.5t-55.5 18.5h-24v32h23q13 0 26.5 6t24 15.5t17 22t6.5 25.5q0 22 -19.5 46.5t-47.5 35.5q-20 -11 -36.5 -29t-28.5 -41.5t-19 -50.5t-7 -55
q0 -26 7.5 -50t20 -42.5t30 -29.5t38.5 -11q27 0 47 19t20 44zM219 118q0 33 -18 57.5t-47 24.5q-31 0 -50.5 -21.5t-19.5 -54.5q0 -15 5.5 -29.5t15 -26t21.5 -18.5t26 -7q15 0 27 6.5t21 17t14 24t5 27.5z" />
    <glyph glyph-name="mal_cha_cha" horiz-adv-x="717" 
d="M671 -221h-525v5l444 216h-552v32h190q13 4 26.5 15.5t24 27t17.5 33t7 34.5q0 15 -5.5 29t-15 25.5t-22 18t-27.5 6.5q-32 0 -52.5 -23.5t-20.5 -57.5q0 -18 8 -32h-40q-10 19 -10 52q0 52 33 85.5t90 33.5q29 0 54.5 -10.5t44.5 -29t30 -42.5t11 -51q0 -61 -47 -114
h259v382h78v-635zM593 -189v156l-301 -152v-4h301z" />
    <glyph glyph-name="mal_nya_nya" horiz-adv-x="1526" 
d="M1488 193q0 -51 -30.5 -104t-84.5 -98l-46 16q83 83 83 174q0 40 -15 76.5t-40 64t-57.5 43.5t-66.5 16q-33 0 -49 -10q103 -87 103 -202q0 -36 -10.5 -68t-29.5 -56.5t-45.5 -39t-57.5 -14.5q-27 0 -51 14t-42 37.5t-28.5 55t-10.5 66.5q0 26 7.5 53.5t21 53.5t31 48.5
t38.5 38.5q-20 11 -56 11q-54 0 -85.5 -27.5t-31.5 -81.5v-260h-78v249q0 55 -33.5 90.5t-85.5 35.5q-41 0 -54 -7q101 -83 101 -199q0 -35 -10.5 -67t-29 -57t-43.5 -39.5t-54 -14.5q-27 0 -50.5 14.5t-41.5 38.5t-28.5 54.5t-10.5 62.5q0 115 91 197q-30 11 -62 11
q-22 0 -41.5 -7t-34.5 -18.5t-23.5 -27.5t-8.5 -34v-282h-78v282q0 18 -8.5 33.5t-24 27.5t-37 19t-46.5 7q-76 0 -121.5 -51.5t-54.5 -136.5l3 -3q12 20 22.5 33.5t22 21t24.5 10.5t30 3q24 0 44 -12t35 -31.5t23.5 -43t8.5 -47.5q0 -57 -30.5 -89t-78.5 -32
q-30 0 -55 12.5t-42.5 35.5t-27 55t-9.5 70q0 56 18 103t49.5 81.5t75.5 53.5t96 19q100 0 143 -73q8 15 21.5 28.5t30.5 23.5t36 15.5t38 5.5q62 0 105 -28q55 28 116 28q98 0 149 -85q7 17 21.5 32.5t33 27t39.5 18.5t42 7q62 0 99 -28q46 28 109 28q49 0 90.5 -18
t72 -49.5t48 -73t17.5 -87.5zM1217 170q0 103 -82 173q-95 -77 -95 -180q0 -22 7 -42.5t19 -36.5t28.5 -25.5t34.5 -9.5q19 0 35 9.5t28 26t18.5 38.5t6.5 47zM717 170q0 115 -82 173q-20 -13 -36 -33t-27.5 -44t-18 -50.5t-6.5 -52.5q0 -22 7 -42.5t18.5 -36.5t26.5 -25.5
t30 -9.5q17 0 33 9.5t28 26t19.5 38.5t7.5 47zM219 118q0 33 -18 57.5t-47 24.5q-31 0 -50.5 -21.5t-19.5 -54.5q0 -15 5.5 -29.5t15 -26t21.5 -18.5t26 -7q15 0 27 6.5t21 17t14 24t5 27.5z" />
    <glyph glyph-name="mal_nya_cha" horiz-adv-x="1157" 
d="M1110 0h-624v32h233q18 15 34 35.5t27.5 44t18 48t6.5 48.5q0 36 -8.5 66.5t-24 53t-37 35t-46.5 12.5q-23 0 -41 -5q73 -73 73 -169q0 -29 -10.5 -54.5t-27.5 -44.5t-39.5 -30.5t-47.5 -11.5q-23 0 -42 9.5t-33.5 26.5t-22.5 40.5t-8 51.5q0 92 85 171q-28 16 -53 16
q-38 0 -60.5 -23.5t-22.5 -61.5v-290h-78v282q0 18 -8.5 33.5t-24 27.5t-37 19t-46.5 7q-76 0 -121.5 -51.5t-54.5 -136.5l3 -3q12 20 22.5 33.5t22 21t24.5 10.5t30 3q24 0 44 -12t35 -31.5t23.5 -43t8.5 -47.5q0 -57 -30.5 -89t-78.5 -32q-30 0 -55 12.5t-42.5 35.5
t-27 55t-9.5 70q0 56 18 103t49.5 81.5t75.5 53.5t96 19q97 0 143 -73q12 29 41 51t63 22q53 0 90 -28q37 28 88 28q37 0 69 -15.5t55 -42t36.5 -62t13.5 -74.5q0 -110 -85 -195h240v382h78v-414zM659 215q0 80 -60 128q-14 -6 -28 -21t-25.5 -34t-18.5 -39.5t-7 -37.5
q0 -19 5.5 -36t15 -29.5t21.5 -20t25 -7.5q32 0 52 27.5t20 69.5zM220 118q0 33 -18 57.5t-47 24.5q-31 0 -50.5 -21.5t-19.5 -54.5q0 -15 5.5 -29.5t15 -26t21.5 -18.5t26 -7q15 0 27 6.5t21 17t14 24t5 27.5z" />
    <glyph glyph-name="mal_tta_tta" horiz-adv-x="456" 
d="M418 137q0 -98 -82 -134v-2q33 -8 52 -32t19 -52q0 -21 -12 -39.5t-33 -31.5t-50 -20.5t-63 -7.5q-89 0 -211 43v52q114 -43 178 -43q23 0 43.5 5.5t36 15t24.5 24t9 32.5q0 53 -84 53h-205v32h208q19 0 37.5 7t32.5 19.5t23 29.5t9 37q0 28 -19.5 38.5t-77.5 10.5
q-8 0 -19.5 -1t-25 -1.5t-26.5 -1.5t-22 -1q-54 0 -88 29t-34 75q0 31 14 58t38.5 47t59.5 31.5t77 11.5q23 0 49 -5t51 -14t47.5 -21.5t37.5 -26.5l-25 -25q-58 52 -151 52q-29 0 -54 -8t-43 -21.5t-28.5 -31t-10.5 -35.5q0 -20 19.5 -32t47.5 -12q7 0 21 0.5t29 1.5
t27.5 1.5t17.5 0.5q156 0 156 -108z" />
    <glyph glyph-name="mal_nna_nna" horiz-adv-x="1036" 
d="M998 207q0 -113 -135 -216l-41 19q98 101 98 195q0 37 -10.5 68.5t-28 54t-39.5 35t-44 12.5q-37 0 -62.5 -22t-25.5 -54v-299h-78v259q0 24 -8.5 44t-22.5 35t-34 23.5t-42 8.5q-38 0 -62.5 -20t-24.5 -48v-302h-78v282q0 18 -8.5 33.5t-24 27.5t-37 19t-46.5 7
q-76 0 -121.5 -51.5t-54.5 -136.5l3 -3q12 20 22.5 33.5t22 21t24.5 10.5t30 3q24 0 44 -12t35 -31.5t23.5 -43t8.5 -47.5q0 -57 -30.5 -89t-78.5 -32q-30 0 -55 12.5t-42.5 35.5t-27 55t-9.5 70q0 56 18 103t49.5 81.5t75.5 53.5t96 19q101 0 144 -73q45 73 127 73
q114 0 144 -68q17 31 51.5 49.5t74.5 18.5q37 0 69.5 -16.5t57 -45.5t39 -68t14.5 -84zM920 -152q0 -84 -88 -150l-29 14q69 63 69 129q0 51 -25.5 78.5t-63.5 27.5q-57 0 -57 -48v-193h-68v183q0 25 -16.5 41t-41.5 16q-65 0 -65 -56v-184h-68v177q0 12 -6.5 23t-16.5 19.5
t-23.5 13.5t-26.5 5q-20 0 -39 -8.5t-34.5 -22.5t-25.5 -32.5t-11 -38.5l3 -2q20 29 55 29t56.5 -27t21.5 -63q0 -83 -73 -83q-20 0 -37 9.5t-29.5 26.5t-19.5 39.5t-7 49.5q0 35 12 65t32.5 51.5t48 34t58.5 12.5q68 0 113 -49q40 49 101 49t90 -47q29 47 84 47
q24 0 47 -10t41 -28t28.5 -43t10.5 -55zM219 118q0 33 -18 57.5t-47 24.5q-31 0 -50.5 -21.5t-19.5 -54.5q0 -15 5.5 -29.5t15 -26t21.5 -18.5t26 -7q15 0 27 6.5t21 17t14 24t5 27.5zM388 -219q0 21 -13 36.5t-32 15.5q-41 0 -41 -48q0 -49 47 -49q39 0 39 45z" />
    <glyph glyph-name="mal_nna_tta" horiz-adv-x="1096" 
d="M1058 82q0 -42 -35.5 -69.5t-101.5 -27.5q-43 0 -82.5 4t-74.5 12l-9 49q57 -19 133 -19q92 0 92 48q0 38 -80 38q-141 0 -141 71q0 36 23.5 59t62.5 23q8 0 22 -1.5t28.5 -3t26.5 -2.5t16 -1q15 0 26 12.5t11 26.5q0 15 -8.5 28.5t-23 23.5t-34.5 16t-44 6
q-34 0 -62.5 -7.5t-49 -19.5t-32 -28t-11.5 -33v-287h-78v259q0 24 -8.5 44t-22.5 34.5t-34 23t-42 8.5q-38 0 -62.5 -20t-24.5 -48v-301h-78v282q0 18 -8.5 33.5t-24 27.5t-37 19t-46.5 7q-76 0 -121.5 -51.5t-54.5 -136.5l3 -3q12 20 22.5 33.5t22 21t24.5 10.5t30 3
q24 0 44 -12t35 -31.5t23.5 -43t8.5 -47.5q0 -57 -30.5 -89t-78.5 -32q-30 0 -55 12.5t-42.5 35.5t-27 55t-9.5 70q0 56 18 103t49.5 81.5t75.5 53.5t96 19q101 0 144 -73q45 73 127 73q48 0 88 -25t58 -60q60 85 182 85q36 0 68 -10t56.5 -27.5t38.5 -41t14 -50.5
q0 -28 -21 -49.5t-53 -21.5q-22 0 -46.5 6.5t-36.5 6.5q-23 0 -41 -13t-18 -31q0 -36 71 -36l60 3q40 0 65 -20t25 -55zM219 118q0 33 -18 57.5t-47 24.5q-31 0 -50.5 -21.5t-19.5 -54.5q0 -15 5.5 -29.5t15 -26t21.5 -18.5t26 -7q15 0 27 6.5t21 17t14 24t5 27.5z" />
    <glyph glyph-name="mal_nna_dda" horiz-adv-x="1523" 
d="M1485 209q0 -48 -12.5 -88.5t-34 -69t-50 -44.5t-61.5 -16q-51 0 -95 20.5t-62 51.5q-46 -70 -115 -70q-185 0 -185 174v106q0 45 -19 73.5t-53 28.5q-37 0 -62.5 -22t-25.5 -54v-299h-78v259q0 25 -8.5 45.5t-23.5 35t-34.5 22t-40.5 7.5q-37 0 -62 -19.5t-25 -47.5
v-302h-78v282q0 18 -8.5 33.5t-24 27.5t-37 19t-46.5 7q-76 0 -121.5 -51.5t-54.5 -136.5l3 -3q12 20 22.5 33.5t22 21t24.5 10.5t30 3q24 0 44 -12t35 -31.5t23.5 -43t8.5 -47.5q0 -57 -30.5 -89t-78.5 -32q-30 0 -55 12.5t-42.5 35.5t-27 55t-9.5 70q0 56 18 103
t49.5 81.5t75.5 53.5t96 19q101 0 144 -73q45 73 127 73q100 0 144 -68q17 31 51.5 49.5t74.5 18.5q60 0 95.5 -40t35.5 -109v-114q0 -55 33 -87t82 -32q15 0 30.5 5.5t28 15t21 23t8.5 29.5v304h78v-259q0 -106 74 -106q27 0 52 13.5t44.5 36t31 53t11.5 64.5
q0 104 -110 181l26 24q28 -21 51.5 -47.5t40 -54.5t25.5 -57t9 -55zM219 118q0 33 -18 57.5t-47 24.5q-31 0 -50.5 -21.5t-19.5 -54.5q0 -15 5.5 -29.5t15 -26t21.5 -18.5t26 -7q15 0 27 6.5t21 17t14 24t5 27.5z" />
    <glyph glyph-name="mal_nna_ma" horiz-adv-x="1015" 
d="M977 0h-402v132q0 175 30 210q-38 33 -84 33q-37 0 -60 -24t-23 -61v-290h-78v282q0 18 -8.5 33.5t-24 27.5t-37 19t-46.5 7q-76 0 -121.5 -51.5t-54.5 -136.5l3 -3q12 20 22.5 33.5t22 21t24.5 10.5t30 3q24 0 44 -12t35 -31.5t23.5 -43t8.5 -47.5q0 -57 -30.5 -89
t-78.5 -32q-30 0 -55 12.5t-42.5 35.5t-27 55t-9.5 70q0 56 18 103t49.5 81.5t75.5 53.5t96 19q97 0 143 -73q12 29 41 51t63 22q62 0 115 -38q59 38 132 38q206 0 206 -250v-171zM929 32v141q0 216 -152 216v-2q66 -44 66 -117q0 -32 -7.5 -58.5t-25 -53.5t-46 -57
t-70.5 -69h235zM775 285q0 37 -21 60.5t-50 23.5q-99 0 -99 -171v-166q170 123 170 253zM219 118q0 33 -18 57.5t-47 24.5q-31 0 -50.5 -21.5t-19.5 -54.5q0 -15 5.5 -29.5t15 -26t21.5 -18.5t26 -7q15 0 27 6.5t21 17t14 24t5 27.5z" />
    <glyph glyph-name="mal_ta_ta" horiz-adv-x="1231" 
d="M1193 193q0 -51 -30.5 -104t-84.5 -98l-46 16q83 83 83 174q0 41 -15 77.5t-39.5 63.5t-57 43t-67.5 16q-43 0 -56 -10q103 -87 103 -202q0 -36 -10.5 -68t-29.5 -56.5t-45.5 -39t-57.5 -14.5q-27 0 -51 14t-42 37.5t-28.5 55t-10.5 66.5q0 26 7.5 53.5t21 53.5t31 48.5
t38.5 38.5q-20 11 -56 11q-54 0 -85.5 -27.5t-31.5 -81.5v-260h-78v249q0 55 -33.5 90.5t-85.5 35.5q-41 0 -54 -7q101 -83 101 -199q0 -36 -10.5 -68t-29.5 -56.5t-45.5 -39t-57.5 -14.5q-27 0 -51 14t-42 37.5t-28.5 55t-10.5 66.5q0 26 7.5 53.5t21 53.5t31 48.5
t38.5 38.5q-28 11 -65 11q-30 0 -59 -14.5t-51.5 -38.5t-36.5 -55t-14 -63q0 -123 89 -191l-31 -16q-100 81 -100 220q0 43 15.5 81t42.5 66.5t64 45.5t81 17q59 0 108 -28q55 28 116 28q98 0 149 -85q7 17 21.5 32.5t33 27t39.5 18.5t42 7q62 0 99 -28q55 28 116 28
q48 0 89.5 -19t72.5 -50.5t48.5 -72.5t17.5 -86zM915 170q0 103 -82 173q-95 -77 -95 -180q0 -22 7 -42.5t19 -36.5t28.5 -25.5t34.5 -9.5q19 0 35 9.5t28 26t18.5 38.5t6.5 47zM415 170q0 103 -82 173q-95 -77 -95 -180q0 -22 7 -42.5t19 -36.5t28.5 -25.5t34.5 -9.5
q19 0 35 9.5t28 26t18.5 38.5t6.5 47z" />
    <glyph glyph-name="mal_ta_tha" horiz-adv-x="1170" 
d="M1131 0h-604v12q16 10 30.5 28t25 41t16.5 50.5t6 56.5q0 37 -14.5 72t-38 62t-54 43t-61.5 16q-40 0 -56 -10q103 -87 103 -202q0 -36 -10.5 -68t-29.5 -56.5t-45.5 -39t-57.5 -14.5q-27 0 -51 14t-42 37.5t-28.5 55t-10.5 66.5q0 26 7.5 53.5t21 53.5t31 48.5
t38.5 38.5q-28 11 -65 11q-30 0 -59 -14.5t-51.5 -38.5t-36.5 -55t-14 -63q0 -123 89 -191l-31 -16q-100 81 -100 220q0 43 15.5 81t42.5 66.5t64 45.5t81 17q59 0 108 -28q49 28 116 28q44 0 82.5 -17.5t67 -46.5t45 -68t16.5 -81q0 -26 -2.5 -46.5t-9.5 -40.5t-19 -41
t-31 -48h135v212q0 81 51.5 129t139.5 48q42 0 77 -14t60 -40t39 -63t14 -83v-221zM1101 32v150q0 187 -142 187q-131 0 -131 -143v-194h273zM416 170q0 103 -82 173q-95 -77 -95 -180q0 -22 7 -42.5t19 -36.5t28.5 -25.5t34.5 -9.5q19 0 35 9.5t28 26t18.5 38.5t6.5 47z
" />
    <glyph glyph-name="mal_ta_bha" horiz-adv-x="991" 
d="M953 82q0 -42 -35.5 -69.5t-101.5 -27.5q-43 0 -82.5 4t-74.5 12l-9 49q57 -19 133 -19q92 0 92 48q0 38 -80 38q-141 0 -141 71q0 36 23.5 59t62.5 23q8 0 22 -1.5t28.5 -3t26.5 -2.5t16 -1q15 0 26 12.5t11 26.5q0 15 -8.5 28.5t-23 23.5t-34.5 16t-44 6
q-34 0 -62.5 -7.5t-49 -19.5t-32 -28t-11.5 -33v-287h-78v259q0 24 -8.5 44t-22.5 34.5t-34 23t-42 8.5q-6 0 -14 -1t-18 -3q76 -70 76 -176q0 -41 -10.5 -77t-28.5 -63t-43.5 -42.5t-55.5 -15.5q-24 0 -46.5 11.5t-39 32t-26.5 47.5t-10 58q0 29 7 59t20.5 58t31.5 52
t41 42q-15 12 -54 12q-35 0 -66 -15.5t-54 -41t-36.5 -58t-13.5 -66.5q0 -106 91 -176l-21 -21q-24 18 -44.5 43t-35.5 52.5t-23.5 57t-8.5 56.5q0 47 16 88.5t44.5 72t68 48.5t86.5 18q52 0 102 -29l32 18q31 11 56 11q48 0 88 -25t58 -60q60 85 182 85q36 0 68 -10
t56.5 -27.5t38.5 -41t14 -50.5q0 -28 -21 -49.5t-53 -21.5q-22 0 -46.5 6.5t-36.5 6.5q-23 0 -41 -13t-18 -31q0 -36 71 -36l60 3q40 0 65 -20t25 -55zM392 176q0 21 -4.5 44.5t-12.5 45t-18.5 39t-22.5 26.5q-19 -14 -36 -35t-30 -45t-20.5 -49t-7.5 -46t6.5 -40t17 -34
t23.5 -24t27 -9q32 0 55 35.5t23 91.5z" />
    <glyph glyph-name="mal_ta_sa" horiz-adv-x="1163" 
d="M1125 186q0 -38 -15 -73t-40.5 -62t-60.5 -43.5t-75 -16.5q-29 0 -53 12t-41 33.5t-26.5 51.5t-9.5 66v86q0 135 -110 135q-37 0 -62.5 -22t-25.5 -54v-299h-78v259q0 25 -9 45.5t-24 34.5t-34.5 22t-40.5 8q-6 0 -14 -1t-18 -3q76 -70 76 -176q0 -41 -10.5 -77
t-28.5 -63t-43.5 -42.5t-55.5 -15.5q-24 0 -46.5 11.5t-39 32t-26.5 47.5t-10 58q0 29 7 59t20.5 58t31.5 52t41 42q-15 12 -54 12q-35 0 -66 -15.5t-54 -41t-36.5 -58t-13.5 -66.5q0 -106 91 -176l-21 -21q-24 18 -44.5 43t-35.5 52.5t-23.5 57t-8.5 56.5q0 47 16 88.5
t44.5 72t68 48.5t86.5 18q52 0 102 -29l32 18q31 11 56 11q43 0 82 -21t59 -54q17 35 52.5 55t77.5 20q34 0 63 -12.5t50 -35t33 -54.5t12 -70v-86q0 -51 20.5 -82.5t51.5 -31.5q27 0 52 13.5t44.5 36t31 51.5t11.5 61q0 24 -9 50.5t-24.5 52t-36.5 48t-44 37.5l25 22
q63 -48 97 -111t34 -124zM392 176q0 21 -4.5 44.5t-12.5 45t-18.5 39t-22.5 26.5q-19 -14 -36 -35t-30 -45t-20.5 -49t-7.5 -46t6.5 -40t17 -34t23.5 -24t27 -9q32 0 55 35.5t23 91.5z" />
    <glyph glyph-name="mal_ta_ma" horiz-adv-x="1081" 
d="M1043 0h-441v224q0 25 -15.5 52.5t-39.5 50.5t-53.5 38.5t-57.5 15.5q-40 0 -56 -10q103 -87 103 -202q0 -36 -10.5 -68t-29.5 -56.5t-45.5 -39t-57.5 -14.5q-27 0 -51 14t-42 37.5t-28.5 55t-10.5 66.5q0 26 7.5 53.5t21 53.5t31 48.5t38.5 38.5q-28 11 -65 11
q-30 0 -59 -14.5t-51.5 -38.5t-36.5 -55t-14 -63q0 -123 89 -191l-31 -16q-100 81 -100 220q0 43 15.5 81t42.5 66.5t64 45.5t81 17q59 0 108 -28q49 28 116 28q71 0 120 -37l52 -46q62 83 176 83q230 0 230 -218v-203zM994 32v141q0 216 -152 216v-2q66 -44 66 -117
q0 -32 -7.5 -58.5t-25 -53.5t-46 -57t-70.5 -69h235zM840 285q0 37 -21 60.5t-50 23.5q-99 0 -99 -178v-159q170 123 170 253zM415 170q0 103 -82 173q-95 -77 -95 -180q0 -22 7 -42.5t19 -36.5t28.5 -25.5t34.5 -9.5q19 0 35 9.5t28 26t18.5 38.5t6.5 47z" />
    <glyph glyph-name="mal_ta_na" horiz-adv-x="947" 
d="M909 207q0 -113 -135 -216l-41 19q98 101 98 195q0 37 -10.5 68.5t-28 54t-39.5 35t-44 12.5q-37 0 -62.5 -22t-25.5 -54v-299h-78v259q0 52 -28 84t-79 32q-41 0 -54 -7q101 -83 101 -199q0 -36 -10.5 -68t-29.5 -56.5t-45.5 -39t-57.5 -14.5q-27 0 -51 14t-42 37.5
t-28.5 55t-10.5 66.5q0 26 7.5 53.5t21 53.5t31 48.5t38.5 38.5q-28 11 -65 11q-30 0 -59 -14.5t-51.5 -38.5t-36.5 -55t-14 -63q0 -123 89 -191l-31 -16q-100 81 -100 220q0 43 15.5 81t42.5 66.5t64 45.5t81 17q59 0 108 -28q55 28 121 28q95 0 133 -68q17 31 51.5 49.5
t74.5 18.5q37 0 69.5 -16.5t57 -45.5t39 -68t14.5 -84zM415 170q0 103 -82 173q-95 -77 -95 -180q0 -22 7 -42.5t19 -36.5t28.5 -25.5t34.5 -9.5q19 0 35 9.5t28 26t18.5 38.5t6.5 47z" />
    <glyph glyph-name="mal_da_da" horiz-adv-x="454" 
d="M416 -81q0 -21 -11.5 -39.5t-31.5 -32t-46 -21.5t-54 -8q-60 0 -123 25l-14 59q8 -5 22.5 -11t31 -10.5t32.5 -7.5t28 -3q33 0 60.5 15.5t27.5 42.5q0 32 -24.5 52t-72.5 20h-75v32h72q46 0 73 21.5t27 59.5q0 80 -100 80h-58v32q60 0 96.5 19.5t36.5 56.5q0 30 -26.5 52
t-68.5 22q-69 0 -106.5 -57t-37.5 -154q0 -58 26 -164l-35 -9q-27 109 -27 178q0 58 14.5 104.5t40.5 79.5t63.5 50.5t84.5 17.5q29 0 56 -9.5t48 -24.5t33.5 -34.5t12.5 -39.5q0 -69 -61 -100q38 -9 62 -35t24 -58q0 -91 -75 -119v-2q75 -15 75 -80z" />
    <glyph glyph-name="mal_da_dha" horiz-adv-x="851" 
d="M813 186q0 -38 -15 -73t-40.5 -62t-60.5 -43.5t-75 -16.5q-99 0 -129 70q-55 -82 -170 -82q-141 0 -141 83q0 52 61 56q78 6 78 45q0 20 -19.5 35.5t-45.5 15.5h-61v32h47q65 0 65 68q0 24 -21 42.5t-56 18.5q-36 0 -64.5 -15t-49 -42.5t-31.5 -66.5t-11 -87
q0 -71 27 -164l-37 -9q-13 54 -19.5 98t-6.5 80q0 57 15.5 103.5t44 79.5t68.5 51t89 18q28 0 51.5 -8t41 -21.5t27.5 -31.5t10 -37q0 -67 -59 -90l-2 -2q30 -6 52.5 -29.5t22.5 -53.5q0 -27 -22.5 -44.5t-52.5 -17.5q-21 0 -34 -1t-19.5 -4t-8.5 -8t-2 -13q0 -35 88 -35
q57 0 92 24.5t35 60.5v304h78v-261q0 -48 22 -76t57 -28q27 0 52 13.5t44.5 36t31 51.5t11.5 61q0 24 -9 50.5t-24.5 52t-36.5 48t-44 37.5l25 22q63 -48 97 -111t34 -124z" />
    <glyph glyph-name="mal_na_ta" horiz-adv-x="980" 
d="M942 193q0 -51 -30.5 -104t-84.5 -98l-46 16q83 83 83 174q0 41 -15 77.5t-40.5 63.5t-59 43t-70.5 16t-56 -10q103 -87 103 -202q0 -36 -10.5 -68t-29.5 -56.5t-45.5 -39t-57.5 -14.5q-27 0 -51 14t-42 37.5t-28.5 55t-10.5 66.5q0 26 7.5 53.5t21 53.5t31 48.5
t38.5 38.5q-26 17 -72 17q-45 0 -75.5 -21.5t-30.5 -54.5v-299h-78v259q0 48 -21 76t-53 28q-28 0 -53 -13t-44 -35.5t-30.5 -52.5t-11.5 -64q0 -103 110 -183l-26 -24q-29 22 -52 49t-39.5 55.5t-25.5 57t-9 54.5q0 45 15 84t40 68t58 45.5t69 16.5q95 0 133 -68
q47 68 137 68q39 0 102 -28q55 28 116 28q49 0 92 -18t74.5 -48.5t49.5 -72t18 -89.5zM658 170q0 103 -82 173q-95 -77 -95 -180q0 -22 7 -42.5t19 -36.5t28.5 -25.5t34.5 -9.5q19 0 35 9.5t28 26t18.5 38.5t6.5 47z" />
    <glyph glyph-name="mal_na_da" horiz-adv-x="715" 
d="M677 120q0 -26 -12.5 -49.5t-34.5 -41t-51.5 -28t-63.5 -10.5q-58 0 -77 9l-12 54q41 -23 70 -23q20 0 38.5 6.5t33 17.5t23 26t8.5 32q0 80 -100 80h-58v32q60 0 96.5 19t36.5 55q0 30 -26 53t-66 23q-23 0 -43.5 -5.5t-35.5 -15.5t-23.5 -23.5t-8.5 -29.5v-301h-78v259
q0 48 -21 76t-53 28q-28 0 -53 -13t-44 -35.5t-30.5 -52.5t-11.5 -64q0 -103 110 -183l-26 -24q-29 22 -52 49t-39.5 55.5t-25.5 57t-9 54.5q0 45 15 84t40 68t58 45.5t69 16.5q95 0 133 -68q50 68 146 68q29 0 56.5 -9t49 -24t34.5 -34.5t13 -40.5q0 -69 -61 -100
q38 -9 62 -35t24 -58z" />
    <glyph glyph-name="mal_na_na" horiz-adv-x="969" 
d="M931 207q0 -113 -135 -216l-41 19q98 101 98 195q0 37 -10.5 68.5t-28 54t-39.5 35t-44 12.5q-37 0 -62.5 -22t-25.5 -54v-299h-78v259q0 25 -8.5 45.5t-23.5 35t-34.5 22t-40.5 7.5q-35 0 -61 -19t-26 -51v-299h-78v259q0 48 -21 76t-53 28q-28 0 -53 -13t-44 -35.5
t-30.5 -52.5t-11.5 -64q0 -103 110 -183l-26 -24q-29 22 -52 49t-39.5 55.5t-25.5 57t-9 54.5q0 45 15 84t40 68t58 45.5t69 16.5q97 0 134 -73q20 33 55 53t72 20q100 0 144 -68q17 31 51.5 49.5t74.5 18.5q37 0 69.5 -16.5t57 -45.5t39 -68t14.5 -84z" />
    <glyph glyph-name="mal_na_pa" horiz-adv-x="919" 
d="M873 0h-382v22q42 38 66.5 87.5t24.5 95.5q0 37 -10.5 68.5t-28 54t-39.5 35t-44 12.5q-37 0 -62.5 -22t-25.5 -54v-299h-78v259q0 48 -21 76t-53 28q-28 0 -53 -13t-44 -35.5t-30.5 -52.5t-11.5 -64q0 -103 110 -183l-26 -24q-29 22 -52 49t-39.5 55.5t-25.5 57t-9 54.5
q0 45 15 84t40 68t58 45.5t69 16.5q95 0 133 -68q17 31 51.5 49.5t74.5 18.5q37 0 69.5 -16.5t57 -45.5t39 -68t14.5 -84q0 -100 -88 -175h231v382h70v-414z" />
    <glyph glyph-name="mal_na_ma" horiz-adv-x="760" 
d="M722 0h-437v249q0 52 -21 83t-56 31q-26 0 -49 -13t-40.5 -35t-28 -52.5t-10.5 -64.5q0 -115 105 -185l-21 -22q-29 16 -52 40t-39.5 52.5t-25.5 60t-9 63.5q0 48 13 87t36 67.5t55.5 44t70.5 15.5q84 0 129 -88l21 29q42 59 153 59q206 0 206 -250v-171zM674 32v141
q0 216 -152 216v-2q66 -44 66 -117q0 -32 -7.5 -58.5t-25 -53.5t-46 -57t-70.5 -69h235zM520 285q0 37 -21 60.5t-50 23.5q-21 0 -39 -10t-30.5 -26.5t-19.5 -38.5t-7 -46v-221q28 18 57.5 50t54 69t40 74t15.5 65zM344 330l1 3l-2 -1z" />
    <glyph glyph-name="mal_na_tha" horiz-adv-x="1168" 
d="M1130 0h-626l-21 10q98 101 98 195q0 37 -10.5 68.5t-28 54t-39.5 35t-44 12.5q-37 0 -62.5 -22t-25.5 -54v-299h-78v259q0 48 -21 76t-53 28q-28 0 -53 -13t-44 -35.5t-30.5 -52.5t-11.5 -64q0 -103 110 -183l-26 -24q-29 22 -52 49t-39.5 55.5t-25.5 57t-9 54.5
q0 45 15 84t40 68t58 45.5t69 16.5q95 0 133 -68q17 31 51.5 49.5t74.5 18.5q37 0 69.5 -16.5t57 -45.5t39 -68t14.5 -84q0 -23 -6.5 -47.5t-18.5 -48t-28.5 -44t-35.5 -35.5h179v212q0 81 51.5 129t139.5 48q42 0 77 -14t60 -40t39 -63t14 -83v-221zM1100 32v150
q0 187 -142 187q-131 0 -131 -143v-194h273z" />
    <glyph glyph-name="mal_na_dha" horiz-adv-x="1141" 
d="M1103 209q0 -48 -12.5 -88.5t-34 -69t-50 -44.5t-61.5 -16q-51 0 -95 20.5t-62 51.5q-46 -70 -115 -70q-41 0 -68.5 9.5t-44 30.5t-23.5 54t-7 80v106q0 102 -71 102q-37 0 -62.5 -22t-25.5 -54v-299h-78v259q0 48 -21 76t-53 28q-28 0 -53 -13t-44 -35.5t-30.5 -52.5
t-11.5 -64q0 -103 110 -183l-26 -24q-29 22 -52 49t-39.5 55.5t-25.5 57t-9 54.5q0 45 15 84t40 68t58 45.5t69 16.5q95 0 133 -68q38 68 126 68q28 0 52 -11t41 -30.5t27 -47t10 -60.5v-114q0 -66 17.5 -92.5t55.5 -26.5q15 0 30.5 5.5t28 15t21 23t8.5 29.5v304h78v-259
q0 -106 74 -106q27 0 52 13.5t44.5 36t31 53t11.5 64.5q0 104 -110 181l26 24q28 -21 51.5 -47.5t40 -54.5t25.5 -57t9 -55z" />
    <glyph glyph-name="mal_pa_pa" horiz-adv-x="692" 
d="M644 -293h-380v12q55 37 55 90q0 30 -21.5 52.5t-56.5 22.5t-58.5 -23.5t-23.5 -56.5q0 -39 37 -79l-19 -18q-48 55 -48 111q0 22 8.5 42.5t25 36t39.5 24.5t53 9q27 0 48.5 -10t37.5 -26.5t24.5 -38t8.5 -43.5q0 -45 -25 -73h217v261h-351v7q67 42 67 116q0 42 -26 70
t-68 28q-24 0 -43.5 -8.5t-34 -22.5t-22.5 -33.5t-8 -40.5q0 -54 48 -102l-28 -23q-62 68 -62 143q0 31 12.5 58t34 46t52 30t66.5 11q33 0 62 -12t50 -32.5t33 -48.5t12 -60q0 -55 -33 -94h239v382h78v-707z" />
    <glyph glyph-name="mal_ba_ba" horiz-adv-x="986" 
d="M939 -225h-524v5l452 220h-317v23q100 82 100 183q0 36 -9.5 66.5t-26.5 53.5t-40.5 36t-50.5 13q-36 0 -60.5 -19.5t-24.5 -54.5v-301h-78v282q0 18 -8.5 33.5t-24 27.5t-37 19t-46.5 7q-76 0 -121.5 -51.5t-54.5 -136.5l3 -3q12 20 22.5 33.5t22 21t24.5 10.5t30 3
q24 0 44 -12t35 -31.5t23.5 -43t8.5 -47.5q0 -57 -30.5 -89t-78.5 -32q-30 0 -55 12.5t-42.5 35.5t-27 55t-9.5 70q0 56 18 103t49.5 81.5t75.5 53.5t96 19q99 0 144 -74q7 13 19.5 26.5t29 24t35.5 17t40 6.5q37 0 70 -17t58 -45.5t40 -66t15 -78.5q0 -95 -92 -178l2 -4
h223v382h78v-639zM861 -193v156l-300 -152v-4h300zM219 118q0 33 -18 57.5t-47 24.5q-31 0 -50.5 -21.5t-19.5 -54.5q0 -15 5.5 -29.5t15 -26t21.5 -18.5t26 -7q15 0 27 6.5t21 17t14 24t5 27.5z" />
    <glyph glyph-name="mal_ma_ma" horiz-adv-x="850" 
d="M812 0h-774v132q0 66 4.5 119t24 91t58.5 58.5t109 20.5q79 0 122.5 -29t65.5 -98h2q8 58 57 92.5t125 34.5q206 0 206 -250v-171zM764 32v141q0 216 -152 216v-2q66 -44 66 -117q0 -32 -7.5 -58.5t-25 -53.5t-46 -57t-70.5 -69h235zM610 285q0 37 -21 60.5t-50 23.5
q-99 0 -99 -171v-166q170 123 170 253zM392 32v141q0 216 -152 216v-2q66 -44 66 -117q0 -32 -7.5 -58.5t-25 -53.5t-46 -57t-70.5 -69h235zM238 285q0 37 -21 60.5t-50 23.5q-99 0 -99 -171v-166q170 123 170 253z" />
    <glyph glyph-name="mal_ya_ya" horiz-adv-x="745" 
d="M707 -226h-533v5l454 221v46q-61 -55 -153 -55q-55 0 -77 12q-36 -12 -91 -12q-54 0 -103 19t-86 51t-58.5 75.5t-21.5 92.5q0 40 11 75.5t30.5 61t47 40.5t59.5 15q67 0 111 -81q60 81 139 81q28 0 54 -14t45 -36.5t30.5 -52.5t11.5 -61q0 -154 -131 -229q11 -2 19 -3.5
t13 -1.5q37 0 72 16.5t62 45t43 66t16 79.5q0 96 -71 167l25 24q23 -29 39 -53.5t25.5 -47t13.5 -45t4 -47.5v-454zM505 229q0 28 -7.5 53.5t-20.5 44.5t-31.5 30.5t-39.5 11.5h-1q-21 0 -39.5 -11.5t-32 -30t-21 -43t-7.5 -50.5q0 -27 7.5 -56t20.5 -55t31 -46.5t40 -31.5
q22 11 41 30.5t32 44t20.5 52.5t7.5 57zM353 28q-20 10 -39.5 33t-35.5 52.5t-25.5 62t-9.5 62.5q0 55 -23 90t-56 35q-20 0 -37.5 -11t-30.5 -29.5t-20.5 -43t-7.5 -51.5q0 -40 18.5 -77t50 -65.5t73 -45.5t88.5 -17q18 0 31.5 1.5t23.5 3.5zM632 -194v156l-312 -152v-4
h312z" />
    <glyph glyph-name="mal_va_va" horiz-adv-x="697" 
d="M650 -226h-524v5l454 221h-311v19q101 74 101 166q0 33 -10 62t-28.5 50t-44.5 33.5t-57 12.5q-32 0 -59 -11t-47 -31t-31.5 -48.5t-11.5 -62.5q0 -113 102 -174l-16 -25q-60 38 -94 93t-34 113q0 48 16 89t44.5 71t68.5 47t88 17q39 0 74 -17t61.5 -45.5t41.5 -66.5
t15 -79q0 -97 -78 -181h202v382h78v-640zM572 -194v156l-303 -152v-4h303z" />
    <glyph glyph-name="mal_sha_sha" horiz-adv-x="738" 
d="M656 -174q0 -25 -8.5 -46.5t-23.5 -38t-34 -26t-40 -9.5q-39 0 -65 28.5t-26 70.5q0 82 83 148q-20 18 -49 18q-93 0 -93 -116q0 -66 -26.5 -102.5t-77.5 -36.5q-29 0 -53.5 11t-42 30t-27.5 44t-10 54q0 35 20.5 73.5t53.5 64.5q-5 -1 -11 -1.5t-12 -0.5q-36 0 -68 16.5
t-56 44.5t-38 64.5t-14 77.5q0 32 10.5 65.5t28.5 63.5t42.5 55.5t53.5 42.5l20 -24q-113 -81 -113 -197q0 -30 10 -57.5t27 -48t40 -33t49 -12.5q40 0 63 37.5t23 103.5v67q0 37 12.5 67t35 51.5t53 33.5t66.5 12q54 0 98 -17.5t76 -48.5t49.5 -73.5t17.5 -92.5
q0 -41 -10.5 -77t-28.5 -63t-43.5 -42.5t-55.5 -15.5q-5 0 -9 0.5t-9 1.5l6 -3q48 -20 77 -63.5t29 -100.5zM269 4q-7 -4 -14 -5l16 -13q-72 -50 -72 -135q0 -18 6.5 -34t18 -28t26 -19.5t30.5 -7.5q65 0 65 98q0 69 36 106t100 37q8 0 19.5 -1.5t25.5 -3.5l-11 4
q-32 17 -53.5 53.5t-21.5 84.5q0 124 113 214q-32 27 -82 27q-52 0 -81.5 -42.5t-29.5 -117.5v-60q0 -54 -25.5 -96t-65.5 -61zM628 176q0 106 -51 156q-101 -83 -101 -176q0 -21 6.5 -40t17 -34t23.5 -24t27 -9q32 0 55 35.5t23 91.5zM611 -184q0 68 -39 106
q-73 -49 -73 -127q0 -25 16.5 -42.5t35.5 -17.5q10 0 21 6.5t19.5 18t14 26t5.5 30.5z" />
    <glyph glyph-name="mal_sa_sa" horiz-adv-x="928" 
d="M890 186q0 -38 -15 -73t-40.5 -62t-60.5 -43.5t-75 -16.5q-29 0 -53 12t-41 33.5t-26.5 51.5t-9.5 66v86q0 135 -110 135q-37 0 -62.5 -22t-25.5 -54v-299h-78v259q0 48 -21 76t-53 28q-28 0 -53 -13t-44 -35.5t-30.5 -52.5t-11.5 -64q0 -103 110 -183l-26 -24
q-29 22 -52 49t-39.5 55.5t-25.5 57t-9 54.5q0 45 15 84t40 68t58 45.5t69 16.5q95 0 133 -68q17 31 51.5 49.5t74.5 18.5q34 0 63 -12.5t50 -35t33 -54.5t12 -70v-86q0 -51 20.5 -82.5t51.5 -31.5q27 0 52 13.5t44.5 36t31 51.5t11.5 61q0 24 -9 50.5t-24.5 52t-36.5 48
t-44 37.5l25 22q63 -48 97 -111t34 -124zM820 -158q0 -26 -10 -50.5t-27.5 -43t-40.5 -29.5t-49 -11q-107 0 -107 128v46q0 36 -20 59t-51 23q-57 0 -57 -52v-198h-68v176q0 24 -15 44t-41 20q-20 0 -36.5 -8.5t-28 -22.5t-18 -32t-6.5 -36q0 -77 75 -134l-21 -21
q-90 70 -90 154q0 29 11 54.5t30 44.5t43 30t50 11q60 0 92 -45q30 47 95 47q52 0 81.5 -33.5t29.5 -93.5v-12q0 -62 12.5 -85.5t49.5 -23.5q16 0 30.5 8.5t26 22t18 31.5t6.5 38q0 73 -70 125l16 18q42 -24 66 -65.5t24 -83.5z" />
    <glyph glyph-name="mal_lla_lla" horiz-adv-x="1078" 
d="M1040 106q0 -106 -154 -106h-188q-64 0 -64 -48q0 -34 44 -34h354v-78h-883q-101 0 -101 100q0 92 102 92h148q126 0 126 81q0 80 -107 80v32q14 0 28.5 6t26.5 16.5t19.5 23.5t7.5 28q0 76 -140 76q-156 0 -181 -106l4 -3q34 52 89 52q23 0 42 -10t33 -27t21.5 -38.5
t7.5 -43.5q0 -24 -9 -46.5t-24.5 -39.5t-35.5 -27.5t-42 -10.5q-27 0 -50.5 11t-40 31.5t-26 48t-9.5 60.5q0 45 16 81t46 61.5t71.5 39t92.5 13.5q47 0 86.5 -8.5t67.5 -23t43.5 -34.5t15.5 -42q0 -69 -61 -100q86 -20 86 -107q0 -106 -154 -106h-188q-64 0 -64 -48
q0 -34 44 -34h447q-1 1 -1 22q0 92 102 92h148q126 0 126 81q0 80 -107 80v32q14 0 28.5 6t26.5 16.5t19.5 23.5t7.5 28q0 76 -140 76q-156 0 -181 -106l4 -3q34 52 89 52q23 0 42 -10t33 -27t21.5 -38.5t7.5 -43.5q0 -24 -9 -46.5t-24.5 -39.5t-35.5 -27.5t-42 -10.5
q-27 0 -50.5 11t-40 31.5t-26 48t-9.5 60.5q0 45 16 81t46 61.5t71.5 39t92.5 13.5q47 0 86.5 -8.5t67.5 -23t43.5 -34.5t15.5 -42q0 -69 -61 -100q86 -20 86 -107zM751 202q0 32 -17 54t-41 22q-23 0 -39 -21t-16 -54q0 -37 16 -59.5t42 -22.5q22 0 38.5 23t16.5 58z
M213 202q0 32 -17 54t-41 22q-23 0 -39 -21t-16 -54q0 -37 16 -59.5t42 -22.5q22 0 38.5 23t16.5 58z" />
    <glyph glyph-name="mal_rra_rra" horiz-adv-x="485" 
d="M447 213q0 -63 -37 -121.5t-106 -100.5l-26 38q91 61 91 156q0 33 -10 62t-28.5 50t-44.5 33.5t-57 12.5q-32 0 -59 -11t-47 -31t-31.5 -48.5t-11.5 -62.5q0 -113 102 -174l-16 -25q-60 38 -94 93t-34 113q0 48 16 89t44.5 71t68.5 47t88 17q39 0 74 -17t61.5 -45.5
t41.5 -66.5t15 -79zM385 -146q0 -87 -91 -148l-22 29q58 52 58 100q0 22 -8 41t-22 33t-32 22.5t-39 8.5q-48 0 -78 -27.5t-30 -67.5q0 -70 66 -119l-14 -22q-88 58 -88 139q0 31 11 58.5t31 47.5t48.5 31.5t64.5 11.5q31 0 57.5 -10t46 -28t30.5 -43.5t11 -56.5z" />
    <glyph glyph-name="mal_ha_na" horiz-adv-x="1136" 
d="M1098 207q0 -113 -135 -216l-41 19q98 101 98 195q0 37 -10.5 68.5t-28 54t-39.5 35t-44 12.5q-37 0 -62.5 -22t-25.5 -54v-299h-78v259q0 48 -21 76t-53 28q-28 0 -53 -13t-44 -35.5t-30.5 -52.5t-11.5 -64q0 -96 88 -166v-32h-392v7q67 42 67 116q0 42 -26 70t-68 28
q-24 0 -43.5 -8.5t-34 -22.5t-22.5 -33.5t-8 -40.5q0 -54 48 -102l-28 -23q-62 68 -62 143q0 31 12.5 58t34 46t52 30t66.5 11q33 0 62 -12t50 -32.5t33 -48.5t12 -60q0 -55 -33 -94h233q-83 89 -83 175q0 45 15 84t40 68t58 45.5t69 16.5q95 0 133 -68q17 31 51.5 49.5
t74.5 18.5q37 0 69.5 -16.5t57 -45.5t39 -68t14.5 -84z" />
    <glyph glyph-name="mal_ka_tta" horiz-adv-x="733" 
d="M701 -175q0 -18 -9 -34t-24.5 -27.5t-36 -18.5t-42.5 -7q-26 0 -52.5 9t-54.5 26l1 27q55 -34 101 -34q31 0 54 16t23 36q0 17 -11 23t-45 6q-9 0 -27.5 -1.5t-29.5 -1.5q-32 0 -52 17.5t-20 44.5q0 33 25.5 57t67.5 29q-24 5 -41 16l-5 45q21 -15 37 -15q26 0 47 21
t21 63q0 85 -81 85h-37q0 -49 -10.5 -88.5t-29.5 -68t-45.5 -44t-58.5 -15.5q-77 0 -114 75q-29 -75 -92 -75q-25 0 -47 10t-39 27.5t-27 42.5t-10 55q0 54 32.5 83.5t95.5 29.5h64q0 37 9.5 70.5t26.5 58t41.5 39t54.5 14.5q60 0 99 -48.5t47 -133.5h62q57 0 92 -34t35 -94
q0 -22 -7 -42t-20 -36t-30 -27t-37 -14q26 -3 53 -14t43 -25l-15 -14q-36 30 -90 30q-34 0 -57.5 -17t-23.5 -39q0 -12 12 -19.5t28 -7.5q5 0 13.5 0.5t17 0.5t16 0.5t10.5 0.5q47 0 69.5 -15t22.5 -48zM442 207h-183q-1 -4 -1 -7.5v-6.5v-13q0 -66 24.5 -104.5t63.5 -38.5
q45 0 70.5 42t25.5 111v17zM442 239q-4 54 -28.5 92t-65.5 38q-38 0 -63.5 -35t-25.5 -95h183zM229 207h-32q-92 0 -92 -76q0 -18 5 -35t13.5 -30t20.5 -21t26 -8q28 0 43.5 25t15.5 65v80z" />
    <glyph glyph-name="mal_ssa_tta" horiz-adv-x="890" 
d="M843 0h-627v7q67 42 67 116q0 42 -26 70t-68 28q-24 0 -43.5 -8.5t-34 -22.5t-22.5 -33.5t-8 -40.5q0 -54 48 -102l-28 -23q-62 68 -62 143q0 31 12.5 58t34 46t52 30t66.5 11q33 0 62 -12t50 -32.5t33 -48.5t12 -60q0 -55 -33 -94h180v135q-29 0 -56 11.5t-47.5 30.5
t-33 44.5t-12.5 54.5q0 22 9.5 42.5t25.5 36t37.5 25t46.5 9.5q108 0 108 -134v-85q30 8 66 31.5t69.5 54.5t59 64.5t34.5 61.5h28v-414zM766 32v261q-15 -18 -38 -37.5t-49 -37t-50.5 -30t-42.5 -15.5v-141h180zM508 311q0 58 -52 58q-20 0 -34.5 -19.5t-14.5 -48.5
q0 -20 8 -37.5t21.5 -31t32 -22.5t39.5 -11v112zM861 -175q0 -18 -9 -34t-24.5 -27.5t-36 -18.5t-42.5 -7q-26 0 -52.5 9t-54.5 26l1 27q55 -34 101 -34q31 0 54 16t23 36q0 17 -11 23t-45 6q-9 0 -27.5 -1.5t-29.5 -1.5q-32 0 -52 17.5t-20 44.5q0 36 30.5 61.5t81.5 25.5
q28 0 60 -11.5t50 -28.5l-15 -14q-36 30 -90 30q-34 0 -57.5 -17t-23.5 -39q0 -12 12 -19.5t28 -7.5q5 0 13.5 0.5t17 0.5t16 0.5t10.5 0.5q47 0 69.5 -15t22.5 -48z" />
    <glyph glyph-name="mal_sha_cha" horiz-adv-x="1179" 
d="M1141 0h-663v32h260q45 34 65 76.5t20 84.5q0 33 -11 62.5t-30.5 52.5t-46.5 36.5t-59 13.5q-10 0 -19.5 -1t-20.5 -4q29 -28 46.5 -63.5t17.5 -74.5q0 -72 -38.5 -114.5t-99.5 -42.5q-30 0 -53 10.5t-38 28t-23 40.5t-8 49q0 48 28 95t85 73q-32 27 -82 27
q-52 0 -81.5 -42.5t-29.5 -117.5v-60q0 -36 -12 -67t-32 -54t-46.5 -36t-55.5 -13q-36 0 -68 16.5t-56 44.5t-38 64.5t-14 77.5q0 32 10.5 65.5t28.5 63.5t42.5 55.5t53.5 42.5l20 -24q-113 -81 -113 -197q0 -30 10 -57.5t27 -48t40 -33t49 -12.5q40 0 63 37.5t23 103.5v67
q0 37 12.5 67t35 51.5t53 33.5t66.5 12q42 0 78.5 -11.5t67.5 -31.5q45 19 91 19q43 0 81 -16.5t65.5 -45t43.5 -66.5t16 -81q0 -38 -13.5 -78t-44.5 -78h219v382h78v-414zM628 216q0 19 -2.5 34t-8 27.5t-14.5 24t-22 24.5q-22 -10 -39 -25.5t-28 -34.5t-17 -39.5t-6 -39.5
q0 -29 14.5 -50t44.5 -21q32 0 54 24t24 76z" />
    <glyph glyph-name="mal_ka_ta" horiz-adv-x="733" 
d="M696 111q0 -24 -8.5 -45.5t-23.5 -38t-35 -26.5t-42 -10q-33 0 -59 17l-5 45q21 -15 37 -15q26 0 47 21t21 63q0 85 -81 85h-37q0 -49 -10.5 -88.5t-29.5 -68t-45.5 -44t-58.5 -15.5q-77 0 -114 75q-29 -75 -92 -75q-25 0 -47 10t-39 27.5t-27 42.5t-10 55
q0 54 32.5 83.5t95.5 29.5h64q0 37 9.5 70.5t26.5 58t41.5 39t54.5 14.5q60 0 99 -48.5t47 -133.5h62q57 0 92 -34t35 -94zM442 207h-183q-1 -4 -1 -7.5v-6.5v-13q0 -66 24.5 -104.5t63.5 -38.5q45 0 70.5 42t25.5 111v17zM442 239q-4 54 -28.5 92t-65.5 38q-38 0 -63.5 -35
t-25.5 -95h183zM229 207h-32q-92 0 -92 -76q0 -18 5 -35t13.5 -30t20.5 -21t26 -8q28 0 43.5 25t15.5 65v80zM467 -234q18 17 30 39.5t12 48.5q0 21 -7.5 40t-20.5 33t-30 22t-36 8q-12 0 -18 -1.5t-11 -3.5q29 -25 41 -53t12 -51q0 -16 -5 -32.5t-14.5 -29.5t-23 -21
t-31.5 -8q-13 0 -25 6.5t-21.5 18.5t-15 28.5t-5.5 35.5q0 29 14.5 56t34.5 44q-7 3 -16.5 3.5t-15.5 0.5q-15 0 -30 -7t-26.5 -19t-19 -27.5t-7.5 -33.5q0 -64 45 -97l-15 -9q-23 19 -37 48t-14 65q0 21 7.5 40.5t21 34.5t32.5 24t43 9q14 0 27.5 -3.5t27.5 -11.5
q17 8 30 11.5t29 3.5q26 0 48 -9t38 -25t25 -37.5t9 -45.5q0 -26 -15.5 -53.5t-43.5 -50.5zM359 -214q20 0 32 18.5t12 44.5t-9.5 47.5t-31.5 41.5q-26 -21 -37.5 -45t-11.5 -47q0 -29 15.5 -44.5t30.5 -15.5z" />
    <glyph glyph-name="mal_chillu_n_rr" horiz-adv-x="733" 
d="M705 -146q0 -87 -91 -148l-22 29q58 52 58 100q0 22 -8 41t-22 33t-32 22.5t-39 8.5q-48 0 -78 -27.5t-30 -67.5q0 -70 66 -119l-14 -22q-88 58 -88 139q0 30 10 56t28 46t44 32.5t59 14.5q-22 2 -41.5 13.5t-34.5 29.5t-23.5 41.5t-8.5 50.5q0 122 108 223q-3 5 -12 9.5
t-21.5 8t-26.5 5.5t-27 2q-39 0 -63.5 -21t-24.5 -52v-302h-78v259q0 48 -21 76t-53 28q-28 0 -53 -13t-44 -35.5t-30.5 -52.5t-11.5 -64q0 -103 110 -183l-26 -24q-29 22 -52 49t-39.5 55.5t-25.5 57t-9 54.5q0 45 15 84t40 68t58 45.5t69 16.5q96 0 133 -70q46 70 126 70
q63 0 103 -22q13 19 13 48q0 14 -5.5 27t-16 23.5t-25 17t-32.5 6.5q-43 0 -79 -40l-23 14q18 35 53 59.5t77 24.5q48 0 73.5 -28t25.5 -76q0 -44 -36 -93q19 -14 35 -36.5t28 -49.5t18.5 -56t6.5 -57q0 -38 -10.5 -71.5t-27.5 -59t-40.5 -41.5t-48.5 -19q30 -1 55 -11.5
t43 -28.5t28.5 -43t10.5 -55zM623 178q0 98 -52 153q-19 -15 -36.5 -37.5t-31 -48t-21.5 -51.5t-8 -48q0 -42 20 -69.5t49 -27.5q34 0 57 36t23 93z" />
    <glyph glyph-name="glyph202" 
d="M188 166q0 -27 -19.5 -47t-47.5 -20q-29 0 -48 20t-19 47q0 28 19 48t48 20q27 0 47 -20t20 -48z" />
    </font>
</defs>
</svg>
